<svg width="60" height="60" viewBox="0 0 60 60" fill="none" xmlns="http://www.w3.org/2000/svg"><g clip-path="url(#a)" fill="#ff6b09"><path d="M50.975 20.694c-.527-9-7.946-16.194-16.891-16.194-5.43 0-10.688 2.663-13.946 7.008-.074-.039-.153-.065-.228-.102a8.621 8.621 0 0 0-.605-.269 8.946 8.946 0 0 0-.961-.317c-.116-.031-.231-.063-.349-.09a8.938 8.938 0 0 0-.683-.124c-.102-.015-.202-.035-.305-.047A9.278 9.278 0 0 0 16 10.5c-4.962 0-9 4.037-9 9 0 .129.007.255.016.381C2.857 22.148 0 26.899 0 31.654 0 38.737 5.762 44.5 12.845 44.5H18a1 1 0 1 0 0-2h-5.155C6.865 42.5 2 37.635 2 31.654c0-4.154 2.705-8.466 6.432-10.253L9 21.13v-.63c0-.123.008-.249.015-.375l.009-.175-.012-.188C9.007 19.675 9 19.588 9 19.5c0-3.859 3.14-7 7-7 .309 0 .614.027.917.067.078.01.155.023.232.036.268.044.532.102.792.177.034.01.069.016.102.026a6.86 6.86 0 0 1 1.043.421A6.995 6.995 0 0 1 23 19.5a1 1 0 1 0 2 0 8.98 8.98 0 0 0-3.2-6.871C24.666 8.879 29.388 6.5 34.084 6.5c7.744 0 14.178 6.135 14.848 13.887-1.022-.072-2.553-.109-4.083.125a1 1 0 1 0 .301 1.977c2.224-.336 4.543-.021 4.684-.002C54.49 23.372 58 27.661 58 32.472 58 38.001 53.501 42.5 47.972 42.5H44a1 1 0 1 0 0 2h3.972C54.604 44.5 60 39.104 60 32.472c0-5.489-3.827-10.412-9.025-11.778z"/><path d="M32.912 54.784v-2.976c1.992-.456 3.696-1.92 3.696-4.392 0-2.664-1.68-3.6-3.672-4.32-1.992-.744-3.192-1.224-3.192-2.808 0-1.176.792-2.232 2.544-2.232.912 0 2.04.24 2.88.576l.456-1.656a8.449 8.449 0 0 0-2.712-.624V33.88h-1.68v2.544c-2.28.312-3.744 2.04-3.744 4.08 0 2.376 1.464 3.336 3.408 4.056 2.16.816 3.456 1.272 3.456 3.144 0 1.464-1.152 2.52-2.832 2.52-1.344 0-2.496-.312-3.6-.792l-.432 1.776c1.2.504 2.448.768 3.744.768v2.808h1.68z"/></g><defs><clipPath id="a"><path fill="#fff" d="M0 0h60v60H0z"/></clipPath></defs></svg>