<svg width="65" height="60" viewBox="0 0 65 60" fill="none" xmlns="http://www.w3.org/2000/svg"><path d="M15.912 35v-1.8H4.68l4.176-3.78c4.104-3.708 5.796-6.3 5.796-9.648S12.6 13.544 8.1 13.544c-1.944 0-3.6.396-5.508 1.08l.252 1.692c2.016-.756 3.672-1.008 5.004-1.008 3.204 0 4.572 2.124 4.572 4.608 0 2.628-.972 4.68-5.652 9l-4.752 4.428V35h13.896zm15.444 4.212V32.84h3.384v-1.8h-3.384V13.904h-3.132l-9.252 17.208v1.728h10.296v6.372h2.088zm-2.088-8.172h-8.172l8.1-15.264h.072V31.04zm7.64 23.108L47.96 21.1l-1.908-.54L35 53.608l1.908.54zm16.536 2.424c1.332-1.98 2.448-4.176 3.204-6.264l6.48-17.568v-1.836H48.98v1.836h11.988l-5.58 15.516c-1.224 3.384-2.376 5.976-3.276 7.56l1.332.756z" fill="#ff6b09"/></svg>