<svg width="63" height="62" viewBox="0 0 63 62" fill="none" xmlns="http://www.w3.org/2000/svg"><path fill-rule="evenodd" clip-rule="evenodd" d="M31.31 38.031A2.629 2.629 0 0 1 30 35.748v-3.381c.229-.28.47-.599.719-.951a22.886 22.886 0 0 0 2.954-5.799A3.968 3.968 0 0 0 36 22v-4c0-.963-.36-1.896-1-2.625v-5.319c.056-.55.276-3.824-2.092-6.525C30.854 1.188 27.521 0 23 0s-7.854 1.188-9.908 3.53C10.724 6.231 10.944 9.506 11 10.056v5.319c-.64.729-1 1.662-1 2.625v4c0 1.217.553 2.352 1.497 3.109.916 3.627 2.833 6.36 3.503 7.237v3.309c0 .968-.528 1.856-1.377 2.32l-8.921 4.866A9.018 9.018 0 0 0 0 50.762V54c0 4.746 15.045 6 23 6a93.89 93.89 0 0 0 9.4-.49l-.195-1.964c-2.65.28-5.725.454-9.205.454-13.588 0-21-2.643-21-4v-3.238a7.016 7.016 0 0 1 3.659-6.164l8.921-4.866A4.644 4.644 0 0 0 17 35.655v-4.019l-.233-.278c-.024-.029-2.475-2.994-3.41-7.065l-.091-.396-.341-.22A1.995 1.995 0 0 1 12 22v-4c0-.561.238-1.084.67-1.475l.33-.297V10l-.009-.131v-.001c-.008-.07-.328-2.816 1.605-5.02C16.253 2.958 19.081 2 23 2c3.905 0 6.727.951 8.386 2.828 1.919 2.169 1.634 4.935 1.623 5.038v.003L33 16.228l.33.298c.432.39.67.913.67 1.474v4c0 .873-.572 1.637-1.422 1.899l-.498.153-.16.495a20.934 20.934 0 0 1-2.834 5.713c-.297.421-.586.794-.837 1.079l-.249.284v4.125c0 1.77.983 3.361 2.566 4.153l.206.103.538-1.973z" fill="#ff6b09"/><path fill-rule="evenodd" clip-rule="evenodd" d="M62 44h-2.05a13.919 13.919 0 0 0-3.381-8.154l1.139-1.139a.999.999 0 1 0-1.414-1.414l-1.139 1.139a13.921 13.921 0 0 0-8.154-3.381V29a1 1 0 1 0-2 0v2.051a13.919 13.919 0 0 0-8.154 3.381l-1.139-1.139a.999.999 0 1 0-1.414 1.414l1.139 1.139A13.921 13.921 0 0 0 32.052 44H30a1 1 0 1 0 0 2h2.051a13.919 13.919 0 0 0 3.381 8.154l-1.139 1.139 1.414 1.415 1.139-1.139A13.921 13.921 0 0 0 45 58.95V61a1 1 0 1 0 2 0v-2.051a13.919 13.919 0 0 0 8.154-3.381l1.198 1.198a.997.997 0 0 0 1.414 0 .999.999 0 0 0 0-1.414l-1.198-1.198A13.921 13.921 0 0 0 59.949 46H62a1 1 0 1 0 0-2zm-28 1c0 6.617 5.383 12 12 12s12-5.383 12-12-5.384-12-12-12-12 5.383-12 12z" fill="#ff6b09"/><path fill-rule="evenodd" clip-rule="evenodd" d="M30 44h2.05a13.919 13.919 0 0 1 3.381-8.154l-1.139-1.139a.999.999 0 1 1 1.414-1.414l1.139 1.139a13.921 13.921 0 0 1 8.154-3.381V29a1 1 0 1 1 2 0v2.051a13.919 13.919 0 0 1 8.154 3.381l1.139-1.139a.999.999 0 1 1 1.414 1.414l-1.139 1.139A13.921 13.921 0 0 1 59.948 44H62a1 1 0 1 1 0 2h-2.051a13.921 13.921 0 0 1-3.381 8.154l1.139 1.139-1.414 1.415-1.139-1.14A13.922 13.922 0 0 1 47 58.95V61a1 1 0 1 1-2 0v-2.051a13.918 13.918 0 0 1-8.154-3.38l-1.198 1.197a.997.997 0 0 1-1.414 0 .999.999 0 0 1 0-1.414l1.198-1.198A13.919 13.919 0 0 1 32.051 46H30a1 1 0 1 1 0-2zm28 1c0 6.617-5.383 12-12 12s-12-5.383-12-12 5.384-12 12-12 12 5.383 12 12z" fill="#ff6b09"/><path d="M46 41c-2.206 0-4 1.794-4 4s1.794 4 4 4 4-1.794 4-4-1.794-4-4-4zm0 6c-1.103 0-2-.897-2-2s.897-2 2-2 2 .897 2 2-.897 2-2 2z" fill="#ff6b09"/></svg>