<svg width="59" height="59" viewBox="0 0 59 59" fill="none" xmlns="http://www.w3.org/2000/svg"><g clip-path="url(#a)" fill="#ff6b09"><path d="M57.863 26.632L29.183 0 .502 26.632a1.001 1.001 0 0 0 1.36 1.466l3.32-3.082v33.349h48v-33.35l3.318 3.082a.995.995 0 0 0 .681.267 1 1 0 0 0 .681-1.732zm-6.68 29.733h-44V23.158l22-20.429 22 20.429v33.207z"/><path d="M13.182 35.365h14v-14h-14v14zm2-12h10v10h-10v-10zm30-2h-14v14h14v-14zm-2 12h-10v-10h10v10zm-30 20h14v-14h-14v14zm2-12h10v10h-10v-10zm30-2h-14v14h14v-14zm-2 12h-10v-10h10v10z"/></g><defs><clipPath id="a"><path fill="#fff" d="M0 0h58.365v58.365H0z"/></clipPath></defs></svg>