<svg width="60" height="60" viewBox="0 0 60 60" fill="none" xmlns="http://www.w3.org/2000/svg"><path d="M10.5 6.5A4.505 4.505 0 0 0 6 11c0 2.481 2.019 4.5 4.5 4.5S15 13.481 15 11s-2.019-4.5-4.5-4.5zm0 7A2.503 2.503 0 0 1 8 11c0-1.379 1.122-2.5 2.5-2.5S13 9.621 13 11s-1.122 2.5-2.5 2.5zm39.5-3a1 1 0 1 0 0-2 1 1 0 0 0 0 2zm-4 0a1 1 0 1 0 0-2 1 1 0 0 0 0 2zm6 3a1 1 0 1 0 0-2 1 1 0 0 0 0 2zm-4 0a1 1 0 1 0 0-2 1 1 0 0 0 0 2zm-6-3a1 1 0 1 0 0-2 1 1 0 0 0 0 2zm2 3a1 1 0 1 0 0-2 1 1 0 0 0 0 2zm-6-3a1 1 0 1 0 0-2 1 1 0 0 0 0 2zm2 3a1 1 0 1 0 0-2 1 1 0 0 0 0 2zm-6-3a1 1 0 1 0 0-2 1 1 0 0 0 0 2zm2 3a1 1 0 1 0 0-2 1 1 0 0 0 0 2z" fill="#ff6b09"/><path d="M60 16.892V5.108A4.613 4.613 0 0 0 55.392.5H4.608A4.613 4.613 0 0 0 0 5.108v11.783c0 1.469.703 2.764 1.777 3.608C.703 21.344 0 22.64 0 24.108v11.783c0 1.469.703 2.764 1.777 3.608C.703 40.344 0 41.64 0 43.108v11.783A4.613 4.613 0 0 0 4.608 59.5h50.783a4.613 4.613 0 0 0 4.608-4.608V43.108c0-1.469-.703-2.764-1.777-3.608C59.297 38.656 60 37.36 60 35.892V24.108c0-1.469-.703-2.764-1.777-3.608C59.297 19.656 60 18.36 60 16.892zm-2 26.216v11.783a2.611 2.611 0 0 1-2.608 2.608H4.608A2.61 2.61 0 0 1 2 54.892V43.108A2.611 2.611 0 0 1 4.608 40.5h50.783A2.611 2.611 0 0 1 58 43.108zm0-19v11.783a2.611 2.611 0 0 1-2.608 2.608H4.608A2.61 2.61 0 0 1 2 35.892V24.108A2.611 2.611 0 0 1 4.608 21.5h50.783A2.611 2.611 0 0 1 58 24.108zM4.608 19.5A2.611 2.611 0 0 1 2 16.892V5.108A2.611 2.611 0 0 1 4.608 2.5h50.783A2.611 2.611 0 0 1 58 5.108v11.783a2.611 2.611 0 0 1-2.608 2.608H4.608v.001z" fill="#ff6b09"/><path d="M10.5 34.5c2.481 0 4.5-2.019 4.5-4.5s-2.019-4.5-4.5-4.5A4.505 4.505 0 0 0 6 30c0 2.481 2.019 4.5 4.5 4.5zm0-7c1.378 0 2.5 1.121 2.5 2.5s-1.122 2.5-2.5 2.5A2.503 2.503 0 0 1 8 30c0-1.379 1.122-2.5 2.5-2.5zm39.5 2a1 1 0 1 0 0-2 1 1 0 0 0 0 2zm-4 0a1 1 0 1 0 0-2 1 1 0 0 0 0 2zm6 3a1 1 0 1 0 0-2 1 1 0 0 0 0 2zm-4 0a1 1 0 1 0 0-2 1 1 0 0 0 0 2zm-6-3a1 1 0 1 0 0-2 1 1 0 0 0 0 2zm2 3a1 1 0 1 0 0-2 1 1 0 0 0 0 2zm-6-3a1 1 0 1 0 0-2 1 1 0 0 0 0 2zm2 3a1 1 0 1 0 0-2 1 1 0 0 0 0 2zm-6-3a1 1 0 1 0 0-2 1 1 0 0 0 0 2zm2 3a1 1 0 1 0 0-2 1 1 0 0 0 0 2zm-25.5 21c2.481 0 4.5-2.019 4.5-4.5s-2.019-4.5-4.5-4.5A4.505 4.505 0 0 0 6 49c0 2.481 2.019 4.5 4.5 4.5zm0-7c1.378 0 2.5 1.121 2.5 2.5s-1.122 2.5-2.5 2.5A2.503 2.503 0 0 1 8 49c0-1.379 1.122-2.5 2.5-2.5zm39.5 2a1 1 0 1 0 0-2 1 1 0 0 0 0 2zm-4 0a1 1 0 1 0 0-2 1 1 0 0 0 0 2zm6 3a1 1 0 1 0 0-2 1 1 0 0 0 0 2zm-4 0a1 1 0 1 0 0-2 1 1 0 0 0 0 2zm-6-3a1 1 0 1 0 0-2 1 1 0 0 0 0 2zm2 3a1 1 0 1 0 0-2 1 1 0 0 0 0 2zm-6-3a1 1 0 1 0 0-2 1 1 0 0 0 0 2zm2 3a1 1 0 1 0 0-2 1 1 0 0 0 0 2zm-6-3a1 1 0 1 0 0-2 1 1 0 0 0 0 2zm2 3a1 1 0 1 0 0-2 1 1 0 0 0 0 2z" fill="#ff6b09"/></svg>