<svg width="66" height="66" viewBox="0 0 66 66" fill="none" xmlns="http://www.w3.org/2000/svg" xmlns:xlink="http://www.w3.org/1999/xlink">
<path d="M33.708.293a1.001 1.001 0 0 0-1.416 0l-4.999 4.999a.999.999 0 1 0 1.414 1.414L32 3.413v20.586a1 1 0 1 0 2 0V3.413l3.293 3.293a.997.997 0 0 0 1.414 0 .999.999 0 0 0 0-1.414l-4.999-5zm0 65.414a1 1 0 0 1-1.416 0l-4.999-4.999a.999.999 0 1 1 1.414-1.414L32 62.587V42.001a1 1 0 1 1 2 0v20.586l3.293-3.293a.997.997 0 0 1 1.414 0 .999.999 0 0 1 0 1.414l-4.999 5zM10.373 9.372a1.001 1.001 0 0 0-1.001 1.001v7.07a.999.999 0 1 0 2 0v-4.657l14.556 14.556a1 1 0 1 0 1.415-1.414L12.786 11.372h4.657a.997.997 0 0 0 1-1 1 1 0 0 0-1-1h-7.07zm46.255 46.255a1.001 1.001 0 0 1-1.001 1.001h-7.07a.999.999 0 1 1 0-2h4.657L38.658 40.072a1 1 0 1 1 1.414-1.414l14.556 14.556v-4.657a.997.997 0 0 1 1-1 1 1 0 0 1 1 1v7.07zm0-45.254a1.001 1.001 0 0 0-1.001-1.001h-7.07a.999.999 0 1 0 0 2h4.657L38.658 25.928a1 1 0 1 0 1.414 1.414l14.556-14.556v4.657a.997.997 0 0 0 1 1 1 1 0 0 0 1-1v-7.07zM10.373 56.628a1 1 0 0 1-1.001-1.001v-7.07a.999.999 0 1 1 2 0v4.657l14.556-14.556a1 1 0 1 1 1.415 1.414L12.786 54.628h4.657a.997.997 0 0 1 1 1 1 1 0 0 1-1 1h-7.07zm55.334-22.92a1.001 1.001 0 0 0 0-1.416l-4.999-4.999a.999.999 0 1 0-1.414 1.414L62.587 32H42.001a1 1 0 1 0 0 2h20.586l-3.293 3.293a.997.997 0 0 0 0 1.414.999.999 0 0 0 1.414 0l5-4.999zm-65.414 0a1.001 1.001 0 0 1 0-1.416l4.999-4.999a.999.999 0 1 1 1.414 1.414L3.413 32h20.586a1 1 0 1 1 0 2H3.413l3.293 3.293a.997.997 0 0 1 0 1.414.999.999 0 0 1-1.414 0l-5-4.999z" fill="#ff6b09"/>
<circle cx="33" cy="33" r="3.25" stroke="#ff6b09" stroke-width="1.5"/>
</svg>