<svg width="44" height="38" viewBox="0 0 44 38" fill="none" xmlns="http://www.w3.org/2000/svg"><path d="M25.12 26.24l.004.013 1.248 4.691.001.005c.19.691.11 1.29-.164 1.762-.272.472-.754.851-1.455 1.054h-.002a23.24 23.24 0 0 1-1.071.283l-.006.002-.124.03c-.48.12-.983.246-1.467.427l-.005.002a.48.48 0 0 0-.014.005l-.014.005c-1.116.339-2.196.21-3.26-.405a7.776 7.776 0 0 1-.298-.185c-1.658-1.106-2.847-2.66-3.738-3.949-2.283-3.36-3.803-7.136-4.52-11.227-.586-3.404-.625-6.262-.153-9.03.194-1.144.557-2.746 1.5-4.108a3.817 3.817 0 0 1 2.202-1.541h.004l2.905-.793h.002l.007-.002c.677-.165 1.268-.08 1.735.189.467.27.825.732 1.004 1.389l.004.012.003.013c.157.504.294 1.027.423 1.545.065.277.14.557.21.816l.001.006.624 2.327c.197.736.107 1.341-.154 1.793-.26.452-.74.832-1.476 1.03-.122.032-.245.066-.364.1h-.002l-.353.097-.005.001-.183.05c-.579.16-1.153.319-1.745.45l-.53.117-.055.54c-.099.998-.054 2.043.135 3.329l.001.01c.416 2.586 1.128 4.829 2.184 6.851l.004.007c.117.218.264.44.395.64l.006.01.103.159c.061.095.12.185.18.283l.293.474.538-.143 2.691-.717h.001c.702-.188 1.295-.11 1.76.16.469.27.823.741.99 1.422z" stroke="#ff6b09" stroke-width="1.5"/><path d="M33.955 20v-.9h-5.616l2.088-1.89c2.052-1.854 2.898-3.15 2.898-4.824s-1.026-3.114-3.276-3.114c-.972 0-1.8.198-2.754.54l.126.846c1.008-.378 1.836-.504 2.502-.504 1.602 0 2.286 1.062 2.286 2.304 0 1.314-.486 2.34-2.826 4.5l-2.376 2.214V20h6.948zm7.722 2.106V18.92h1.692v-.9h-1.692V9.452h-1.566l-4.626 8.604v.864h5.148v3.186h1.044zm-1.044-4.086h-4.086l4.05-7.632h.036v7.632z" fill="#ff6b09"/></svg>