<svg width="42" height="42" viewBox="0 0 42 42" fill="none" xmlns="http://www.w3.org/2000/svg"><path d="M38.862 32.585l-6.841-2.963c-.161-.08-.34-.277-.493-.54l4.568-.003c.08.007 1.962.18 3.472-.47a2.057 2.057 0 0 0 1.169-1.334 2.077 2.077 0 0 0-.299-1.766c-1.305-1.858-4.352-6.713-4.448-11.636-.002-.085-.277-8.458-8.547-8.526a9.835 9.835 0 0 0-3.367.597 5.821 5.821 0 0 0-1.041-1.722c-1.437-1.64-3.77-2.472-6.935-2.472-3.165 0-5.498.832-6.936 2.471C7.507 6.111 7.661 8.404 7.7 8.789v3.723a2.79 2.79 0 0 0-.7 1.837v2.8c0 .852.387 1.647 1.048 2.177.641 2.538 1.983 4.452 2.452 5.066v2.316c0 .677-.37 1.299-.964 1.624l-6.245 3.406A6.314 6.314 0 0 0 0 37.283v2.967h42v-2.588a5.646 5.646 0 0 0-3.138-5.077zM30.8 38.85H1.4v-1.567c0-1.8.981-3.453 2.561-4.314l6.245-3.407a3.25 3.25 0 0 0 1.694-2.854v-2.813l-.163-.194c-.017-.02-1.733-2.096-2.387-4.946l-.064-.277-.239-.154A1.397 1.397 0 0 1 8.4 17.15v-2.8c0-.393.167-.759.469-1.032l.231-.208V8.75l-.006-.092c-.002-.019-.24-1.959 1.123-3.514 1.16-1.323 3.14-1.994 5.883-1.994 2.733 0 4.709.666 5.87 1.98a4.548 4.548 0 0 1 1.045 2.152l.028.147.024.158.015.11a5.214 5.214 0 0 1 .038.677v.021c-.003.165-.014.263-.014.265l-.006 4.45.231.208c.302.273.469.64.469 1.032v2.8c0 .611-.4 1.146-.995 1.33l-.349.106-.112.347a14.654 14.654 0 0 1-1.984 3.999 9.21 9.21 0 0 1-.586.755l-.174.2v2.887c0 .177.017.35.045.521.005.036.015.071.022.108a3.284 3.284 0 0 0 .142.506c.055.146.119.288.193.424l.024.046c.102.18.219.35.353.506l.16.197h.027c.24.237.516.443.83.6l6.687 3.343A4.885 4.885 0 0 1 30.8 37.42v1.43zm9.8 0h-8.4v-1.43a6.28 6.28 0 0 0-3.49-5.648l-4.8-2.4c.117-.27.133-.58.03-.878a1.194 1.194 0 0 0-1.142-.813h-1.552c-.032-.056-.053-.119-.079-.179-.035-.08-.076-.16-.1-.244a1.827 1.827 0 0 1-.067-.484v-2.367c.16-.196.329-.42.503-.666a16.02 16.02 0 0 0 2.068-4.06A2.777 2.777 0 0 0 25.2 17.15v-2.8c0-.674-.252-1.327-.7-1.838V8.79a6.159 6.159 0 0 0-.059-1.497c.902-.354 1.912-.537 3.003-.546 6.889.057 7.14 6.868 7.147 7.155.103 5.308 3.322 10.448 4.702 12.412a.68.68 0 0 1-.277 1.01c-1.176.505-2.771.362-2.853.358h-4.818c-.45 0-.86.23-1.098.612a1.276 1.276 0 0 0-.06 1.248c.219.442.606 1.032 1.242 1.35l6.823 2.955a4.252 4.252 0 0 1 2.348 3.816v1.188z" fill="#ff6b09"/></svg>