<svg width="16" height="32" viewBox="0 0 16 32" fill="none" xmlns="http://www.w3.org/2000/svg"><path d="M8 28a1 1 0 0 0-1 1v2a1 1 0 1 0 2 0v-2a1 1 0 0 0-1-1zM8.113.001L7.998 0a7.938 7.938 0 0 0-5.615 2.304A7.944 7.944 0 0 0 0 8a1 1 0 1 0 2 0c0-1.618.635-3.136 1.787-4.272C4.94 2.591 6.475 1.963 8.086 2.001c3.161.044 5.869 2.752 5.913 5.913a5.973 5.973 0 0 1-2.751 5.132C8.588 14.762 7 17.794 7 21.158V24a1 1 0 1 0 2 0v-2.842c0-2.642 1.276-5.105 3.332-6.432a7.96 7.96 0 0 0 3.667-6.84C15.939 3.599 12.401.061 8.113.001z" fill="#ff6b09"/></svg>