<svg width="20" height="20" viewBox="0 0 20 20" fill="none" xmlns="http://www.w3.org/2000/svg">
<g clip-path="url(#clip0)">
<path d="M13.2576 10.1027L20.0001 14.3652V5.66016L13.2576 10.1027Z" fill="#E0E0E0"/>
<path d="M0 5.66016V14.3652L6.7425 10.1027L0 5.66016Z" fill="#E0E0E0"/>
<path d="M18.7501 3.125H1.2501C0.626348 3.125 0.131348 3.59 0.0375977 4.18875L10.0001 10.7525L19.9626 4.18875C19.8688 3.59 19.3738 3.125 18.7501 3.125Z" fill="#E0E0E0"/>
<path d="M12.1125 10.8577L10.3438 12.0227C10.2388 12.0914 10.12 12.1252 10 12.1252C9.88004 12.1252 9.76129 12.0914 9.65629 12.0227L7.88754 10.8564L0.0400391 15.8202C0.136289 16.4139 0.628789 16.8752 1.25004 16.8752H18.75C19.3713 16.8752 19.8638 16.4139 19.96 15.8202L12.1125 10.8577Z" fill="#E0E0E0"/>
</g>
<defs>
<clipPath id="clip0">
<rect width="20" height="20" fill="white"/>
</clipPath>
</defs>
</svg>
