<svg width="30" height="30" viewBox="0 0 30 30" fill="none" xmlns="http://www.w3.org/2000/svg">
<g clip-path="url(#clip0)">
<path d="M25.9581 0H4.04354C1.81094 0 0.000976562 1.80989 0.000976562 4.04256V25.9573C0.000976562 28.19 1.81086 29.9999 4.04354 29.9999H14.8517L14.8701 19.2795H12.085C11.723 19.2795 11.4293 18.9869 11.4279 18.6249L11.4145 15.1693C11.4131 14.8054 11.7078 14.5096 12.0717 14.5096H14.8518V11.1706C14.8518 7.29576 17.2183 5.18587 20.6749 5.18587H23.5114C23.8743 5.18587 24.1686 5.48008 24.1686 5.84305V8.75684C24.1686 9.11967 23.8745 9.4138 23.5117 9.41402L21.7711 9.41483C19.8912 9.41483 19.5272 10.3081 19.5272 11.619V14.5097H23.6579C24.0514 14.5097 24.3568 14.8534 24.3104 15.2442L23.9008 18.6998C23.8617 19.0305 23.5812 19.2797 23.2483 19.2797H19.5457L19.5272 30H25.9583C28.1909 30 30.0008 28.1901 30.0008 25.9575V4.04256C30.0007 1.80989 28.1908 0 25.9581 0Z" fill="#E0E0E0"/>
</g>
<defs>
<clipPath id="clip0">
<rect width="30" height="30" fill="white"/>
</clipPath>
</defs>
</svg>
