<?xml version="1.0" encoding="UTF-8"?>
<!DOCTYPE svg PUBLIC "-//W3C//DTD SVG 1.1//EN" "http://www.w3.org/Graphics/SVG/1.1/DTD/svg11.dtd">
<!-- Creator: CorelDRAW 2020 (64-Bit) -->
<svg xmlns="http://www.w3.org/2000/svg" xml:space="preserve" width="30px" height="30px" version="1.1" style="shape-rendering:geometricPrecision; text-rendering:geometricPrecision; image-rendering:optimizeQuality; fill-rule:evenodd; clip-rule:evenodd"
viewBox="0 0 30 30"
 xmlns:xlink="http://www.w3.org/1999/xlink"
 xmlns:xodm="http://www.corel.com/coreldraw/odm/2003">
 <defs>
  <style type="text/css">
   <![CDATA[
    .fil0 {fill:#164461}
   ]]>
  </style>
 </defs>
 <g id="Слой_x0020_1">
  <metadata id="CorelCorpID_0Corel-Layer"/>
  <path class="fil0" d="M0 0l30 0 0 30 -30 0 0 -30zm17.52 7.63c-6.36,1.6 -11.52,4.62 -14.41,10.04l4.1 -0.91c0.36,-0.08 -4.99,8.52 -5.6,11.13 5.48,-1.81 7.52,-4.03 9.27,-5.1l-1.13 5.1c7.16,-4.38 10.38,-10.74 11.63,-16.51 -1.82,-1.74 -2.04,-2.02 -3.86,-3.75zm-0.12 -3.47c1.66,3.07 4.51,5.61 8.08,7.81l2.89 -6.81 -4.22 -3.91 -6.75 2.91z"/>
 </g>
</svg>
