<?xml version="1.0" encoding="UTF-8" standalone="no"?>
<svg
   xmlns:dc="http://purl.org/dc/elements/1.1/"
   xmlns:cc="http://creativecommons.org/ns#"
   xmlns:rdf="http://www.w3.org/1999/02/22-rdf-syntax-ns#"
   xmlns:svg="http://www.w3.org/2000/svg"
   xmlns="http://www.w3.org/2000/svg"
   xmlns:xlink="http://www.w3.org/1999/xlink"
   xmlns:sodipodi="http://sodipodi.sourceforge.net/DTD/sodipodi-0.dtd"
   xmlns:inkscape="http://www.inkscape.org/namespaces/inkscape"
   width="173"
   height="179"
   viewBox="0 0 173 179"
   version="1.1"
   id="svg1386"
   sodipodi:docname="filter-list-4-dark.svg"
   inkscape:version="0.92.1 r15371">
  <metadata
     id="metadata1390">
    <rdf:RDF>
      <cc:Work
         rdf:about="">
        <dc:format>image/svg+xml</dc:format>
        <dc:type
           rdf:resource="http://purl.org/dc/dcmitype/StillImage" />
        <dc:title>бух-2</dc:title>
      </cc:Work>
    </rdf:RDF>
  </metadata>
  <sodipodi:namedview
     pagecolor="#ffffff"
     bordercolor="#666666"
     borderopacity="1"
     objecttolerance="10"
     gridtolerance="10"
     guidetolerance="10"
     inkscape:pageopacity="0"
     inkscape:pageshadow="2"
     inkscape:window-width="1920"
     inkscape:window-height="1017"
     id="namedview1388"
     showgrid="false"
     inkscape:zoom="3.7290994"
     inkscape:cx="4.9807223"
     inkscape:cy="69.554005"
     inkscape:window-x="-8"
     inkscape:window-y="-8"
     inkscape:window-maximized="1"
     inkscape:current-layer="svg1386" />
  <title
     id="title1260">бух-2</title>
  <defs
     id="defs1263">
    <path
       id="a"
       d="M.281.012h23.185v52.11H.281z" />
  </defs>
  <g
     fill="none"
     fill-rule="evenodd"
     id="g1384">
    <path
       d="M48.258 137.577L65.23 127.8a.628.628 0 0 1 .933.448l-.025 5.186c-.005 1.178.175 2.098.971 2.584-.12.172-1.516-.28-1.705-.171l-16.644 9.451-.502-7.721zm6.832 12.064l17.033-9.746a.65.65 0 0 1 .974.56v4.885c-.03 1.745-.09 2.01.81 2.665L58.583 158.98l-1.098-.633c-1.728-.5-1.724-1.752-1.724-2.98l-.671-5.725z"
       fill="#B0E9FF"
       id="path1265" />
    <path
       fill="#A2ADDD"
       d="M85.256 61.76l14.29 7.905 36.405 21.01 5.714 23.65-56.361-32.437z"
       id="path1267" />
    <path
       d="M85.288 81.889l-53.194 30.483-3.6-17.785 16.597-7.346-.033-.68c.016-1.458.431-1.802 1.238-2.268l.013-.008 38.938-22.517.04 20.12z"
       fill="#B0E9FF"
       id="path1269" />
    <path
       d="M143.26 126.752c-.617.281-.575.963-.575.963l.02 5.33c-.002.509-.274 1.069-1.07 1.363a3.257 3.257 0 0 1-.661-.375l-14.063-7.827c-.099-.056-.65.104-.705.01.41-.192.398-.512.385-1.718v-7.286c0-.49.538.366.96.619l14.825 8.848c.318.06.498.048.883.073"
       fill="#A2ADDD"
       id="path1271" />
    <path
       d="M135.708 138.906c-.616.28.309 1.38.309 1.38l-.334 5.087c-.003.509 0 1.29-.797 1.584-.162-.068-2.046-1.218-2.285-1.397L121.12 139c-.098-.056-1.41.23-1.465.136.411-.192 1.159-.637 1.146-1.844v-7.285c0-.491.537.365.96.618l12.354 7.386c.318.061 1.207.87 1.592.895"
       fill="#391E66"
       id="path1273" />
    <path
       d="M0 107.953c.025 1.074 1.772 1.687 3.822 2.856 11.187 5.831 43.696 25.231 43.696 25.231a2.837 2.837 0 0 1 1.433 2.549l-.131 4.307a4.02 4.02 0 0 0 2.013 3.604s1.99 1.111 2.921 1.608c.96.51 2.209 1.738 2.003 3.987l.052 3.126c-.052 1.884 1.49 2.548 2.362 3.11 0 0 23.68 13.992 26.762 15.713 1.509.812 2.228.767 2.228.767l.024 3.883s-.231.048-.754-.051c-.36-.069-.528-.183-.528-.183L1.688 129.966a3.286 3.286 0 0 1-1.649-2.843L.026 112.99S0 109.027 0 107.953"
       fill="#A2ADDD"
       id="path1275" />
    <path
       d="M106.316 82.088l17.16-10.037.069 8.367-17.229 9.715v-8.045zm12.115-13.473l-2.627.82-.218-.57-16.27 9.217.19-8.4 17.487-10.243-.057 6.086c-.071 2.477.314 2.425 1.495 3.09z"
       fill="#B0E9FF"
       id="path1277" />
    <path
       d="M38.614 97.397c-.295.447-.334 1.017-.343 1.37-.042 1.62 0 6.48 0 6.48l-17.337-9.832v-8.18l16.772 9.643.908.519zm6.785-12.37c-.103.408-.106 1.09-.106 1.09l-.016 5.248-.006 1.831-16.62-9.494-.032-8.416 15.702 9.22s.667.384 1.078.52zm99.119 43.143l-.702 8.657-16.644-9.452c-.19-.107-1.384-.591-1.506-.763.796-.486.976-1.406.972-2.584l-.025-5.186.003-.017a.626.626 0 0 1 .93-.431l16.972 9.777zm-6.078 11.656l-.672 5.725c0 1.228.003 2.48-1.724 2.98l-1.098.633-15.444-9.951c.9-.656.84-.92.81-2.665l.12-5.907a.65.65 0 0 1 .975-.56l17.032 9.745z"
       fill="#A2ADDD"
       id="path1279" />
    <path
       d="M45.279 90.752c.103 2.913-1.413 3.245-1.72 3.45l.204.741 2.415-1.073s.282-1.764.282-1.866c0-.102-.59-1.15-.59-1.15l-.591-.102z"
       fill="#B0E9FF"
       id="path1281" />
    <path
       d="M85.55 62.193c-.206-.069-.822-.17-2.106.596-.24-.221-.12-.46-.12-.46l.667-.477s.651-.239.77-.256c.12-.017.891.137.891.137l-.102.46z"
       fill="#FFF"
       id="path1283" />
    <path
       d="M65.482 135.813c.292-.128.6-.332.96-.537.18.307.23.41.719.742l5.06 2.812c.216.121.898.51.873 1.533-.005.174-.693-.63-.867-.53l-16.88 9.706-6.218-4.01a3.549 3.549 0 0 1-.102-.37l16.455-9.346zm69.867 11.247c.744.322-.026 1.022-2.596 1.978-1.548.883-32.315 18.39-43.965 25.519a3.187 3.187 0 0 1-3.247.046c-7.65-4.376-27.176-15.759-27.176-15.759-.637-.365-1.7-.854-2.094-1.705.309-.137 16.66-9.517 17.002-9.773.18.332.402.486.68.646l12.264 7.037a1.72 1.72 0 0 0 1.713 0l31.7-15.913c.53-.304 1.5-.25 2.03.051l13.689 7.873zm36.843-38.846c.672.761.671 1.416-.002 1.965a40573.647 40573.647 0 0 0-29.031 16.654.758.758 0 0 1-.838.071c-2.61-1.482-15.164-8.723-15.164-8.723a1.132 1.132 0 0 1 0-1.965l10.56-6.077a1.132 1.132 0 0 0 0-1.964l-29.673-17.061c-1.156-.712-1.606-1.068-1.35-1.068.175-.09.626-.39 1.355-.9l15.46-9.032c.352-.2.456.304.978.614l47.705 27.486zm-55.53-49.334c.52.513.52.93 0 1.25l-16.358 9.323a1.598 1.598 0 0 1-1.589.002l-12.162-6.943a2.603 2.603 0 0 0-2.614.016c-10.585 6.217-37.67 22.26-37.67 22.26-.678.335-.58.733-.806.603l-16.501-9.468c-.481-.278-.48-1.127 0-1.406l55.823-32.418a.728.728 0 0 1 .727-.003l31.15 16.784zm-10.975 23.247l-6.115-3.533a.419.419 0 0 1 .004-.728s17.662-9.965 17.736-9.964c.07.001 5.959 3.757 5.959 3.757a.42.42 0 0 1 .003.73l-17.153 9.838c-.13.074-.304-.025-.434-.1zm-71.312 26.838l30.551 17.468c.218.12 1.284.639 1.208 1.942-.01.174-.7-.33-.874-.23l-16.754 9.279L.688 109.42c-.816-.548-.917-1.892.02-2.429l19.554-11.207c.451-.273.686-.648.704-1.124l17.29 10.252-3.883 2.583a.846.846 0 0 0 .002 1.469zm10.88-15.766l-5.337 3.06s-.506.258-.854.576c-.308.28-.568.908-.568.908L21.069 87.662c-.049-.2-.049-.332 0-.398.05-.065.26-.218.631-.458l6.585-3.526 16.97 9.919zm96.921 42.25l-6.664 4.156-14.564-8.351a1.201 1.201 0 0 1 .013-2.092l4.508-2.518a1.215 1.215 0 0 1 1.183-.001l15.524 8.806z"
       fill="#FFF"
       id="path1285" />
    <path
       d="M143.334 126.516c-.786.515-.987.842-1.09 2.299v5.383c.028.9.016.978-1.152 1.653 0 0-3.952 2.505-4.882 3.002-.96.511-1.107 1.072-1.107 2.263l-.051 5.264c.034.8-.196 1.377-.691 1.729-9.95 5.554-17.383 9.744-22.297 12.57-4.914 2.825-12.809 7.447-23.683 13.867-.309.146-.54.235-.695.266a2.11 2.11 0 0 1-.631 0l.047 4.13c.356.025.598.025.725 0 .355-.071.533-.252.56-.267l83.637-48.587c.57-.362.822-.784.758-1.265l-.039-19.77a7.95 7.95 0 0 1-1.54 1.423c-10.701 6.01-27.869 16.04-27.869 16.04zM38.259 103.054c-.017.852.36 1.756-1.13 2.454l.154.409 1.25-.477s.548-.801.548-.87c0-.067-.069-.987-.069-.987l-.377-.24-.376-.289z"
       fill="#B0E9FF"
       id="path1287" />
    <path
       d="M106.2 88.334c0 1.052.525 2.117 1.391 2.613.866.495-1.045.754-2.473.1-1.553-.71-3.194-2.318-.666-2.229 1.165-1.024 1.748-1.185 1.748-.484zM99.448 76.41c0 1.052.173 2.281 1.039 2.777.865.496-.927.653-2.354 0-1.553-.71-3.195-2.319-.667-2.23 1.321-1.066 1.982-1.248 1.982-.547z"
       fill="#A2ADDD"
       id="path1289" />
    <path
       d="M108.296 116.016c0 6.528-9.203 11.819-20.556 11.819-11.354 0-20.557-5.291-20.557-11.819 0-.72-.19-3.673.024-4.357 1.73-5.521 10.432-7.462 20.533-7.462 9.87 0 18.546 1.609 20.532 6.943.299.8.024 4.024.024 4.876"
       fill="#909E4F"
       id="path1291" />
    <path
       d="M108.296 111.597c0 6.528-9.203 11.82-20.556 11.82-11.354 0-20.557-5.292-20.557-11.82 0-6.527 9.203-11.818 20.557-11.818 11.353 0 20.556 5.291 20.556 11.818"
       fill="#E5EA2D"
       id="path1293" />
    <path
       d="M108.192 108.65c0 6.527-9.204 11.818-20.557 11.818-11.354 0-20.557-5.291-20.557-11.819 0-.72-.19-3.673.024-4.358 1.73-5.52 10.433-7.46 20.533-7.46 9.87 0 18.547 1.608 20.533 6.941.297.802.024 4.025.024 4.877"
       fill="#909E4F"
       id="path1295" />
    <path
       d="M108.192 104.23c0 6.528-9.204 11.82-20.557 11.82-11.354 0-20.557-5.292-20.557-11.82 0-6.527 9.203-11.819 20.557-11.819 11.353 0 20.557 5.292 20.557 11.82"
       fill="#E5EA2D"
       id="path1297" />
    <path
       d="M108.296 100.1c0 6.527-9.203 11.818-20.556 11.818-11.354 0-20.557-5.291-20.557-11.819 0-.72-.19-3.673.024-4.357 1.73-5.521 10.432-7.462 20.533-7.462 9.87 0 18.546 1.609 20.532 6.942.299.802.024 4.025.024 4.877"
       fill="#909E4F"
       id="path1299" />
    <path
       d="M108.296 95.68c0 6.528-9.203 11.819-20.556 11.819-11.354 0-20.557-5.291-20.557-11.819 0-6.527 9.203-11.819 20.557-11.819 11.353 0 20.556 5.292 20.556 11.82"
       fill="#E5EA2D"
       id="path1301" />
    <path
       d="M108.296 92.238c0 6.527-9.203 11.819-20.556 11.819-11.354 0-20.557-5.292-20.557-11.82 0-.72-.19-3.673.024-4.357 1.73-5.52 10.432-7.461 20.533-7.461 9.87 0 18.546 1.608 20.532 6.942.299.802.024 4.024.024 4.877"
       fill="#909E4F"
       id="path1303" />
    <path
       d="M108.296 87.819c0 6.527-9.203 11.819-20.556 11.819-11.354 0-20.557-5.292-20.557-11.82C67.183 81.292 76.386 76 87.74 76c11.353 0 20.556 5.291 20.556 11.819"
       fill="#E5EA2D"
       id="path1305" />
    <path
       d="M103.965 87.819c0 4.522-7.265 8.187-16.226 8.187-8.96 0-16.225-3.665-16.225-8.187 0-4.522 7.264-8.187 16.225-8.187 8.961 0 16.226 3.665 16.226 8.187"
       fill="#909E4F"
       id="path1307" />
    <path
       d="M79.791 87.659c-.597-.991-.702-1.775-.31-2.33.388-.554 1.261-.862 2.593-.917.036-.001.453.574 1.253 1.726.05.084-1.226.289-1.421.525-.197.237.8 1.866 1.337 2.166.532.297 1.05.438 1.58.43.457-.006.769-.11.956-.32.13-.146.263-.945.402-2.398.029-.687 1.012-2.129 2.584-2.12 1.138.007 4.515.908 5.935 3.355.489.841.39 1.947.25 2.186-.324.556-2.454.921-2.505.837l-.944-1.568c-.049-.08.902-.314 1.04-.559.138-.247-.782-1.755-1.25-2.015-.46-.257-2.008-.254-2.182-.025-.123.163-.242.815-.357 1.959-.06.908-.31 1.56-.74 1.943-.437.389-1.138.593-2.079.606-.597.008-2.202-.266-3.478-.982-1.335-.75-2.336-1.955-2.664-2.5zm17.182-.284l3.15-.045c.361-.004.786.208.947.476.161.266-.003.488-.365.493l-3.149.044c-.363.005-.788-.207-.948-.475-.162-.267.003-.488.365-.493zm-22.68.808c-.16-.267.004-.488.366-.493l3.15-.045c.361-.005.786.208.947.475.16.267-.003.488-.365.493l-3.149.045c-.363.005-.787-.208-.948-.475z"
       fill="#E5EA2D"
       id="path1309" />
    <path
       d="M100.75 96.883v28.226c-3.833 1.749-8.655 2.757-13.193 2.757-9.638 0-20.557-5.913-20.557-11.076 0-.123.005-.246.016-.37l-.016-.001V87.886c.063 6.496 9.242 11.752 20.557 11.752 5.022 0 9.623-1.036 13.193-2.755z"
       fill="#5C623F"
       opacity=".3"
       id="path1311" />
    <path
       d="M151.477 114.418c-8.531 0-14.477-3.96-14.477-7.512 0-3.554 5.946-7.513 14.477-7.513 8.532 0 14.477 3.96 14.477 7.513s-5.945 7.512-14.477 7.512"
       fill="#C8D9FC"
       id="path1313" />
    <path
       d="M165.97 83.59l.014-.006v.315a4.333 4.333 0 0 1 0 .094v22.644c0 4.041-5.65 7.317-12.618 7.317s-12.617-3.276-12.617-7.317V83.946c0-4.041 5.65-7.317 12.617-7.317 6.763 0 12.284 3.086 12.603 6.962z"
       fill="#EC1944"
       id="path1315" />
    <path
       d="M153.366 89.661c-6.49 0-11.014-3.012-11.014-5.715s4.523-5.715 11.014-5.715c6.49 0 11.014 3.012 11.014 5.715s-4.523 5.715-11.014 5.715"
       fill="#FFF"
       id="path1317" />
    <path
       d="M143.213 86.044c1.466-2.08 5.323-3.902 10.37-3.902 4.815 0 8.547 1.657 10.154 3.617-1.467 2.081-5.324 3.903-10.371 3.903-4.815 0-8.547-1.658-10.153-3.618z"
       fill="#562B79"
       id="path1319" />
    <path
       d="M170.348 98.3c-.564-2.498-2.322-4.542-4.822-5.607a65.19 65.19 0 0 1-3.054-1.388 1.458 1.458 0 0 0-1.915.659 1.432 1.432 0 0 0 .66 1.913c1.003.489 2.045.963 3.186 1.449 1.643.7 2.791 2.013 3.152 3.605.367 1.63-.692 3.718-1.886 4.718-.64.537-1.109.694-1.67.593-1.114-.202-1.725-.352-2.181-.535a1.456 1.456 0 0 0-1.862.797 1.42 1.42 0 0 0 .014 1.095c.15.352.429.623.784.765.657.263 1.398.45 2.734.693.276.05.55.076.819.076 1.118 0 2.166-.423 3.203-1.292 1.852-1.55 3.475-4.72 2.838-7.54"
       fill="#B0E9FF"
       id="path1321" />
    <path
       d="M146.401 95.597v-3.643c0-1.324.788-2.815 1.794-3.395l1.808-1.043a.32.32 0 0 1 .016-.01c.494-.285.986-.316 1.386-.085.458.264.722.845.722 1.593v.308a.315.315 0 0 1-.63 0v-.308c0-.51-.152-.901-.407-1.049-.245-.14-.536-.038-.742.078a.32.32 0 0 1-.014.009l-1.825 1.053c-.801.461-1.478 1.766-1.478 2.849v4.006l2.077 1.198c.327.189.592.695.592 1.13v6.795c0 .436-.265.636-.592.447l-4.535-2.616c-.327-.188-.592-.695-.592-1.13V94.99c0-.436.265-.636.592-.447l1.828 1.054z"
       fill="#E5EA2D"
       id="path1323" />
    <path
       d="M18.5 114c-7.366 0-12.5-3.426-12.5-6.5s5.134-6.5 12.5-6.5 12.5 3.426 12.5 6.5-5.134 6.5-12.5 6.5"
       fill="#C8D9FC"
       id="path1325" />
    <path
       d="M35 83.472C35 78.388 28.18 74 23.01 74h-2.927C14.91 74 8 79.11 8 84.194c0 0 2.88 22.484 2.88 22.771 0 3.333 4.735 6.035 10.574 6.035 5.84 0 10.573-2.702 10.573-6.035 0-.166 2.973-23.493 2.973-23.493"
       fill="#B0E9FF"
       id="path1327" />
    <path
       d="M21.026 70h-.051C13.907 70 7.935 72.7 6 76.407c.279 1.492.751 4.036 1.22 6.392.085.43.315.814.645 1.106C10.654 86.37 15.484 88 20.975 88h.051c5.49 0 10.32-1.63 13.11-4.095.33-.292.56-.676.645-1.106.468-2.356.94-4.9 1.219-6.392C34.066 72.7 28.094 70 21.026 70"
       fill="#391E66"
       id="path1329" />
    <path
       d="M36 75.178C36 80.05 29.284 84 21 84c-8.284 0-15-3.95-15-8.822 0-1.938 2.25-6.295 3.465-8.755 1.56-3.162 6.546-.068 11.535-.068 4.959 0 9.793-2.879 11.536.17C33.649 68.474 36 73.222 36 75.178"
       fill="#E5EA2D"
       id="path1331" />
    <path
       d="M34 69c0 3.866-5.597 7-12.5 7C14.596 76 9 72.866 9 69s5.596-7 12.5-7c6.903 0 12.5 3.134 12.5 7"
       fill="#391E66"
       id="path1333" />
    <path
       d="M21.5 75C15.312 75 11 71.838 11 69s4.312-6 10.5-6S32 66.162 32 69s-4.312 6-10.5 6"
       fill="#B0E9FF"
       id="path1335" />
    <path
       d="M13.5 70c-.884 0-1.5-.527-1.5-1s.616-1 1.5-1 1.5.527 1.5 1-.616 1-1.5 1m18.23 22.247l-1.777 13.944c-.624.31-1.3.587-2.019.825l1.226-13.47c.946-.373 1.809-.81 2.57-1.3zm.643-.445A9.054 9.054 0 0 0 34 90.276c-.63 4.947-1.447 11.36-1.842 14.506a11.02 11.02 0 0 1-1.575 1.074l1.79-14.054zm-3.819 1.968l-1.222 13.433a19.11 19.11 0 0 1-1.932.453l.721-13.213a19.178 19.178 0 0 0 2.433-.673zm-3.023.787l-.72 13.197a21.81 21.81 0 0 1-1.893.201l.238-13.11c.816-.054 1.61-.151 2.375-.288zm-2.958.318l-.239 13.11a23.245 23.245 0 0 1-1.881-.007l-.239-13.131a24.186 24.186 0 0 0 2.359.028zm-2.943-.071l.24 13.142a21.751 21.751 0 0 1-1.894-.21l-.724-13.264c.764.15 1.56.261 2.378.332zm-2.969-.456l.725 13.286a18.403 18.403 0 0 1-1.935-.469L14.22 93.627a18.88 18.88 0 0 0 2.441.72zm-3.048-.961l1.236 13.584a14.232 14.232 0 0 1-2.026-.872l-1.8-14.126a13.36 13.36 0 0 0 2.59 1.414zm-3.24-1.916l1.817 14.268a9.964 9.964 0 0 1-1.31-.945C10.477 101.557 9.621 94.855 9 90a7.78 7.78 0 0 0 1.372 1.47z"
       fill="#391E66"
       id="path1337" />
    <path
       d="M57.404.157a1.186 1.186 0 0 1 1.518.296l2.18 1.205-21.135 51.883-3.151-1.904-.002-.019A2.139 2.139 0 0 1 36 49.93V13.614c0-.779.42-1.498 1.1-1.885L57.403.157z"
       fill="#562B79"
       id="path1339" />
    <g
       transform="translate(38.364 1.562)"
       id="g1346">
      <mask
         id="b"
         fill="#fff">
        <use
           xlink:href="#a"
           id="use1341" />
      </mask>
      <path
         d="M22.245 41.183a2.413 2.413 0 0 0 1.221-2.095V1.195c0-.908-.988-1.476-1.78-1.024L1.38 11.742a2.172 2.172 0 0 0-1.099 1.886v36.316c0 1.044.71 1.846 1.601 2.096.534.15 1.132.102 1.68-.21l18.683-10.647z"
         fill="#B0E9FF"
         mask="url(#b)"
         id="path1344" />
    </g>
    <path
       d="M58.622 37.076c.556-.317.899-.906.899-1.542V6.596a.875.875 0 0 0-1.311-.754l-15.697 8.966c-.501.285-.81.814-.81 1.388v27.776c0 .77.524 1.359 1.179 1.543a1.6 1.6 0 0 0 1.236-.155l14.504-8.284z"
       fill="#391E66"
       id="path1348" />
    <path
       d="M46.657 24.006a.427.427 0 0 1 .179-.044c.128 0 .216.081.216.223v8.09l-.789.46v-7.448c0-.104-.092-.145-.205-.093l-2.777 1.481v-.726l3.33-1.921c.007-.004.015-.005.023-.009.008-.004.015-.01.023-.013zm-1.295 2.163a.424.424 0 0 1 .178-.044c.129 0 .216.082.216.223v6.715l-.788.46v-6.274c0-.094-.083-.131-.184-.084l-1.503.855v-.726l2.081-1.125zm5.993-1.674c.428-.227.824-.327 1.166-.327.735 0 1.221.462 1.24 1.124l-.677.316c-.003-.704-.747-.835-1.499-.45-.665.34-1.208 1.183-1.26 1.836-.03.356-.01.784.238 1.064a.461.461 0 0 0 .207.136c.193.06.365.018.53-.05.074-.03.147-.066.22-.1.245-.114.487-.233.727-.356.482-.244.956-.502 1.432-.757a150.523 150.523 0 0 0 4.41-2.467l.005.736-6.442 3.578a.255.255 0 0 1-.035.014c-1.217.551-2.149-.475-2.005-1.732.11-.96.758-2.044 1.743-2.565zm-.411-1.252c.635-.339 1.276-.493 1.856-.493 1.253 0 2.224.718 2.25 1.845l-.792.376c0-1.467-1.467-1.997-3.072-1.067-1.22.706-2.103 2.098-2.239 3.304-.264 2.34 1.54 2.796 2.698 2.29.83-.362 4.99-2.894 6.442-3.748.003.45.003.46 0 .752-1.712 1.002-5.459 3.402-6.685 3.794-1.79.602-3.434-.987-3.26-2.833.154-1.64 1.122-3.323 2.802-4.22z"
       fill="#E5EA2D"
       id="path1350" />
    <path
       fill="#391E66"
       d="M79.319 51.511l22.105 12.73.019-18.268-22.055-12.636z"
       id="path1360" />
    <path
       fill="#C8D9FC"
       d="M87.02 29l-7.58 4.365 22.043 12.599 7.45-4.244z"
       id="path1362" />
    <path
       fill="#B0E9FF"
       d="M72 46.751l7.284 4.222 7.06-4.245-6.98-3.86z"
       id="path1364" />
    <path
       fill="#FFF"
       d="M72.071 47.445v6.285l7.175-1.426v-8.9z"
       id="path1366" />
    <path
       fill="#1D4872"
       d="M79.243 43.425v8.9l6.986 2.096.021-7.075z"
       id="path1368" />
    <path
       fill="#391E66"
       d="M72.015 55.611l7.27 4.17v-9.03l-7.27-3.954z"
       id="path1370" />
    <path
       d="m 101.413,46.194 7.485,-4.234 -0.149,18.426 -7.325,4.112 -0.01,-18.304 z m -15.101,0.775 0.018,8.91 -7.075,4.16 v -9.03 z M 99.85,44.31 c -66.566667,89.79333 -33.283333,44.896667 0,0 z"
       id="path1372"
       inkscape:connector-curvature="0"
       style="fill:#a2addd"
       sodipodi:nodetypes="ccccccccccccc" />
  </g>
</svg>
