<?xml version="1.0" encoding="UTF-8" standalone="no"?>
<svg
   xmlns:dc="http://purl.org/dc/elements/1.1/"
   xmlns:cc="http://creativecommons.org/ns#"
   xmlns:rdf="http://www.w3.org/1999/02/22-rdf-syntax-ns#"
   xmlns:svg="http://www.w3.org/2000/svg"
   xmlns="http://www.w3.org/2000/svg"
   xmlns:sodipodi="http://sodipodi.sourceforge.net/DTD/sodipodi-0.dtd"
   xmlns:inkscape="http://www.inkscape.org/namespaces/inkscape"
   width="170"
   height="185"
   viewBox="0 0 170 185"
   version="1.1"
   id="svg2014"
   sodipodi:docname="filter-list-6-dark.svg"
   inkscape:version="0.92.1 r15371">
  <metadata
     id="metadata2018">
    <rdf:RDF>
      <cc:Work
         rdf:about="">
        <dc:format>image/svg+xml</dc:format>
        <dc:type
           rdf:resource="http://purl.org/dc/dcmitype/StillImage" />
        <dc:title></dc:title>
      </cc:Work>
    </rdf:RDF>
  </metadata>
  <sodipodi:namedview
     pagecolor="#ffffff"
     bordercolor="#666666"
     borderopacity="1"
     objecttolerance="10"
     gridtolerance="10"
     guidetolerance="10"
     inkscape:pageopacity="0"
     inkscape:pageshadow="2"
     inkscape:window-width="1920"
     inkscape:window-height="1017"
     id="namedview2016"
     showgrid="false"
     inkscape:zoom="7.2163114"
     inkscape:cx="116.96775"
     inkscape:cy="27.258933"
     inkscape:window-x="-8"
     inkscape:window-y="-8"
     inkscape:window-maximized="1"
     inkscape:current-layer="svg2014" />
  <defs
     id="defs1850">
    <linearGradient
       id="a"
       x1="19.749%"
       x2="80.128%"
       y1="71.373%"
       y2="28.539%">
      <stop
         offset="0%"
         stop-color="#C6DB00"
         id="stop1825" />
      <stop
         offset="100%"
         stop-color="#56FFFF"
         id="stop1827" />
    </linearGradient>
    <linearGradient
       id="b"
       x1="0%"
       y1="50%"
       y2="50%">
      <stop
         offset="0%"
         stop-color="#56FFFF"
         id="stop1830" />
      <stop
         offset="100%"
         stop-color="#C6DB00"
         id="stop1832" />
    </linearGradient>
    <linearGradient
       id="c"
       x1="19.915%"
       x2="80.071%"
       y1="71.165%"
       y2="28.807%">
      <stop
         offset="0%"
         stop-color="#C6DB00"
         id="stop1835" />
      <stop
         offset="100%"
         stop-color="#56FFFF"
         id="stop1837" />
    </linearGradient>
    <linearGradient
       id="d"
       x1=".001%"
       x2="99.999%"
       y1="50%"
       y2="50%">
      <stop
         offset="0%"
         stop-color="#56FFFF"
         id="stop1840" />
      <stop
         offset="100%"
         stop-color="#C6DB00"
         id="stop1842" />
    </linearGradient>
    <linearGradient
       id="e"
       x1="-.001%"
       x2="100.001%"
       y1="50%"
       y2="50%">
      <stop
         offset="0%"
         stop-color="#56FFFF"
         id="stop1845" />
      <stop
         offset="100%"
         stop-color="#C6DB00"
         id="stop1847" />
    </linearGradient>
  </defs>
  <g
     fill="none"
     fill-rule="evenodd"
     id="g2012">
    <g
       transform="translate(0 75)"
       id="g1858">
      <path
         fill="#A68FD4"
         d="M0.0154458394,54.2663112 L0.0154458394,60.1517989 C0.0154458394,61.0575862 0.889504151,61.7772148 1.67902491,62.2265592 L76.0399306,105.177083 L84.0073785,96.15625 L0.0154458394,54.2663112 Z"
         id="path1852" />
      <path
         fill="#FFFFFF"
         d="M78.3776679,97.9736484 C78.3755283,97.9118902 78.3726755,97.8536813 78.3705358,97.7912132 C77.2950189,98.4506774 76.1931132,98.4485479 75.5312566,98.3179328 C75.0462755,98.1674415 74.584117,97.9211184 74,97.6584685 C74.924317,98.2788902 75.5134264,98.7175866 75.7979962,99.6581572 C75.8628981,99.8988013 75.8308038,102.174627 75.8308038,104.872823 C76.5696868,105.310099 77.2800415,105.211428 77.8491811,104.94239 C77.8491811,104.945939 78.1209132,104.798287 78.2207623,104.73156 L168.64906,52.9227992 C169.440008,52.4734549 169.927842,51.6372343 169.927842,50.7307372 L169.927842,45 L78.3776679,97.9736484 Z"
         id="path1854" />
      <path
         fill="#562B79"
         d="M0.960967547,53.4453917 L92.7393675,1.03750535 C93.4326053,0.640691019 94.2870279,0.640691019 94.9809789,1.03679549 L168.472737,42.9734685 C169.76293,43.7095982 169.762217,45.561635 168.472024,46.2963449 L81.3073638,95.9464071 C76.1023751,98.7610204 76.1023751,98.9867573 71.081394,95.941438 L0.961680755,55.913591 C0.00384301887,55.3669952 0.00384301887,53.9919874 0.960967547,53.4453917"
         id="path1856" />
    </g>
    <g
       transform="translate(10)"
       id="g1992">
      <polygon
         fill="url(#a)"
         points="150.016 115.999 83.019 77.926 83.019 62.102 150.016 100.269"
         opacity=".6"
         id="polygon1860" />
      <polygon
         fill="url(#b)"
         points=".032 125.376 83.019 77.926 83.019 62.102 .042 109.382"
         opacity=".6"
         id="polygon1862" />
      <path
         fill="#FFFFFF"
         d="M149.52776,99.1332771 C105.079714,73.6576658 82.8438049,60.9286152 82.8200313,60.9461252 L0.169261509,108.286288 L0.169261509,109.865387 L83.0675143,62.2399374 L149.52776,100.884238 L149.52776,99.7506045"
         id="path1864" />
      <path
         fill="#E5EA2D"
         d="M44.0927386,70.0600192 L65.2191389,82.0183988 L65.2112936,52.1920165 C65.2112936,51.6802041 64.9367087,51.2074342 64.4916672,50.9525928 L60.2487955,48.5163374 C59.5241766,48.1003567 59.0777087,47.3308634 59.0769955,46.4989021 L59.0769955,44.9350703 C59.0769955,44.5304475 58.8608936,44.1556389 58.5078558,43.9526176 L45.4428405,36.5494394 C44.8401801,36.2016057 44.0841801,36.6346231 44.0841801,37.3288707 L44.0927386,70.0600192 Z"
         id="path1866" />
      <path
         fill="#909E4F"
         d="M35.8804906,72.1092564 L52.9489736,89.0224912 L62.2541925,54.2668088 C62.4260755,53.6258011 62.2463472,52.9464606 61.7763434,52.4772401 C60.3820226,51.0851955 57.843717,48.5573676 56.4272868,47.1461567 C56.0507132,46.7713481 55.4088264,46.9516538 55.2668981,47.4620464 C54.6949057,49.5227835 54.3404415,50.7749847 54.0473132,51.8206153 C53.8754302,52.4325186 53.1073057,52.6291511 52.6558453,52.1812265 C50.2066906,49.7570388 47.6633925,47.2448278 44.5402566,44.1434293 C44.1337283,43.740936 43.4354981,43.919112 43.2878642,44.469967 L35.8804906,72.1092564 Z"
         id="path1868" />
      <path
         fill="#E5EA2D"
         d="M32.038407,76.8280106 L52.7121887,88.7863903 L52.7043434,58.9600079 C52.7043434,58.4481955 52.4297585,57.9761355 51.984717,57.7205842 L47.7418453,55.2843288 C47.0172264,54.8683481 46.5700453,54.0988548 46.5700453,53.2668935 L46.5700453,51.7030617 C46.5693321,51.2984389 46.3532302,50.9236303 46.0009057,50.720609 L33.3885089,43.3181406 C32.7851353,42.9695971 32.0298485,43.4026145 32.0298485,44.0968621 L32.038407,76.8280106 Z"
         id="path1870" />
      <path
         fill="#909E4F"
         d="M23.9565875,79.1582832 L41.0250706,96.071518 L50.3302894,61.3151258 C50.5021725,60.6748279 50.3224442,59.9954874 49.8524404,59.5262669 C48.4581196,58.1342223 45.919814,55.6056845 44.5033838,54.1944736 C44.1268102,53.820375 43.4849234,54.0006806 43.3437083,54.5110732 C42.7710026,56.5718103 42.4165385,57.8240115 42.1234102,58.8689322 C41.9515272,59.4808356 41.1834026,59.6781779 40.7319423,59.2302533 C38.2827875,56.8053557 35.7394894,54.2931448 32.6163536,51.1924561 C32.2098253,50.789253 31.5115951,50.967429 31.3639611,51.5189938 L23.9565875,79.1582832 Z"
         id="path1872" />
      <polygon
         fill="#FFFFFF"
         points="40.206 94.53 45.028 68.731 30.51 56.486 25.447 83.614"
         id="polygon1874" />
      <path
         fill="#E5EA2D"
         d="M19.9949267,83.8771084 L40.9964844,96.1158203 L40.9886391,66.2887281 C40.9886391,65.7776255 40.7140542,65.3048557 40.2690127,65.0500143 L35.8179423,62.3334266 C35.0933234,61.9174459 34.6461423,61.1479527 34.6461423,60.3152814 L34.6461423,58.7521595 C34.6454291,58.3475367 34.4293272,57.9727281 34.0770026,57.7697069 L21.3450285,50.3665286 C20.741655,50.0186949 19.9863682,50.4517123 19.9863682,51.1452501 L19.9949267,83.8771084 Z"
         id="path1876" />
      <path
         fill="#FFFFFF"
         d="M29.9516139,74 C30.7879913,74 31.4965086,74.3225181 31.870328,74.9764132 C32.2441473,75.6303082 31.765449,77 31.000577,77 C30.1890272,77 29.4038566,76.3466307 29.107478,75.5008086 C28.8033408,74.6291105 29.1633399,74 29.9516139,74 Z M31.3491097,73.0365491 L29.8052562,72.3950897 L29.0594475,61.5911878 C29.2498785,60.611689 29.7300627,60.2176444 30.5,60.4090539 C31.2699373,60.6004634 31.7481526,61.2468801 31.9346457,62.348304 L31.3491097,73.0365491 Z"
         id="path1878" />
      <path
         fill="#B0E9FF"
         d="M61.4621585,75.9397614 L81.8969811,64.1702058 C81.9918377,64.1155462 82.0503208,64.0147454 82.0503208,63.9047164 L82.0503208,34.3069104 C82.0503208,34.0712354 81.793566,33.9235835 81.5881623,34.0414211 L61.1533396,45.8109767 C61.058483,45.8656363 61,45.9664371 61,46.0764661 L61,75.6742721 C61,75.9099471 61.2567547,76.0583088 61.4621585,75.9397614"
         id="path1880" />
      <path
         fill="#A68FD4"
         d="M64.4621585,77.958283 L84.8969811,66.1887274 C84.9925509,66.1340678 85.051034,66.033267 85.051034,65.923238 L85.051034,36.325432 C85.051034,36.089757 84.7942792,35.9421051 84.5888755,36.0599426 L64.1533396,47.8294983 C64.0591962,47.8841579 64,47.9849587 64,48.0949877 L64,77.6927936 C64,77.9284687 64.2567547,78.0768304 64.4621585,77.958283"
         id="path1882" />
      <path
         fill="#FFFFFF"
         d="M68.4621585,79.9394521 L88.8969811,68.1698965 C88.9925509,68.1152369 89.051034,68.0144361 89.051034,67.9051169 L89.051034,38.3066011 C89.051034,38.070926 88.7942792,37.9232742 88.5888755,38.0418216 L68.1533396,49.8106674 C68.0591962,49.865327 68,49.9661277 68,50.0761568 L68,79.6739627 C68,79.9103477 68.2567547,80.0579995 68.4621585,79.9394521"
         id="path1884" />
      <path
         fill="#A68FD4"
         d="M71.4614453,81.9394521 L91.8962679,70.1698965 C91.9918377,70.1152369 92.0503208,70.0144361 92.0503208,69.9044071 L92.0503208,40.3066011 C92.0503208,40.070926 91.793566,39.9232742 91.5881623,40.0418216 L71.1526264,51.8106674 C71.058483,51.865327 71,51.9661277 71,52.0761568 L71,81.6739627 C71,81.9103477 71.2567547,82.0579995 71.4614453,81.9394521"
         id="path1886" />
      <path
         fill="#B0E9FF"
         d="M75.4621585,84.939442 L95.8969811,73.1705962 C95.9925509,73.1152268 96.051034,73.014426 96.051034,72.9051068 L96.051034,43.3073009 C96.051034,43.070916 95.7942792,42.9232641 95.5888755,43.0418115 L75.1533396,54.8106573 C75.058483,54.8653169 75,54.9668275 75,55.0761467 L75,84.6739526 C75,84.9103376 75.2567547,85.0579894 75.4621585,84.939442"
         id="path1888" />
      <path
         fill="#FFFFFF"
         d="M99.8984279,73.7068778 L99.8984279,44.1090718 C99.8984279,43.8726869 99.6416732,43.725035 99.4362694,43.8435824 L79.0007336,55.6124282 L79.0007336,85.4757236 L99.8984279,73.7068778 Z"
         id="path1890" />
      <polygon
         fill="#A68FD4"
         points="88.334 84.342 102.993 75.777 102.993 45.683 82.007 57.636 82.007 82.086"
         id="polygon1892" />
      <path
         fill="#FFFFFF"
         d="M86.4402015,89.7646547 L106.874311,77.9950991 C106.969881,77.9404395 107.028364,77.8396387 107.028364,77.7296097 L107.028364,48.1318037 C107.028364,47.8961287 106.771609,47.7484768 106.566205,47.8670242 L86.1313826,59.63587 C86.036526,59.6905296 85.978043,59.7913303 85.978043,59.9013594 L85.978043,89.4991653 C85.978043,89.7355503 86.2347977,89.8832021 86.4402015,89.7646547"
         id="path1894" />
      <polygon
         fill="#B0E9FF"
         points="110.018 79.854 110.018 49.99 90.073 61.76 89.92 91.623"
         id="polygon1896" />
      <path
         fill="#FFFFFF"
         d="M114.041405,80.7279053 L114.041405,52.3009097 C114.041405,52.0652346 113.78465,51.9175828 113.579246,52.0361302 L93.1437106,63.804976 C93.0495672,63.8596356 92.9910842,63.9604363 92.9910842,64.0704654 L92.9910842,93.6682713 L114.041405,80.7279053 Z"
         id="path1898" />
      <path
         fill="#66B9DD"
         d="M98,67.9228214 L98,66.8820724 L109.919008,60 L109.919008,61.2363899 L98,67.9228214 Z M98,71.9228214 L98,70.8820724 L109.919008,64 L109.919008,65.2363899 L98,71.9228214 Z M98,75.9228214 L98,74.8820724 L109.919008,68 L109.919008,69.2363899 L98,75.9228214 Z M98,79.9228214 L98,78.8820724 L109.919008,72 L109.919008,73.2363899 L98,79.9228214 Z"
         id="path1900" />
      <path
         fill="#A68FD4"
         d="M90.6435615,78.0966097 C91.260486,78.4011416 92.61772,77.9028167 92.4964747,78.5771881 C92.294637,79.694515 91.5286521,82.0171921 91.147086,82.2365403 L79.6630181,88.8638365 C79.0924521,89.1910841 77.9142332,89.1073201 77.2559426,88.7289622 L51.0505577,73.4874586 C50.7852445,73.333418 50.512086,72.9351839 50.3801426,72.6597565 C49.8338257,71.5246829 49.5920483,69.3184236 49.7881804,68.9585222 L62.0225426,64.1101468 C62.5931087,63.7828992 63.5880332,63.8240713 64.2463238,64.2017193 L90.6435615,78.0966097 Z"
         id="path1902" />
      <path
         fill="#562B79"
         d="M92.0059306,77.7423872 L64.2464664,61.7903092 C63.5881758,61.4126612 62.5932513,61.371489 62.0226853,61.6987366 L50.1085532,68.545381 C49.5387004,68.8726286 49.6107343,69.4454894 50.2683117,69.8231374 L78.0270626,85.7745056 C78.6853532,86.1528634 79.6817042,86.1940356 80.251557,85.866788 L92.1656891,79.0201436 C92.7348287,78.692896 92.6642211,78.1207451 92.0059306,77.7423872"
         id="path1904" />
      <path
         fill="#FFFFFF"
         d="M51.9913164,75.2562837 L50.9967621,75.1617396 L50.9967621,54.2612155 C51.0046073,52.0301109 51.9430127,49.425821 53.8872165,48.314173 L73.4811552,37.053065 C74.5578357,36.4989118 75.0061983,34.8509674 75.0061983,33.6830773 L75.0061983,18.6143873 L76.0014361,18.1286055 L76.0014361,34.1112077 C76.0014361,35.9880898 75.3747212,37.3191949 73.7393363,38.2540866 L54.1461108,49.5151946 C52.3616655,50.5352701 51.9984484,52.8962728 51.9913164,54.9435224 L51.9913164,75.2562837 Z M49.0182097,74.3622832 L49.0182097,53.4403896 C49.026055,51.209285 49.6379259,47.947383 51.5828429,46.835735 L71.2076356,35.5804766 C72.6825488,34.7378672 72.9947298,34.4323432 72.9947298,32.7400259 L72.9947298,19.7970207 L74.0061324,19.7970207 L74.0061324,32.7400259 C74.0061324,34.616908 73.884866,35.2573115 72.2494811,36.1922033 L52.4351259,47.7157753 C50.6506806,48.7358508 50.026309,51.2983303 50.019177,53.3462898 L50.019177,74.3622832 L49.0182097,74.3622832 Z"
         id="path1906" />
      <path
         fill="#E5EA2D"
         d="M70.5486173,34.9256138 L101.069658,52.2718661 C103.047382,53.3863535 103.918395,55.4903923 103.94835,57.752021 L103.94835,83.589674 L102.984018,83.589674 L102.984018,57.7527309 C102.956203,55.6735374 101.94835,54.0792184 100.675024,53.0792184 L69.9043974,35.7329661 C68.2583143,34.805173 67,32.7001882 67,30.8169173 L67,20.2583907 C67,20.1157079 68.0036627,20.3436202 68.0036627,20.486303 L68.0036627,30.8169173 C68.0036627,32.5142037 69.0651456,34.0886834 70.5486173,34.9256138 Z M72.5486173,33.9256138 L103.069658,51.2718661 C105.047382,52.3863535 105.918395,54.4903923 105.94835,56.752021 L105.94835,82.589674 L104.984018,82.589674 L104.984018,56.7527309 C104.956203,54.6735374 104.14593,53.0792184 102.675024,52.0792184 L71.9043974,34.7329661 C70.2583143,33.805173 69,31.7001882 69,29.8169173 L69,19.2583907 C69,19.1157079 70.0036627,19.2190062 70.0036627,19.361689 L70.0036627,29.8169173 C70.0036627,31.5142037 71.0651456,33.0886834 72.5486173,33.9256138 Z M68.5486173,35.9256138 L99.0696576,53.2718661 C101.047382,54.3863535 101.918395,56.4903923 101.94835,58.752021 L101.94835,84.589674 L100.984018,84.589674 L100.984018,58.7527309 C100.956203,56.6735374 100.052388,54.936154 98.6750238,54.0792184 L67.9043974,36.7329661 C66.2583143,35.805173 65,33.7001882 65,31.8169173 L65,21.2583907 C65,21.1157079 66.0036627,21.1157079 66.0036627,21.2583907 L66.0036627,31.8169173 C66.0036627,33.5142037 67.0651456,35.0886834 68.5486173,35.9256138 Z"
         id="path1908" />
      <g
         transform="translate(53)"
         id="g1916">
        <path
           fill="#562B79"
           d="M5.77345434,25.3541642 C4.33919396,24.311373 3.36348878,23.5652512 2.58755623,22.8455026 C0.694272946,21.0893086 -0.0951655374,15.8645235 3.2633288,14.7947575 C3.92589861,14.5945757 6.00612793,14.413169 6.30353548,14.3237261 C6.08617312,7.11231191 11.2722845,8.30250579 11.2722845,8.30250579 C11.7010608,4.89412723 12.9962988,2.62714216 15.0658659,1.46232379 C17.3371993,0.183944951 20.439659,0.222321693 21.9454355,1.28052482 C23.4103638,2.3105384 24.1093072,2.78969703 24.8282204,3.29299106 L5.77345434,25.3541642 Z"
           id="path1910" />
        <path
           fill="#A68FD4"
           d="M26.8008098,5.37871533 C26.8008098,5.37871533 31.7747192,5.96364379 30.9538174,11.0058123 C30.9538174,11.0058123 30.5594136,14.6609053 27.0589909,16.5384973 L10.4869004,26.2096931 C10.4869004,26.2096931 8.01207019,27.7231245 6.25472679,25.9995731 C4.4973834,24.2760218 5.20488528,18.747596 8.63042113,17.6565341 C9.30654189,17.452093 9.67954943,17.3385147 9.98266264,17.247652 C11.0018362,10.0765995 15.1127645,11.1662417 15.1127645,11.1662417 C16.1633192,2.81468427 25.663957,0.973295402 26.8008098,5.37871533 Z"
           id="path1912" />
        <path
           fill="#FFFFFF"
           d="M11.1552483 8.81150821L14.5290995 10.7743725C14.5784022 10.8032382 14.6335052 10.8167088 14.6866748 10.8167088 14.7949474 10.8167088 14.8993531 10.7609019 14.9573563 10.6627587 15.0443611 10.5145817 14.9940916 10.3231062 14.8442501 10.2365092L11.4703989 8.27364489C11.321524 8.18801012 11.1301136 8.23708173 11.0431088 8.38622093 10.9551373 8.53439795 11.0063735 8.72491125 11.1552483 8.81150821M9.49958627 16.3402173L6.53582044 14.6158101C6.36542589 14.5173351 6.14776059 14.5731376 6.0477225 14.7427335 5.94988305 14.9123294 6.00704767 15.1289744 6.17744222 15.2274495L9.14120805 16.9518567C9.19727336 16.9846817 9.25883526 17 9.32039716 17 9.44132232 17 9.56224749 16.9376325 9.62710735 16.8249333 9.72604612 16.6564316 9.6688815 16.4386923 9.49958627 16.3402173M25.9834073 7.79805667C26.8425262 8.23344256 27.8790534 8.8714782 27.9535956 9.99308296 28.0241668 11.0549388 27.2161893 12.2844937 26.949812 12.6966861 26.881344 12.8038757 27.9100899 13.0898272 27.9535956 13.0209703 28.5576824 12.0860786 28.8787692 11.1668039 28.8801956 11.1547362 29.3188183 9.33677283 28.2459098 7.89928742 26.3851514 6.95587732 26.041722 7.47899753 25.9078073 7.75972398 25.9834073 7.79805667zM16.2222302 20.1435448L10.6463736 23.3961446C10.5358264 23.4600324 10.4994528 23.6012955 10.5636415 23.7106146 10.6071472 23.7830208 10.6834604 23.8241929 10.7633396 23.8241929 10.802566 23.8241929 10.8432189 23.813545 10.8795925 23.792249L16.4561623 20.5403591C16.5659962 20.4757615 16.6023698 20.3352083 16.5381811 20.2258891 16.4739925 20.1158601 16.3313509 20.079657 16.2222302 20.1435448"
           id="path1914" />
      </g>
      <path
         fill="#B0E9FF"
         d="M82.8574747,134.910413 L103.292297,123.140857 C103.387154,123.086198 103.44635,122.985397 103.44635,122.875368 L103.44635,93.2775618 C103.44635,93.0418868 103.189595,92.8942349 102.984192,93.0120725 L82.5486558,104.781628 C82.4537992,104.836288 82.3953162,104.937088 82.3953162,105.047117 L82.3953162,134.644923 C82.3953162,134.880599 82.6520709,135.02896 82.8574747,134.910413"
         id="path1918" />
      <polygon
         fill="#A68FD4"
         points="107.033 124.853 107.033 95.256 85.983 107.025 85.983 136.889"
         id="polygon1920" />
      <path
         fill="#FFFFFF"
         d="M90.3473959,138.933571 L110.424998,127.164015 C110.518897,127.109355 110.576357,127.008555 110.576357,126.899235 L110.576357,97.3007197 C110.576357,97.0650446 110.324091,96.9173927 110.122278,97.0359401 L90.0439755,108.804786 C89.9514778,108.859446 89.8940172,108.960246 89.8940172,109.070275 L89.8940172,138.668081 C89.8940172,138.904466 90.1462835,139.052118 90.3473959,138.933571"
         id="path1922" />
      <polygon
         fill="#A68FD4"
         points="115 129.023 115 99.425 93.019 111.194 93.019 140.792"
         id="polygon1924" />
      <path
         fill="#B0E9FF"
         d="M64.6654332,134.337765 L86.9468054,147.286406 C87.4158278,147.558994 88.0007015,147.216129 87.9999994,146.668824 L87.9206588,108.227524 L64.6654332,134.337765 Z"
         id="path1926" />
      <path
         fill="#A68FD4"
         d="M83.0882325,149.500048 C83.0882325,149.500048 84.1572031,148.197446 84.9806799,147.624585 C85.8643385,147.009843 87.018517,146.765649 87.018517,146.765649 L86.9136458,108.633141 C86.9136458,108.633141 83.018517,111.342694 83.018517,111.342694 L83.0882325,149.500048 Z"
         id="path1928" />
      <path
         fill="#FFFFFF"
         d="M59.3225528,137.493894 L82.9454132,111.384363 L83.0252925,149.825663 C83.0267189,150.372258 82.432617,150.715833 81.9561943,150.443245 L59.3225528,137.493894 Z"
         id="path1930" />
      <g
         transform="translate(48 103)"
         id="g1938">
        <path
           fill="#B0E9FF"
           d="M6.47232558,37.56975 L29.6588372,50.7722079 C29.8034884,24.1713693 29.8034884,10.8289125 29.6588372,10.7448375 L6.47232558,37.56975 Z"
           id="path1932" />
        <path
           fill="#A68FD4"
           d="M24.0871443,52.7883225 C24.0871443,52.7883225 25.4233577,51.480885 26.4519589,50.9058975 C27.5572769,50.2888725 29,50.0437725 29,50.0437725 L28.8681662,11.7696975 C28.8681662,11.7696975 28.1933562,12.8954475 26.6500819,13.7575725 C25.4635781,14.42091 24,14.48931 24,14.48931 L24.0871443,52.7883225 Z"
           id="path1934" />
        <path
           fill="#FFFFFF"
           d="M22.9687733,53.7350213 L1.15219437,40.7375962 C0.939762184,40.6114837 0.80845297,40.3770712 0.807078005,40.1234212 L0.619395202,1.56505875 C0.616645271,1.01643375 1.18794347,0.67015875 1.64855694,0.94233375 L23.5758206,13.9126837 C23.7896278,14.0395087 23.922312,14.2753462 23.9229995,14.5311337 L23.9999975,53.1151463 C24.0013725,53.6644838 23.4280118,54.0086213 22.9687733,53.7350213"
           id="path1936" />
      </g>
      <g
         transform="translate(42 73)"
         id="g1946">
        <path
           fill="#EC1944"
           d="M1.29243987,3.04842142 L6.38799186,0.0819746759 L6.39582668,0.0918510415 C6.60665447,-0.0231380727 6.87375048,-0.0393635306 7.11306851,0.0960837697 L30.5462923,13.3424065 C30.7749265,13.4722101 30.9166654,13.7127702 30.9166654,13.9737884 L30.9999994,53.3811928 C31.0007116,53.9420292 30.3881714,54.2940511 29.897427,54.0139856 L25.1270778,51.2980392 L25.1382523,56.6363181 C25.1389688,57.2007277 24.5227301,57.5554386 24.029739,57.2739446 L0.573255347,43.8980048 C0.343957202,43.7679205 0.202795532,43.5269446 0.201362418,43.2653542 L9.98449598e-06,3.58465542 C-0.00285624232,3.01953494 0.611949409,2.66340241 1.10709009,2.9434747 L1.29243987,3.04842142 Z M3.95828387,4.55784637 L6.03801328,5.73540794 L6.02687805,3.54505174 C5.31533426,3.89707363 4.15578143,4.4720192 4.08028229,4.51575739 C4.06529681,4.52433513 4.02195472,4.53896983 3.95828387,4.55784637 Z"
           id="path1940" />
        <path
           fill="#A68FD4"
           d="M1.19018864,3.43516506 C1.19018864,3.43516506 2.73737045,3.38611687 4.15914318,2.54803253 C5.19552955,1.93741807 6.07762045,0.555538554 6.07762045,0.555538554 L29.9605213,14.7079409 L30.0894531,30.0980469 L24.8044386,32.3000181 L24.7191886,16.8851747 L1.19018864,3.43516506 Z"
           id="path1942" />
        <path
           fill="#1D4872"
           d="M3.0679375,2.82145467 L26.0727511,15.5740746 L26.1591797,31.5808594 L25.0865234,32.1320313 L25.0008092,16.2226515 L2.33691406,3.46074219 L3.0679375,2.82145467 Z M5.0679375,1.82145467 L28.0727511,14.5740746 L28.1591797,30.5808594 L27.0865234,31.1320313 L27.0008092,15.2226515 L4.33691406,2.46074219 L5.0679375,1.82145467 Z"
           id="path1944" />
      </g>
      <path
         fill="#FFFFFF"
         d="M48.7505673,88.0301011 L59.2583761,93.9138634 C59.6704605,94.1443877 60.0020543,93.8963382 59.9999904,93.3591222 C59.9979266,92.8225802 59.6615171,92.2004342 59.2494327,91.9699099 L48.7416239,86.0861476 C48.3302275,85.8556233 47.9979457,86.1036728 48.0000096,86.6402148 C48.0027614,87.1774308 48.3384829,87.7995768 48.7505673,88.0301011"
         id="path1948" />
      <polygon
         fill="#34799D"
         points="68 158 20 130.62 20 76 68 103.38"
         id="polygon1950" />
      <polygon
         fill="#B0E9FF"
         points="67 139 115 111.768 115 76 67 103.233"
         id="polygon1952" />
      <polygon
         fill="#FFFFFF"
         points="114.48 75.171 67.067 101.957 19.867 74.797 19.867 76.11 67.067 103.421 114.826 76.11"
         id="polygon1954" />
      <path
         fill="#FFFFFF"
         d="M80.2712816,109 C79.9845388,109.034324 79.8046726,109.034324 79.731683,109 C79.6586934,108.965676 77.0764327,107.666744 71.984901,105.103204 L88.7668935,95.2815804 L96.8824776,98.8797354 L80.2712816,109 Z"
         id="path1956" />
      <polygon
         fill="#391E66"
         points="79 109.242 79 130 72 125.759 72 105"
         id="polygon1958" />
      <path
         fill="#391E66"
         d="M79.6333053,104.644246 L78.6114382,107 L76,105.513345 L76,97.1503488 C76.1002243,94.8553608 76.7483756,86.7070406 85.1104445,84.4311303 C87.4828864,83.9824488 89.2612824,85.7414839 91.0613948,86.9878236 L90.7182506,88.0133545 L86.2123633,89.1290522 L81.5256518,94.2758173 L79.9942529,102.682766 L79.6333053,104.644246 Z"
         id="path1960" />
      <path
         fill="#391E66"
         d="M86.992359,92.3693485 L86.992359,98.5165951 L90.0103735,99.9623955 L90.9582938,99.3394597 C91.8885041,91.6648157 91.2896036,87.6032859 89.1615923,87.1548702 C87.9861452,86.9071794 83.4065479,88.3534388 85.5682802,90.2507023 C86.5741985,90.2928985 87.0488915,90.9991139 86.992359,92.3693485 Z"
         id="path1962" />
      <polygon
         fill="#34799D"
         points="97 119.808 80 130 80 109.253 97 99"
         id="polygon1964" />
      <path
         fill="#34799D"
         d="M90.0489925,93.991654 C90.0489925,93.991654 90.3001954,89.5555547 86.3003815,91.0499251 C84.1129978,91.8671697 82.6842892,94.0945749 82.0142558,97.7321405 L82.0142558,104.908667 L78,107 L78,98.7260885 C78.8750465,91.7799694 82.0419148,87.5715737 87.5006048,86.1009015 C91.3008467,85.4465537 93,88.0618745 93,91.4233452 L93,98.7260885 L90.0489925,100.481294 L90.0489925,93.991654 Z"
         id="path1966" />
      <path
         fill="#FFFFFF"
         d="M87.9196508,117.424877 C88.2628311,115.996435 89.0489682,115 89.8319278,115 C89.9787327,115 90.1223601,115.036627 90.2583611,115.108002 C91.1309289,115.565366 91.500801,117.349746 91.0839005,119.086228 C90.7400846,120.513732 89.953312,121.511106 89.1709879,121.511106 C89.0235475,121.511106 88.8805557,121.474479 88.7445546,121.403104 C88.3321027,121.186161 88.0175207,120.664934 87.8580054,119.9324 C87.6921349,119.170752 87.7137426,118.28044 87.9196508,117.424877"
         id="path1968" />
      <polygon
         fill="url(#c)"
         points="66.055 164.304 .003 126.213 .003 110.29 66.09 148.383"
         opacity=".6"
         id="polygon1970" />
      <polygon
         fill="url(#d)"
         points="106.713 125.439 67.066 148.079 67.056 163.769 106.713 141.046"
         opacity=".6"
         id="polygon1972" />
      <polygon
         fill="url(#e)"
         points="115.982 121.043 115.982 136.846 151.054 116.68 151.054 100.944"
         opacity=".6"
         id="polygon1974" />
      <path
         fill="#FFFFFF"
         d="M66.4043513,146.941444 L0.0725987319,109.232744 C0.0725987319,108.849933 0.0725987319,108.707991 0.0725987319,108.806917 C0.0725987319,108.905843 0.0725987319,109.46899 0.0725987319,110.496357 L66.4043513,148.33483 L107,125.316761 L107,124.146105 L66.4043513,146.941444 Z"
         id="path1976" />
      <polygon
         fill="#FFFFFF"
         points="150.553 99.661 116 119.378 116.689 120.616 150.553 101.119"
         id="polygon1978" />
      <polygon
         fill="#391E66"
         points="24.309 109.954 41 140 48 135.759 48 115"
         id="polygon1980" />
      <polygon
         fill="#909E4F"
         points="40.859 119.277 48.112 115.351 31.271 106.017 24 110.095"
         id="polygon1982" />
      <path
         fill="#391E66"
         d="M42.1532485,116.253503 L43.9876509,114.843776 L43.9876509,107.583006 C43.8867257,105.288751 43.7921048,97.4933846 35.4300358,95.2175002 C33.057594,94.7681172 31.9778525,95.5513429 30,96.7970381 L30.2817494,99.0135701 L34.7876367,100.128549 L39.4736473,105.275962 L41.0057471,113.682815 L42.1532485,116.253503 Z"
         id="path1984" />
      <path
         fill="#391E66"
         d="M34.6803424,100.981141 C33.2627911,100.567282 32.9999207,103.326999 33.0192935,103.796556 L33.0192935,109.426439 L31.0548356,110.314493 L29.3440334,108.649396 L29,106.691499 C29,106.691499 30.4329159,98.41221 30.8384077,98.1548702 C31.5937225,97.6749728 32.8743674,98.617063 34.6803424,100.981141 Z"
         id="path1986" />
      <path
         fill="#E5EA2D"
         d="M24,130.51424 L24,110.332409 L41,119.252717 L41,140 L24,130.51424 Z M31.0232289,103.973781 L31.0232289,110.463415 L28,108.726096 L28,101.42405 C28,98.0612017 29.6997721,95.4465736 33.4998372,96.1009208 C41.6867935,98.3069271 41.9168202,105.963693 42.0166016,108.204902 L42.0166016,116.187467 L38.7921642,114.388156 C39.092206,114.037109 39.092206,108.393424 38.6923828,106.525635 C38.2925596,104.657846 37.9784832,102.289983 34.6993069,101.04994 C30.5118764,99.4664345 31.0232289,103.973781 31.0232289,103.973781 Z"
         id="path1988" />
      <path
         fill="#391E66"
         d="M29.7900391,126.608887 C29.7900391,128.241067 30.8148032,129.889197 31.6966191,129.889197 C31.8760109,129.889197 33.6271973,130.298096 33.6271973,127.534912 C33.6271973,125.623779 32.6225944,124.031006 31.7419434,124.031006 C31.561969,124.031006 29.7900391,124.881243 29.7900391,126.608887 Z"
         id="path1990" />
    </g>
    <g
       transform="translate(107 114)"
       id="g2010">
      <path
         fill="#FFFFFF"
         d="M23.9350119,39.0768345 C25.5231071,40.0177982 27.5075357,38.8414164 27.5075357,36.9580709 L27.5075357,17.7431255 C27.5075357,16.8695255 27.0532024,16.0618709 26.3164643,15.6250709 L3.57294716,1.95946338 C1.98485192,1.01849974 0.000423353471,2.19488156 0.000423353471,4.07822702 L0.000423353471,23.2924634 C0.000423353471,24.1667725 0.454756687,24.974427 1.19149478,25.411227 L23.9350119,39.0768345 Z"
         id="path1994" />
      <path
         fill="#391E66"
         d="M20.3146381,24.5281327 C20.0612333,25.3698236 19.069019,25.5747509 18.0995905,24.9854964 C17.1301619,24.3962418 16.5501619,23.2361691 16.8042571,22.3937691 C17.0583524,21.5520782 18.0505667,21.3471509 19.0199952,21.9364055 C19.9887333,22.52566 20.5687333,23.6864418 20.3146381,24.5281327 M19.6331381,19.9041509 C17.7426143,18.7540055 15.8203286,18.9036236 14.8916381,20.1282236 L4.36187619,13.72726 C3.76944762,13.3663327 3.16320952,13.4918418 3.00854286,14.0066418 C2.85249524,14.5207327 3.2074,15.2298236 3.79982857,15.5900418 L4.08223333,15.7623509 C4.07325714,15.7814964 4.06220952,15.7992236 4.05530476,15.8212055 L3.75356667,16.8231509 C3.66242381,17.1230964 3.86956667,17.5372055 4.21549524,17.7470964 C4.56142381,17.9576964 4.91494762,17.88466 5.00609048,17.5847145 L5.30782857,16.5827691 C5.31404286,16.5607873 5.31611429,16.5373873 5.31956667,16.5146964 L6.23582857,17.0713327 C6.22685238,17.0911873 6.21580476,17.1089145 6.2089,17.1308964 L5.9071619,18.1321327 C5.81670952,18.4327873 6.02385238,18.8468964 6.36978095,19.0574964 C6.71570952,19.2673873 7.06923333,19.1943509 7.15968571,18.8936964 L7.46211429,17.89246 C7.46901905,17.8704782 7.4704,17.8470782 7.47385238,17.8236782 L14.3295905,21.9917145 C14.344781,23.7906782 15.5959238,25.8697327 17.4857571,27.01846 C19.7484476,28.3933873 22.0622333,27.91546 22.6553524,25.9505691 C23.247781,23.9863873 21.8951381,21.2783691 19.6331381,19.9041509"
         id="path1996" />
      <path
         fill="#391E66"
         d="M4.93556754,0.997828087 C4.03518659,0.464591723 2.70197143,1.38120727 1.68144762,2.09738909 C2.3201381,1.83218909 3.0741381,1.84424364 3.7556381,2.24842545 L25.8372052,15.6254255 C26.5746338,16.0622255 27.0282766,16.8691709 27.0282766,17.74348 L27.0282766,36.9584255 C27.0282766,37.9114436 26.9984476,38.6822255 26.2893286,39.0899527 C27.5529,38.64748 28.977864,37.4095535 28.977864,36.2168626 L28.977864,17.0019171 C28.977864,16.1283171 28.5235307,15.3206626 27.7861021,14.8838626 L4.93556754,0.997828087 Z"
         id="path1998" />
      <g
         transform="translate(23 13)"
         id="g2008" />
    </g>
  </g>
</svg>
