<svg width="158" height="146" viewBox="0 0 158 146" fill="none" xmlns="http://www.w3.org/2000/svg">
<path fill-rule="evenodd" clip-rule="evenodd" d="M78.8847 146C35.3523 146 0.0624727 130.04 0.0624727 110.353C0.0624727 108.267 -0.157998 106.769 0.229406 101.077C6.64536 84.3059 39.9662 79.9563 78.8847 79.9563C117.804 79.9563 151.231 85.258 157.646 102.03C158.406 104.018 157.706 108.267 157.706 110.353C157.706 130.04 122.417 146 78.8847 146Z" fill="#391E66"/>
<path fill-rule="evenodd" clip-rule="evenodd" d="M157.707 103.369C157.707 123.057 122.417 139.016 78.885 139.016C35.3526 139.016 0.0627747 123.057 0.0627747 103.369C0.0627747 83.6821 35.3526 67.7223 78.885 67.7223C122.417 67.7223 157.707 83.6821 157.707 103.369Z" fill="#C8D9FC"/>
<path fill-rule="evenodd" clip-rule="evenodd" d="M96.0772 89.1214L111.53 98.1222C111.786 98.2718 112.103 98.2718 112.36 98.1225L134.65 85.1466C135.203 84.8241 135.204 84.0188 134.65 83.6963L119.208 74.6997C118.951 74.5497 118.635 74.5497 118.378 74.6994L96.0775 87.6711C95.5237 87.9932 95.5237 88.7989 96.0772 89.1214Z" fill="#A2ADDD"/>
<path fill-rule="evenodd" clip-rule="evenodd" d="M135.782 77.0766L134.777 76.491L113.492 88.882C113.236 89.0317 112.919 89.0313 112.662 88.8817L98.215 80.4669L97.21 81.0513C96.6565 81.3735 96.6561 82.1792 97.2096 82.502L112.662 91.5028C112.919 91.6524 113.236 91.6524 113.492 91.5028L135.782 78.5269C136.336 78.2048 136.336 77.3991 135.782 77.0766Z" fill="#E5EA2D"/>
<path fill-rule="evenodd" clip-rule="evenodd" d="M135.782 82.4072L134.777 81.8216L113.492 94.2123C113.236 94.3619 112.919 94.3619 112.662 94.2123L98.215 85.7971L97.21 86.3816C96.6565 86.7041 96.6561 87.5098 97.2096 87.8323L112.662 96.8331C112.919 96.9827 113.236 96.9827 113.492 96.8331L135.782 83.8575C136.336 83.535 136.336 82.7297 135.782 82.4072Z" fill="#E5EA2D"/>
<path fill-rule="evenodd" clip-rule="evenodd" d="M112.662 86.1718C112.919 86.3214 113.236 86.3214 113.492 86.1718L135.782 73.1963C136.336 72.8738 136.336 72.0685 135.782 71.746L134.777 71.1604L113.492 83.551C113.236 83.7007 112.919 83.7007 112.662 83.551L98.215 75.1359L97.21 75.7207C96.6565 76.0428 96.6561 76.8485 97.2096 77.171L112.662 86.1718Z" fill="#E5EA2D"/>
<path fill-rule="evenodd" clip-rule="evenodd" d="M97.2097 74.6528L112.663 83.6535C112.919 83.8032 113.236 83.8032 113.492 83.6535L135.782 70.678C136.336 70.3555 136.336 69.5502 135.783 69.2273L120.341 60.2308C120.084 60.0811 119.768 60.0807 119.51 60.2304L97.2101 73.2021C96.6563 73.5246 96.6563 74.3303 97.2097 74.6528Z" fill="#909E4F"/>
<path fill-rule="evenodd" clip-rule="evenodd" d="M135.782 74.4113L134.777 73.8257L113.492 86.2164C113.236 86.366 112.919 86.366 112.662 86.2164L98.215 77.8012L97.21 78.386C96.6565 78.7082 96.6561 79.5138 97.2096 79.8363L112.662 88.8371C112.919 88.9868 113.236 88.9868 113.492 88.8371L135.782 75.8616C136.336 75.5391 136.336 74.7338 135.782 74.4113Z" fill="#909E4F"/>
<path fill-rule="evenodd" clip-rule="evenodd" d="M135.782 79.7419L134.777 79.1563L113.492 91.547C113.236 91.6966 112.919 91.6966 112.662 91.547L98.215 83.1318L97.21 83.7167C96.6565 84.0388 96.6561 84.8445 97.2096 85.167L112.662 94.1677C112.919 94.3174 113.236 94.3174 113.492 94.1677L135.782 81.1922C136.336 80.8697 136.336 80.0644 135.782 79.7419Z" fill="#909E4F"/>
<path fill-rule="evenodd" clip-rule="evenodd" d="M99.7775 137.736C93.8835 138.379 87.7322 138.719 81.4068 138.719C79.5346 138.719 77.6777 138.689 75.8382 138.63L58.6161 129.546C58.1666 129.279 58.1703 128.619 58.6221 128.357L101.011 103.717C101.222 103.595 101.48 103.596 101.689 103.718L136.512 116.82L119.067 126.989V128.357L112.379 132.298L108.825 133.426L99.7775 137.736Z" fill="#A2ADDD"/>
<path fill-rule="evenodd" clip-rule="evenodd" d="M136.856 116.634V115.495L135.817 115.626L135.731 115.782L105.931 98.5174C105.535 98.2882 105.048 98.2882 104.653 98.5185L88.5917 107.861L87.7585 107.378C87.6941 107.341 87.6151 107.341 87.5507 107.379L80.6235 111.408C80.5177 111.47 80.5177 111.624 80.6239 111.686L81.3222 112.09L61.9812 123.341C61.7536 123.473 61.5607 122.83 61.4918 123.053C61.3968 123.79 61.2464 124.726 61.9827 125.048L92.0441 142.465C92.3465 142.641 92.7193 142.64 93.0221 142.465L111.267 131.851L112.114 132.342C112.163 132.37 112.224 132.37 112.273 132.342L119.354 128.222C119.371 128.213 119.374 128.195 119.379 128.179H119.38V128.177C119.384 128.163 119.384 128.154 119.38 128.141V127.132L136.64 117.092C136.812 116.992 136.881 116.807 136.856 116.634Z" fill="#391E66"/>
<path fill-rule="evenodd" clip-rule="evenodd" d="M61.9812 122.199L81.3222 110.948L80.6239 110.543C80.5174 110.482 80.5174 110.328 80.6236 110.266L87.5511 106.236C87.6152 106.199 87.6945 106.199 87.7586 106.236L88.5917 106.719L104.653 97.3762C105.049 97.1463 105.535 97.146 105.931 97.3755L136.64 115.167C136.939 115.34 136.94 115.776 136.64 115.95L118.537 126.48L119.354 126.953C119.403 126.981 119.403 127.052 119.354 127.08L112.273 131.2C112.224 131.228 112.164 131.228 112.114 131.2L111.267 130.709L93.0221 141.322C92.7193 141.498 92.3465 141.499 92.0441 141.323L61.9827 123.907C61.3287 123.528 61.328 122.579 61.9812 122.199Z" fill="#E5EA2D"/>
<path fill-rule="evenodd" clip-rule="evenodd" d="M134.492 114.636L134.467 113.623L106.859 98.6264L86.9786 109.182L86.9379 110.198L108.694 122.753L86.2745 110.575L66.4554 121.111L66.4258 122.4L94.0593 138.411L113.907 126.861L113.887 125.749L114.643 126.185L134.492 114.636Z" fill="#34799D"/>
<path fill-rule="evenodd" clip-rule="evenodd" d="M106.798 97.618L134.431 113.628L114.582 125.177L86.9485 109.167L106.798 97.618ZM66.4257 121.116L86.2747 109.567L113.908 125.577L94.0588 137.126L66.4257 121.116Z" fill="#B0E9FF"/>
<path fill-rule="evenodd" clip-rule="evenodd" d="M110.899 120.559C111.935 120.559 112.929 121.117 113.624 122.089C113.716 122.218 113.687 122.397 113.56 122.49C113.431 122.583 113.253 122.554 113.161 122.425C112.566 121.593 111.762 121.134 110.899 121.134C109.183 121.134 107.788 122.974 107.788 125.236C107.788 125.395 107.66 125.523 107.502 125.523C107.345 125.523 107.217 125.395 107.217 125.236C107.217 122.657 108.868 120.559 110.899 120.559ZM104.072 116.684C105.109 116.684 106.102 117.241 106.798 118.213C106.89 118.342 106.861 118.522 106.733 118.614C106.605 118.707 106.427 118.678 106.335 118.549C105.74 117.716 104.936 117.259 104.072 117.259C102.357 117.259 100.961 119.098 100.961 121.36C100.961 121.519 100.834 121.648 100.676 121.648C100.519 121.648 100.391 121.519 100.391 121.36C100.391 118.782 102.042 116.684 104.072 116.684ZM93.8501 117.772C93.6922 117.772 93.5645 117.643 93.5645 117.484C93.5645 114.905 95.2162 112.808 97.2459 112.808C98.2828 112.808 99.2764 113.365 99.9718 114.337C100.064 114.466 100.035 114.646 99.9073 114.739C99.7792 114.832 99.6008 114.802 99.5088 114.673C98.9133 113.841 98.1096 113.382 97.2459 113.382C95.5309 113.382 94.1354 115.223 94.1354 117.484C94.1354 117.643 94.0077 117.772 93.8501 117.772ZM87.0238 113.896C86.8663 113.896 86.7382 113.767 86.7382 113.609C86.7382 111.03 88.3899 108.932 90.4196 108.932C91.4565 108.932 92.4501 109.489 93.1455 110.462C93.2378 110.59 93.2084 110.77 93.081 110.863C92.9529 110.956 92.7741 110.926 92.6825 110.797C92.0874 109.965 91.2837 109.507 90.4196 109.507C88.7046 109.507 87.3095 111.347 87.3095 113.609C87.3095 113.767 87.1814 113.896 87.0238 113.896ZM102.896 105.939C102.861 105.939 102.826 105.921 102.808 105.888C102.78 105.839 102.796 105.776 102.845 105.748L109.266 102.002C109.315 101.973 109.377 101.989 109.406 102.039C109.434 102.088 109.417 102.151 109.369 102.179L102.947 105.925C102.931 105.935 102.914 105.939 102.896 105.939ZM124.984 111.712C125.013 111.761 124.996 111.824 124.947 111.852L113.244 118.68C113.227 118.689 113.21 118.694 113.192 118.694C113.157 118.694 113.122 118.675 113.104 118.642C113.076 118.594 113.092 118.531 113.141 118.502L124.845 111.675C124.894 111.646 124.956 111.662 124.984 111.712ZM109.722 116.472C109.694 116.423 109.71 116.36 109.759 116.332L121.463 109.504C121.512 109.475 121.574 109.492 121.603 109.541C121.631 109.59 121.614 109.653 121.566 109.682L109.861 116.51C109.845 116.519 109.827 116.523 109.81 116.523C109.775 116.523 109.741 116.505 109.722 116.472ZM106.114 114.44C106.086 114.391 106.102 114.328 106.151 114.299L117.855 107.472C117.904 107.444 117.966 107.46 117.994 107.509C118.023 107.558 118.006 107.621 117.957 107.65L106.253 114.478C106.237 114.487 106.22 114.491 106.202 114.491C106.167 114.491 106.133 114.473 106.114 114.44ZM93.4992 119.883C93.5275 119.932 93.5107 119.995 93.4623 120.024L82.6577 126.326C82.6417 126.336 82.6238 126.34 82.6063 126.34C82.5713 126.34 82.5371 126.322 82.5184 126.289C82.4898 126.24 82.5065 126.177 82.5553 126.149L93.3599 119.846C93.4083 119.817 93.4708 119.834 93.4992 119.883ZM90.2506 118.007C90.2785 118.056 90.2621 118.119 90.2133 118.148L79.4091 124.45C79.3927 124.46 79.3752 124.464 79.3577 124.464C79.3227 124.464 79.2885 124.446 79.2698 124.413C79.2412 124.364 79.2579 124.301 79.3063 124.273L90.1113 117.97C90.1597 117.941 90.2223 117.958 90.2506 118.007ZM99.7879 123.112C99.8158 123.161 99.7994 123.224 99.7507 123.253L88.0467 130.08C88.0303 130.09 88.0128 130.094 87.9953 130.094C87.9599 130.094 87.9256 130.076 87.907 130.043C87.8787 129.994 87.8955 129.931 87.9439 129.903L99.6482 123.075C99.6974 123.047 99.7596 123.063 99.7879 123.112ZM103.342 125.148C103.39 125.119 103.452 125.135 103.481 125.185C103.509 125.234 103.492 125.297 103.443 125.325L91.7393 132.153C91.7233 132.163 91.7058 132.167 91.6879 132.167C91.6529 132.167 91.6186 132.148 91.6 132.116C91.5713 132.067 91.5881 132.004 91.6369 131.976L103.342 125.148ZM96.2687 121.08C96.2967 121.129 96.2803 121.192 96.2315 121.22L84.5275 128.048C84.5111 128.058 84.4936 128.062 84.4761 128.062C84.4407 128.062 84.4065 128.044 84.3878 128.011C84.3595 127.962 84.3763 127.899 84.4247 127.871L96.1294 121.043C96.1782 121.015 96.2404 121.031 96.2687 121.08Z" fill="#562B79"/>
<path fill-rule="evenodd" clip-rule="evenodd" d="M97.1873 72.2865L112.43 81.1519C112.684 81.2993 112.996 81.2993 113.249 81.1523L135.237 68.3715C135.783 68.0539 135.784 67.2607 135.238 66.943L120.005 58.0817C119.752 57.9339 119.44 57.9339 119.186 58.0813L97.1877 70.858C96.6417 71.1753 96.6413 71.9688 97.1873 72.2865Z" fill="#E5EA2D"/>
<path fill-rule="evenodd" clip-rule="evenodd" d="M99.2251 71.6617C99.2076 71.6617 99.1905 71.6591 99.1737 71.6538C99.0296 71.6096 98.9286 71.4877 98.9111 71.3362C98.8936 71.185 98.9644 71.0433 99.0951 70.9668C99.1778 70.9184 99.2851 70.9457 99.3335 71.0301C99.3819 71.1141 99.354 71.2214 99.2702 71.2702C99.2661 71.2724 99.2553 71.2788 99.2575 71.296L99.2553 71.3088L120.084 70.0952L119.542 59.5331C119.54 59.5061 119.545 59.4791 119.556 59.4539C119.473 59.5027 119.346 59.4569 119.299 59.3733C119.251 59.2897 119.26 59.1655 119.343 59.1168C119.486 59.0335 119.658 59.0512 119.781 59.1614C119.892 59.2616 119.934 59.4101 119.892 59.5503L120.442 70.2512C120.447 70.3476 120.374 70.4301 120.278 70.4353L99.2352 71.6617C99.2322 71.6617 99.2284 71.6617 99.2251 71.6617Z" fill="#909E4F"/>
<path fill-rule="evenodd" clip-rule="evenodd" d="M8.89573 119.991C3.39677 115.088 0.294708 109.534 0.294708 103.649C0.294708 84.4795 33.2137 68.8165 74.6746 67.779L85.697 72.2785L8.89574 119.991H8.89573Z" fill="#A2ADDD"/>
<path fill-rule="evenodd" clip-rule="evenodd" d="M64.3066 0.692256C63.2023 -0.359645 61.4278 -0.190997 60.5387 1.05012L26.6467 52.0544C26.3853 52.4475 26.2461 52.9093 26.2461 53.3816V60.4267V102.057C26.2461 103.895 28.2246 105.045 29.8118 104.13L65.0911 83.7895L84.6297 72.4676C85.3662 72.041 85.82 71.2516 85.8204 70.3971L85.8275 18.91C85.8275 18.1782 85.4935 17.4864 84.9216 17.0332L64.3066 0.692256Z" fill="#E5EA2D"/>
<path fill-rule="evenodd" clip-rule="evenodd" d="M62.4052 64.1803L81.7735 22.7251C81.9344 22.3552 81.5319 21.9947 81.1845 22.197L30.7778 51.5804C30.4644 51.7632 30.518 52.2336 30.865 52.3402L62.4052 64.1803Z" fill="#909E4F"/>
<path fill-rule="evenodd" clip-rule="evenodd" d="M78.0222 6.32388L72.7814 9.31691L36.4462 30.0693V54.3662C36.4462 54.3662 62.2533 63.7828 62.3374 63.7537C62.4499 63.7151 78.0222 30.4051 78.0222 30.4051V11.644V6.32388Z" fill="#B0E9FF"/>
<path fill-rule="evenodd" clip-rule="evenodd" d="M62.3992 33.5671C62.9529 34.5947 61.9599 36.212 60.1813 37.179C58.4031 38.1464 56.5121 38.0974 55.9584 37.0698C55.4048 36.0422 56.3978 34.4249 58.1764 33.4575C59.9549 32.4905 61.8456 32.5391 62.3992 33.5671Z" fill="#EC1944"/>
<path fill-rule="evenodd" clip-rule="evenodd" d="M48.3922 58.1783L70.819 45.1871L70.409 46.0759L49.0834 58.4297L48.3922 58.1783ZM51.9588 59.4751L68.702 49.7763L68.292 50.6651L52.6499 59.7264L51.9588 59.4751ZM45.623 50.3458L45.4488 49.795L71.9714 34.4312L72.1453 34.9816L45.623 50.3458ZM45.623 53.7086L45.4488 53.1578L71.9714 37.794L72.1453 38.3444L45.623 53.7086ZM45.623 57.0714L45.4488 56.5206L71.9714 41.1568L72.1453 41.7072L45.623 57.0714ZM70.9048 19.3901L44.3829 34.7543L44.2086 33.9132L70.7305 18.549L70.9048 19.3901ZM64.5307 24.6079V25.5686L44.3826 37.2892V36.3214L64.5307 24.6079Z" fill="white"/>
<path fill-rule="evenodd" clip-rule="evenodd" d="M33.4629 117.027L47.0584 124.863L36.811 131.95L34.2111 132.505L20.5715 124.517L33.4629 117.027Z" fill="#A2ADDD"/>
<path fill-rule="evenodd" clip-rule="evenodd" d="M24.0941 120.51V124.645L36.8366 132.044V127.627L24.0941 120.51Z" fill="#909E4F"/>
<path fill-rule="evenodd" clip-rule="evenodd" d="M36.9855 113.033L24.0941 120.524L36.8366 127.999V131.957L49.709 124.557V120.372L36.9855 113.033Z" fill="#E5EA2D"/>
<path fill-rule="evenodd" clip-rule="evenodd" d="M49.7135 115.482L36.985 108.031L24.0941 115.521L36.8366 122.997V127.066L49.709 119.668V115.485L49.7135 115.482Z" fill="#B0E9FF"/>
<path fill-rule="evenodd" clip-rule="evenodd" d="M24.0941 115.482V119.516L36.8366 126.915V122.498L24.0941 115.482Z" fill="#34799D"/>
<path fill-rule="evenodd" clip-rule="evenodd" d="M36.9855 103.233L24.228 110.645L24.0941 110.571V114.605L36.8366 122.004V122.156L49.709 114.756V110.571L36.9855 103.233Z" fill="#391E66"/>
<path fill-rule="evenodd" clip-rule="evenodd" d="M36.9854 103.037L41.3743 105.52C41.3743 105.52 46.2923 108.113 47.7574 106.186C48.629 110.179 43.759 113.362 41.5489 114.838C40.3716 115.625 36.8618 118.017 36.8618 118.017L24.0941 110.527L36.9854 103.037Z" fill="#E5EA2D"/>
<g style="mix-blend-mode:multiply" opacity="0.2">
<path fill-rule="evenodd" clip-rule="evenodd" d="M75.8546 104.473C70.0779 104.473 66.053 101.778 66.053 99.3597C66.053 96.9408 70.0779 94.2455 75.8546 94.2455C81.6308 94.2455 85.6557 96.9408 85.6557 99.3597C85.6557 101.778 81.6308 104.473 75.8546 104.473Z" fill="#5B45AC"/>
</g>
<path fill-rule="evenodd" clip-rule="evenodd" d="M68.2322 67.5375C68.466 67.3598 68.8052 67.4058 69.0658 67.5431C69.6628 67.8558 69.9618 68.5323 70.2151 69.16C70.2213 68.6937 70.4935 67.3929 70.8835 68.0015C71.016 68.8203 71.0545 69.6517 70.9984 70.4794C70.9856 70.6682 70.9655 70.8622 70.879 71.0303C70.7245 71.3301 70.3864 71.4882 70.0572 71.5571C69.7292 71.6261 69.3866 71.6283 69.0641 71.7219C68.6287 70.733 68.2883 69.7045 68.0476 68.6506C67.9589 68.2616 67.9153 67.7779 68.2322 67.5375V67.5375ZM80.8207 61.0136H82.9615C83.4147 61.0138 83.8492 61.1947 84.1697 61.5166C84.4902 61.8385 84.6703 62.2751 84.6704 62.7303V66.88C84.6704 67.6277 84.1772 67.7376 83.5138 67.9729L83.5283 69.8225C83.5283 70.2589 83.3558 70.6775 83.0486 70.9861C82.7414 71.2947 82.3247 71.468 81.8903 71.468C81.4558 71.468 81.0392 71.2947 80.732 70.9861C80.4248 70.6775 80.2522 70.2589 80.2522 69.8225V68.4931C79.9192 68.376 79.6306 68.1579 79.4262 67.869C79.2218 67.58 79.1118 67.2345 79.1112 66.88V62.7303C79.1112 62.275 79.2913 61.8384 79.6118 61.5164C79.9323 61.1945 80.3669 61.0136 80.8202 61.0136H80.8207Z" fill="white"/>
<path fill-rule="evenodd" clip-rule="evenodd" d="M78.979 99.6646C79.0192 99.4528 79.2155 99.2515 79.446 99.1097C80.2455 98.6182 81.445 98.6109 82.403 98.9125C83.3609 99.2129 84.1236 99.7717 84.816 100.346C84.8171 100.667 84.4528 100.941 84.0405 101.046C83.6276 101.152 83.1768 101.124 82.7433 101.084C82.1827 101.037 81.6254 100.958 81.074 100.846C81.2341 100.976 81.3898 101.11 81.5415 101.245C81.5426 101.589 81.1783 101.882 80.766 101.995C80.3532 102.107 79.9023 102.078 79.4688 102.035C78.3658 101.927 77.2477 101.736 76.3093 101.268C76.0527 101.14 75.7971 100.974 75.7201 100.743C75.6186 100.439 75.8646 100.125 76.1715 99.923C76.9303 99.4242 78.0484 99.3917 78.979 99.6646V99.6646Z" fill="#E5EA2D"/>
<path fill-rule="evenodd" clip-rule="evenodd" d="M88.7801 87.0177C88.7221 87.3949 88.6317 87.7984 88.3466 88.05C88.1748 88.2014 87.9192 88.2798 87.7117 88.1834C87.4383 88.0556 87.3636 87.697 87.387 87.3949C87.4104 87.0922 87.4941 86.7817 87.402 86.4925C87.3865 86.6194 87.3295 86.7375 87.2401 86.8284C87.1507 86.9193 87.0338 86.978 86.9077 86.9952C86.8253 86.7474 86.7958 86.4849 86.8211 86.2249C86.8464 85.9648 86.9259 85.713 87.0545 85.4859C87.1859 85.2604 87.3631 85.0651 87.5746 84.9129C87.786 84.7608 88.027 84.655 88.2819 84.6026C88.505 84.5578 88.7857 84.5847 88.8855 84.7887C88.9257 84.8699 88.9274 84.9641 88.928 85.0549C88.929 85.712 88.8795 86.3682 88.7801 87.0177" fill="#A2ADDD"/>
<path fill-rule="evenodd" clip-rule="evenodd" d="M79.6229 101.06C77.979 94.8773 77.0606 88.5225 76.8862 82.1253C80.1562 81.7386 83.52 82.1814 86.5808 83.4026C86.1925 89.0157 85.6134 94.6137 84.8445 100.187C84.5349 100.722 83.5858 100.778 82.7093 100.34C82.6191 96.3269 82.3253 92.3211 81.8289 88.3381C81.6525 92.5597 81.5813 96.7851 81.6152 101.01C81.0456 101.646 80.1239 101.759 79.6229 101.061" fill="#562B79"/>
<path fill-rule="evenodd" clip-rule="evenodd" d="M85.0141 61.1571C84.8127 60.9795 84.5817 60.8391 84.3317 60.7424C83.0652 60.2475 81.8367 60.053 80.4921 60.3601C80.2025 60.4257 78.772 60.7805 78.7251 61.8078C78.7117 62.1049 79.1882 62.7875 79.1704 63.0846C79.1508 63.4136 79.3991 63.6876 79.5626 63.9723C80.0703 64.8495 79.8421 66.0315 80.4123 66.8688C80.8235 67.473 81.5533 67.7555 82.2378 68.0043C82.9631 68.2678 83.8369 68.5121 84.4495 68.0425C84.8182 67.7594 84.9823 67.2892 85.1273 66.847L85.6752 65.1745C85.7829 64.8439 86.0351 64.0704 86.025 63.7229C85.9971 62.7903 85.7193 61.7792 85.0141 61.1571" fill="#EC1944"/>
<path fill-rule="evenodd" clip-rule="evenodd" d="M86.395 71.3089C86.4842 71.3677 86.5674 71.4378 86.6388 71.5157C86.9166 71.8161 87.0667 72.2107 87.2023 72.5974C88.5836 76.5403 89.1899 80.7151 88.9877 84.8901L87.4946 84.9725C87.3023 84.4105 87.1193 83.8453 86.9456 83.2771C86.3319 85.9578 82.0638 85.7051 82.0638 85.7051C78.7564 85.7886 76.4957 85.6075 76.4957 82.6337L76.5671 78.2065C75.8452 79.2995 74.4425 79.5674 73.8997 79.1425C72.7687 78.2592 70.9466 76.0543 70.354 74.7821C69.7626 73.5098 69.3403 73.0071 69.0145 71.6412C69.4608 70.9687 70.5309 70.5214 70.912 70.9687C72.2521 72.5385 73.4673 73.7037 75.0417 74.6773C75.5288 73.8949 76.1247 72.5688 76.8344 71.5431C76.9889 71.2253 77.2428 70.9289 77.5697 70.661C77.7929 70.4513 78.0255 70.2883 78.2677 70.1913C78.7765 69.9071 79.374 69.6745 80.0123 69.5075C81.8133 71.361 83.5607 70.5416 83.5607 69.4206C84.6676 69.7054 85.8951 70.3034 86.395 71.3094V71.3089Z" fill="#34799D"/>
</svg>
