<svg width="210" height="152" viewBox="0 0 210 152" fill="none" xmlns="http://www.w3.org/2000/svg">
<path d="M192.032 125.727C191.497 125.727 190.962 125.594 190.471 125.328L185.255 122.31C184.943 122.132 184.764 121.822 184.764 121.467C184.764 121.112 184.943 120.801 185.255 120.624L190.471 117.606C191.408 117.073 192.612 117.073 193.592 117.606L198.809 120.624C199.121 120.801 199.299 121.112 199.299 121.467C199.299 121.822 199.121 122.132 198.809 122.31L193.592 125.328C193.102 125.594 192.567 125.727 192.032 125.727ZM192.032 118.05C191.631 118.05 191.229 118.138 190.873 118.36L185.656 121.378C185.612 121.422 185.567 121.467 185.567 121.511C185.567 121.555 185.567 121.6 185.656 121.644L190.873 124.662C191.586 125.061 192.433 125.061 193.147 124.662L198.408 121.6C198.452 121.555 198.497 121.511 198.497 121.467C198.497 121.422 198.497 121.378 198.408 121.334L193.191 118.316C192.834 118.138 192.433 118.05 192.032 118.05Z" fill="url(#paint0_linear)"/>
<path d="M177.051 108.685C176.159 108.685 175.312 108.464 174.51 108.02L165.503 102.827C165.057 102.561 164.834 102.162 164.834 101.629C164.834 101.141 165.102 100.697 165.503 100.431L174.51 95.2384C176.07 94.3509 177.987 94.3509 179.548 95.2384L188.554 100.431C189 100.697 189.223 101.097 189.223 101.629C189.223 102.117 188.955 102.561 188.554 102.827L179.548 108.02C178.79 108.464 177.943 108.685 177.051 108.685ZM174.955 107.265C176.248 108.02 177.854 108.02 179.191 107.265L188.198 102.073C188.42 101.94 188.465 101.718 188.465 101.629C188.465 101.54 188.42 101.318 188.198 101.185L179.191 95.9929C177.898 95.2384 176.293 95.2384 174.955 95.9929L165.949 101.185C165.726 101.318 165.682 101.54 165.682 101.629C165.682 101.718 165.726 101.94 165.949 102.073L174.955 107.265Z" fill="url(#paint1_linear)"/>
<path d="M16.0064 116.807C15.1146 116.807 14.2675 116.585 13.465 116.141L4.45858 110.949C4.01272 110.683 3.78979 110.283 3.78979 109.751C3.78979 109.263 4.05731 108.819 4.45858 108.552L13.465 103.36C15.0255 102.472 16.9427 102.472 18.5032 103.36L27.5095 108.552C27.9554 108.819 28.1783 109.218 28.1783 109.751C28.1783 110.239 27.9108 110.683 27.5095 110.949L18.5032 116.141C17.7452 116.585 16.8981 116.807 16.0064 116.807ZM16.0064 103.582C15.293 103.582 14.535 103.759 13.9108 104.159L4.90444 109.307C4.68151 109.44 4.63693 109.662 4.63693 109.751C4.63693 109.839 4.68151 110.061 4.90444 110.194L13.9108 115.387C15.2038 116.141 16.8089 116.141 18.1465 115.387L27.1529 110.194C27.3758 110.061 27.4204 109.839 27.4204 109.751C27.4204 109.662 27.3758 109.44 27.1529 109.307L18.1465 104.114C17.4777 103.759 16.7197 103.582 16.0064 103.582Z" fill="url(#paint2_linear)"/>
<path opacity="0.6" d="M107.229 139.396L42.8024 102.384C41.8661 101.851 41.9999 100.919 43.0699 100.298L84.4011 76.5547C85.4712 75.9334 87.1209 75.8446 88.0572 76.4215L152.484 113.39C153.42 113.922 153.286 114.854 152.216 115.476L110.885 139.219C109.771 139.884 108.165 139.929 107.229 139.396Z" fill="#020230"/>
<path d="M108.701 146.098C107.943 146.098 107.229 145.92 106.694 145.609L33.1719 103.36C32.5923 103.005 32.2356 102.517 32.2356 101.94C32.2356 101.319 32.6815 100.653 33.484 100.209L83.5987 71.0074C84.9808 70.2086 86.9872 70.1198 88.191 70.8299L161.669 113.079C162.248 113.434 162.605 113.922 162.605 114.499C162.605 115.121 162.159 115.786 161.357 116.23L111.242 145.432C110.529 145.876 109.592 146.098 108.701 146.098ZM86.1401 71.2293C85.3821 71.2293 84.5795 71.4068 83.9553 71.7618L33.8853 100.964C33.3502 101.274 33.0827 101.629 33.0827 101.984C33.0827 102.295 33.3502 102.517 33.6178 102.65L107.095 144.899C108.032 145.432 109.771 145.343 110.841 144.722L160.955 115.52C161.49 115.209 161.758 114.854 161.758 114.499C161.758 114.189 161.49 113.967 161.223 113.834L87.7452 71.5843C87.3439 71.318 86.7643 71.2293 86.1401 71.2293Z" fill="url(#paint3_linear)"/>
<path d="M169.56 51.3472L105.446 14.4677C105 14.2015 104.554 14.1571 104.153 14.2902L102.949 14.6896L103.35 14.7784C103.172 14.9559 103.038 15.2222 102.949 15.4885L88.4585 62.3533C88.1018 63.5072 88.6369 64.9273 89.6178 65.5042L153.777 102.384C153.911 102.472 154.089 102.517 154.267 102.561L154.089 102.916L155.204 102.517C155.65 102.339 156.051 101.94 156.229 101.319L170.764 54.4981C171.121 53.3442 170.586 51.9241 169.56 51.3472Z" fill="url(#paint4_radial)"/>
<path d="M151.458 104.203L88.1464 67.8121C87.2101 67.2795 85.605 67.3239 84.4903 67.9452L43.5604 91.4664L42.1782 90.9338L42.5795 92.8421C42.6241 93.1084 42.847 93.4191 43.2037 93.5966L107.14 130.343C108.076 130.875 109.681 130.831 110.796 130.21L151.815 106.644C152.306 106.334 152.618 105.978 152.707 105.623L153.108 103.759L151.458 104.203Z" fill="url(#paint5_radial)"/>
<path d="M107.229 128.701L42.8024 91.6882C41.8661 91.1557 41.9999 90.2237 43.0699 89.6024L84.4011 65.8593C85.4712 65.238 87.1209 65.1493 88.0572 65.7262L152.484 102.694C153.42 103.227 153.286 104.159 152.216 104.78L110.885 128.523C109.771 129.145 108.165 129.233 107.229 128.701Z" fill="url(#paint6_radial)"/>
<path d="M152.217 104.292L110.885 128.035C109.815 128.656 108.166 128.745 107.229 128.168L42.8026 91.1999C42.4905 91.0224 42.3122 90.8005 42.223 90.5342C42.0892 90.978 42.2676 91.3774 42.8026 91.6881L107.229 128.701C108.166 129.233 109.815 129.189 110.885 128.567L152.217 104.824C152.93 104.425 153.198 103.848 153.064 103.404C152.93 103.671 152.662 104.026 152.217 104.292Z" fill="white"/>
<g opacity="0.4">
<path opacity="0.4" d="M73.5221 85.6969L71.3374 84.4543C71.1591 84.3655 71.2037 84.188 71.382 84.0549L73.968 82.5904C74.1909 82.4572 74.4584 82.4572 74.6368 82.546L76.8215 83.7886C76.9998 83.8774 76.9552 84.0549 76.7769 84.188L74.1909 85.6525C74.0126 85.7857 73.7005 85.7857 73.5221 85.6969Z" fill="#06033E"/>
<path opacity="0.4" d="M76.8661 87.6054L74.6814 86.3628C74.5031 86.274 74.5476 86.0965 74.726 85.9633L77.312 84.4988C77.5349 84.3657 77.8024 84.3657 77.9808 84.4544L80.1655 85.6971C80.3438 85.7858 80.2992 85.9633 80.1209 86.0965L77.5349 87.561C77.3566 87.6941 77.0445 87.6941 76.8661 87.6054Z" fill="#06033E"/>
<path opacity="0.4" d="M80.2545 89.558L78.0698 88.3154C77.8915 88.2266 77.9361 88.0491 78.1144 87.916L80.7004 86.4515C80.9233 86.3183 81.1909 86.3183 81.3692 86.4071L83.5539 87.6497C83.7323 87.7385 83.6877 87.916 83.5093 88.0491L80.9233 89.5136C80.745 89.6468 80.4329 89.6468 80.2545 89.558Z" fill="#06033E"/>
<path opacity="0.4" d="M84.8915 87.9604L82.7068 86.7178C82.5285 86.629 82.573 86.4515 82.7514 86.3183L84.8915 85.0757C85.1144 84.9426 85.382 84.9426 85.5603 85.0313L87.745 86.274C87.9234 86.3627 87.8788 86.5402 87.7004 86.6734L85.5603 87.916C85.382 88.0492 85.0699 88.0492 84.8915 87.9604Z" fill="#06033E"/>
<path opacity="0.4" d="M88.2355 89.8686L86.0508 88.626C85.8724 88.5372 85.917 88.3597 86.0954 88.2266L88.2355 86.9839C88.4584 86.8508 88.7259 86.8508 88.9043 86.9395L91.089 88.1822C91.2674 88.2709 91.2228 88.4485 91.0444 88.5816L88.9043 89.8242C88.7259 89.9574 88.4138 89.9574 88.2355 89.8686Z" fill="#06033E"/>
<path opacity="0.4" d="M91.6239 91.8212L89.4392 90.5786C89.2609 90.4899 89.3055 90.3123 89.4838 90.1792L91.6239 88.9366C91.8469 88.8034 92.1144 88.8034 92.2927 88.8922L94.4774 90.1348C94.6558 90.2236 94.6112 90.4011 94.4328 90.5342L92.2927 91.7769C92.0698 91.91 91.7577 91.91 91.6239 91.8212Z" fill="#06033E"/>
<path opacity="0.4" d="M94.9679 93.7297L92.7832 92.4871C92.6049 92.3983 92.6495 92.2208 92.8278 92.0876L94.9679 90.845C95.1908 90.7119 95.4584 90.7119 95.6367 90.8006L97.8214 92.0433C97.9998 92.132 97.9552 92.3095 97.7768 92.4427L95.6367 93.6853C95.4584 93.8184 95.1463 93.8184 94.9679 93.7297Z" fill="#06033E"/>
<path opacity="0.4" d="M98.3119 95.6823L96.1272 94.4397C95.9489 94.3509 95.9934 94.1734 96.1718 94.0403L98.3119 92.7976C98.5349 92.6645 98.8024 92.6645 98.9807 92.7533L101.165 93.9959C101.344 94.0847 101.299 94.2622 101.121 94.3953L98.9807 95.6379C98.8024 95.7711 98.4903 95.7711 98.3119 95.6823Z" fill="#06033E"/>
<path opacity="0.4" d="M101.656 97.5907L99.4712 96.3481C99.2929 96.2594 99.3374 96.0818 99.5158 95.9487L101.656 94.7061C101.879 94.573 102.146 94.573 102.325 94.6617L104.509 95.9043C104.688 95.9931 104.643 96.1706 104.465 96.3037L102.325 97.5464C102.146 97.6795 101.834 97.6795 101.656 97.5907Z" fill="#06033E"/>
<path opacity="0.4" d="M105.044 99.5434L102.86 98.3008C102.681 98.212 102.726 98.0345 102.904 97.9014L105.044 96.6587C105.267 96.5256 105.535 96.5256 105.713 96.6143L107.898 97.857C108.076 97.9457 108.032 98.1233 107.853 98.2564L105.713 99.499C105.49 99.6322 105.223 99.6322 105.044 99.5434Z" fill="#06033E"/>
<path opacity="0.4" d="M108.388 101.452L106.204 100.209C106.025 100.12 106.07 99.9429 106.248 99.8098L108.388 98.5672C108.611 98.434 108.879 98.434 109.057 98.5228L111.242 99.7654C111.42 99.8542 111.376 100.032 111.197 100.165L109.057 101.407C108.879 101.541 108.567 101.541 108.388 101.452Z" fill="#06033E"/>
<path opacity="0.4" d="M111.732 103.404L109.548 102.162C109.369 102.073 109.414 101.896 109.592 101.762L111.732 100.52C111.955 100.387 112.223 100.387 112.401 100.475L114.586 101.718C114.764 101.807 114.72 101.984 114.541 102.117L112.401 103.36C112.223 103.493 111.911 103.493 111.732 103.404Z" fill="#06033E"/>
<path opacity="0.4" d="M115.121 105.313L112.936 104.07C112.758 103.981 112.802 103.804 112.981 103.671L115.121 102.428C115.344 102.295 115.611 102.295 115.79 102.384L117.974 103.626C118.153 103.715 118.108 103.893 117.93 104.026L115.79 105.268C115.567 105.401 115.299 105.401 115.121 105.313Z" fill="#06033E"/>
<path opacity="0.4" d="M89.8405 87.0285L87.6558 85.7859C87.4774 85.6971 87.522 85.5196 87.7004 85.3865L89.8405 84.1438C90.0634 84.0107 90.3309 84.0107 90.5093 84.0995L92.694 85.3421C92.8723 85.4308 92.8278 85.6084 92.6494 85.7415L90.5093 86.9841C90.3309 87.1173 90.0188 87.1173 89.8405 87.0285Z" fill="#06033E"/>
<path opacity="0.4" d="M86.4076 85.0759L84.2229 83.8332C84.0446 83.7445 84.0892 83.567 84.2675 83.4338L86.4076 82.1912C86.6306 82.0581 86.8981 82.0581 87.0764 82.1468L89.2611 83.3894C89.4395 83.4782 89.3949 83.6557 89.2165 83.7889L87.0764 85.0315C86.8981 85.1646 86.586 85.1646 86.4076 85.0759Z" fill="#06033E"/>
<path opacity="0.4" d="M83.0189 83.1229L78.3374 80.4158C78.1591 80.327 78.2037 80.1495 78.382 80.0163L80.5221 78.7737C80.7451 78.6406 81.0126 78.6406 81.1909 78.7293L85.8724 81.4365C86.0508 81.5252 86.0062 81.7028 85.8278 81.8359L83.6877 83.0785C83.5094 83.2117 83.1973 83.2117 83.0189 83.1229Z" fill="#06033E"/>
<path opacity="0.4" d="M85.3821 80.7266L81.5923 78.552C81.4139 78.4632 81.4585 78.2857 81.6369 78.1526L83.777 76.91C83.9999 76.7768 84.2674 76.7768 84.4458 76.8656L88.2356 79.0402C88.4139 79.1289 88.3694 79.3064 88.191 79.4396L86.0509 80.6822C85.8725 80.8153 85.5604 80.8153 85.3821 80.7266Z" fill="#06033E"/>
<path opacity="0.4" d="M93.1845 88.9812L90.9998 87.7385C90.8214 87.6498 90.866 87.4722 91.0443 87.3391L93.1845 86.0965C93.4074 85.9633 93.6749 85.9633 93.8533 86.0521L96.038 87.2947C96.2163 87.3835 96.1717 87.561 95.9934 87.6941L93.8533 88.9368C93.6749 89.0699 93.3628 89.0699 93.1845 88.9812Z" fill="#06033E"/>
<path opacity="0.4" d="M96.5285 90.8894L94.3438 89.6467C94.1654 89.558 94.21 89.3805 94.3883 89.2473L96.5285 88.0047C96.7514 87.8715 97.0189 87.8715 97.1973 87.9603L99.382 89.2029C99.5603 89.2917 99.5157 89.4692 99.3374 89.6023L97.1973 90.845C97.0189 90.9781 96.7068 90.9781 96.5285 90.8894Z" fill="#06033E"/>
<path opacity="0.4" d="M99.9171 92.8422L97.7324 91.5996C97.5541 91.5108 97.5987 91.3333 97.777 91.2002L99.9171 89.9576C100.14 89.8244 100.408 89.8244 100.586 89.9132L102.771 91.1558C102.949 91.2446 102.904 91.4221 102.726 91.5552L100.586 92.7979C100.408 92.931 100.095 92.931 99.9171 92.8422Z" fill="#06033E"/>
<path opacity="0.4" d="M103.261 94.7504L101.076 93.5078C100.898 93.4191 100.942 93.2415 101.121 93.1084L103.261 91.8658C103.484 91.7326 103.751 91.7326 103.93 91.8214L106.114 93.064C106.293 93.1528 106.248 93.3303 106.07 93.4634L103.93 94.7061C103.751 94.8392 103.439 94.8392 103.261 94.7504Z" fill="#06033E"/>
<path opacity="0.4" d="M106.605 96.7031L104.42 95.4604C104.242 95.3717 104.286 95.1942 104.465 95.061L106.605 93.8184C106.828 93.6853 107.095 93.6853 107.274 93.774L109.458 95.0166C109.637 95.1054 109.592 95.2829 109.414 95.4161L107.274 96.6587C107.095 96.7475 106.783 96.7918 106.605 96.7031Z" fill="#06033E"/>
<path opacity="0.4" d="M109.994 98.6115L107.809 97.3689C107.631 97.2801 107.675 97.1026 107.853 96.9695L109.994 95.7268C110.216 95.5937 110.484 95.5937 110.662 95.6825L112.847 96.9251C113.025 97.0138 112.981 97.1914 112.802 97.3245L110.662 98.5671C110.439 98.7003 110.172 98.7003 109.994 98.6115Z" fill="#06033E"/>
<path opacity="0.4" d="M113.337 100.52L111.153 99.2771C110.974 99.1883 111.019 99.0108 111.197 98.8777L113.337 97.635C113.56 97.5019 113.828 97.5019 114.006 97.5907L116.191 98.8333C116.369 98.9221 116.325 99.0996 116.146 99.2327L114.006 100.475C113.828 100.608 113.516 100.653 113.337 100.52Z" fill="#06033E"/>
<path opacity="0.4" d="M116.681 102.472L114.497 101.23C114.318 101.141 114.363 100.963 114.541 100.83L116.681 99.5877C116.904 99.4545 117.172 99.4545 117.35 99.5433L119.535 100.786C119.713 100.875 119.669 101.052 119.49 101.185L117.35 102.428C117.172 102.561 116.86 102.561 116.681 102.472Z" fill="#06033E"/>
<path opacity="0.4" d="M120.07 104.381L117.885 103.138C117.707 103.049 117.752 102.872 117.93 102.739L120.07 101.496C120.293 101.363 120.56 101.363 120.739 101.452L122.923 102.694C123.102 102.783 123.057 102.961 122.879 103.094L120.739 104.336C120.516 104.47 120.204 104.514 120.07 104.381Z" fill="#06033E"/>
<path opacity="0.4" d="M126 107.842L121.274 105.135C121.095 105.046 121.14 104.869 121.318 104.736L123.458 103.493C123.681 103.36 123.949 103.36 124.127 103.449L128.853 106.156C129.032 106.245 128.987 106.422 128.809 106.555L126.669 107.798C126.49 107.931 126.178 107.931 126 107.842Z" fill="#06033E"/>
<path opacity="0.4" d="M132.554 104.07L128.541 101.762C128.363 101.674 128.408 101.496 128.586 101.363L130.726 100.12C130.949 99.9873 131.216 99.9873 131.395 100.076L135.408 102.384C135.586 102.473 135.541 102.65 135.363 102.783L133.223 104.026C133.044 104.159 132.732 104.159 132.554 104.07Z" fill="#06033E"/>
<path opacity="0.4" d="M99.07 88.5817L96.8853 87.3391C96.7069 87.2503 96.7515 87.0728 96.9298 86.9397L99.07 85.6971C99.2929 85.5639 99.5604 85.5639 99.7388 85.6527L101.923 86.8953C102.102 86.9841 102.057 87.1616 101.879 87.2947L99.7388 88.5374C99.5604 88.6705 99.2483 88.6705 99.07 88.5817Z" fill="#06033E"/>
<path opacity="0.4" d="M95.6366 86.6291L93.4519 85.3865C93.2736 85.2977 93.3182 85.1202 93.4965 84.987L95.6366 83.7444C95.8596 83.6113 96.1271 83.6113 96.3054 83.7L98.4901 84.9427C98.6685 85.0314 98.6239 85.2089 98.4456 85.3421L96.3054 86.5847C96.1271 86.7178 95.815 86.7178 95.6366 86.6291Z" fill="#06033E"/>
<path opacity="0.4" d="M92.2038 84.632L90.0191 83.3894C89.8407 83.3006 89.8853 83.1231 90.0636 82.99L92.2038 81.7473C92.4267 81.6142 92.6942 81.6142 92.8726 81.703L95.0573 82.9456C95.2356 83.0344 95.191 83.2119 95.0127 83.345L92.8726 84.5876C92.6496 84.7208 92.3821 84.7208 92.2038 84.632Z" fill="#06033E"/>
<path opacity="0.4" d="M88.726 82.635L86.5413 81.3923C86.3629 81.3036 86.4075 81.1261 86.5859 80.9929L88.726 79.7503C88.9489 79.6171 89.2164 79.6171 89.3948 79.7059L91.5795 80.9485C91.7578 81.0373 91.7133 81.2148 91.5349 81.3479L89.3948 82.5906C89.2164 82.7237 88.9043 82.7681 88.726 82.635Z" fill="#06033E"/>
<path opacity="0.4" d="M102.414 90.5344L100.229 89.2917C100.051 89.203 100.095 89.0255 100.274 88.8923L102.414 87.6497C102.637 87.5166 102.904 87.5166 103.083 87.6053L105.267 88.8479C105.446 88.9367 105.401 89.1142 105.223 89.2474L103.083 90.49C102.904 90.6231 102.592 90.6231 102.414 90.5344Z" fill="#06033E"/>
<path opacity="0.4" d="M105.802 92.4428L103.618 91.2002C103.439 91.1114 103.484 90.9339 103.662 90.8008L105.802 89.5581C106.025 89.425 106.293 89.425 106.471 89.5138L108.656 90.7564C108.834 90.8452 108.79 91.0227 108.611 91.1558L106.471 92.3984C106.248 92.5316 105.981 92.5316 105.802 92.4428Z" fill="#06033E"/>
<path opacity="0.4" d="M109.146 94.3955L106.962 93.1528C106.783 93.0641 106.828 92.8866 107.006 92.7534L109.146 91.5108C109.369 91.3776 109.637 91.3776 109.815 91.4664L112 92.709C112.178 92.7978 112.134 92.9753 111.955 93.1085L109.815 94.3511C109.637 94.4842 109.325 94.4842 109.146 94.3955Z" fill="#06033E"/>
<path opacity="0.4" d="M112.49 96.3037L110.306 95.061C110.127 94.9723 110.172 94.7948 110.35 94.6616L112.49 93.419C112.713 93.2858 112.981 93.2858 113.159 93.3746L115.344 94.6172C115.522 94.706 115.478 94.8835 115.299 95.0167L113.159 96.2593C112.981 96.3924 112.669 96.3924 112.49 96.3037Z" fill="#06033E"/>
<path opacity="0.4" d="M115.879 98.2121L113.694 96.9695C113.516 96.8807 113.56 96.7032 113.739 96.5701L115.879 95.3274C116.102 95.1943 116.369 95.1943 116.548 95.2831L118.732 96.5257C118.911 96.6144 118.866 96.792 118.688 96.9251L116.548 98.1677C116.325 98.3009 116.013 98.3453 115.879 98.2121Z" fill="#06033E"/>
<path opacity="0.4" d="M119.223 100.165L117.038 98.9221C116.86 98.8333 116.904 98.6558 117.083 98.5227L119.223 97.2801C119.446 97.1469 119.713 97.1469 119.892 97.2357L122.076 98.4783C122.255 98.5671 122.21 98.7446 122.032 98.8777L119.892 100.12C119.713 100.253 119.401 100.253 119.223 100.165Z" fill="#06033E"/>
<path opacity="0.4" d="M122.567 102.073L120.382 100.831C120.204 100.742 120.248 100.564 120.427 100.431L122.567 99.1885C122.79 99.0554 123.057 99.0554 123.236 99.1441L125.42 100.387C125.599 100.476 125.554 100.653 125.376 100.786L123.236 102.029C123.057 102.162 122.745 102.206 122.567 102.073Z" fill="#06033E"/>
<path opacity="0.4" d="M125.911 104.026L123.726 102.783C123.547 102.694 123.592 102.517 123.77 102.384L125.911 101.141C126.133 101.008 126.401 101.008 126.579 101.097L128.764 102.339C128.942 102.428 128.898 102.606 128.719 102.739L126.579 103.981C126.401 104.115 126.089 104.115 125.911 104.026Z" fill="#06033E"/>
<path opacity="0.4" d="M129.299 105.934L127.115 104.692C126.936 104.603 126.981 104.425 127.159 104.292L129.299 103.05C129.522 102.916 129.79 102.916 129.968 103.005L132.153 104.248C132.331 104.337 132.286 104.514 132.108 104.647L129.968 105.89C129.79 106.023 129.478 106.067 129.299 105.934Z" fill="#06033E"/>
<path opacity="0.4" d="M97.2865 83.833L95.1018 82.5903C94.9235 82.5016 94.9681 82.3241 95.1464 82.1909L97.2865 80.9483C97.5095 80.8151 97.777 80.8151 97.9553 80.9039L100.14 82.1465C100.318 82.2353 100.274 82.4128 100.095 82.546L97.9553 83.7886C97.777 83.9217 97.4649 83.9217 97.2865 83.833Z" fill="#06033E"/>
<path opacity="0.4" d="M93.9425 81.8803L91.7578 80.6377C91.5795 80.5489 91.6241 80.3714 91.8024 80.2383L93.9425 78.9956C94.1655 78.8625 94.433 78.8625 94.6113 78.9513L96.796 80.1939C96.9744 80.2826 96.9298 80.4602 96.7515 80.5933L94.6113 81.8359C94.433 81.9691 94.1209 82.0134 93.9425 81.8803Z" fill="#06033E"/>
<path opacity="0.4" d="M90.6432 79.9721L88.4585 78.7295C88.2802 78.6407 88.3247 78.4632 88.5031 78.3301L90.6432 77.0874C90.8662 76.9543 91.1337 76.9543 91.312 77.0431L93.4967 78.2857C93.6751 78.3744 93.6305 78.552 93.4521 78.6851L91.312 79.9277C91.0891 80.0609 90.777 80.0609 90.6432 79.9721Z" fill="#06033E"/>
<path opacity="0.4" d="M87.2992 78.0637L85.1145 76.821C84.9362 76.7323 84.9808 76.5548 85.1591 76.4216L87.2992 75.179C87.5222 75.0459 87.7897 75.0459 87.968 75.1346L90.1527 76.3772C90.3311 76.466 90.2865 76.6435 90.1081 76.7767L87.968 78.0193C87.7451 78.1524 87.4776 78.1524 87.2992 78.0637Z" fill="#06033E"/>
<path opacity="0.4" d="M90.7323 76.0666L88.5476 74.824C88.3693 74.7353 88.4139 74.5577 88.5922 74.4246L89.3056 74.0252C89.5285 73.892 89.796 73.892 89.9744 73.9808L92.1591 75.2234C92.3374 75.3122 92.2928 75.4897 92.1145 75.6228L91.4011 76.0223C91.1782 76.1554 90.9107 76.1998 90.7323 76.0666Z" fill="#06033E"/>
<path opacity="0.4" d="M95.057 78.5964L92.8723 77.3538C92.694 77.265 92.7386 77.0875 92.9169 76.9544L93.6303 76.555C93.8532 76.4218 94.1207 76.4218 94.2991 76.5106L96.4838 77.7532C96.6621 77.842 96.6175 78.0195 96.4392 78.1526L95.7258 78.552C95.5475 78.6852 95.2354 78.6852 95.057 78.5964Z" fill="#06033E"/>
<path opacity="0.4" d="M98.401 80.5046L96.2163 79.262C96.038 79.1732 96.0826 78.9957 96.2609 78.8626L96.9743 78.4632C97.1972 78.33 97.4647 78.33 97.6431 78.4188L99.8278 79.6614C100.006 79.7502 99.9615 79.9277 99.7832 80.0608L99.0698 80.4603C98.8915 80.5934 98.5794 80.5934 98.401 80.5046Z" fill="#06033E"/>
<path opacity="0.4" d="M101.745 82.4128L99.5603 81.1702C99.382 81.0814 99.4266 80.9039 99.6049 80.7708L100.318 80.3714C100.541 80.2382 100.809 80.2382 100.987 80.327L103.172 81.5696C103.35 81.6584 103.306 81.8359 103.127 81.969L102.414 82.3684C102.191 82.5016 101.923 82.5016 101.745 82.4128Z" fill="#06033E"/>
<path opacity="0.4" d="M105.044 84.3213L102.86 83.0787C102.681 82.9899 102.726 82.8124 102.904 82.6792L103.618 82.2798C103.841 82.1467 104.108 82.1467 104.286 82.2354L106.471 83.4781C106.649 83.5668 106.605 83.7443 106.427 83.8775L105.713 84.2769C105.535 84.41 105.223 84.41 105.044 84.3213Z" fill="#06033E"/>
<path opacity="0.4" d="M123.637 95.0169L121.452 93.7742C121.274 93.6855 121.318 93.5079 121.497 93.3748L122.21 92.9754C122.433 92.8422 122.701 92.8422 122.879 92.931L125.064 94.1736C125.242 94.2624 125.197 94.4399 125.019 94.5731L124.306 94.9725C124.127 95.0612 123.815 95.1056 123.637 95.0169Z" fill="#06033E"/>
<path opacity="0.4" d="M126.936 96.925L124.751 95.6824C124.573 95.5937 124.618 95.4161 124.796 95.283L125.509 94.8836C125.732 94.7504 126 94.7504 126.178 94.8392L128.363 96.0818C128.541 96.1706 128.497 96.3481 128.318 96.4812L127.605 96.8807C127.427 97.0138 127.115 97.0138 126.936 96.925Z" fill="#06033E"/>
<path opacity="0.4" d="M130.28 98.8332L128.095 97.5906C127.917 97.5019 127.962 97.3243 128.14 97.1912L128.853 96.7918C129.076 96.6586 129.344 96.6586 129.522 96.7474L131.707 97.99C131.885 98.0788 131.841 98.2563 131.662 98.3895L130.949 98.7889C130.771 98.922 130.459 98.922 130.28 98.8332Z" fill="#06033E"/>
<path opacity="0.4" d="M133.624 100.742L131.439 99.4991C131.261 99.4103 131.305 99.2328 131.484 99.0996L132.197 98.7002C132.42 98.5671 132.688 98.5671 132.866 98.6559L135.051 99.8985C135.229 99.9872 135.184 100.165 135.006 100.298L134.293 100.697C134.07 100.83 133.802 100.83 133.624 100.742Z" fill="#06033E"/>
<path opacity="0.4" d="M100.675 85.7414L98.4902 84.4988C98.3119 84.41 98.3565 84.2325 98.5348 84.0994L100.675 82.8567C100.898 82.7236 101.165 82.7236 101.344 82.8123L103.528 84.055C103.707 84.1437 103.662 84.3213 103.484 84.4544L101.344 85.697C101.121 85.8302 100.853 85.8302 100.675 85.7414Z" fill="#06033E"/>
<path opacity="0.4" d="M104.019 87.694L101.834 86.4514C101.656 86.3626 101.7 86.1851 101.879 86.052L104.019 84.8094C104.242 84.6762 104.509 84.6762 104.688 84.765L106.872 86.0076C107.051 86.0964 107.006 86.2739 106.828 86.407L104.688 87.6496C104.509 87.7828 104.197 87.7828 104.019 87.694Z" fill="#06033E"/>
<path opacity="0.4" d="M107.363 89.6025L105.178 88.3599C105 88.2711 105.044 88.0936 105.223 87.9604L107.363 86.7178C107.586 86.5847 107.853 86.5847 108.032 86.6734L110.216 87.9161C110.395 88.0048 110.35 88.1823 110.172 88.3155L108.032 89.5581C107.853 89.6912 107.541 89.6912 107.363 89.6025Z" fill="#06033E"/>
<path opacity="0.4" d="M110.751 91.5107L108.567 90.268C108.388 90.1793 108.433 90.0018 108.611 89.8686L110.751 88.626C110.974 88.4929 111.242 88.4929 111.42 88.5816L113.605 89.8243C113.783 89.913 113.739 90.0905 113.56 90.2237L111.42 91.4663C111.197 91.5994 110.93 91.6438 110.751 91.5107Z" fill="#06033E"/>
<path opacity="0.4" d="M114.095 93.4633L111.911 92.2207C111.732 92.1319 111.777 91.9544 111.955 91.8213L114.095 90.5787C114.318 90.4455 114.586 90.4455 114.764 90.5343L116.949 91.7769C117.127 91.8657 117.083 92.0432 116.904 92.1763L114.764 93.4189C114.586 93.5521 114.274 93.5521 114.095 93.4633Z" fill="#06033E"/>
<path opacity="0.4" d="M117.439 95.3718L115.255 94.1291C115.076 94.0404 115.121 93.8629 115.299 93.7297L117.439 92.4871C117.662 92.354 117.93 92.354 118.108 92.4427L120.293 93.6853C120.471 93.7741 120.427 93.9516 120.248 94.0848L118.108 95.3274C117.93 95.4605 117.618 95.5049 117.439 95.3718Z" fill="#06033E"/>
<path opacity="0.4" d="M120.783 97.3244L118.599 96.0818C118.42 95.993 118.465 95.8155 118.643 95.6824L120.783 94.4397C121.006 94.3066 121.274 94.3066 121.452 94.3954L123.637 95.638C123.815 95.7267 123.771 95.9043 123.592 96.0374L121.452 97.28C121.274 97.4132 120.962 97.4132 120.783 97.3244Z" fill="#06033E"/>
<path opacity="0.4" d="M124.172 99.2329L121.987 97.9902C121.809 97.9015 121.853 97.7239 122.032 97.5908L124.172 96.3482C124.395 96.215 124.662 96.215 124.841 96.3038L127.025 97.5464C127.204 97.6352 127.159 97.8127 126.981 97.9458L124.841 99.1885C124.662 99.3216 124.35 99.366 124.172 99.2329Z" fill="#06033E"/>
<path opacity="0.4" d="M127.516 101.185L125.331 99.9429C125.153 99.8541 125.197 99.6766 125.376 99.5434L127.516 98.3008C127.739 98.1677 128.006 98.1677 128.185 98.2564L130.369 99.4991C130.548 99.5878 130.503 99.7653 130.325 99.8985L128.185 101.141C128.006 101.274 127.694 101.274 127.516 101.185Z" fill="#06033E"/>
<path opacity="0.4" d="M81.4585 85.9633L75.0381 82.2798C74.8598 82.191 74.9043 82.0135 75.0827 81.8804L77.2228 80.6377C77.4457 80.5046 77.7133 80.5046 77.8916 80.5934L84.312 84.2768C84.4903 84.3656 84.4457 84.5431 84.2674 84.6763L82.1273 85.9189C81.9489 86.052 81.6368 86.0964 81.4585 85.9633Z" fill="#06033E"/>
<path opacity="0.4" d="M122.7 109.706L116.28 106.023C116.102 105.934 116.146 105.757 116.325 105.624L118.465 104.381C118.688 104.248 118.955 104.248 119.134 104.337L125.554 108.02C125.732 108.109 125.688 108.286 125.509 108.419L123.369 109.662C123.191 109.795 122.879 109.795 122.7 109.706Z" fill="#06033E"/>
<path opacity="0.4" d="M109.28 106.245L107.095 105.002C106.917 104.913 106.962 104.736 107.14 104.603L109.726 103.138C109.949 103.005 110.216 103.005 110.395 103.094L112.58 104.336C112.758 104.425 112.713 104.603 112.535 104.736L109.949 106.2C109.771 106.334 109.459 106.334 109.28 106.245Z" fill="#06033E"/>
<path opacity="0.4" d="M84.8915 92.2207L81.4138 90.2236C81.2355 90.1348 81.2801 89.9573 81.4584 89.8242L84.0444 88.3597C84.2673 88.2265 84.5348 88.2265 84.7132 88.3153L88.1909 90.3124C88.3692 90.4011 88.3247 90.5786 88.1463 90.7118L85.5603 92.1763C85.382 92.3094 85.0699 92.3094 84.8915 92.2207Z" fill="#06033E"/>
<path opacity="0.4" d="M106.07 104.381L102.592 102.384C102.414 102.295 102.458 102.117 102.637 101.984L105.223 100.52C105.446 100.387 105.713 100.387 105.891 100.475L109.369 102.473C109.547 102.561 109.503 102.739 109.325 102.872L106.739 104.336C106.516 104.47 106.204 104.47 106.07 104.381Z" fill="#06033E"/>
<path opacity="0.4" d="M89.7514 95.0166L86.2737 93.0195C86.0953 92.9307 86.1399 92.7532 86.3183 92.6201L88.9043 91.1556C89.1272 91.0224 89.3947 91.0224 89.573 91.1112L93.0508 93.1083C93.2291 93.197 93.1845 93.3745 93.0062 93.5077L90.4202 94.9722C90.2418 95.1053 89.9297 95.1053 89.7514 95.0166Z" fill="#06033E"/>
<path opacity="0.4" d="M89.573 91.1113L104.688 99.8097C104.866 99.8985 104.866 100.076 104.688 100.209L102.057 101.718C101.879 101.807 101.567 101.807 101.388 101.718L86.2737 93.0196L89.573 91.1113Z" fill="#06033E"/>
<path opacity="0.4" d="M118.688 109.751L121.095 111.127C121.229 111.215 121.229 111.348 121.051 111.437L119.981 112.059C119.802 112.147 119.58 112.147 119.401 112.103L116.994 110.727C116.86 110.638 116.86 110.505 117.038 110.417L118.108 109.795C118.287 109.662 118.509 109.662 118.688 109.751Z" fill="#06033E"/>
<path opacity="0.4" d="M115.299 107.798L117.707 109.174C117.841 109.262 117.841 109.396 117.662 109.484L116.592 110.106C116.414 110.194 116.191 110.194 116.013 110.15L113.605 108.774C113.471 108.686 113.471 108.552 113.649 108.464L114.72 107.842C114.898 107.709 115.121 107.709 115.299 107.798Z" fill="#06033E"/>
<path opacity="0.4" d="M111.911 105.845L114.318 107.221C114.452 107.31 114.452 107.443 114.274 107.532L113.204 108.153C113.025 108.242 112.802 108.242 112.624 108.197L110.216 106.822C110.083 106.733 110.083 106.6 110.261 106.511L111.331 105.89C111.554 105.801 111.777 105.756 111.911 105.845Z" fill="#06033E"/>
<path opacity="0.4" d="M117.127 106.733L119.535 108.109C119.669 108.198 119.669 108.331 119.49 108.419L118.42 109.041C118.242 109.129 118.019 109.129 117.841 109.085L115.433 107.709C115.299 107.621 115.299 107.487 115.478 107.399L116.548 106.777C116.726 106.644 116.994 106.644 117.127 106.733Z" fill="#06033E"/>
</g>
<g opacity="0.4">
<path opacity="0.4" d="M73.5221 85.6969L71.3374 84.4543C71.1591 84.3655 71.2037 84.188 71.382 84.0549L73.968 82.5904C74.1909 82.4572 74.4584 82.4572 74.6368 82.546L76.8215 83.7886C76.9998 83.8774 76.9552 84.0549 76.7769 84.188L74.1909 85.6525C74.0126 85.7857 73.7005 85.7857 73.5221 85.6969Z" fill="#06033E"/>
<path opacity="0.4" d="M76.8661 87.6054L74.6814 86.3628C74.5031 86.274 74.5476 86.0965 74.726 85.9633L77.312 84.4988C77.5349 84.3657 77.8024 84.3657 77.9808 84.4544L80.1655 85.6971C80.3438 85.7858 80.2992 85.9633 80.1209 86.0965L77.5349 87.561C77.3566 87.6941 77.0445 87.6941 76.8661 87.6054Z" fill="#06033E"/>
<path opacity="0.4" d="M80.2545 89.558L78.0698 88.3154C77.8915 88.2266 77.9361 88.0491 78.1144 87.916L80.7004 86.4515C80.9233 86.3183 81.1909 86.3183 81.3692 86.4071L83.5539 87.6497C83.7323 87.7385 83.6877 87.916 83.5093 88.0491L80.9233 89.5136C80.745 89.6468 80.4329 89.6468 80.2545 89.558Z" fill="#06033E"/>
<path opacity="0.4" d="M84.8915 87.9604L82.7068 86.7178C82.5285 86.629 82.573 86.4515 82.7514 86.3183L84.8915 85.0757C85.1144 84.9426 85.382 84.9426 85.5603 85.0313L87.745 86.274C87.9234 86.3627 87.8788 86.5402 87.7004 86.6734L85.5603 87.916C85.382 88.0492 85.0699 88.0492 84.8915 87.9604Z" fill="#06033E"/>
<path opacity="0.4" d="M88.2355 89.8686L86.0508 88.626C85.8724 88.5372 85.917 88.3597 86.0954 88.2266L88.2355 86.9839C88.4584 86.8508 88.7259 86.8508 88.9043 86.9395L91.089 88.1822C91.2674 88.2709 91.2228 88.4485 91.0444 88.5816L88.9043 89.8242C88.7259 89.9574 88.4138 89.9574 88.2355 89.8686Z" fill="#06033E"/>
<path opacity="0.4" d="M91.6239 91.8212L89.4392 90.5786C89.2609 90.4899 89.3055 90.3123 89.4838 90.1792L91.6239 88.9366C91.8469 88.8034 92.1144 88.8034 92.2927 88.8922L94.4774 90.1348C94.6558 90.2236 94.6112 90.4011 94.4328 90.5342L92.2927 91.7769C92.0698 91.91 91.7577 91.91 91.6239 91.8212Z" fill="#06033E"/>
<path opacity="0.4" d="M94.9679 93.7297L92.7832 92.4871C92.6049 92.3983 92.6495 92.2208 92.8278 92.0876L94.9679 90.845C95.1908 90.7119 95.4584 90.7119 95.6367 90.8006L97.8214 92.0433C97.9998 92.132 97.9552 92.3095 97.7768 92.4427L95.6367 93.6853C95.4584 93.8184 95.1463 93.8184 94.9679 93.7297Z" fill="#06033E"/>
<path opacity="0.4" d="M98.3119 95.6823L96.1272 94.4397C95.9489 94.3509 95.9934 94.1734 96.1718 94.0403L98.3119 92.7976C98.5349 92.6645 98.8024 92.6645 98.9807 92.7533L101.165 93.9959C101.344 94.0847 101.299 94.2622 101.121 94.3953L98.9807 95.6379C98.8024 95.7711 98.4903 95.7711 98.3119 95.6823Z" fill="#06033E"/>
<path opacity="0.4" d="M101.656 97.5907L99.4712 96.3481C99.2929 96.2594 99.3374 96.0818 99.5158 95.9487L101.656 94.7061C101.879 94.573 102.146 94.573 102.325 94.6617L104.509 95.9043C104.688 95.9931 104.643 96.1706 104.465 96.3037L102.325 97.5464C102.146 97.6795 101.834 97.6795 101.656 97.5907Z" fill="#06033E"/>
<path opacity="0.4" d="M105.044 99.5434L102.86 98.3008C102.681 98.212 102.726 98.0345 102.904 97.9014L105.044 96.6587C105.267 96.5256 105.535 96.5256 105.713 96.6143L107.898 97.857C108.076 97.9457 108.032 98.1233 107.853 98.2564L105.713 99.499C105.49 99.6322 105.223 99.6322 105.044 99.5434Z" fill="#06033E"/>
<path opacity="0.4" d="M108.388 101.452L106.204 100.209C106.025 100.12 106.07 99.9429 106.248 99.8098L108.388 98.5672C108.611 98.434 108.879 98.434 109.057 98.5228L111.242 99.7654C111.42 99.8542 111.376 100.032 111.197 100.165L109.057 101.407C108.879 101.541 108.567 101.541 108.388 101.452Z" fill="#06033E"/>
<path opacity="0.4" d="M111.732 103.404L109.548 102.162C109.369 102.073 109.414 101.896 109.592 101.762L111.732 100.52C111.955 100.387 112.223 100.387 112.401 100.475L114.586 101.718C114.764 101.807 114.72 101.984 114.541 102.117L112.401 103.36C112.223 103.493 111.911 103.493 111.732 103.404Z" fill="#06033E"/>
<path opacity="0.4" d="M115.121 105.313L112.936 104.07C112.758 103.981 112.802 103.804 112.981 103.671L115.121 102.428C115.344 102.295 115.611 102.295 115.79 102.384L117.974 103.626C118.153 103.715 118.108 103.893 117.93 104.026L115.79 105.268C115.567 105.401 115.299 105.401 115.121 105.313Z" fill="#06033E"/>
<path opacity="0.4" d="M89.8405 87.0285L87.6558 85.7859C87.4774 85.6971 87.522 85.5196 87.7004 85.3865L89.8405 84.1438C90.0634 84.0107 90.3309 84.0107 90.5093 84.0995L92.694 85.3421C92.8723 85.4308 92.8278 85.6084 92.6494 85.7415L90.5093 86.9841C90.3309 87.1173 90.0188 87.1173 89.8405 87.0285Z" fill="#06033E"/>
<path opacity="0.4" d="M86.4076 85.0759L84.2229 83.8332C84.0446 83.7445 84.0892 83.567 84.2675 83.4338L86.4076 82.1912C86.6306 82.0581 86.8981 82.0581 87.0764 82.1468L89.2611 83.3894C89.4395 83.4782 89.3949 83.6557 89.2165 83.7889L87.0764 85.0315C86.8981 85.1646 86.586 85.1646 86.4076 85.0759Z" fill="#06033E"/>
<path opacity="0.4" d="M83.0189 83.1229L78.3374 80.4158C78.1591 80.327 78.2037 80.1495 78.382 80.0163L80.5221 78.7737C80.7451 78.6406 81.0126 78.6406 81.1909 78.7293L85.8724 81.4365C86.0508 81.5252 86.0062 81.7028 85.8278 81.8359L83.6877 83.0785C83.5094 83.2117 83.1973 83.2117 83.0189 83.1229Z" fill="#06033E"/>
<path opacity="0.4" d="M85.3821 80.7266L81.5923 78.552C81.4139 78.4632 81.4585 78.2857 81.6369 78.1526L83.777 76.91C83.9999 76.7768 84.2674 76.7768 84.4458 76.8656L88.2356 79.0402C88.4139 79.1289 88.3694 79.3064 88.191 79.4396L86.0509 80.6822C85.8725 80.8153 85.5604 80.8153 85.3821 80.7266Z" fill="#06033E"/>
<path opacity="0.4" d="M93.1845 88.9812L90.9998 87.7385C90.8214 87.6498 90.866 87.4722 91.0443 87.3391L93.1845 86.0965C93.4074 85.9633 93.6749 85.9633 93.8533 86.0521L96.038 87.2947C96.2163 87.3835 96.1717 87.561 95.9934 87.6941L93.8533 88.9368C93.6749 89.0699 93.3628 89.0699 93.1845 88.9812Z" fill="#06033E"/>
<path opacity="0.4" d="M96.5285 90.8894L94.3438 89.6467C94.1654 89.558 94.21 89.3805 94.3883 89.2473L96.5285 88.0047C96.7514 87.8715 97.0189 87.8715 97.1973 87.9603L99.382 89.2029C99.5603 89.2917 99.5157 89.4692 99.3374 89.6023L97.1973 90.845C97.0189 90.9781 96.7068 90.9781 96.5285 90.8894Z" fill="#06033E"/>
<path opacity="0.4" d="M99.9171 92.8422L97.7324 91.5996C97.5541 91.5108 97.5987 91.3333 97.777 91.2002L99.9171 89.9576C100.14 89.8244 100.408 89.8244 100.586 89.9132L102.771 91.1558C102.949 91.2446 102.904 91.4221 102.726 91.5552L100.586 92.7979C100.408 92.931 100.095 92.931 99.9171 92.8422Z" fill="#06033E"/>
<path opacity="0.4" d="M103.261 94.7504L101.076 93.5078C100.898 93.4191 100.942 93.2415 101.121 93.1084L103.261 91.8658C103.484 91.7326 103.751 91.7326 103.93 91.8214L106.114 93.064C106.293 93.1528 106.248 93.3303 106.07 93.4634L103.93 94.7061C103.751 94.8392 103.439 94.8392 103.261 94.7504Z" fill="#06033E"/>
<path opacity="0.4" d="M106.605 96.7031L104.42 95.4604C104.242 95.3717 104.286 95.1942 104.465 95.061L106.605 93.8184C106.828 93.6853 107.095 93.6853 107.274 93.774L109.458 95.0166C109.637 95.1054 109.592 95.2829 109.414 95.4161L107.274 96.6587C107.095 96.7475 106.783 96.7918 106.605 96.7031Z" fill="#06033E"/>
<path opacity="0.4" d="M109.994 98.6115L107.809 97.3689C107.631 97.2801 107.675 97.1026 107.853 96.9695L109.994 95.7268C110.216 95.5937 110.484 95.5937 110.662 95.6825L112.847 96.9251C113.025 97.0138 112.981 97.1914 112.802 97.3245L110.662 98.5671C110.439 98.7003 110.172 98.7003 109.994 98.6115Z" fill="#06033E"/>
<path opacity="0.4" d="M113.337 100.52L111.153 99.2771C110.974 99.1883 111.019 99.0108 111.197 98.8777L113.337 97.635C113.56 97.5019 113.828 97.5019 114.006 97.5907L116.191 98.8333C116.369 98.9221 116.325 99.0996 116.146 99.2327L114.006 100.475C113.828 100.608 113.516 100.653 113.337 100.52Z" fill="#06033E"/>
<path opacity="0.4" d="M116.681 102.472L114.497 101.23C114.318 101.141 114.363 100.963 114.541 100.83L116.681 99.5877C116.904 99.4545 117.172 99.4545 117.35 99.5433L119.535 100.786C119.713 100.875 119.669 101.052 119.49 101.185L117.35 102.428C117.172 102.561 116.86 102.561 116.681 102.472Z" fill="#06033E"/>
<path opacity="0.4" d="M120.07 104.381L117.885 103.138C117.707 103.049 117.752 102.872 117.93 102.739L120.07 101.496C120.293 101.363 120.56 101.363 120.739 101.452L122.923 102.694C123.102 102.783 123.057 102.961 122.879 103.094L120.739 104.336C120.516 104.47 120.204 104.514 120.07 104.381Z" fill="#06033E"/>
<path opacity="0.4" d="M126 107.842L121.274 105.135C121.095 105.046 121.14 104.869 121.318 104.736L123.458 103.493C123.681 103.36 123.949 103.36 124.127 103.449L128.853 106.156C129.032 106.245 128.987 106.422 128.809 106.555L126.669 107.798C126.49 107.931 126.178 107.931 126 107.842Z" fill="#06033E"/>
<path opacity="0.4" d="M132.554 104.07L128.541 101.762C128.363 101.674 128.408 101.496 128.586 101.363L130.726 100.12C130.949 99.9873 131.216 99.9873 131.395 100.076L135.408 102.384C135.586 102.473 135.541 102.65 135.363 102.783L133.223 104.026C133.044 104.159 132.732 104.159 132.554 104.07Z" fill="#06033E"/>
<path opacity="0.4" d="M99.07 88.5817L96.8853 87.3391C96.7069 87.2503 96.7515 87.0728 96.9298 86.9397L99.07 85.6971C99.2929 85.5639 99.5604 85.5639 99.7388 85.6527L101.923 86.8953C102.102 86.9841 102.057 87.1616 101.879 87.2947L99.7388 88.5374C99.5604 88.6705 99.2483 88.6705 99.07 88.5817Z" fill="#06033E"/>
<path opacity="0.4" d="M95.6366 86.6291L93.4519 85.3865C93.2736 85.2977 93.3182 85.1202 93.4965 84.987L95.6366 83.7444C95.8596 83.6113 96.1271 83.6113 96.3054 83.7L98.4901 84.9427C98.6685 85.0314 98.6239 85.2089 98.4456 85.3421L96.3054 86.5847C96.1271 86.7178 95.815 86.7178 95.6366 86.6291Z" fill="#06033E"/>
<path opacity="0.4" d="M92.2038 84.632L90.0191 83.3894C89.8407 83.3006 89.8853 83.1231 90.0636 82.99L92.2038 81.7473C92.4267 81.6142 92.6942 81.6142 92.8726 81.703L95.0573 82.9456C95.2356 83.0344 95.191 83.2119 95.0127 83.345L92.8726 84.5876C92.6496 84.7208 92.3821 84.7208 92.2038 84.632Z" fill="#06033E"/>
<path opacity="0.4" d="M88.726 82.635L86.5413 81.3923C86.3629 81.3036 86.4075 81.1261 86.5859 80.9929L88.726 79.7503C88.9489 79.6171 89.2164 79.6171 89.3948 79.7059L91.5795 80.9485C91.7578 81.0373 91.7133 81.2148 91.5349 81.3479L89.3948 82.5906C89.2164 82.7237 88.9043 82.7681 88.726 82.635Z" fill="#06033E"/>
<path opacity="0.4" d="M102.414 90.5344L100.229 89.2917C100.051 89.203 100.095 89.0255 100.274 88.8923L102.414 87.6497C102.637 87.5166 102.904 87.5166 103.083 87.6053L105.267 88.8479C105.446 88.9367 105.401 89.1142 105.223 89.2474L103.083 90.49C102.904 90.6231 102.592 90.6231 102.414 90.5344Z" fill="#06033E"/>
<path opacity="0.4" d="M105.802 92.4428L103.618 91.2002C103.439 91.1114 103.484 90.9339 103.662 90.8008L105.802 89.5581C106.025 89.425 106.293 89.425 106.471 89.5138L108.656 90.7564C108.834 90.8452 108.79 91.0227 108.611 91.1558L106.471 92.3984C106.248 92.5316 105.981 92.5316 105.802 92.4428Z" fill="#06033E"/>
<path opacity="0.4" d="M109.146 94.3955L106.962 93.1528C106.783 93.0641 106.828 92.8866 107.006 92.7534L109.146 91.5108C109.369 91.3776 109.637 91.3776 109.815 91.4664L112 92.709C112.178 92.7978 112.134 92.9753 111.955 93.1085L109.815 94.3511C109.637 94.4842 109.325 94.4842 109.146 94.3955Z" fill="#06033E"/>
<path opacity="0.4" d="M112.49 96.3037L110.306 95.061C110.127 94.9723 110.172 94.7948 110.35 94.6616L112.49 93.419C112.713 93.2858 112.981 93.2858 113.159 93.3746L115.344 94.6172C115.522 94.706 115.478 94.8835 115.299 95.0167L113.159 96.2593C112.981 96.3924 112.669 96.3924 112.49 96.3037Z" fill="#06033E"/>
<path opacity="0.4" d="M115.879 98.2121L113.694 96.9695C113.516 96.8807 113.56 96.7032 113.739 96.5701L115.879 95.3274C116.102 95.1943 116.369 95.1943 116.548 95.2831L118.732 96.5257C118.911 96.6144 118.866 96.792 118.688 96.9251L116.548 98.1677C116.325 98.3009 116.013 98.3453 115.879 98.2121Z" fill="#06033E"/>
<path opacity="0.4" d="M119.223 100.165L117.038 98.9221C116.86 98.8333 116.904 98.6558 117.083 98.5227L119.223 97.2801C119.446 97.1469 119.713 97.1469 119.892 97.2357L122.076 98.4783C122.255 98.5671 122.21 98.7446 122.032 98.8777L119.892 100.12C119.713 100.253 119.401 100.253 119.223 100.165Z" fill="#06033E"/>
<path opacity="0.4" d="M122.567 102.073L120.382 100.831C120.204 100.742 120.248 100.564 120.427 100.431L122.567 99.1885C122.79 99.0554 123.057 99.0554 123.236 99.1441L125.42 100.387C125.599 100.476 125.554 100.653 125.376 100.786L123.236 102.029C123.057 102.162 122.745 102.206 122.567 102.073Z" fill="#06033E"/>
<path opacity="0.4" d="M125.911 104.026L123.726 102.783C123.547 102.694 123.592 102.517 123.77 102.384L125.911 101.141C126.133 101.008 126.401 101.008 126.579 101.097L128.764 102.339C128.942 102.428 128.898 102.606 128.719 102.739L126.579 103.981C126.401 104.115 126.089 104.115 125.911 104.026Z" fill="#06033E"/>
<path opacity="0.4" d="M129.299 105.934L127.115 104.692C126.936 104.603 126.981 104.425 127.159 104.292L129.299 103.05C129.522 102.916 129.79 102.916 129.968 103.005L132.153 104.248C132.331 104.337 132.286 104.514 132.108 104.647L129.968 105.89C129.79 106.023 129.478 106.067 129.299 105.934Z" fill="#06033E"/>
<path opacity="0.4" d="M97.2865 83.833L95.1018 82.5903C94.9235 82.5016 94.9681 82.3241 95.1464 82.1909L97.2865 80.9483C97.5095 80.8151 97.777 80.8151 97.9553 80.9039L100.14 82.1465C100.318 82.2353 100.274 82.4128 100.095 82.546L97.9553 83.7886C97.777 83.9217 97.4649 83.9217 97.2865 83.833Z" fill="#06033E"/>
<path opacity="0.4" d="M93.9425 81.8803L91.7578 80.6377C91.5795 80.5489 91.6241 80.3714 91.8024 80.2383L93.9425 78.9956C94.1655 78.8625 94.433 78.8625 94.6113 78.9513L96.796 80.1939C96.9744 80.2826 96.9298 80.4602 96.7515 80.5933L94.6113 81.8359C94.433 81.9691 94.1209 82.0134 93.9425 81.8803Z" fill="#06033E"/>
<path opacity="0.4" d="M90.6432 79.9721L88.4585 78.7295C88.2802 78.6407 88.3247 78.4632 88.5031 78.3301L90.6432 77.0874C90.8662 76.9543 91.1337 76.9543 91.312 77.0431L93.4967 78.2857C93.6751 78.3744 93.6305 78.552 93.4521 78.6851L91.312 79.9277C91.0891 80.0609 90.777 80.0609 90.6432 79.9721Z" fill="#06033E"/>
<path opacity="0.4" d="M87.2992 78.0637L85.1145 76.821C84.9362 76.7323 84.9808 76.5548 85.1591 76.4216L87.2992 75.179C87.5222 75.0459 87.7897 75.0459 87.968 75.1346L90.1527 76.3772C90.3311 76.466 90.2865 76.6435 90.1081 76.7767L87.968 78.0193C87.7451 78.1524 87.4776 78.1524 87.2992 78.0637Z" fill="#06033E"/>
<path opacity="0.4" d="M90.7323 76.0666L88.5476 74.824C88.3693 74.7353 88.4139 74.5577 88.5922 74.4246L89.3056 74.0252C89.5285 73.892 89.796 73.892 89.9744 73.9808L92.1591 75.2234C92.3374 75.3122 92.2928 75.4897 92.1145 75.6228L91.4011 76.0223C91.1782 76.1554 90.9107 76.1998 90.7323 76.0666Z" fill="#06033E"/>
<path opacity="0.4" d="M95.057 78.5964L92.8723 77.3538C92.694 77.265 92.7386 77.0875 92.9169 76.9544L93.6303 76.555C93.8532 76.4218 94.1207 76.4218 94.2991 76.5106L96.4838 77.7532C96.6621 77.842 96.6175 78.0195 96.4392 78.1526L95.7258 78.552C95.5475 78.6852 95.2354 78.6852 95.057 78.5964Z" fill="#06033E"/>
<path opacity="0.4" d="M98.401 80.5046L96.2163 79.262C96.038 79.1732 96.0826 78.9957 96.2609 78.8626L96.9743 78.4632C97.1972 78.33 97.4647 78.33 97.6431 78.4188L99.8278 79.6614C100.006 79.7502 99.9615 79.9277 99.7832 80.0608L99.0698 80.4603C98.8915 80.5934 98.5794 80.5934 98.401 80.5046Z" fill="#06033E"/>
<path opacity="0.4" d="M101.745 82.4128L99.5603 81.1702C99.382 81.0814 99.4266 80.9039 99.6049 80.7708L100.318 80.3714C100.541 80.2382 100.809 80.2382 100.987 80.327L103.172 81.5696C103.35 81.6584 103.306 81.8359 103.127 81.969L102.414 82.3684C102.191 82.5016 101.923 82.5016 101.745 82.4128Z" fill="#06033E"/>
<path opacity="0.4" d="M105.044 84.3213L102.86 83.0787C102.681 82.9899 102.726 82.8124 102.904 82.6792L103.618 82.2798C103.841 82.1467 104.108 82.1467 104.286 82.2354L106.471 83.4781C106.649 83.5668 106.605 83.7443 106.427 83.8775L105.713 84.2769C105.535 84.41 105.223 84.41 105.044 84.3213Z" fill="#06033E"/>
<path opacity="0.4" d="M123.637 95.0169L121.452 93.7742C121.274 93.6855 121.318 93.5079 121.497 93.3748L122.21 92.9754C122.433 92.8422 122.701 92.8422 122.879 92.931L125.064 94.1736C125.242 94.2624 125.197 94.4399 125.019 94.5731L124.306 94.9725C124.127 95.0612 123.815 95.1056 123.637 95.0169Z" fill="#06033E"/>
<path opacity="0.4" d="M126.936 96.925L124.751 95.6824C124.573 95.5937 124.618 95.4161 124.796 95.283L125.509 94.8836C125.732 94.7504 126 94.7504 126.178 94.8392L128.363 96.0818C128.541 96.1706 128.497 96.3481 128.318 96.4812L127.605 96.8807C127.427 97.0138 127.115 97.0138 126.936 96.925Z" fill="#06033E"/>
<path opacity="0.4" d="M130.28 98.8332L128.095 97.5906C127.917 97.5019 127.962 97.3243 128.14 97.1912L128.853 96.7918C129.076 96.6586 129.344 96.6586 129.522 96.7474L131.707 97.99C131.885 98.0788 131.841 98.2563 131.662 98.3895L130.949 98.7889C130.771 98.922 130.459 98.922 130.28 98.8332Z" fill="#06033E"/>
<path opacity="0.4" d="M133.624 100.742L131.439 99.4991C131.261 99.4103 131.305 99.2328 131.484 99.0996L132.197 98.7002C132.42 98.5671 132.688 98.5671 132.866 98.6559L135.051 99.8985C135.229 99.9872 135.184 100.165 135.006 100.298L134.293 100.697C134.07 100.83 133.802 100.83 133.624 100.742Z" fill="#06033E"/>
<path opacity="0.4" d="M100.675 85.7414L98.4902 84.4988C98.3119 84.41 98.3565 84.2325 98.5348 84.0994L100.675 82.8567C100.898 82.7236 101.165 82.7236 101.344 82.8123L103.528 84.055C103.707 84.1437 103.662 84.3213 103.484 84.4544L101.344 85.697C101.121 85.8302 100.853 85.8302 100.675 85.7414Z" fill="#06033E"/>
<path opacity="0.4" d="M104.019 87.694L101.834 86.4514C101.656 86.3626 101.7 86.1851 101.879 86.052L104.019 84.8094C104.242 84.6762 104.509 84.6762 104.688 84.765L106.872 86.0076C107.051 86.0964 107.006 86.2739 106.828 86.407L104.688 87.6496C104.509 87.7828 104.197 87.7828 104.019 87.694Z" fill="#06033E"/>
<path opacity="0.4" d="M107.363 89.6025L105.178 88.3599C105 88.2711 105.044 88.0936 105.223 87.9604L107.363 86.7178C107.586 86.5847 107.853 86.5847 108.032 86.6734L110.216 87.9161C110.395 88.0048 110.35 88.1823 110.172 88.3155L108.032 89.5581C107.853 89.6912 107.541 89.6912 107.363 89.6025Z" fill="#06033E"/>
<path opacity="0.4" d="M110.751 91.5107L108.567 90.268C108.388 90.1793 108.433 90.0018 108.611 89.8686L110.751 88.626C110.974 88.4929 111.242 88.4929 111.42 88.5816L113.605 89.8243C113.783 89.913 113.739 90.0905 113.56 90.2237L111.42 91.4663C111.197 91.5994 110.93 91.6438 110.751 91.5107Z" fill="#06033E"/>
<path opacity="0.4" d="M114.095 93.4633L111.911 92.2207C111.732 92.1319 111.777 91.9544 111.955 91.8213L114.095 90.5787C114.318 90.4455 114.586 90.4455 114.764 90.5343L116.949 91.7769C117.127 91.8657 117.083 92.0432 116.904 92.1763L114.764 93.4189C114.586 93.5521 114.274 93.5521 114.095 93.4633Z" fill="#06033E"/>
<path opacity="0.4" d="M117.439 95.3718L115.255 94.1291C115.076 94.0404 115.121 93.8629 115.299 93.7297L117.439 92.4871C117.662 92.354 117.93 92.354 118.108 92.4427L120.293 93.6853C120.471 93.7741 120.427 93.9516 120.248 94.0848L118.108 95.3274C117.93 95.4605 117.618 95.5049 117.439 95.3718Z" fill="#06033E"/>
<path opacity="0.4" d="M120.783 97.3244L118.599 96.0818C118.42 95.993 118.465 95.8155 118.643 95.6824L120.783 94.4397C121.006 94.3066 121.274 94.3066 121.452 94.3954L123.637 95.638C123.815 95.7267 123.771 95.9043 123.592 96.0374L121.452 97.28C121.274 97.4132 120.962 97.4132 120.783 97.3244Z" fill="#06033E"/>
<path opacity="0.4" d="M124.172 99.2329L121.987 97.9902C121.809 97.9015 121.853 97.7239 122.032 97.5908L124.172 96.3482C124.395 96.215 124.662 96.215 124.841 96.3038L127.025 97.5464C127.204 97.6352 127.159 97.8127 126.981 97.9458L124.841 99.1885C124.662 99.3216 124.35 99.366 124.172 99.2329Z" fill="#06033E"/>
<path opacity="0.4" d="M127.516 101.185L125.331 99.9429C125.153 99.8541 125.197 99.6766 125.376 99.5434L127.516 98.3008C127.739 98.1677 128.006 98.1677 128.185 98.2564L130.369 99.4991C130.548 99.5878 130.503 99.7653 130.325 99.8985L128.185 101.141C128.006 101.274 127.694 101.274 127.516 101.185Z" fill="#06033E"/>
<path opacity="0.4" d="M81.4585 85.9633L75.0381 82.2798C74.8598 82.191 74.9043 82.0135 75.0827 81.8804L77.2228 80.6377C77.4457 80.5046 77.7133 80.5046 77.8916 80.5934L84.312 84.2768C84.4903 84.3656 84.4457 84.5431 84.2674 84.6763L82.1273 85.9189C81.9489 86.052 81.6368 86.0964 81.4585 85.9633Z" fill="#06033E"/>
<path opacity="0.4" d="M122.7 109.706L116.28 106.023C116.102 105.934 116.146 105.757 116.325 105.624L118.465 104.381C118.688 104.248 118.955 104.248 119.134 104.337L125.554 108.02C125.732 108.109 125.688 108.286 125.509 108.419L123.369 109.662C123.191 109.795 122.879 109.795 122.7 109.706Z" fill="#06033E"/>
<path opacity="0.4" d="M109.28 106.245L107.095 105.002C106.917 104.913 106.962 104.736 107.14 104.603L109.726 103.138C109.949 103.005 110.216 103.005 110.395 103.094L112.58 104.336C112.758 104.425 112.713 104.603 112.535 104.736L109.949 106.2C109.771 106.334 109.459 106.334 109.28 106.245Z" fill="#06033E"/>
<path opacity="0.4" d="M84.8915 92.2207L81.4138 90.2236C81.2355 90.1348 81.2801 89.9573 81.4584 89.8242L84.0444 88.3597C84.2673 88.2265 84.5348 88.2265 84.7132 88.3153L88.1909 90.3124C88.3692 90.4011 88.3247 90.5786 88.1463 90.7118L85.5603 92.1763C85.382 92.3094 85.0699 92.3094 84.8915 92.2207Z" fill="#06033E"/>
<path opacity="0.4" d="M106.07 104.381L102.592 102.384C102.414 102.295 102.458 102.117 102.637 101.984L105.223 100.52C105.446 100.387 105.713 100.387 105.891 100.475L109.369 102.473C109.547 102.561 109.503 102.739 109.325 102.872L106.739 104.336C106.516 104.47 106.204 104.47 106.07 104.381Z" fill="#06033E"/>
<path opacity="0.4" d="M89.7514 95.0166L86.2737 93.0195C86.0953 92.9307 86.1399 92.7532 86.3183 92.6201L88.9043 91.1556C89.1272 91.0224 89.3947 91.0224 89.573 91.1112L93.0508 93.1083C93.2291 93.197 93.1845 93.3745 93.0062 93.5077L90.4202 94.9722C90.2418 95.1053 89.9297 95.1053 89.7514 95.0166Z" fill="#06033E"/>
<path opacity="0.4" d="M89.573 91.1113L104.688 99.8097C104.866 99.8985 104.866 100.076 104.688 100.209L102.057 101.718C101.879 101.807 101.567 101.807 101.388 101.718L86.2737 93.0196L89.573 91.1113Z" fill="#06033E"/>
<path opacity="0.4" d="M118.688 109.751L121.095 111.127C121.229 111.215 121.229 111.348 121.051 111.437L119.981 112.059C119.802 112.147 119.58 112.147 119.401 112.103L116.994 110.727C116.86 110.638 116.86 110.505 117.038 110.417L118.108 109.795C118.287 109.662 118.509 109.662 118.688 109.751Z" fill="#06033E"/>
<path opacity="0.4" d="M115.299 107.798L117.707 109.174C117.841 109.262 117.841 109.396 117.662 109.484L116.592 110.106C116.414 110.194 116.191 110.194 116.013 110.15L113.605 108.774C113.471 108.686 113.471 108.552 113.649 108.464L114.72 107.842C114.898 107.709 115.121 107.709 115.299 107.798Z" fill="#06033E"/>
<path opacity="0.4" d="M111.911 105.845L114.318 107.221C114.452 107.31 114.452 107.443 114.274 107.532L113.204 108.153C113.025 108.242 112.802 108.242 112.624 108.197L110.216 106.822C110.083 106.733 110.083 106.6 110.261 106.511L111.331 105.89C111.554 105.801 111.777 105.756 111.911 105.845Z" fill="#06033E"/>
<path opacity="0.4" d="M117.127 106.733L119.535 108.109C119.669 108.198 119.669 108.331 119.49 108.419L118.42 109.041C118.242 109.129 118.019 109.129 117.841 109.085L115.433 107.709C115.299 107.621 115.299 107.487 115.478 107.399L116.548 106.777C116.726 106.644 116.994 106.644 117.127 106.733Z" fill="#06033E"/>
</g>
<path d="M152.662 102.828L88.5032 65.9481C87.4778 65.3712 86.9873 63.951 87.344 62.7972L101.834 15.9324C102.191 14.7785 103.306 14.2903 104.331 14.8673L168.491 51.7467C169.516 52.3236 170.006 53.7437 169.65 54.8976L155.159 101.762C154.803 102.916 153.688 103.404 152.662 102.828Z" fill="url(#paint7_radial)"/>
<path d="M152.083 101.185L89.8854 65.4154C88.9045 64.8828 88.4141 63.5071 88.7708 62.3976L102.637 17.5742C102.994 16.4647 104.064 16.0209 105 16.5535L167.198 52.3234C168.178 52.856 168.669 54.2317 168.312 55.3412L154.446 100.165C154.089 101.274 153.019 101.718 152.083 101.185Z" fill="url(#paint8_linear)"/>
<path opacity="0.4" d="M152.083 101.185L89.8854 65.4154C88.9045 64.8828 88.4141 63.5071 88.7708 62.3976L102.637 17.5742C102.994 16.4647 104.064 16.0209 105 16.5535L167.198 52.3234C168.178 52.856 168.669 54.2317 168.312 55.3412L154.446 100.165C154.089 101.274 153.019 101.718 152.083 101.185Z" fill="#06033E"/>
<path opacity="0.4" d="M152.083 101.185L89.8854 65.4154C88.9045 64.8828 88.4141 63.5071 88.7708 62.3976L102.637 17.5742C102.994 16.4647 104.064 16.0209 105 16.5535L136.099 34.4384L167.198 52.3234C168.178 52.856 168.669 54.2317 168.312 55.3412L154.446 100.165C154.089 101.274 153.019 101.718 152.083 101.185Z" fill="#06033E"/>
<path opacity="0.5" d="M148.739 87.4722L106.605 63.2853C105.936 62.8859 105.58 61.9983 105.847 61.1995L115.389 30.4001C115.611 29.6456 116.369 29.335 116.994 29.69L159.127 53.8769C159.796 54.2763 160.153 55.1639 159.885 55.9627L150.344 86.7621C150.121 87.5609 149.408 87.8716 148.739 87.4722Z" fill="#06033E"/>
<path d="M143.032 88.2266L100.898 64.0397C100.229 63.6403 99.8726 62.7527 100.14 61.9539L109.682 31.1545C109.904 30.4 110.662 30.0893 111.287 30.4444L153.42 54.6312C154.089 55.0307 154.446 55.9183 154.178 56.7171L144.637 87.5165C144.414 88.2709 143.701 88.5816 143.032 88.2266Z" fill="url(#paint9_radial)"/>
<g opacity="0.5">
<path opacity="0.5" d="M143.032 88.2266L100.898 64.0397C100.229 63.6403 99.8726 62.7527 100.14 61.9539L109.682 31.1545C109.904 30.4 110.662 30.0893 111.287 30.4444L153.42 54.6312C154.089 55.0307 154.446 55.9183 154.178 56.7171L144.637 87.5165C144.414 88.2709 143.701 88.5816 143.032 88.2266Z" fill="#06033E"/>
</g>
<path d="M153.42 54.6755L111.287 30.4886C110.885 30.2667 110.439 30.2668 110.083 30.533C110.261 30.533 110.484 30.5774 110.707 30.6662L152.841 54.853C153.51 55.2524 153.866 56.14 153.599 56.9389L144.057 87.7383C143.968 88.0046 143.834 88.2265 143.611 88.404C144.057 88.404 144.459 88.0933 144.637 87.5608L154.178 56.7614C154.401 55.9625 154.089 55.0749 153.42 54.6755Z" fill="white"/>
<path opacity="0.4" d="M89.9299 113.345C89.3503 113.345 88.8152 113.212 88.3694 112.99L71.5159 103.315C71.07 103.049 70.8025 102.694 70.8025 102.295C70.8025 101.807 71.1592 101.363 71.7388 101.008L80.4331 96.0372C81.5031 95.4159 83.0636 95.3715 83.9999 95.9041L100.853 105.579C101.299 105.845 101.567 106.2 101.567 106.6C101.567 107.088 101.21 107.532 100.631 107.887L91.9362 112.857C91.312 113.168 90.5987 113.345 89.9299 113.345ZM82.3948 95.9929C81.7706 95.9929 81.1464 96.126 80.656 96.4366L71.9617 101.407C71.5159 101.673 71.2929 101.984 71.2929 102.25C71.2929 102.561 71.5159 102.739 71.7388 102.872L88.5923 112.591C89.3503 113.035 90.777 112.99 91.6687 112.458L100.363 107.487C100.809 107.221 101.032 106.91 101.032 106.644C101.032 106.333 100.809 106.156 100.586 106.023L83.7324 96.3479C83.3757 96.0816 82.8853 95.9929 82.3948 95.9929Z" fill="#06033E"/>
<path d="M121.541 46.6432L118.955 45.1343C118.732 45.0012 118.599 44.6462 118.688 44.3799C118.777 44.1136 119.045 43.9805 119.267 44.158L121.853 45.6669C122.076 45.8 122.21 46.1551 122.121 46.4213C122.076 46.6432 121.809 46.7764 121.541 46.6432Z" fill="white"/>
<path d="M127.739 50.1934L123.904 47.9744C123.681 47.8413 123.548 47.4862 123.637 47.22C123.726 46.9537 123.994 46.8205 124.216 46.9981L128.051 49.217C128.274 49.3502 128.408 49.7052 128.318 49.9715C128.274 50.2378 128.006 50.3265 127.739 50.1934Z" fill="white"/>
<path d="M116.325 58.1818L113.739 56.6729C113.516 56.5398 113.382 56.1847 113.471 55.9185C113.56 55.6522 113.828 55.519 114.051 55.6966L116.637 57.2055C116.86 57.3386 116.994 57.6936 116.904 57.9599C116.815 58.1818 116.548 58.315 116.325 58.1818Z" fill="white"/>
<path d="M121.853 61.3328L118.019 59.1138C117.796 58.9807 117.662 58.6256 117.752 58.3594C117.841 58.0931 118.108 57.96 118.331 58.1375L122.166 60.3564C122.389 60.4896 122.522 60.8446 122.433 61.1109C122.344 61.3772 122.076 61.4659 121.853 61.3328Z" fill="white"/>
<path d="M113.739 44.5573L112.134 43.6253C111.911 43.4922 111.777 43.1371 111.866 42.8708C111.955 42.6046 112.223 42.4714 112.446 42.6489L114.051 43.5809C114.274 43.7141 114.407 44.0691 114.318 44.3354C114.274 44.6016 114.006 44.6904 113.739 44.5573Z" fill="white"/>
<path d="M118.643 49.794L113.694 46.9537C113.471 46.8205 113.337 46.4655 113.427 46.1992C113.516 45.9329 113.783 45.7998 114.006 45.9773L118.955 48.8176C119.178 48.9507 119.312 49.3058 119.223 49.5721C119.134 49.8383 118.911 49.9271 118.643 49.794Z" fill="white"/>
<path d="M114.051 52.0131L112.446 51.0811C112.223 50.948 112.089 50.5929 112.178 50.3267C112.267 50.0604 112.535 49.9272 112.758 50.1048L114.363 51.0367C114.586 51.1699 114.72 51.5249 114.631 51.7912C114.586 52.0575 114.318 52.1462 114.051 52.0131Z" fill="white"/>
<path d="M122.433 66.5251L118.108 64.0398C117.885 63.9067 117.752 63.5517 117.841 63.2854C117.93 63.0191 118.197 62.886 118.42 63.0635L122.745 65.5488C122.968 65.6819 123.102 66.0369 123.013 66.3032C122.923 66.5695 122.656 66.6582 122.433 66.5251Z" fill="white"/>
<path d="M112.223 55.8296L111.197 55.2083C110.974 55.0752 110.841 54.7201 110.93 54.4538C111.019 54.1876 111.286 54.0544 111.509 54.232L112.535 54.8533C112.758 54.9864 112.892 55.3414 112.802 55.6077C112.758 55.874 112.49 55.9627 112.223 55.8296Z" fill="white"/>
<path d="M111.242 60.0902L109.949 59.3357C109.726 59.2026 109.592 58.8476 109.681 58.5813C109.771 58.315 110.038 58.1819 110.261 58.3594L111.554 59.1138C111.777 59.247 111.911 59.602 111.822 59.8683C111.777 60.1346 111.51 60.2677 111.242 60.0902Z" fill="white"/>
<path d="M116.28 63.0192L112.847 61.0665C112.624 60.9333 112.49 60.5783 112.579 60.312C112.669 60.0457 112.936 59.9126 113.159 60.0901L116.592 62.0428C116.815 62.1759 116.949 62.531 116.86 62.7973C116.815 63.0192 116.548 63.1523 116.28 63.0192Z" fill="white"/>
<path d="M111.777 62.8416L109.325 61.4214C109.102 61.2883 108.968 60.9333 109.057 60.667C109.146 60.4007 109.414 60.2676 109.637 60.4451L112.089 61.8652C112.312 61.9984 112.446 62.3534 112.357 62.6197C112.312 62.886 112.044 62.9747 111.777 62.8416Z" fill="white"/>
<path d="M126.178 68.6996L124.618 67.8121C124.395 67.6789 124.261 67.3239 124.35 67.0576C124.439 66.7913 124.707 66.6582 124.93 66.8357L126.49 67.7233C126.713 67.8564 126.847 68.2115 126.758 68.4777C126.669 68.6996 126.401 68.8328 126.178 68.6996Z" fill="white"/>
<path d="M120.114 55.519L115.79 53.0337C115.567 52.9006 115.433 52.5456 115.522 52.2793C115.611 52.013 115.879 51.8799 116.102 52.0574L120.427 54.5426C120.649 54.6758 120.783 55.0308 120.694 55.2971C120.605 55.519 120.337 55.6521 120.114 55.519Z" fill="white"/>
<path d="M120.65 53.3888L113.07 49.0396C112.847 48.9065 112.713 48.5514 112.803 48.2851C112.892 48.0189 113.159 47.8857 113.382 48.0633L120.962 52.4124C121.185 52.5456 121.318 52.9006 121.229 53.1669C121.14 53.3888 120.873 53.5219 120.65 53.3888Z" fill="#E8975B"/>
<path d="M116.147 55.6521L111.822 53.1668C111.599 53.0337 111.465 52.6786 111.554 52.4123C111.643 52.1461 111.911 52.0129 112.134 52.1904L116.459 54.6757C116.682 54.8088 116.815 55.1639 116.726 55.4302C116.682 55.6964 116.414 55.7852 116.147 55.6521Z" fill="#E8975B"/>
<path d="M123.414 57.3828L121.854 56.4952C121.631 56.362 121.497 56.007 121.586 55.7407C121.675 55.4744 121.943 55.3413 122.166 55.5188L123.726 56.4064C123.949 56.5395 124.083 56.8946 123.994 57.1609C123.904 57.4271 123.637 57.5159 123.414 57.3828Z" fill="#E8975B"/>
<path d="M139.465 56.8946L130.102 51.5247C129.879 51.3916 129.745 51.0365 129.834 50.7703C129.924 50.504 130.191 50.3708 130.414 50.5484L139.777 55.9183C140 56.0514 140.134 56.4065 140.045 56.6727C139.955 56.939 139.688 57.0721 139.465 56.8946Z" fill="#E8975B"/>
<path d="M115.79 60.3118L110.573 57.294C110.35 57.1609 110.217 56.8058 110.306 56.5395C110.395 56.2733 110.662 56.1401 110.885 56.3176L116.102 59.3355C116.325 59.4686 116.459 59.8236 116.369 60.0899C116.325 60.3118 116.057 60.4449 115.79 60.3118Z" fill="#F8359E"/>
<path d="M116.592 43.7583L112.758 41.5394C112.535 41.4062 112.401 41.0512 112.49 40.7849C112.58 40.5186 112.847 40.3855 113.07 40.563L116.904 42.782C117.127 42.9151 117.261 43.2702 117.172 43.5364C117.083 43.8027 116.815 43.8915 116.592 43.7583Z" fill="#F8359E"/>
<path d="M110.975 64.7943L106.516 62.2203C106.293 62.0871 106.159 61.7321 106.248 61.4658C106.338 61.1995 106.605 61.0664 106.828 61.2439L111.287 63.8179C111.51 63.9511 111.643 64.3061 111.554 64.5724C111.51 64.8387 111.242 64.9718 110.975 64.7943Z" fill="#E8975B"/>
<path d="M140.535 52.1459L138.618 51.0364C138.439 50.9476 138.35 50.6814 138.395 50.5038C138.439 50.3263 138.662 50.2376 138.841 50.3263L140.758 51.4358C140.936 51.5246 141.025 51.7909 140.981 51.9684C140.892 52.1459 140.713 52.2346 140.535 52.1459Z" fill="white"/>
<path d="M144.146 54.2318L142.229 53.1223C142.051 53.0336 141.962 52.7673 142.006 52.5898C142.051 52.4123 142.274 52.3235 142.452 52.4123L144.369 53.5218C144.548 53.6105 144.637 53.8768 144.592 54.0543C144.503 54.2318 144.325 54.3206 144.146 54.2318Z" fill="white"/>
<path d="M147.758 56.3175L145.841 55.208C145.662 55.1193 145.573 54.853 145.618 54.6755C145.662 54.498 145.885 54.4092 146.064 54.498L147.981 55.6074C148.159 55.6962 148.248 55.9625 148.204 56.14C148.159 56.3175 147.936 56.4063 147.758 56.3175Z" fill="white"/>
<path d="M149.541 57.3383L149.497 57.294C149.318 57.2052 149.229 56.9389 149.274 56.7614C149.318 56.5839 149.541 56.4951 149.72 56.5839L149.764 56.6283C149.943 56.717 150.032 56.9833 149.987 57.1608C149.943 57.3383 149.72 57.4271 149.541 57.3383Z" fill="#F8359E"/>
<path d="M51.3185 79.4838C50.1147 79.4838 48.9109 79.1732 47.8408 78.5518L35.0892 71.2292C34.5542 70.9185 34.1975 70.3416 34.1975 69.7203C34.1975 69.099 34.5096 68.522 35.0892 68.2114L47.8408 60.8888C49.9809 59.6461 52.6561 59.6461 54.7962 60.8888L67.5478 68.2114C68.0828 68.522 68.4395 69.099 68.4395 69.7203C68.4395 70.3416 68.1274 70.9185 67.5478 71.2292L54.7962 78.5518C53.7262 79.1732 52.5223 79.4838 51.3185 79.4838ZM48.2421 77.8418C50.1147 78.9513 52.4778 78.9513 54.395 77.8418L67.1465 70.5191C67.4586 70.3416 67.5924 70.031 67.5924 69.7203C67.5924 69.4096 67.4141 69.099 67.1465 68.9215L54.395 61.5988C52.5223 60.4893 50.1593 60.4893 48.2421 61.5988L35.4905 68.9215C35.1784 69.099 35.0446 69.4096 35.0446 69.7203C35.0446 70.0753 35.223 70.3416 35.4905 70.5191L48.2421 77.8418Z" fill="url(#paint10_linear)"/>
<path opacity="0.6" d="M51.274 74.9126C56.1003 74.9126 60.0129 72.6673 60.0129 69.8977C60.0129 67.1281 56.1003 64.8828 51.274 64.8828C46.4477 64.8828 42.5352 67.1281 42.5352 69.8977C42.5352 72.6673 46.4477 74.9126 51.274 74.9126Z" fill="#020230"/>
<path d="M64.2485 34.0391H39.325L41.6434 60.9331C41.6434 62.442 42.6243 63.9065 44.6307 65.0604C48.5988 67.3237 55.0192 67.3237 58.9874 65.0604C60.9492 63.9065 61.9746 62.442 61.9746 60.9331L64.2485 34.0391Z" fill="url(#paint11_radial)"/>
<path opacity="0.4" d="M64.2485 34.0391H39.325L39.7262 38.477C40.3058 39.1871 41.0638 39.8972 42.0447 40.5629C46.8154 43.7138 54.6625 44.3351 60.0574 42.0718L59.2103 61.7319C59.1657 62.5751 58.8982 63.4183 58.3186 64.084C57.516 65.016 55.9555 66.1255 52.9683 66.7912C55.153 66.658 57.2931 66.0811 58.9874 65.1048C60.9492 63.9509 61.9746 62.4864 61.9746 60.9775L63.8472 39.409L64.2485 34.0391Z" fill="#06033E"/>
<path opacity="0.4" d="M51.7643 41.1843C58.6591 41.1843 64.2484 37.9853 64.2484 34.0392C64.2484 30.093 58.6591 26.894 51.7643 26.894C44.8696 26.894 39.2803 30.093 39.2803 34.0392C39.2803 37.9853 44.8696 41.1843 51.7643 41.1843Z" fill="#06033E"/>
<path opacity="0.4" d="M51.7645 37.6783C57.6989 37.6783 62.5097 34.9165 62.5097 31.5096C62.5097 28.1027 57.6989 25.3408 51.7645 25.3408C45.8301 25.3408 41.0193 28.1027 41.0193 31.5096C41.0193 34.9165 45.8301 37.6783 51.7645 37.6783Z" fill="#06033E"/>
<path d="M65.0065 33.6843C65.0065 33.64 65.0065 33.64 65.0065 33.64L64.7835 31.2435V31.2879C64.6944 29.4683 63.4014 27.6487 60.9937 26.273C55.9109 23.3439 47.7071 23.3439 42.6689 26.273C40.1721 27.6931 38.9236 29.557 38.8791 31.421L38.6561 33.5512C38.6561 33.5956 38.6561 33.6843 38.6561 33.7287V33.7731C38.5224 35.8146 39.8154 37.9004 42.5351 39.4537C47.7071 42.4271 56.0893 42.4271 61.2166 39.4537C63.8472 37.8116 65.1402 35.7258 65.0065 33.6843Z" fill="url(#paint12_linear)"/>
<path d="M51.7645 37.6783C57.6989 37.6783 62.5097 34.9165 62.5097 31.5096C62.5097 28.1027 57.6989 25.3408 51.7645 25.3408C45.8301 25.3408 41.0193 28.1027 41.0193 31.5096C41.0193 34.9165 45.8301 37.6783 51.7645 37.6783Z" fill="url(#paint13_linear)"/>
<path d="M51.274 37.6783C57.2084 37.6783 62.0192 34.9165 62.0192 31.5096C62.0192 28.1027 57.2084 25.3408 51.274 25.3408C45.3396 25.3408 40.5288 28.1027 40.5288 31.5096C40.5288 34.9165 45.3396 37.6783 51.274 37.6783Z" fill="url(#paint14_linear)"/>
<path opacity="0.4" d="M45.4777 28.0479C49.6688 25.6515 56.4904 25.6515 60.6815 28.0479C60.7261 28.0923 60.7707 28.0923 60.8153 28.1367C60.414 27.7817 59.9235 27.4266 59.3885 27.116C55.1974 24.7195 48.3758 24.7195 44.1847 27.116C40.0382 29.5125 39.9936 33.3291 44.0509 35.77C41.3312 33.3735 41.8216 30.1338 45.4777 28.0479Z" fill="#06033E"/>
<path d="M44.1849 28.2253C48.376 25.8288 55.1977 25.8288 59.3887 28.2253C61.2614 29.2904 62.2868 30.6661 62.5098 32.0419C62.7773 30.2667 61.7518 28.4916 59.3887 27.1602C55.1977 24.7637 48.376 24.7637 44.1849 27.1602C41.8664 28.4916 40.7964 30.3111 41.0639 32.0419C41.2868 30.6218 42.3123 29.2904 44.1849 28.2253Z" fill="url(#paint15_linear)"/>
<path d="M61.0393 26.3171C56.0011 23.3436 47.7527 23.2993 42.6253 26.1395C37.4979 28.9798 37.4533 33.7284 42.5361 36.7019C47.5743 39.6753 55.8227 39.7197 60.9501 36.8794C66.0329 33.9947 66.0775 29.2461 61.0393 26.3171ZM59.3896 35.8587C58.0074 36.6575 56.3132 37.1901 54.4852 37.4563L54.3068 36.835C54.2176 36.5687 53.9947 36.3912 53.7272 36.3912H49.8482C49.5807 36.3912 49.3578 36.5687 49.2686 36.835L49.0902 37.4563C47.3068 37.1901 45.6125 36.6575 44.1858 35.8587C39.9947 33.4622 39.9947 29.5568 44.1858 27.1159C48.3769 24.7194 55.1985 24.7194 59.3896 27.1159C63.5807 29.5568 63.5807 33.4622 59.3896 35.8587Z" fill="url(#paint16_radial)"/>
<path d="M59.3885 26.6721C55.1974 24.2756 48.3758 24.2756 44.1847 26.6721C42 27.9148 40.9299 29.6012 41.0637 31.2432C41.1528 29.7343 42.2229 28.2698 44.1847 27.1159C48.3758 24.7194 55.1974 24.7194 59.3885 27.1159C61.3949 28.2698 62.4204 29.7343 62.5095 31.2432C62.5987 29.6012 61.5732 27.9591 59.3885 26.6721Z" fill="white"/>
<path d="M60.9491 36.4355C55.8217 39.3202 47.6179 39.2314 42.5351 36.258C40.1274 34.8379 38.879 33.0183 38.7899 31.1987C38.7007 33.1514 39.9491 35.1929 42.5351 36.7018C47.5733 39.6752 55.8217 39.7196 60.9491 36.8793C63.6242 35.3704 64.9172 33.3733 64.7835 31.3319C64.6943 33.1958 63.4013 35.0154 60.9491 36.4355Z" fill="white"/>
<path d="M52.9235 37.8112H50.6051C50.4267 37.8112 50.293 37.6781 50.293 37.5005V37.4562C50.293 37.2786 50.4267 37.1455 50.6051 37.1455H52.9235C53.1019 37.1455 53.2356 37.2786 53.2356 37.4562V37.5005C53.2356 37.6781 53.1019 37.8112 52.9235 37.8112Z" fill="#0C0A78"/>
<path d="M52.9235 37.1902H50.6051C50.4267 37.1902 50.293 37.3233 50.293 37.5008V37.5452C50.293 37.5896 50.293 37.5896 50.293 37.634C50.3376 37.5008 50.4267 37.4121 50.5605 37.4121H52.879C53.0127 37.4121 53.1019 37.5008 53.1465 37.634C53.1465 37.5896 53.1465 37.5896 53.1465 37.5452V37.5008C53.2356 37.3233 53.1019 37.1902 52.9235 37.1902Z" fill="url(#paint17_linear)"/>
<path d="M52.1209 58.1371C51.8534 59.2022 50.7388 59.8235 49.6687 59.5572C48.5987 59.291 47.9744 58.1815 48.242 57.1164C48.5095 56.0513 49.535 55.7406 50.605 56.0513C51.6751 56.3175 52.433 57.072 52.1209 58.1371Z" fill="#E8975B"/>
<path d="M53.6816 56.0512C53.2803 56.4506 52.7453 56.4062 52.4332 56.0512C52.0765 55.6961 52.0319 55.2079 52.4332 54.8085C52.8344 54.4091 53.5924 54.2316 53.9491 54.5866C54.3058 54.8973 54.0828 55.6517 53.6816 56.0512Z" fill="#E8975B"/>
<path d="M51.6307 54.4092C51.5416 54.9417 51.0957 55.208 50.6053 55.1193C50.1148 55.0305 49.8027 54.6311 49.8919 54.0985C49.9811 53.566 50.5161 52.9447 50.962 53.0334C51.4524 53.1222 51.7199 53.8323 51.6307 54.4092Z" fill="#E8975B"/>
<path d="M49.0446 54.143C49.2676 54.6756 49.0001 55.1194 48.5542 55.2969C48.1083 55.4744 47.6179 55.3413 47.395 54.8087C47.172 54.2762 47.3058 53.5217 47.7516 53.3442C48.1975 53.1667 48.8217 53.6105 49.0446 54.143Z" fill="#E8975B"/>
<path opacity="0.5" d="M52.6116 37.5007C52.6116 37.5007 59.567 35.193 56.7581 27.2047C53.9491 19.2164 48.4205 16.8199 50.6498 10.4292C50.6498 10.4292 47.1721 15.5772 50.4268 22.5892C53.6816 29.5568 54.395 28.758 54.3504 32.1308C54.3058 36.0806 51.0956 37.5451 51.0956 37.5451H52.6116V37.5007Z" fill="white"/>
<path opacity="0.5" d="M53.2356 11.4942C53.2356 11.4942 52.5223 6.7012 57.0255 1.9082C57.0255 1.9082 53.0573 10.7397 54.3503 15.1333C54.3057 15.1333 53.2802 12.3818 53.2356 11.4942Z" fill="white"/>
<defs>
<linearGradient id="paint0_linear" x1="184.761" y1="121.481" x2="199.301" y2="121.481" gradientUnits="userSpaceOnUse">
<stop stop-color="#E39A65"/>
<stop offset="1" stop-color="#E95F8D"/>
</linearGradient>
<linearGradient id="paint1_linear" x1="164.853" y1="101.646" x2="189.276" y2="101.646" gradientUnits="userSpaceOnUse">
<stop stop-color="#E39A65"/>
<stop offset="1" stop-color="#E95F8D"/>
</linearGradient>
<linearGradient id="paint2_linear" x1="3.79795" y1="109.791" x2="28.2214" y2="109.791" gradientUnits="userSpaceOnUse">
<stop stop-color="#E39A65"/>
<stop offset="1" stop-color="#E95F8D"/>
</linearGradient>
<linearGradient id="paint3_linear" x1="32.2323" y1="108.232" x2="162.583" y2="108.232" gradientUnits="userSpaceOnUse">
<stop stop-color="#E39A65"/>
<stop offset="1" stop-color="#E95F8D"/>
</linearGradient>
<radialGradient id="paint4_radial" cx="0" cy="0" r="1" gradientUnits="userSpaceOnUse" gradientTransform="translate(104.233 12.1703) scale(99.5588 99.0978)">
<stop stop-color="#E39A65"/>
<stop offset="0.4742" stop-color="#A92FFB"/>
<stop offset="0.5947" stop-color="#891CFB"/>
<stop offset="0.7421" stop-color="#6507FA"/>
<stop offset="0.8016" stop-color="#0D0C6F"/>
</radialGradient>
<radialGradient id="paint5_radial" cx="0" cy="0" r="1" gradientUnits="userSpaceOnUse" gradientTransform="translate(43.3404 91.7531) scale(108.867 108.363)">
<stop stop-color="#E39A65"/>
<stop offset="0.4742" stop-color="#A92FFB"/>
<stop offset="0.5679" stop-color="#891CFB"/>
<stop offset="0.6825" stop-color="#6507FA"/>
<stop offset="0.7381" stop-color="#0D0C6F"/>
</radialGradient>
<radialGradient id="paint6_radial" cx="0" cy="0" r="1" gradientUnits="userSpaceOnUse" gradientTransform="translate(53.3531 70.0029) scale(97.6255 97.1735)">
<stop offset="0.0416667" stop-color="#F8E431"/>
<stop offset="0.270833" stop-color="#8971C5"/>
<stop offset="0.5875" stop-color="#2C4BF0"/>
<stop offset="0.7262" stop-color="#3A1EEA"/>
<stop offset="1" stop-color="#2300FA"/>
</radialGradient>
<radialGradient id="paint7_radial" cx="0" cy="0" r="1" gradientUnits="userSpaceOnUse" gradientTransform="translate(77.6739 32.8413) scale(99.5788 99.1177)">
<stop stop-color="#E39A65"/>
<stop offset="0.4742" stop-color="#A92FFB"/>
<stop offset="0.5875" stop-color="#891CFB"/>
<stop offset="0.7262" stop-color="#6507FA"/>
<stop offset="1" stop-color="#3919BB"/>
</radialGradient>
<linearGradient id="paint8_linear" x1="88.6187" y1="58.8597" x2="168.413" y2="58.8597" gradientUnits="userSpaceOnUse">
<stop stop-color="#3919BB"/>
<stop offset="1" stop-color="#6507FA"/>
</linearGradient>
<radialGradient id="paint9_radial" cx="0" cy="0" r="1" gradientUnits="userSpaceOnUse" gradientTransform="translate(41.3221 11.6751) scale(155.091 154.373)">
<stop stop-color="#E39A65"/>
<stop offset="0.4742" stop-color="#A92FFB"/>
<stop offset="0.5875" stop-color="#891CFB"/>
<stop offset="0.7262" stop-color="#6507FA"/>
<stop offset="1" stop-color="#3919BB"/>
</radialGradient>
<linearGradient id="paint10_linear" x1="34.2166" y1="69.7245" x2="68.4477" y2="69.7245" gradientUnits="userSpaceOnUse">
<stop stop-color="#E39A65"/>
<stop offset="1" stop-color="#E95F8D"/>
</linearGradient>
<radialGradient id="paint11_radial" cx="0" cy="0" r="1" gradientUnits="userSpaceOnUse" gradientTransform="translate(37.2515 41.9315) scale(73.7225 73.3812)">
<stop stop-color="#E39A65"/>
<stop offset="0.1528" stop-color="#A92FFB"/>
<stop offset="0.4087" stop-color="#3919BB"/>
<stop offset="0.9311" stop-color="#3919BB"/>
</radialGradient>
<linearGradient id="paint12_linear" x1="38.5562" y1="32.8414" x2="64.9999" y2="32.8414" gradientUnits="userSpaceOnUse">
<stop stop-color="#E39A65"/>
<stop offset="0.252" stop-color="#A92FFB"/>
<stop offset="0.5556" stop-color="#3919BB"/>
</linearGradient>
<linearGradient id="paint13_linear" x1="41.0358" y1="31.5038" x2="62.5193" y2="31.5038" gradientUnits="userSpaceOnUse">
<stop stop-color="#4F1FEC"/>
<stop offset="1" stop-color="#A92FFB"/>
</linearGradient>
<linearGradient id="paint14_linear" x1="40.5261" y1="31.5038" x2="62.0095" y2="31.5038" gradientUnits="userSpaceOnUse">
<stop stop-color="#4F1FEC"/>
<stop offset="1" stop-color="#A92FFB"/>
</linearGradient>
<linearGradient id="paint15_linear" x1="41.0376" y1="28.685" x2="68.1246" y2="28.685" gradientUnits="userSpaceOnUse">
<stop stop-color="#131060"/>
<stop offset="0.1857" stop-color="#141062"/>
<stop offset="0.2823" stop-color="#19106A"/>
<stop offset="0.3584" stop-color="#221078"/>
<stop offset="0.4238" stop-color="#2E0F8B"/>
<stop offset="0.4823" stop-color="#3E0FA3"/>
<stop offset="0.5359" stop-color="#510EC2"/>
<stop offset="0.5847" stop-color="#680DE5"/>
<stop offset="0.6071" stop-color="#740DF8"/>
<stop offset="0.6179" stop-color="#7A14F0"/>
<stop offset="0.6826" stop-color="#9B3CC3"/>
<stop offset="0.7477" stop-color="#B75D9D"/>
<stop offset="0.8123" stop-color="#CC7680"/>
<stop offset="0.8762" stop-color="#DC886C"/>
<stop offset="0.9391" stop-color="#E5935F"/>
<stop offset="1" stop-color="#E8975B"/>
</linearGradient>
<radialGradient id="paint16_radial" cx="0" cy="0" r="1" gradientUnits="userSpaceOnUse" gradientTransform="translate(35.2566 25.3942) scale(48.2262 48.0029)">
<stop stop-color="#E39A65"/>
<stop offset="0.252" stop-color="#A92FFB"/>
<stop offset="0.7357" stop-color="#3919BB"/>
</radialGradient>
<linearGradient id="paint17_linear" x1="50.0772" y1="37.3868" x2="53.8244" y2="37.3868" gradientUnits="userSpaceOnUse">
<stop stop-color="#131060"/>
<stop offset="0.1857" stop-color="#141062"/>
<stop offset="0.2823" stop-color="#19106A"/>
<stop offset="0.3584" stop-color="#221078"/>
<stop offset="0.4238" stop-color="#2E0F8B"/>
<stop offset="0.4823" stop-color="#3E0FA3"/>
<stop offset="0.5359" stop-color="#510EC2"/>
<stop offset="0.5847" stop-color="#680DE5"/>
<stop offset="0.6071" stop-color="#740DF8"/>
<stop offset="0.6179" stop-color="#7A14F0"/>
<stop offset="0.6826" stop-color="#9B3CC3"/>
<stop offset="0.7477" stop-color="#B75D9D"/>
<stop offset="0.8123" stop-color="#CC7680"/>
<stop offset="0.8762" stop-color="#DC886C"/>
<stop offset="0.9391" stop-color="#E5935F"/>
<stop offset="1" stop-color="#E8975B"/>
</linearGradient>
</defs>
</svg>
