<svg width="178" height="162" viewBox="0 0 178 162" xmlns="http://www.w3.org/2000/svg" xmlns:xlink="http://www.w3.org/1999/xlink">
    <title>cms-2</title>
    <defs>
        <path d="M62.114.047v18.06c.51 23.675.061 36.822.003 37.452h.003l-.006 1.735v5.588s-.3.955-1.399 1.587L32.57 80.531c-1.142.66-2.276 1.165-3.745 1.163l-.046-.005c-.872-.001-1.845-.214-2.973-.753L1.07 66.606C.02 66.084-.057 65.244.057 64.574l-.002-6.19c-.087-.518.026-10.086.187-21.68V.047h61.872z" id="a" />
        <linearGradient x1="50%" y1=".743%" x2="50%" y2="99.088%" id="c">
            <stop stop-color="#A2FFFF" offset="3.005%" />
            <stop stop-color="#A2FFFF" offset="49.454%" />
            <stop stop-color="#A2FFFF" stop-opacity="0" offset="100%" />
        </linearGradient>
        <path d="M62.496 49.976s-.3.954-1.399 1.587L32.951 67.625c-1.142.66-2.277 1.165-3.745 1.162-.918-.006-1.891-.218-3.02-.757L1.453 53.7c-.466-.232-.93-.544-1.081-.858L.434.037l62.062.017v49.922z" id="d" />
        <linearGradient x1="50%" y1="0%" x2="50%" y2="100%" id="e">
            <stop stop-color="#A2FFFF" stop-opacity="0" offset=".743%" />
            <stop stop-color="#A2FFFF" offset="49.454%" />
            <stop stop-color="#A2FFFF" stop-opacity="0" offset="99.088%" />
        </linearGradient>
        <linearGradient x1="50%" y1="81.111%" x2="50%" y2="-5.91%" id="g">
            <stop stop-color="#E5EA2D" offset="0%" />
            <stop stop-color="#3CEAFF" stop-opacity=".602" offset="100%" />
        </linearGradient>
    </defs>
    <g fill="none" fill-rule="evenodd">
        <path d="M8 114.543v3.949c0 .608.325 1.17.852 1.47l72.379 41.759v-4.265L8 114.543z" fill="#A2ADDD" />
        <path d="M84.278 157.297c-2.057.913-4.306.466-5.331.002 1.425.81 2.185 1.558 2.276 2.929 0 .893.01.657.01 1.496.443.25.876.175 1.256-.006 0 .003.18-.096.248-.141l94.207-54.51c.527-.302.852-.863.852-1.472v-2.754l-93.518 54.456z" fill="#B0E9FF" />
        <path d="M8.657 114.464l95.036-55.1 73.603 42.46c.71.409.71 1.433.001 1.843l-92.509 53.479a6.068 6.068 0 0 1-6.072.002L8.66 116.723a1.305 1.305 0 0 1-.003-2.26" fill="#FFF" />
        <path d="M19.873 77.627l-16.19 9.795c-1.19.66-3.38-.583-3.38-1.903v-13.47c0-.612.341-1.178.893-1.484l16.893-9.377c1.19-.66 3.482.531 3.482 1.851l-.806 13.103c0 .613-.34 1.178-.892 1.485" fill="#EC1944" />
        <path d="M20.786 78.082L3.892 87.459c-1.189.66-2.675-.165-2.675-1.485v-13.47c0-.612.34-1.178.892-1.484l16.893-9.377c1.19-.66 2.676.165 2.676 1.485v13.469c0 .613-.34 1.178-.892 1.485" fill="#E5EA2D" />
        <path d="M19.446 69.063c0 .743-.47 1.607-1.05 1.929l-2.577 1.43c-.58.322-1.05-.02-1.05-.763v-3.525c0-.744.47-1.607 1.05-1.929l2.577-1.43c.58-.322 1.05.02 1.05.763v3.525zM4.963 83.626a.271.271 0 0 1-.234-.13.255.255 0 0 1 .1-.355l7.65-4.244a.276.276 0 0 1 .37.096.255.255 0 0 1-.1.355L5.1 83.592a.281.281 0 0 1-.136.034zm0-3.38a.271.271 0 0 1-.234-.13.255.255 0 0 1 .1-.356l7.65-4.243a.276.276 0 0 1 .37.095.254.254 0 0 1-.1.355L5.1 80.21a.277.277 0 0 1-.136.036z" fill="#EC1944" />
        <path d="M73.348 120.441c-2.257 1.303-4.634 2.418-8.388.626l-30.65-18.032c-1.946-1.145-1.693-3.13.564-4.433L70.43 78.068c2.258-1.303 5.664-1.432 7.61-.287l30.65 18.033c1.947 1.144 1.694 3.128-.563 4.432L73.348 120.44z" fill="#C8D9FC" />
        <path d="M47.027 69.606v6.41c-.144.83.278 1.647 1.305 2.239l31.285 18.052c1.464.686 2.699.918 3.797.877 1.027-.039 3.619-3.322 2.89-5.971-.529-1.927-4.008-3.247-5.297-4.063-7.078-4.483-18.404-10.331-33.98-17.544z" fill="#391E66" />
        <path d="M82.942 92.694c-.696-1.84-2.828-2.65-3.12-2.807 0 0 1.777.52 3.094.6l-.042-3.634 42.744-20.648v6.388c.186.968-.454 2.035-1.878 2.842L88.008 95.653c-1.446.819-3.155 1.532-5.014 1.53l-.052-4.49z" fill="#B0E9FF" />
        <path d="M88.184 89.09c-2.303 1.305-4.73 2.42-8.562.626L48.336 71.664c-1.986-1.146-1.728-3.133.576-4.437L85.206 46.67c2.303-1.305 5.781-1.434 7.767-.288l31.286 18.052c1.986 1.146 1.728 3.133-.575 4.438l-35.5 20.218z" fill="#A68FD4" />
        <path d="M106.217 55.545l-15.25-11.397c-1.589-.904-4.372-.803-6.215.228l-26.617 8.31-3.933.975.002 6.131c-.116.656.222 1.3 1.043 1.768l25.036 14.254c1.533.708 2.785.842 3.884.67 1.1-.172 3.128-2.414 4.05-2.93l14.112-9.848c1.843-1.03 5.477-7.256 3.888-8.16" fill="#34799D" />
        <path d="M115.941 50.816h-.003c.058-.62-.28-1.222-1.04-1.665L90.31 34.82c-1.56-.91-4.294-.808-6.104.228l-28.523 16.32c-1.81 1.036-2.013 2.613-.452 3.523 0 0 25.016 14.547 25.08 14.579 1.997 1.013 2.461 1.42 2.462 4.454v2.628c1.461.002 2.637-.501 3.773-1.151l27.898-16.051c1.12-.64 1.622-1.488 1.476-2.256l.02-6.278z" fill="#B0E9FF" />
        <g transform="translate(54.564 -5.667)">
            <mask id="b" fill="#fff">
                <use xlink:href="#a" />
            </mask>
            <path d="M62.114 57.294l.006-1.734h-.003c.058-.63.506-13.778-.003-37.452V.047H.242v36.657c-.16 11.594-.274 21.162-.187 21.68l.002 6.19c-.114.67-.038 1.51 1.013 2.032l24.735 14.33c1.128.54 2.1.752 2.973.753l.046.005c1.469.002 2.603-.503 3.745-1.163L60.715 64.47c1.098-.632 1.4-1.587 1.4-1.587v-5.588z" mask="url(#b)" />
            <path d="M62.096 56.123v.195s-.3.954-1.399 1.587L32.552 73.967c-1.142.66-2.277 1.164-3.746 1.162l-.046-.005c-.872-.001-1.845-.214-2.972-.753L1.052 60.041c-.773-.384-1.018-.94-1.048-1.474.046-.663.556-1.35 1.506-1.891l28.675-16.302c1.82-1.035 4.567-1.137 6.136-.228L61.04 54.462c.764.442 1.104 1.043 1.049 1.663l.008-.002z" fill="url(#c)" mask="url(#b)" />
        </g>
        <g transform="translate(54.182 7.24)">
            <mask id="f" fill="#fff">
                <use xlink:href="#d" />
            </mask>
            <path fill="url(#e)" opacity=".51" mask="url(#f)" d="M-2.966 112.24h69.18V.054h-69.18z" />
        </g>
        <path d="M85.361 55.64l-5.347 3.013v-6.21l5.347-3.013v6.21zm20.879-2.784l-5.347 3.013v-6.21l5.347-3.013v6.21zm-43.62-10.44l-2.976 1.726V33.627l2.977-1.726v10.515z" fill="#E5EA2D" />
        <path d="M97.583 56.053l-5.347 3.013V47.475l5.347-3.014v11.592zm-7.893 6.926l-5.347 3.013v-6.21l5.347-3.013v6.21z" fill="#E5EA2D" opacity=".5" />
        <path d="M107.575 47.146a.19.19 0 0 1-.19-.19v-32.27a.19.19 0 0 1 .19-.19.19.19 0 0 1 .191.19v32.27a.19.19 0 0 1-.19.19zm3.438 1.914a.19.19 0 0 1-.191-.19V1.092a.19.19 0 0 1 .19-.19.19.19 0 0 1 .192.19V48.87a.19.19 0 0 1-.191.19zm-43.858 7.803a.19.19 0 0 1-.19-.19V8.247a.19.19 0 0 1 .19-.19.19.19 0 0 1 .191.19v48.426a.19.19 0 0 1-.191.19zM62.572 24.73a.19.19 0 0 1-.191-.19V2.072a.19.19 0 0 1 .19-.19.19.19 0 0 1 .192.19v22.47a.19.19 0 0 1-.191.19zm9.42 34.735a.19.19 0 0 1-.19-.19V48.38a.19.19 0 0 1 .19-.19.19.19 0 0 1 .192.19v10.895a.19.19 0 0 1-.191.19zm3.31 2.222a.19.19 0 0 1-.19-.19v-15.94a.19.19 0 0 1 .19-.19.19.19 0 0 1 .192.19v15.94a.19.19 0 0 1-.191.19zm27.754-17.24a.19.19 0 0 1-.19-.19V32.85a.19.19 0 0 1 .19-.19.19.19 0 0 1 .191.19v11.409a.19.19 0 0 1-.19.19z" fill="#E5EA2D" />
        <path d="M16.3 1.104a19.457 19.457 0 0 0-3.51 1.71l.055 15.544a202.203 202.203 0 0 0 .008 2.111c.005 1.215.354 3.916 3.498 2.765 1.049-.384 2.037-1.268 2.71-2.424.67-1.153.945-2.452.753-3.563-.237-1.363-1.217-2.215-2.498-2.168a3.037 3.037 0 0 0-.566.08c-.087.02-.153-.04-.154-.14l-.01-3.166c0-.054.02-.114.055-.164s.083-.092.13-.1a6.1 6.1 0 0 1 1.035-.215c2.64-.29 4.703 1.413 5.134 4.238.32 2.087-.226 4.515-1.494 6.659-1.27 2.149-3.123 3.793-5.083 4.51-3.576 1.31-6.581-.774-6.699-4.646-.086-2.843-.093-11.718-.09-16.939-.464.407-.916.83-1.355 1.275-.047 4.9-.108 13.787.037 16.802.212 4.417 3.83 6.765 8.063 5.233 4.472-1.618 8.11-7.03 8.11-12.063 0-4.83-3.359-7.615-7.648-6.337-.045.013-.081-.017-.081-.068v-3.29a.144.144 0 0 1 .09-.13c6.02-1.895 10.735 1.929 10.735 8.705 0 6.955-5.027 14.432-11.206 16.668-5.921 2.142-10.928-1.257-11.161-7.577-.094-2.543-.093-9.19-.075-14.159C2.01 14.687.092 20.04.092 25.212c0 10.077 7.256 15.62 16.207 12.382 8.951-3.238 16.208-14.032 16.208-24.109C32.507 5.358 27.786.18 21.263.18c-1.565 0-3.233.298-4.964.925" transform="translate(70.223 4.582)" fill="url(#g)" />
        <path d="M17.263 114.558l33.026 19.264a.532.532 0 0 0 .537 0l23.608-13.825a.53.53 0 0 0-.005-.917l-33.194-18.977a.532.532 0 0 0-.531 0l-23.439 13.54" fill-opacity=".54" fill="#A1BDF7" />
        <path d="M75.634 118.952l-14.423-8.306.52-.3a.118.118 0 0 0 0-.204l-5.166-2.975a.154.154 0 0 0-.155 0l-.621.356-11.979-6.898a.957.957 0 0 0-.953 0L19.956 113.76a.334.334 0 0 0-.001.578l13.5 7.775-.608.35a.054.054 0 0 0 0 .093l5.28 3.042a.12.12 0 0 0 .12 0l.63-.363 13.608 7.836c.225.13.503.13.73 0l22.418-12.858a.727.727 0 0 0 .001-1.261" fill="#391E66" />
        <path fill="#562B79" d="M19.794 113.16v.933l.807.176.226-.547-.258-.466zm13.033 8.43v.934l.807.177.226-.547-.258-.467zm27.783-11.1v.861l-.744.164-.21-.505.24-.431z" />
        <path d="M75.634 118.109l-14.423-8.306.52-.3a.118.118 0 0 0 0-.204l-5.166-2.975a.154.154 0 0 0-.155 0l-.621.356-11.979-6.898a.957.957 0 0 0-.953 0l-22.901 13.135a.334.334 0 0 0-.001.578l13.5 7.775-.608.35a.054.054 0 0 0 0 .093l5.28 3.042a.12.12 0 0 0 .12 0l.63-.363 13.608 7.836c.225.13.503.13.73 0l22.418-12.858a.727.727 0 0 0 .001-1.261" fill="#E5EA2D" />
        <path fill="#34799D" d="M36.36 121.052l-14.517-8.409v-.803l20.323-11.135 14.826 7.794.03.75z" />
        <path fill="#B0E9FF" d="M36.406 120.308l-14.803-8.527 20.608-11.82 14.803 8.527z" />
        <path fill="#34799D" d="M51.712 130.078l-14.803-8.527.018-.952 20.59-11.072 14.63 7.843v1.015z" />
        <path fill="#B0E9FF" d="M51.712 129.13l-14.803-8.527 20.608-11.82 14.803 8.527z" />
        <path d="M41.685 120.564a.213.213 0 0 1-.213-.213c0-1.67-1.04-3.028-2.32-3.028-.643 0-1.243.338-1.687.953a.213.213 0 0 1-.297.048.212.212 0 0 1-.048-.296c.518-.718 1.26-1.13 2.033-1.13 1.514 0 2.745 1.55 2.745 3.453a.213.213 0 0 1-.213.213zm5.091-2.862a.213.213 0 0 1-.213-.212c0-1.67-1.04-3.029-2.32-3.029-.643 0-1.243.339-1.687.953a.214.214 0 0 1-.297.049.212.212 0 0 1-.048-.297c.519-.717 1.26-1.129 2.033-1.129 1.514 0 2.745 1.549 2.745 3.453a.213.213 0 0 1-.213.212zm5.091-2.862a.213.213 0 0 1-.213-.212c0-1.67-1.04-3.028-2.32-3.028-.643 0-1.243.338-1.687.953a.214.214 0 0 1-.297.048.212.212 0 0 1-.048-.296c.518-.718 1.26-1.13 2.032-1.13 1.514 0 2.746 1.55 2.746 3.453a.213.213 0 0 1-.213.212zm5.091-2.861a.213.213 0 0 1-.213-.213c0-1.67-1.04-3.028-2.32-3.028-.644 0-1.243.338-1.687.953a.213.213 0 0 1-.345-.248c.518-.717 1.259-1.13 2.032-1.13 1.514 0 2.746 1.55 2.746 3.453a.213.213 0 0 1-.213.213zm-11.837-5.875a.074.074 0 0 1-.038-.01l-4.79-2.766a.076.076 0 0 1-.027-.103.076.076 0 0 1 .104-.028l4.789 2.766a.076.076 0 0 1 .028.103.077.077 0 0 1-.066.038zm-7.679 9.417a.074.074 0 0 1-.038-.01l-8.728-5.041a.076.076 0 1 1 .075-.131l8.73 5.04a.076.076 0 0 1 .027.104.077.077 0 0 1-.066.038zm2.523-1.602a.075.075 0 0 1-.039-.01l-8.728-5.042a.076.076 0 0 1-.028-.103.075.075 0 0 1 .104-.028l8.728 5.041a.075.075 0 0 1-.037.142zm20.64 6.895a.074.074 0 0 1-.037-.01l-8.058-4.654a.075.075 0 0 1-.028-.103.076.076 0 0 1 .104-.028l8.058 4.654a.076.076 0 0 1 .028.104.077.077 0 0 1-.066.037zm2.424-1.385a.075.075 0 0 1-.039-.01l-8.057-4.653a.075.075 0 0 1-.028-.104.076.076 0 0 1 .104-.027l8.057 4.653a.076.076 0 0 1-.037.141zm-6.795 4.51a.075.075 0 0 1-.039-.011l-8.728-5.041a.076.076 0 1 1 .076-.131l8.728 5.041a.075.075 0 0 1-.037.141zm-2.755 1.53a.074.074 0 0 1-.037-.01l-8.73-5.042a.076.076 0 1 1 .077-.13l8.729 5.04a.076.076 0 0 1 .027.104.077.077 0 0 1-.066.037zm5.38-3.031a.075.075 0 0 1-.039-.01l-8.729-5.041a.076.076 0 0 1-.028-.104.076.076 0 0 1 .104-.028l8.729 5.042a.076.076 0 0 1-.038.14zm-16.204-10.02a.073.073 0 0 1-.037-.01l-8.73-5.041a.076.076 0 1 1 .077-.131l8.728 5.041a.076.076 0 0 1 .028.104.077.077 0 0 1-.066.037z" fill="#562B79" />
        <path d="M39.21 103.081c.081.17.154.45.22.8.177.92-.478.765-.335 1.898-.768-.8-1.022-.253-1.641-.977-.226-.264-.395-.49-.474-.655L26.275 81.902c-.342-.712 1.9-1.754 2.248-1.03l10.687 22.21z" fill="#EC1944" />
        <path d="M38.42 104.39a4.19 4.19 0 0 0 1.024-.726c.216.876.368 2.664.533 3.96-.947-.825-2.16-2.179-2.72-2.904a3.846 3.846 0 0 0 1.164-.33z" fill="#A68FD4" />
        <path d="M28.602 81.179c-.178.303-.514.602-.95.81-.465.223-.94.293-1.298.22l-1.086-2.257c-.281-.586-.19-1.215.367-1.533.03-.017.194-.101.227-.117a1.235 1.235 0 0 1 1.636.584l1.104 2.293zm11.061 24.44l.264 1.987a60.507 60.507 0 0 0-1.296-1.383l1.032-.604z" fill="#391E66" />
        <path d="M27.954 80.16l.203.288c-.61.853-1.477 1.099-2.115 1.197l-.21-.348c.542-.061 1.485-.352 2.122-1.138z" fill="#5DA5CD" />
        <path d="M147.668 107.662l-36.138 21.024a1.39 1.39 0 0 1-1.395.004l-14.428-8.31c-.943-.543-.943-1.915 0-2.458l36.432-21c.434-.25.968-.249 1.4.004l14.133 8.287c.932.546.93 1.905-.004 2.449" fill="#C8D9FC" />
        <path d="M153.256 58.658l-.202-1.504-1.67-.881a1.194 1.194 0 0 0-.754-.273 1.2 1.2 0 0 0-.604.165l-38.05 22.17a1.23 1.23 0 0 0-.606 1.06v34.241c0 .337.131.65.37.881.21.168.35.241.497.286l1.446.763 39.573-56.908z" fill="#909E4F" />
        <path d="M122.04 107.128l14.26-8.264a.545.545 0 0 1 .547 0l8.904 5.176c.138-.076.326-.179.358-.186.05-.013.543.061.543.061v.93a.547.547 0 0 1-.27.522l-14.245 8.256a.544.544 0 0 1-.546 0l-9.55-5.536a.556.556 0 0 1 0-.96" fill="#562B79" />
        <path d="M146.382 103.49l-9.535-5.543a.542.542 0 0 0-.547 0l-14.26 8.263a.556.556 0 0 0 0 .96l9.55 5.536a.545.545 0 0 0 .547 0l14.245-8.257a.556.556 0 0 0 0-.96" fill="#909E4F" />
        <path d="M152.928 93.287l-38.05 22.17c-.673.392-1.514-.099-1.514-.883V80.332c0-.364.192-.7.504-.882l38.05-22.17c.674-.393 1.516.098 1.516.883v34.24c0 .365-.193.701-.506.884" fill="#E5EA2D" />
        <path d="M112.039 110.513c-.005-.265.153-.39.352-.278.199.11.363.416.368.68.005.266-.153.39-.352.279-.198-.111-.363-.416-.368-.681zm0 1.759c-.005-.265.153-.39.352-.279.199.111.363.416.368.682.005.265-.153.389-.352.278-.198-.111-.363-.416-.368-.681z" fill="#562B79" />
        <path fill="#391E66" d="M148.59 92.157l-30.382 17.619V80.579l30.381-17.619z" />
        <path d="M131.582 94.826c-2.144.016-3.558-1.548-3.783-4.184-.329-3.869 1.887-9.052 5.27-12.324.316-.305.979-1.368 1.342-2.404.115-.328.383-.568.637-.57a.388.388 0 0 1 .334.181c.29.45.805.595 1.022.506.698-.285 1.37-.432 2-.437 2.322-.017 3.778 1.86 3.801 4.902.036 4.757-3.395 10.857-7.492 13.321-1.1.662-2.154 1.001-3.13 1.009zm3.428-18.907a.554.554 0 0 0-.1.173c-.377 1.072-1.067 2.216-1.475 2.611-3.277 3.17-5.425 8.172-5.109 11.893.198 2.329 1.414 3.71 3.252 3.696.87-.006 1.86-.33 2.864-.933 3.956-2.38 7.27-8.268 7.235-12.859-.021-2.753-1.243-4.387-3.269-4.372-.562.004-1.17.138-1.806.397a.918.918 0 0 1-.341.065c-.381.003-.9-.204-1.25-.67zm-.23 15.372a1.522 1.522 0 0 1-.304-.027.268.268 0 0 1 .105-.524c.968.197 2.843-1.27 3.75-2.614a.263.263 0 0 1 .367-.071c.12.083.152.249.07.37-.833 1.237-2.653 2.856-3.988 2.866zm9.207-3.126v-1.527l1.415-.79v1.526l-1.415.79zm0-2.726v-1.527l1.415-.79v1.527l-1.415.79zm0 5.377v-1.527l1.415-.791v1.527l-1.415.79zm-20.61 7.655a.201.201 0 0 1-.174-.102.205.205 0 0 1 .073-.278l2.762-1.615a.201.201 0 0 1 .276.074.205.205 0 0 1-.073.279l-2.762 1.615a.199.199 0 0 1-.101.027zm0 1.428a.201.201 0 0 1-.174-.102.205.205 0 0 1 .073-.279l2.762-1.615a.201.201 0 0 1 .276.075.205.205 0 0 1-.073.278l-2.762 1.615a.199.199 0 0 1-.101.028zm7.279-15.41a.267.267 0 0 1-.252-.352c.475-1.426 1.394-2.749 2.459-3.538a.263.263 0 0 1 .37.057.268.268 0 0 1-.057.373c-.966.716-1.836 1.972-2.272 3.278a.265.265 0 0 1-.248.182zm5.633 4.635a.267.267 0 0 1-.234-.394c.539-1 1.3-1.63 1.812-1.5.219.055.356.243.358.49a.266.266 0 0 1-.262.27.266.266 0 0 1-.265-.241c-.171.032-.688.327-1.178 1.235a.265.265 0 0 1-.231.14zm-2.29-9.013a.263.263 0 0 1-.184-.072.268.268 0 0 1-.01-.378c.534-.572.78-1.153.775-1.828 0-.148.117-.268.262-.27a.266.266 0 0 1 .267.266c.006.82-.286 1.52-.92 2.199a.263.263 0 0 1-.19.083zm3.486 5.2c-.814 1.194-1.473 2.24-3.524 4.69-.83.99-2.696 1.96-2.711-.04-.015-1.935 2.155-4.033 2.678-4.387.946-.642 2.87-.438 3.557-.263zm3.15-3.827c.16.03.247.197.296.389.117.454.05 1.068-.107 1.692-.156.622-.804 2.604-1.324 2.518-.613-.1-1.954-.726-2.015-.772.1-.134.535-.759.931-1.378.359-.56.761-1.18 1.166-1.682.333-.412.755-.825 1.053-.767z" fill="#C9DA2F" />
        <path d="M152.02 57.456l-38.05 22.17a.819.819 0 0 0-.404.706v34.242a.808.808 0 0 0 1.212.706l38.05-22.17a.82.82 0 0 0 .404-.706V58.162a.815.815 0 0 0-.81-.817.787.787 0 0 0-.402.111m-38.488 57.999a1.214 1.214 0 0 1-.37-.881V80.332c0-.435.232-.841.606-1.059l38.05-22.17a1.2 1.2 0 0 1 .604-.165c.67 0 1.214.549 1.214 1.224v34.242c0 .435-.233.841-.607 1.06l-38.05 22.17a1.204 1.204 0 0 1-.604.164c-.31 0-.617-.125-.843-.343" fill="#FFF" />
        <path d="M84.136 148.788c.214.123.463.147.654.062l3.001-.883c.411-.183 1.104-.761.643-1.028l-15.481-9.344c-.215-.123-3.68 1.682-3.68 1.682-.41.183-.347.744.115 1.01l14.748 8.5z" fill="#C8D9FC" />
        <path d="M110.882 134.345a.756.756 0 0 0 0-.184v-2.024l-2.925-.025-11.405-6.722a1.956 1.956 0 0 0-1.977-.006l-18.671 10.842-.052.018-4.293.677v2.133a.666.666 0 0 0 .327.676l13.706 7.85a3.071 3.071 0 0 0 3.07-.008l21.874-12.696a.703.703 0 0 0 .34-.495l.006-.003v-.033z" fill="#391E66" />
        <path d="M71.886 137.61l13.706 7.852a3.072 3.072 0 0 0 3.07-.01l21.874-12.695a.72.72 0 0 0 .004-1.242l-13.988-8.244a1.956 1.956 0 0 0-1.977-.006l-22.692 13.177a.676.676 0 0 0 .003 1.169" fill="#E5EA2D" />
        <path d="M82.312 140.272c0 .52-.58.943-1.297.943s-1.298-.423-1.298-.943c0-.521.58-.943 1.298-.943.716 0 1.297.422 1.297.943" fill="#EC1944" />
        <path d="M78.02 135.913l11.474 6.58a.8.8 0 0 0 .798-.002l16.944-9.805a.81.81 0 0 0-.004-1.402l-11.435-6.524a.799.799 0 0 0-.794.001l-16.983 9.75a.81.81 0 0 0 0 1.402" fill="#34799D" />
        <path d="M92.472 134.727c-.938 0-1.7-.614-1.7-1.368 0-.49.328-.946.856-1.188a.18.18 0 0 1 .238.089.182.182 0 0 1-.09.24c-.398.182-.646.512-.646.859 0 .555.602 1.007 1.342 1.007.366 0 .71-.11.965-.31a.18.18 0 0 1 .253.032.182.182 0 0 1-.032.253 1.93 1.93 0 0 1-1.186.386zm0 2.908c-2.993 0-5.427-1.918-5.427-4.276 0-1.998 1.795-3.755 4.267-4.178a.18.18 0 0 1 .06.356c-2.299.393-3.968 2-3.968 3.822 0 2.159 2.274 3.915 5.068 3.915 2.794 0 5.068-1.756 5.068-3.915 0-.968-.462-1.897-1.302-2.617a.181.181 0 0 1-.02-.255.179.179 0 0 1 .253-.02c.92.79 1.428 1.817 1.428 2.892 0 2.358-2.435 4.276-5.427 4.276z" fill="#E5EA2D" />
        <path d="M92.472 130.733c-1.884 0-3.416 1.178-3.416 2.626s1.532 2.626 3.416 2.626c1.883 0 3.416-1.178 3.416-2.626s-1.533-2.626-3.416-2.626m0 5.613c-2.081 0-3.775-1.34-3.775-2.987s1.694-2.987 3.775-2.987c2.082 0 3.775 1.34 3.775 2.987s-1.693 2.987-3.775 2.987" fill="#66B9DD" />
        <path d="M80.68 143.886a.179.179 0 0 1-.091-.024l-3.189-1.873a.181.181 0 0 1-.064-.247.178.178 0 0 1 .245-.065l3.189 1.873c.085.05.114.16.064.247a.18.18 0 0 1-.155.09" fill="#B0E9FF" />
        <path d="M74.226 139.988c-.074.194-.309.284-.525.2-.216-.083-.33-.308-.257-.502.074-.194.31-.283.525-.2.216.083.33.308.257.502" fill="#34799D" />
    </g>
</svg>