<svg width="155" height="172" viewBox="0 0 155 172" fill="none" xmlns="http://www.w3.org/2000/svg">
<g filter="url(#filter0_d)">
<path d="M144 3L38.6242 54.1043L4 34.135L144 3Z" fill="url(#paint0_linear)"/>
<path d="M144 3L55.5337 63.8742L90.1579 83.8435L144 3Z" fill="url(#paint1_linear)"/>
<path d="M55.5338 63.8742L144 3L38.6243 54.1043L47.1059 86.2055L55.5338 63.8742Z" fill="url(#paint2_linear)"/>
<path d="M37.1211 53.1917L144 3L38.6242 54.1043L37.1211 53.1917Z" fill="#4A71FF"/>
<path d="M55.5337 63.8742L144 3L56.9294 64.6794L55.5337 63.8742Z" fill="#578BFF"/>
</g>
<g opacity="0.4" filter="url(#filter1_f)">
<path d="M134.052 86.0737L21.1306 111.104L47.8164 126.516L49.0265 127.217L63.9935 126.198L71.1267 140.019L90.6156 151.228L134.052 86.0737Z" fill="#D2A3FF" fill-opacity="0.6"/>
</g>
<defs>
<filter id="filter0_d" x="0" y="0" width="148" height="91.2055" filterUnits="userSpaceOnUse" color-interpolation-filters="sRGB">
<feFlood flood-opacity="0" result="BackgroundImageFix"/>
<feColorMatrix in="SourceAlpha" type="matrix" values="0 0 0 0 0 0 0 0 0 0 0 0 0 0 0 0 0 0 127 0"/>
<feOffset dy="1"/>
<feGaussianBlur stdDeviation="2"/>
<feColorMatrix type="matrix" values="0 0 0 0 1 0 0 0 0 1 0 0 0 0 1 0 0 0 1 0"/>
<feBlend mode="normal" in2="BackgroundImageFix" result="effect1_dropShadow"/>
<feBlend mode="normal" in="SourceGraphic" in2="effect1_dropShadow" result="shape"/>
</filter>
<filter id="filter1_f" x="1.13062" y="66.0737" width="152.921" height="105.154" filterUnits="userSpaceOnUse" color-interpolation-filters="sRGB">
<feFlood flood-opacity="0" result="BackgroundImageFix"/>
<feBlend mode="normal" in="SourceGraphic" in2="BackgroundImageFix" result="shape"/>
<feGaussianBlur stdDeviation="10" result="effect1_foregroundBlur"/>
</filter>
<linearGradient id="paint0_linear" x1="87.0905" y1="36.2121" x2="53.765" y2="-46.5016" gradientUnits="userSpaceOnUse">
<stop stop-color="#35448D"/>
<stop offset="1" stop-color="#3C53A4"/>
</linearGradient>
<linearGradient id="paint1_linear" x1="129.085" y1="51.1207" x2="103.6" y2="6.10721" gradientUnits="userSpaceOnUse">
<stop stop-color="#627D99"/>
<stop offset="0.4856" stop-color="#475795"/>
<stop offset="1" stop-color="#2D3292"/>
</linearGradient>
<linearGradient id="paint2_linear" x1="121.526" y1="80.9819" x2="103.328" y2="4.53334" gradientUnits="userSpaceOnUse">
<stop stop-color="#00799F"/>
<stop offset="0.0514394" stop-color="#08739D"/>
<stop offset="0.4798" stop-color="#44418D"/>
<stop offset="0.7952" stop-color="#692284"/>
<stop offset="0.9615" stop-color="#771680"/>
<stop offset="0.9739" stop-color="#5B2087"/>
<stop offset="0.9907" stop-color="#3A2C8F"/>
<stop offset="1" stop-color="#2E3192"/>
</linearGradient>
</defs>
</svg>
