<svg width="210" height="138" viewBox="0 0 210 138" fill="none" xmlns="http://www.w3.org/2000/svg">
<path d="M57.2736 53.3251C60.2468 53.3251 62.6571 50.9148 62.6571 47.9416C62.6571 44.9684 60.2468 42.5581 57.2736 42.5581C54.3004 42.5581 51.8901 44.9684 51.8901 47.9416C51.8901 50.9148 54.3004 53.3251 57.2736 53.3251Z" fill="url(#paint0_radial)"/>
<path opacity="0.4" d="M188.666 85.8032H188.074V52.3192C188.074 50.1303 186.299 48.2964 184.051 48.2964H115.427C112.883 48.2964 110.812 46.2258 110.812 43.682V30.667H111.404V43.682C111.404 45.8709 113.179 47.7048 115.427 47.7048H184.051C186.595 47.7048 188.666 49.7754 188.666 52.3192V85.8032Z" fill="url(#paint1_linear)"/>
<path d="M133.234 85.8034H132.642V55.8689C132.642 53.68 130.868 51.8461 128.619 51.8461H115.25C111.108 51.8461 107.736 48.474 107.736 44.3329V34.6899H108.328V44.3329C108.328 48.119 111.404 51.2545 115.25 51.2545H128.619C131.163 51.2545 133.234 53.325 133.234 55.8689V85.8034Z" fill="url(#paint2_linear)"/>
<path d="M127.614 16.7647C126.253 16.7647 124.951 17.0605 123.827 17.5337C123.827 17.2971 123.886 17.0013 123.886 16.7647C123.886 12.7419 120.633 9.48811 116.61 9.48811C115.249 9.48811 114.007 9.84306 112.883 10.4938C112.291 4.81454 107.499 0.436768 101.702 0.436768C95.6676 0.436768 90.6983 5.22865 90.4616 11.2037C88.9827 10.6121 87.3262 10.2572 85.6698 10.2572C78.4524 10.2572 72.6548 16.0548 72.6548 23.2722C72.6548 30.4896 78.4524 36.2872 85.6698 36.2872H127.673C133.056 36.2872 137.434 31.9094 137.434 26.5259C137.434 21.1424 133.056 16.7647 127.614 16.7647Z" fill="url(#paint3_linear)"/>
<path d="M56.2085 47.2907C56.5635 46.6991 57.3326 46.4625 57.9833 46.8174C58.5749 47.1724 58.8116 47.9414 58.4566 48.5922C58.1016 49.1838 57.3326 49.4204 56.6818 49.0655C56.0311 48.7105 55.8536 47.9414 56.2085 47.2907Z" fill="#6DE0F6"/>
<path d="M27.9308 55.3367C32.0148 55.3367 35.3256 52.0259 35.3256 47.9418C35.3256 43.8577 32.0148 40.5469 27.9308 40.5469C23.8467 40.5469 20.5359 43.8577 20.5359 47.9418C20.5359 52.0259 23.8467 55.3367 27.9308 55.3367Z" fill="url(#paint4_radial)"/>
<path d="M26.3924 47.0543C26.8657 46.2261 27.9897 45.9303 28.8179 46.4036C29.6462 46.8769 29.942 48.0009 29.4687 48.8291C28.9954 49.6573 27.8714 49.9531 27.0432 49.4799C26.1558 49.0066 25.9192 47.9417 26.3924 47.0543Z" fill="#6DE0F6"/>
<path d="M123.827 58.8859C127.912 58.8859 131.222 55.5751 131.222 51.4911C131.222 47.407 127.912 44.0962 123.827 44.0962C119.743 44.0962 116.433 47.407 116.433 51.4911C116.433 55.5751 119.743 58.8859 123.827 58.8859Z" fill="url(#paint5_radial)"/>
<path d="M122.289 50.6037C122.763 49.7754 123.887 49.4796 124.715 49.9529C125.543 50.4262 125.839 51.5502 125.366 52.3784C124.892 53.2067 123.768 53.5025 122.94 53.0292C122.112 52.5559 121.816 51.4911 122.289 50.6037Z" fill="#6DE0F6"/>
<path d="M21.8961 82.9048C28.1693 82.9048 33.2547 77.8194 33.2547 71.5463C33.2547 65.2731 28.1693 60.1877 21.8961 60.1877C15.623 60.1877 10.5376 65.2731 10.5376 71.5463C10.5376 77.8194 15.623 82.9048 21.8961 82.9048Z" fill="url(#paint6_radial)"/>
<path d="M19.5892 70.1855C20.3582 68.884 22.0147 68.4699 23.3162 69.1798C24.6177 69.9489 25.0318 71.6053 24.3219 72.9068C23.5528 74.2083 21.8964 74.6225 20.5949 73.9125C19.2934 73.1435 18.8201 71.487 19.5892 70.1855Z" fill="#6DE0F6"/>
<path d="M123.117 65.8672C126.253 60.4245 133.174 58.5906 138.617 61.726C144.06 64.8615 145.894 71.7831 142.758 77.2257C139.623 82.6683 132.701 84.5023 127.259 81.3668C121.875 78.2314 119.982 71.2506 123.117 65.8672Z" fill="url(#paint7_radial)"/>
<path d="M130.631 70.1855C131.4 68.884 133.056 68.4699 134.358 69.1798C135.659 69.9489 136.073 71.6053 135.364 72.9068C134.595 74.2083 132.938 74.6225 131.637 73.9125C130.335 73.1435 129.862 71.487 130.631 70.1855Z" fill="#6DE0F6"/>
<path d="M68.4546 46.6402C69.1645 45.3978 70.7618 44.9837 72.0042 45.6936C73.2465 46.4035 73.6606 48.0008 72.9507 49.2432C72.2408 50.4855 70.6435 50.8996 69.4012 50.1897C68.1588 49.4798 67.7447 47.8825 68.4546 46.6402Z" fill="url(#paint8_radial)"/>
<path d="M70.1703 47.6459C70.3478 47.3502 70.7027 47.2318 70.9985 47.4093C71.2943 47.5868 71.4126 47.9417 71.2351 48.2375C71.0577 48.5333 70.7027 48.6517 70.4069 48.4742C70.1111 48.2967 69.9928 47.9417 70.1703 47.6459Z" fill="#6DE0F6"/>
<path d="M83.5401 46.6402C84.25 45.3978 85.8473 44.9837 87.0896 45.6936C88.332 46.4035 88.7461 48.0008 88.0361 49.2432C87.3262 50.4855 85.729 50.8996 84.4866 50.1897C83.3034 49.4798 82.8302 47.8825 83.5401 46.6402Z" fill="url(#paint9_radial)"/>
<path d="M85.2556 47.6459C85.4331 47.3502 85.7881 47.2318 86.0839 47.4093C86.3797 47.5868 86.498 47.9417 86.3205 48.2375C86.143 48.5333 85.7881 48.6517 85.4923 48.4742C85.1965 48.2967 85.1373 47.9417 85.2556 47.6459Z" fill="#6DE0F6"/>
<path d="M94.189 46.4036C94.8989 45.1613 96.4962 44.7472 97.7385 45.4571C98.9809 46.167 99.3949 47.7643 98.685 49.0066C97.9751 50.2489 96.3779 50.6631 95.1355 49.9532C93.8932 49.1841 93.4791 47.6459 94.189 46.4036Z" fill="url(#paint10_radial)"/>
<path d="M95.9044 47.35C96.0819 47.0543 96.4368 46.9359 96.7326 47.1134C97.0284 47.2909 97.1467 47.6458 96.9693 47.9416C96.7918 48.2374 96.4368 48.3557 96.1411 48.1783C95.8453 48.0008 95.727 47.6458 95.9044 47.35Z" fill="#6DE0F6"/>
<path d="M106.79 46.4036C107.499 45.1613 109.097 44.7472 110.339 45.4571C111.581 46.167 111.996 47.7643 111.286 49.0066C110.576 50.2489 108.978 50.6631 107.736 49.9532C106.494 49.1841 106.08 47.6459 106.79 46.4036Z" fill="url(#paint11_radial)"/>
<path d="M108.505 47.35C108.683 47.0543 109.038 46.9359 109.334 47.1134C109.629 47.2909 109.748 47.6458 109.57 47.9416C109.393 48.2374 109.038 48.3557 108.742 48.1783C108.446 48.0008 108.328 47.6458 108.505 47.35Z" fill="#6DE0F6"/>
<path d="M105.843 38.4764C106.553 37.234 108.15 36.8199 109.393 37.5298C110.635 38.2397 111.049 39.837 110.339 41.0794C109.629 42.3217 108.032 42.7358 106.79 42.0259C105.547 41.316 105.074 39.7187 105.843 38.4764Z" fill="url(#paint12_radial)"/>
<path d="M107.559 39.4819C107.736 39.1861 108.091 39.0678 108.387 39.2453C108.683 39.4227 108.801 39.7777 108.623 40.0735C108.446 40.3693 108.091 40.4876 107.795 40.3101C107.44 40.1327 107.381 39.7777 107.559 39.4819Z" fill="#6DE0F6"/>
<path d="M96.9692 38.358C97.6791 37.1156 99.2764 36.7015 100.519 37.4114C101.761 38.1213 102.175 39.7186 101.465 40.961C100.755 42.2033 99.1581 42.6174 97.9157 41.9075C96.6734 41.1976 96.2001 39.6003 96.9692 38.358Z" fill="url(#paint13_radial)"/>
<path d="M98.6848 39.3637C98.8623 39.0679 99.2172 38.9496 99.513 39.1271C99.8088 39.3046 99.9272 39.6595 99.7497 39.9553C99.5722 40.2511 99.2172 40.3694 98.9215 40.192C98.5665 40.0145 98.5073 39.6595 98.6848 39.3637Z" fill="#6DE0F6"/>
<path d="M19.5298 137.035L0.953864 126.268C-0.347636 125.499 -0.229319 124.197 1.30882 123.31L19.1749 113.016C20.713 112.129 23.0202 112.011 24.3217 112.78L42.8977 123.547C44.1992 124.316 44.0808 125.617 42.5427 126.505L24.6767 136.798C23.1385 137.686 20.8313 137.804 19.5298 137.035Z" fill="#0C0F38"/>
<path d="M74.9029 137.035L56.3269 126.268C55.0254 125.499 55.1437 124.197 56.6819 123.31L74.5479 113.016C76.086 112.129 78.3933 112.011 79.6948 112.78L98.2707 123.547C99.5722 124.316 99.4539 125.617 97.9158 126.505L80.0497 136.798C78.5707 137.686 76.2635 137.804 74.9029 137.035Z" fill="#0C0F38"/>
<path d="M130.335 137.035L111.759 126.268C110.458 125.499 110.576 124.197 112.114 123.31L129.98 113.016C131.518 112.129 133.825 112.011 135.127 112.78L153.703 123.547C155.004 124.316 154.886 125.617 153.348 126.505L135.482 136.798C133.944 137.686 131.636 137.804 130.335 137.035Z" fill="#0C0F38"/>
<g opacity="0.4">
<path opacity="0.4" d="M43.7851 111.361H34.5563L24.2626 105.445C22.9611 104.676 20.6539 104.794 19.1158 105.681L9.23622 111.42H0.00739489V117.632C-0.0517642 118.164 0.244031 118.637 0.894781 118.992L19.4707 129.759C20.7722 130.528 23.0794 130.41 24.6176 129.522L42.4836 119.229C43.2527 118.756 43.726 118.164 43.726 117.632V111.361H43.7851Z" fill="url(#paint14_linear)"/>
<path opacity="0.4" d="M0.598986 117.986V111.775H9.82781L19.7074 106.036C21.2455 105.149 23.5527 105.031 24.8542 105.8L35.1479 111.715H43.7851V111.301H34.5563L24.2626 105.385C22.9611 104.616 20.6539 104.735 19.1158 105.622L9.23622 111.361H0.00739489V117.572C-0.0517642 118.105 0.244031 118.578 0.894781 118.933L1.0131 118.992C0.717302 118.696 0.598986 118.341 0.598986 117.986Z" fill="#D4088C"/>
<path opacity="0.4" d="M19.5303 123.489L0.954352 112.781C-0.347148 112.012 -0.228831 110.71 1.30931 109.823L19.1753 99.5293C20.7135 98.6419 23.0207 98.5236 24.3222 99.2927L42.8981 110.06C44.1996 110.829 44.0813 112.13 42.5432 113.018L24.6771 123.311C23.139 124.199 20.8318 124.258 19.5303 123.489Z" fill="url(#paint15_linear)"/>
<path opacity="0.4" d="M42.8976 110L24.3217 99.2329C23.6117 98.8188 22.6652 98.7004 21.7186 98.7004C22.4286 98.7596 23.0793 98.9371 23.6117 99.2329L42.1877 110C43.4892 110.769 43.3709 112.07 41.8327 112.958L23.9667 123.311C23.2568 123.725 22.3102 123.961 21.4229 124.02C22.5469 124.08 23.7892 123.843 24.7358 123.311L42.6018 113.017C44.0808 112.13 44.2583 110.769 42.8976 110Z" fill="#6EE8FC"/>
<path opacity="0.4" d="M21.8372 120.944C21.1865 120.944 20.5357 120.826 20.0625 120.53L6.21926 112.544C5.74599 112.248 5.4502 111.893 5.4502 111.42C5.4502 110.887 5.80515 110.414 6.4559 110L19.7667 102.309C20.9499 101.599 22.7246 101.54 23.7895 102.132L37.6327 110.118C38.106 110.414 38.4018 110.769 38.4018 111.242C38.4018 111.775 38.0468 112.248 37.3961 112.662L24.0853 120.353C23.4345 120.767 22.6063 120.944 21.8372 120.944ZM22.0147 102.132C21.3048 102.132 20.5357 102.309 19.9442 102.664L6.63338 110.355C6.10094 110.651 5.74599 111.065 5.74599 111.479C5.74599 111.775 5.98263 112.07 6.33758 112.307L20.1808 120.293C21.1273 120.826 22.7838 120.767 23.8487 120.116L37.1594 112.425C37.6919 112.13 38.0468 111.715 38.0468 111.301C38.0468 111.005 37.8102 110.71 37.4552 110.473L23.612 102.487C23.1979 102.25 22.6063 102.132 22.0147 102.132Z" fill="#480689"/>
<path opacity="0.4" d="M20.359 123.49L1.78308 112.782C0.481583 112.013 0.5999 110.712 2.13804 109.824L20.0041 99.5308C20.714 99.1167 21.6014 98.88 22.5479 98.8209C21.4239 98.7617 20.1815 98.9984 19.1758 99.5308L1.30981 109.824C-0.228327 110.712 -0.405803 112.013 0.954854 112.782L19.5308 123.549C20.2407 123.963 21.1872 124.141 22.193 124.023C21.483 123.963 20.8323 123.786 20.359 123.49Z" fill="#D4088C"/>
</g>
<g opacity="0.5">
<path opacity="0.5" d="M43.7851 102.841H34.5563L24.2626 96.9255C22.9611 96.1564 20.6539 96.2747 19.1158 97.1621L9.23622 102.901H0.00739489V109.112C-0.0517642 109.645 0.244031 110.118 0.894781 110.473L19.4707 121.24C20.7722 122.009 23.0794 121.891 24.6176 121.003L42.4836 110.71C43.2527 110.236 43.726 109.645 43.726 109.112V102.841H43.7851Z" fill="url(#paint16_linear)"/>
<path opacity="0.5" d="M0.598986 109.467V103.255H9.82781L19.7074 97.5169C21.2455 96.6295 23.5527 96.5112 24.8542 97.2803L35.1479 103.196H43.7851V102.782H34.5563L24.2626 96.8662C22.9611 96.0971 20.6539 96.2154 19.1158 97.1028L9.23622 102.841H0.00739489V109.053C-0.0517642 109.585 0.244031 110.059 0.894781 110.414L1.0131 110.473C0.717302 110.177 0.598986 109.822 0.598986 109.467Z" fill="#D4088C"/>
<path opacity="0.5" d="M19.5313 114.969L0.955328 104.202C-0.346171 103.433 -0.227854 102.132 1.31028 101.244L19.1763 90.9507C20.7145 90.0633 23.0217 89.945 24.3232 90.7141L42.8991 101.481C44.2006 102.25 44.0823 103.552 42.5441 104.439L24.6781 114.733C23.14 115.62 20.8328 115.738 19.5313 114.969Z" fill="url(#paint17_linear)"/>
<path opacity="0.5" d="M42.8976 101.481L24.3217 90.7136C23.6117 90.2995 22.6652 90.1812 21.7186 90.1812C22.4286 90.2403 23.0793 90.4178 23.6117 90.7136L42.1877 101.481C43.4892 102.25 43.3709 103.551 41.8327 104.438L23.9667 114.791C23.2568 115.205 22.3102 115.442 21.4229 115.501C22.5469 115.56 23.7892 115.324 24.7358 114.791L42.6018 104.498C44.0808 103.551 44.2583 102.25 42.8976 101.481Z" fill="#6EE8FC"/>
<path opacity="0.5" d="M21.8372 112.425C21.1865 112.425 20.5357 112.307 20.0625 112.011L6.21926 104.024C5.74599 103.729 5.4502 103.374 5.4502 102.9C5.4502 102.368 5.80515 101.895 6.4559 101.481L19.7667 93.7898C20.9499 93.0799 22.7246 93.0208 23.7895 93.6123L37.6327 101.599C38.106 101.895 38.4018 102.25 38.4018 102.723C38.4018 103.255 38.0468 103.729 37.3961 104.143L24.0853 111.833C23.4345 112.247 22.6063 112.425 21.8372 112.425ZM22.0147 93.6123C21.3048 93.6123 20.5357 93.7898 19.9442 94.1448L6.63338 101.835C6.10094 102.131 5.74599 102.545 5.74599 102.959C5.74599 103.255 5.98263 103.551 6.33758 103.788L20.1808 111.774C21.1273 112.307 22.7838 112.247 23.8487 111.597L37.1594 103.906C37.6919 103.61 38.0468 103.196 38.0468 102.782C38.0468 102.486 37.8102 102.19 37.4552 101.954L23.612 93.9673C23.1979 93.7307 22.6063 93.6123 22.0147 93.6123Z" fill="#480689"/>
<path opacity="0.5" d="M20.36 114.971L1.78406 104.204C0.48256 103.435 0.600877 102.133 2.13901 101.246L20.0051 90.9524C20.715 90.5383 21.6023 90.3017 22.5489 90.2425C21.4249 90.1834 20.1825 90.42 19.1768 90.9524L1.31078 101.246C-0.227351 102.133 -0.404827 103.435 0.955831 104.204L19.5318 114.971C20.2417 115.385 21.1882 115.563 22.1939 115.444C21.484 115.444 20.8333 115.267 20.36 114.971Z" fill="#D4088C"/>
</g>
<g opacity="0.7">
<path opacity="0.7" d="M43.7851 94.3223H34.5563L24.2626 88.4064C22.9611 87.6374 20.6539 87.7557 19.1158 88.6431L9.23622 94.3815H0.00739489V100.593C-0.0517642 101.126 0.244031 101.599 0.894781 101.954L19.4707 112.721C20.7722 113.49 23.0794 113.372 24.6176 112.484L42.4836 102.191C43.2527 101.717 43.726 101.126 43.726 100.593V94.3223H43.7851Z" fill="url(#paint18_linear)"/>
<path opacity="0.7" d="M0.598986 100.948V94.7365H9.82781L19.7074 88.9981C21.2455 88.1107 23.5527 87.9924 24.8542 88.7615L35.1479 94.6774H43.7851V94.2633H34.5563L24.2626 88.3474C22.9611 87.5783 20.6539 87.6966 19.1158 88.584L9.23622 94.3224H0.00739489V100.534C-0.0517642 101.067 0.244031 101.54 0.894781 101.895L1.0131 101.954C0.717302 101.658 0.598986 101.303 0.598986 100.948Z" fill="#D4088C"/>
<path opacity="0.7" d="M19.5313 106.45L0.955328 95.6835C-0.346171 94.9145 -0.227854 93.613 1.31028 92.7256L19.1763 82.4319C20.7145 81.5445 23.0217 81.4262 24.3232 82.1953L42.8991 92.9622C44.2006 93.7313 44.0823 95.0328 42.5441 95.9202L24.6781 106.214C23.14 107.101 20.8328 107.22 19.5313 106.45Z" fill="url(#paint19_linear)"/>
<path opacity="0.7" d="M42.8976 92.9618L24.3217 82.1948C23.6117 81.7807 22.6652 81.6624 21.7186 81.6624C22.4286 81.7215 23.0793 81.899 23.6117 82.1948L42.1877 92.9618C43.4892 93.7308 43.3709 95.0323 41.8327 95.9197L23.9667 106.213C23.2568 106.628 22.3102 106.864 21.4229 106.923C22.5469 106.982 23.7892 106.746 24.7358 106.213L42.6018 95.9197C44.0808 95.0323 44.2583 93.7308 42.8976 92.9618Z" fill="#6EE8FC"/>
<path opacity="0.7" d="M21.8372 103.906C21.1865 103.906 20.5357 103.788 20.0625 103.492L6.21926 95.5055C5.74599 95.2097 5.4502 94.8548 5.4502 94.3815C5.4502 93.8491 5.80515 93.3758 6.4559 92.9617L19.7667 85.271C20.9499 84.5611 22.7246 84.502 23.7895 85.0935L37.6327 93.08C38.106 93.3758 38.4018 93.7308 38.4018 94.204C38.4018 94.7365 38.0468 95.2097 37.3961 95.6239L24.0853 103.315C23.4345 103.729 22.6063 103.906 21.8372 103.906ZM22.0147 85.0935C21.3048 85.0935 20.5357 85.271 19.9442 85.626L6.63338 93.3167C6.10094 93.6125 5.74599 94.0266 5.74599 94.4407C5.74599 94.7365 5.98263 95.0323 6.33758 95.2689L20.1808 103.255C21.1273 103.788 22.7838 103.729 23.8487 103.078L37.1594 95.3872C37.6919 95.0914 38.0468 94.6773 38.0468 94.2632C38.0468 93.9674 37.8102 93.6716 37.4552 93.435L23.612 85.4485C23.1979 85.2119 22.6063 85.0935 22.0147 85.0935Z" fill="#480689"/>
<path opacity="0.7" d="M20.3595 106.452L1.78357 95.685C0.482071 94.9159 0.600389 93.6144 2.13852 92.727L20.0046 82.4334C20.7145 82.0193 21.6019 81.7826 22.5484 81.7235C21.4244 81.6643 20.182 81.9009 19.1763 82.4334L1.3103 92.727C-0.227839 93.6144 -0.405315 94.9159 0.955343 95.685L19.5313 106.452C20.2412 106.866 21.1877 107.043 22.1934 106.925C21.4835 106.925 20.8328 106.748 20.3595 106.452Z" fill="#D4088C"/>
</g>
<path d="M43.7851 85.8036H34.5563L24.2626 79.8876C22.9611 79.1186 20.6539 79.2369 19.1158 80.1243L9.23622 85.8627H0.00739489V92.0744C-0.0517642 92.6068 0.244031 93.0801 0.894781 93.4351L19.4707 104.202C20.7722 104.971 23.0794 104.853 24.6176 103.965L42.4836 93.6717C43.2527 93.1984 43.726 92.6068 43.726 92.0744V85.8036H43.7851Z" fill="url(#paint20_linear)"/>
<path d="M0.598986 92.4292V86.2175H9.82781L19.7074 80.4791C21.2455 79.5917 23.5527 79.4734 24.8542 80.2424L35.1479 86.1583H43.7851V85.7442H34.5563L24.2626 79.8283C22.9611 79.0593 20.6539 79.1776 19.1158 80.065L9.23622 85.8034H0.00739489V92.0151C-0.0517642 92.5475 0.244031 93.0208 0.894781 93.3758L1.0131 93.4349C0.717302 93.1391 0.598986 92.7842 0.598986 92.4292Z" fill="#D4088C"/>
<path d="M19.5313 97.9314L0.955328 87.1645C-0.346171 86.3954 -0.227854 85.0939 1.31028 84.2065L19.1763 73.9129C20.7145 73.0255 23.0217 72.9072 24.3232 73.6762L42.8991 84.4432C44.2006 85.2122 44.0823 86.5137 42.5441 87.4011L24.6781 97.6948C23.14 98.5822 20.8328 98.7005 19.5313 97.9314Z" fill="url(#paint21_linear)"/>
<path d="M42.8976 84.4427L24.3217 73.6757C23.6117 73.2616 22.6652 73.1433 21.7186 73.1433C22.4286 73.2025 23.0793 73.3799 23.6117 73.6757L42.1877 84.4427C43.4892 85.2118 43.3709 86.5133 41.8327 87.4007L23.9667 97.6943C23.2568 98.1084 22.3102 98.3451 21.4229 98.4042C22.5469 98.4634 23.7892 98.2268 24.7358 97.6943L42.6018 87.4007C44.0808 86.5133 44.2583 85.1526 42.8976 84.4427Z" fill="#6EE8FC"/>
<path d="M21.8372 95.3871C21.1865 95.3871 20.5357 95.2688 20.0625 94.973L6.21926 86.9865C5.74599 86.6907 5.4502 86.3357 5.4502 85.8625C5.4502 85.33 5.80515 84.8568 6.4559 84.4427L19.7667 76.752C20.9499 76.0421 22.7246 75.9829 23.7895 76.5745L37.6327 84.561C38.106 84.8568 38.4018 85.2117 38.4018 85.685C38.4018 86.2174 38.0468 86.6907 37.3961 87.1048L24.0853 94.7955C23.4345 95.1505 22.6063 95.3871 21.8372 95.3871ZM22.0147 76.5745C21.3048 76.5745 20.5357 76.752 19.9442 77.1069L6.63338 84.7976C6.10094 85.0934 5.74599 85.5075 5.74599 85.9216C5.74599 86.2174 5.98263 86.5132 6.33758 86.7499L20.1808 94.7363C21.1273 95.2688 22.7838 95.2096 23.8487 94.5589L37.1594 86.8682C37.6919 86.5724 38.0468 86.1583 38.0468 85.7442C38.0468 85.4484 37.8102 85.1526 37.4552 84.9159L23.612 76.9294C23.1979 76.6928 22.6063 76.5745 22.0147 76.5745Z" fill="url(#paint22_linear)"/>
<path d="M20.3595 97.9332L1.78357 87.1662C0.482071 86.3971 0.600389 85.0956 2.13852 84.2083L20.0046 73.9146C20.7145 73.5005 21.6019 73.2638 22.5484 73.2047C21.4244 73.1455 20.182 73.3822 19.1763 73.9146L1.3103 84.2083C-0.227839 85.0956 -0.405315 86.3971 0.955343 87.1662L19.5313 97.9332C20.2412 98.3473 21.1877 98.5248 22.1934 98.4065C21.4835 98.3473 20.8328 98.229 20.3595 97.9332Z" fill="#25BFEC"/>
<path d="M25.2115 101.362L40.9478 92.2516C41.0661 92.1925 41.1844 91.9558 41.1844 91.7784V91.0093C41.1844 90.8318 41.0661 90.7135 40.9478 90.8318L25.2115 99.9423C25.0932 100.001 24.9749 100.238 24.9749 100.416V101.185C24.9749 101.362 25.0932 101.421 25.2115 101.362Z" fill="#6DE0F6"/>
<path d="M40.5907 92.0775C40.709 92.0184 40.8273 91.7817 40.8273 91.6043V90.8943L40.8865 90.8352C41.0048 90.776 41.1231 90.8352 41.1231 91.0127V91.7817C41.1231 91.9592 41.0048 92.1958 40.8865 92.255L25.1502 101.366C25.0319 101.425 24.9136 101.366 24.9136 101.188V101.129L40.5907 92.0775Z" fill="#267FE5"/>
<g opacity="0.4">
<path opacity="0.4" d="M99.2167 111.361H89.9879L79.6943 105.445C78.3928 104.676 76.0855 104.794 74.5474 105.681L64.6679 111.42H55.439V117.632C55.3799 118.164 55.6757 118.637 56.3264 118.992L74.9024 129.759C76.2039 130.528 78.5111 130.41 80.0492 129.522L97.9152 119.229C98.6843 118.756 99.1576 118.164 99.1576 117.632V111.361H99.2167Z" fill="url(#paint23_linear)"/>
<path opacity="0.4" d="M56.0306 117.986V111.775H65.2594L75.139 106.036C76.6771 105.149 78.9843 105.031 80.2858 105.8L90.5795 111.715H99.2167V111.301H89.9879L79.6943 105.385C78.3928 104.616 76.0855 104.735 74.5474 105.622L64.6679 111.361H55.439V117.572C55.3799 118.105 55.6757 118.578 56.3264 118.933L56.4447 118.992C56.1489 118.696 55.9715 118.341 56.0306 117.986Z" fill="#D4088C"/>
<path opacity="0.4" d="M74.9024 123.489L56.3264 112.781C55.0249 112.012 55.1432 110.71 56.6814 109.823L74.5474 99.5293C76.0856 98.6419 78.3928 98.5236 79.6943 99.2927L98.2702 110.06C99.5717 110.829 99.4534 112.13 97.9153 113.018L80.0492 123.311C78.5702 124.199 76.263 124.258 74.9024 123.489Z" fill="url(#paint24_linear)"/>
<path opacity="0.4" d="M98.3295 110L79.7535 99.2329C79.0436 98.8188 78.0971 98.7004 77.1505 98.7004C77.8604 98.7596 78.5112 98.9371 79.0436 99.2329L97.6196 110C98.9211 110.769 98.8027 112.07 97.2646 112.958L79.3986 123.251C78.6887 123.666 77.7421 123.902 76.8547 123.961C77.9788 124.02 79.2211 123.784 80.1676 123.251L98.0337 112.958C99.4535 112.13 99.631 110.769 98.3295 110Z" fill="#6EE8FC"/>
<path opacity="0.4" d="M77.2098 120.944C76.5591 120.944 75.9083 120.826 75.435 120.53L61.5918 112.544C61.1186 112.248 60.8228 111.893 60.8228 111.42C60.8228 110.887 61.1777 110.414 61.8285 110L75.1392 102.309C76.3224 101.599 78.0972 101.54 79.1621 102.132L93.0053 110.118C93.4786 110.414 93.7743 110.769 93.7743 111.242C93.7743 111.775 93.4194 112.248 92.7686 112.662L79.4578 120.353C78.8071 120.767 77.9789 120.944 77.2098 120.944ZM77.4464 102.132C76.7365 102.132 75.9675 102.309 75.3759 102.664L62.0651 110.355C61.5327 110.651 61.1777 111.065 61.1777 111.479C61.1777 111.775 61.4143 112.07 61.7693 112.307L75.6125 120.293C76.5591 120.826 78.2155 120.767 79.2804 120.116L92.5912 112.425C93.1236 112.13 93.4786 111.715 93.4786 111.301C93.4786 111.005 93.2419 110.71 92.887 110.473L79.0437 102.487C78.5705 102.25 78.038 102.132 77.4464 102.132Z" fill="#480689"/>
<path opacity="0.4" d="M75.7306 123.49L57.1547 112.782C55.8532 112.013 55.9715 110.712 57.5096 109.824L75.3756 99.5308C76.0856 99.1167 76.9729 98.88 77.9195 98.8209C76.7955 98.7617 75.5531 98.9984 74.5474 99.5308L56.6814 109.824C55.1433 110.712 54.9658 112.013 56.3264 112.782L74.9024 123.549C75.6123 123.963 76.5588 124.141 77.5645 124.023C76.9138 123.963 76.263 123.786 75.7306 123.49Z" fill="#D4088C"/>
</g>
<g opacity="0.5">
<path opacity="0.5" d="M99.2172 102.841H89.9884L79.6947 96.9255C78.3932 96.1564 76.086 96.2747 74.5479 97.1621L64.6683 102.901H55.4395V109.112C55.3804 109.645 55.6762 110.118 56.3269 110.473L74.9029 121.24C76.2044 122.009 78.5115 121.891 80.0497 121.003L97.9157 110.71C98.6848 110.236 99.1581 109.645 99.1581 109.112V102.841H99.2172Z" fill="url(#paint25_linear)"/>
<path opacity="0.5" d="M56.0311 109.467V103.255H65.2599L75.1395 97.5169C76.6776 96.6295 78.9848 96.5112 80.2863 97.2803L90.58 103.196H99.2172V102.782H89.9884L79.6947 96.8662C78.3932 96.0971 76.086 96.2154 74.5479 97.1028L64.6683 102.841H55.4395V109.053C55.3804 109.585 55.6762 110.059 56.3269 110.414L56.4452 110.473C56.1494 110.177 55.972 109.822 56.0311 109.467Z" fill="#D4088C"/>
<path opacity="0.5" d="M74.9051 114.971L56.3291 104.204C55.0276 103.435 55.1459 102.133 56.6841 101.246L74.5501 90.9524C76.0882 90.065 78.3955 89.9467 79.697 90.7158L98.2729 101.483C99.5744 102.252 99.4561 103.553 97.9179 104.441L80.0519 114.734C78.5729 115.622 76.2657 115.74 74.9051 114.971Z" fill="url(#paint26_linear)"/>
<path opacity="0.5" d="M98.33 101.481L79.754 90.7136C79.0441 90.2995 78.0976 90.1812 77.151 90.1812C77.8609 90.2403 78.5117 90.4178 79.0441 90.7136L97.6201 101.481C98.9216 102.25 98.8032 103.551 97.2651 104.438L79.3991 114.732C78.6892 115.146 77.7426 115.383 76.8552 115.442C77.9792 115.501 79.2216 115.265 80.1681 114.732L98.0342 104.438C99.454 103.551 99.6315 102.25 98.33 101.481Z" fill="#6EE8FC"/>
<path opacity="0.5" d="M77.2101 112.425C76.5593 112.425 75.9086 112.307 75.4353 112.011L61.5921 104.024C61.1188 103.729 60.823 103.374 60.823 102.9C60.823 102.368 61.178 101.895 61.8287 101.481L75.1395 93.7898C76.3227 93.0799 78.0974 93.0208 79.1623 93.6123L93.0055 101.599C93.4788 101.895 93.7746 102.25 93.7746 102.723C93.7746 103.255 93.4196 103.729 92.7689 104.143L79.4581 111.833C78.8073 112.247 77.9791 112.425 77.2101 112.425ZM77.4467 93.6123C76.7368 93.6123 75.9677 93.7898 75.3761 94.1448L62.0653 101.835C61.5329 102.131 61.1779 102.545 61.1779 102.959C61.1779 103.255 61.4146 103.551 61.7695 103.788L75.6128 111.774C76.5593 112.307 78.2158 112.247 79.2806 111.597L92.5914 103.906C93.1238 103.61 93.4788 103.196 93.4788 102.782C93.4788 102.486 93.2422 102.19 92.8872 101.954L79.044 93.9673C78.5707 93.7307 78.0383 93.6123 77.4467 93.6123Z" fill="#480689"/>
<path opacity="0.5" d="M75.7311 114.971L57.1552 104.204C55.8537 103.435 55.972 102.133 57.5101 101.246L75.3761 90.9524C76.086 90.5383 76.9734 90.3017 77.92 90.2425C76.796 90.1834 75.5536 90.42 74.5479 90.9524L56.6819 101.246C55.1437 102.133 54.9663 103.435 56.3269 104.204L74.9029 114.971C75.6128 115.385 76.5593 115.563 77.565 115.444C76.9143 115.444 76.2635 115.267 75.7311 114.971Z" fill="#D4088C"/>
</g>
<g opacity="0.7">
<path opacity="0.7" d="M99.2172 94.3223H89.9884L79.6947 88.4064C78.3932 87.6374 76.086 87.7557 74.5479 88.6431L64.6683 94.3815H55.4395V100.593C55.3804 101.126 55.6762 101.599 56.3269 101.954L74.9029 112.721C76.2044 113.49 78.5115 113.372 80.0497 112.484L97.9157 102.131C98.6848 101.658 99.1581 101.066 99.1581 100.534V94.3223H99.2172Z" fill="url(#paint27_linear)"/>
<path opacity="0.7" d="M56.0311 100.948V94.7365H65.2599L75.1395 88.9981C76.6776 88.1107 78.9848 87.9924 80.2863 88.7615L90.58 94.6774H99.2172V94.2633H89.9884L79.6947 88.3474C78.3932 87.5783 76.086 87.6966 74.5479 88.584L64.6683 94.3224H55.4395V100.534C55.3804 101.067 55.6762 101.54 56.3269 101.895L56.4452 101.954C56.1494 101.658 55.972 101.303 56.0311 100.948Z" fill="#D4088C"/>
<path opacity="0.7" d="M74.9058 106.453L56.3298 95.686C55.0283 94.9169 55.1467 93.6154 56.6848 92.728L74.5508 82.4343C76.089 81.547 78.3962 81.4286 79.6977 82.1977L98.2736 92.9646C99.5751 93.7337 99.4568 95.0352 97.9187 95.9226L80.0526 106.216C78.5737 107.104 76.2665 107.222 74.9058 106.453Z" fill="url(#paint28_linear)"/>
<path opacity="0.7" d="M98.33 92.9618L79.754 82.1948C79.0441 81.7807 78.0976 81.6624 77.151 81.6624C77.8609 81.7215 78.5117 81.899 79.0441 82.1948L97.6201 92.9618C98.9216 93.7308 98.8032 95.0323 97.2651 95.9197L79.3991 106.213C78.6892 106.628 77.7426 106.864 76.8552 106.923C77.9792 106.982 79.2216 106.746 80.1681 106.213L98.0342 95.9197C99.454 95.0323 99.6315 93.7308 98.33 92.9618Z" fill="#6EE8FC"/>
<path opacity="0.7" d="M77.2101 103.906C76.5593 103.906 75.9086 103.788 75.4353 103.492L61.5921 95.5055C61.1188 95.2097 60.823 94.8548 60.823 94.3815C60.823 93.8491 61.178 93.3758 61.8287 92.9617L75.1395 85.271C76.3227 84.5611 78.0974 84.502 79.1623 85.0935L93.0055 93.08C93.4788 93.3758 93.7746 93.7308 93.7746 94.204C93.7746 94.7365 93.4196 95.2097 92.7689 95.6239L79.4581 103.315C78.8073 103.729 77.9791 103.906 77.2101 103.906ZM77.4467 85.0935C76.7368 85.0935 75.9677 85.271 75.3761 85.626L62.0653 93.3167C61.5329 93.6125 61.1779 94.0266 61.1779 94.4407C61.1779 94.7365 61.4146 95.0323 61.7695 95.2689L75.6128 103.255C76.5593 103.788 78.2158 103.729 79.2806 103.078L92.5914 95.3872C93.1238 95.0914 93.4788 94.6773 93.4788 94.2632C93.4788 93.9674 93.2422 93.6716 92.8872 93.435L79.044 85.4485C78.5707 85.2119 78.0383 85.0935 77.4467 85.0935Z" fill="#480689"/>
<path opacity="0.7" d="M75.7311 106.452L57.1552 95.685C55.8537 94.9159 55.972 93.6144 57.5101 92.727L75.3761 82.4334C76.086 82.0193 76.9734 81.7826 77.92 81.7235C76.796 81.6643 75.5536 81.9009 74.5479 82.4334L56.6819 92.727C55.1437 93.6144 54.9663 94.9159 56.3269 95.685L74.9029 106.452C75.6128 106.866 76.5593 107.043 77.565 106.925C76.9143 106.925 76.2635 106.748 75.7311 106.452Z" fill="#D4088C"/>
</g>
<path d="M99.217 85.8036H89.9882L79.6945 79.8876C78.393 79.1186 76.0858 79.2369 74.5477 80.1243L64.6681 85.8627H55.4393V92.0744C55.3801 92.6068 55.6759 93.0801 56.3267 93.4351L74.9026 104.202C76.2041 104.971 78.5113 104.853 80.0494 103.965L97.9155 93.6717C98.6845 93.1984 99.1578 92.6068 99.1578 92.0744V85.8036H99.217Z" fill="url(#paint29_linear)"/>
<path d="M56.0309 92.4292V86.2175H65.2597L75.1392 80.4791C76.6774 79.5917 78.9846 79.4734 80.2861 80.2424L90.5798 86.1583H99.217V85.7442H89.9882L79.6945 79.8283C78.393 79.0593 76.0858 79.1776 74.5477 80.065L64.6681 85.8034H55.4393V92.0151C55.3801 92.5475 55.6759 93.0208 56.3267 93.3758L56.445 93.4349C56.1492 93.1391 55.9717 92.7842 56.0309 92.4292Z" fill="#D4088C"/>
<path d="M74.9053 97.9336L56.3293 87.1667C55.0278 86.3976 55.1462 85.0961 56.6843 84.2087L74.5504 73.9151C76.0885 73.0277 78.3957 72.9094 79.6972 73.6784L98.2732 84.4454C99.5747 85.2144 99.4563 86.5159 97.9182 87.4033L80.0521 97.697C78.5732 98.5844 76.266 98.7027 74.9053 97.9336Z" fill="url(#paint30_linear)"/>
<path d="M98.3297 84.4427L79.7538 73.6757C79.0439 73.2616 78.0973 73.1433 77.1508 73.1433C77.8607 73.2025 78.5114 73.3799 79.0439 73.6757L97.6198 84.4427C98.9213 85.2118 98.803 86.5133 97.2649 87.4007L79.3988 97.6943C78.6889 98.1084 77.7424 98.3451 76.855 98.4042C77.979 98.4634 79.2213 98.2268 80.1679 97.6943L98.0339 87.4007C99.4538 86.5133 99.6312 85.1526 98.3297 84.4427Z" fill="#6EE8FC"/>
<path d="M77.2098 95.3871C76.5591 95.3871 75.9083 95.2688 75.435 94.973L61.5918 86.9865C61.1186 86.6907 60.8228 86.3357 60.8228 85.8625C60.8228 85.33 61.1777 84.8568 61.8285 84.4427L75.1392 76.752C76.3224 76.0421 78.0972 75.9829 79.1621 76.5745L93.0053 84.561C93.4786 84.8568 93.7743 85.2117 93.7743 85.685C93.7743 86.2174 93.4194 86.6907 92.7686 87.1048L79.4578 94.7955C78.8071 95.1505 77.9789 95.3871 77.2098 95.3871ZM77.4464 76.5745C76.7365 76.5745 75.9675 76.752 75.3759 77.1069L62.0651 84.7976C61.5327 85.0934 61.1777 85.5075 61.1777 85.9216C61.1777 86.2174 61.4143 86.5132 61.7693 86.7499L75.6125 94.7363C76.5591 95.2688 78.2155 95.2096 79.2804 94.5589L92.5912 86.8682C93.1236 86.5724 93.4786 86.1583 93.4786 85.7442C93.4786 85.4484 93.2419 85.1526 92.887 84.9159L79.0437 76.9294C78.5705 76.6928 78.038 76.5745 77.4464 76.5745Z" fill="url(#paint31_linear)"/>
<path d="M75.7311 97.9339L57.1552 87.1669C55.8537 86.3979 55.972 85.0964 57.5101 84.209L75.3761 73.9153C76.086 73.5012 76.9734 73.2646 77.92 73.2054C76.796 73.1462 75.5536 73.3829 74.5479 73.9153L56.6819 84.209C55.1437 85.0964 54.9663 86.3979 56.3269 87.1669L74.9029 97.9339C75.6128 98.348 76.5593 98.5255 77.565 98.4072C76.9143 98.348 76.2635 98.2297 75.7311 97.9339Z" fill="#25BFEC"/>
<path d="M80.6441 101.362L96.3804 92.2516C96.4988 92.1925 96.6171 91.9558 96.6171 91.7784V91.0093C96.6171 90.8318 96.4988 90.7135 96.3804 90.8318L80.6441 99.9423C80.5258 100.001 80.4075 100.238 80.4075 100.416V101.185C80.3483 101.362 80.4666 101.421 80.6441 101.362Z" fill="#6DE0F6"/>
<path d="M96.0224 92.0775C96.1407 92.0184 96.259 91.7817 96.259 91.6043V90.8943L96.3182 90.8352C96.4365 90.776 96.5548 90.8352 96.5548 91.0127V91.7817C96.5548 91.9592 96.4365 92.1958 96.3182 92.255L80.5819 101.366C80.4635 101.425 80.3452 101.366 80.3452 101.188V101.129L96.0224 92.0775Z" fill="#267FE5"/>
<g opacity="0.4">
<path opacity="0.4" d="M154.59 111.361H145.361L135.068 105.445C133.766 104.676 131.459 104.794 129.921 105.681L120.041 111.42H110.812V117.632C110.753 118.164 111.049 118.637 111.7 118.992L130.276 129.759C131.577 130.528 133.884 130.41 135.422 129.522L153.289 119.229C154.058 118.756 154.531 118.164 154.531 117.632V111.361H154.59Z" fill="url(#paint32_linear)"/>
<path opacity="0.4" d="M111.404 117.986V111.775H120.633L130.512 106.036C132.05 105.149 134.358 105.031 135.659 105.8L145.953 111.715H154.59V111.301H145.361L135.068 105.385C133.766 104.616 131.459 104.735 129.921 105.622L120.041 111.361H110.812V117.572C110.753 118.105 111.049 118.578 111.7 118.933L111.818 118.992C111.522 118.696 111.404 118.341 111.404 117.986Z" fill="#D4088C"/>
<path opacity="0.4" d="M130.335 123.489L111.7 112.781C110.398 112.012 110.517 110.71 112.055 109.823L129.921 99.5293C131.459 98.6419 133.766 98.5236 135.068 99.2927L153.643 110.06C154.945 110.829 154.827 112.13 153.289 113.018L135.422 123.311C133.944 124.199 131.636 124.258 130.335 123.489Z" fill="url(#paint33_linear)"/>
<path opacity="0.4" d="M153.702 110L135.126 99.2329C134.416 98.8188 133.47 98.7004 132.523 98.7004C133.233 98.7596 133.884 98.9371 134.416 99.2329L152.992 110C154.294 110.769 154.176 112.07 152.637 112.958L134.771 123.251C134.061 123.666 133.115 123.902 132.228 123.961C133.352 124.02 134.594 123.784 135.481 123.251L153.347 112.958C154.885 112.13 155.004 110.769 153.702 110Z" fill="#6EE8FC"/>
<path opacity="0.4" d="M132.583 120.944C131.932 120.944 131.281 120.826 130.808 120.53L116.965 112.544C116.492 112.248 116.196 111.893 116.196 111.42C116.196 110.887 116.551 110.414 117.202 110L130.512 102.309C131.695 101.599 133.47 101.54 134.535 102.132L148.378 110.118C148.852 110.414 149.147 110.769 149.147 111.242C149.147 111.775 148.792 112.248 148.142 112.662L134.831 120.353C134.18 120.767 133.352 120.944 132.583 120.944ZM132.819 102.132C132.11 102.132 131.341 102.309 130.749 102.664L117.438 110.355C116.906 110.651 116.551 111.065 116.551 111.479C116.551 111.775 116.787 112.07 117.142 112.307L130.986 120.293C131.932 120.826 133.589 120.767 134.653 120.116L147.964 112.425C148.497 112.13 148.852 111.715 148.852 111.301C148.852 111.005 148.615 110.71 148.26 110.473L134.417 102.487C134.003 102.25 133.411 102.132 132.819 102.132Z" fill="#480689"/>
<path opacity="0.4" d="M131.163 123.49L112.528 112.782C111.227 112.013 111.345 110.712 112.883 109.824L130.749 99.5308C131.459 99.1167 132.346 98.88 133.293 98.8209C132.169 98.7617 130.927 98.9984 129.921 99.5308L112.114 109.765C110.576 110.653 110.398 111.954 111.759 112.723L130.335 123.49C131.045 123.904 131.991 124.082 132.997 123.963C132.287 123.963 131.636 123.786 131.163 123.49Z" fill="#D4088C"/>
</g>
<g opacity="0.5">
<path opacity="0.5" d="M154.59 102.841H145.361L135.068 96.9255C133.766 96.1564 131.459 96.2747 129.921 97.1621L120.041 102.901H110.812V109.112C110.753 109.645 111.049 110.118 111.7 110.473L130.276 121.24C131.577 122.009 133.884 121.891 135.422 121.003L153.289 110.71C154.058 110.236 154.531 109.645 154.531 109.112V102.841H154.59Z" fill="url(#paint34_linear)"/>
<path opacity="0.5" d="M111.404 109.467V103.255H120.633L130.512 97.5169C132.05 96.6295 134.358 96.5112 135.659 97.2803L145.953 103.196H154.59V102.782H145.361L135.068 96.8662C133.766 96.0971 131.459 96.2154 129.921 97.1028L120.041 102.841H110.812V109.053C110.753 109.585 111.049 110.059 111.7 110.414L111.818 110.473C111.522 110.177 111.404 109.822 111.404 109.467Z" fill="#D4088C"/>
<path opacity="0.5" d="M130.336 114.969L111.76 104.202C110.459 103.433 110.577 102.132 112.115 101.244L129.981 90.9507C131.519 90.0633 133.826 89.945 135.128 90.7141L153.704 101.481C155.005 102.25 154.887 103.552 153.349 104.439L135.483 114.733C133.945 115.62 131.637 115.738 130.336 114.969Z" fill="url(#paint35_linear)"/>
<path opacity="0.5" d="M153.702 101.481L135.126 90.7136C134.416 90.2995 133.47 90.1812 132.523 90.1812C133.233 90.2403 133.884 90.4178 134.416 90.7136L152.992 101.481C154.294 102.25 154.176 103.551 152.637 104.438L134.771 114.732C134.061 115.146 133.115 115.383 132.228 115.442C133.352 115.501 134.594 115.265 135.481 114.732L153.347 104.438C154.885 103.551 155.004 102.25 153.702 101.481Z" fill="#6EE8FC"/>
<path opacity="0.5" d="M132.583 112.425C131.932 112.425 131.281 112.307 130.808 112.011L116.965 104.024C116.492 103.729 116.196 103.374 116.196 102.9C116.196 102.368 116.551 101.895 117.202 101.481L130.512 93.7898C131.695 93.0799 133.47 93.0208 134.535 93.6123L148.378 101.599C148.852 101.895 149.147 102.25 149.147 102.723C149.147 103.255 148.792 103.729 148.142 104.143L134.831 111.833C134.18 112.247 133.352 112.425 132.583 112.425ZM132.819 93.6123C132.11 93.6123 131.341 93.7898 130.749 94.1448L117.438 101.835C116.906 102.131 116.551 102.545 116.551 102.959C116.551 103.255 116.787 103.551 117.142 103.788L130.986 111.774C131.932 112.307 133.589 112.247 134.653 111.597L147.964 103.906C148.497 103.61 148.852 103.196 148.852 102.782C148.852 102.486 148.615 102.19 148.26 101.954L134.417 93.9673C134.003 93.7307 133.411 93.6123 132.819 93.6123Z" fill="#480689"/>
<path opacity="0.5" d="M131.165 114.971L112.589 104.204C111.287 103.435 111.406 102.133 112.944 101.246L130.81 90.9524C131.52 90.5383 132.407 90.3017 133.354 90.2425C132.23 90.1834 130.987 90.42 129.982 90.9524L112.115 101.246C110.577 102.133 110.4 103.435 111.761 104.204L130.336 114.971C131.046 115.385 131.993 115.563 132.999 115.444C132.289 115.444 131.638 115.267 131.165 114.971Z" fill="#D4088C"/>
</g>
<g opacity="0.7">
<path opacity="0.7" d="M154.59 94.3223H145.361L135.068 88.4064C133.766 87.6374 131.459 87.7557 129.921 88.6431L120.041 94.3815H110.812V100.593C110.753 101.126 111.049 101.599 111.7 101.954L130.276 112.721C131.577 113.49 133.884 113.372 135.422 112.484L153.289 102.191C154.058 101.717 154.531 101.126 154.531 100.593V94.3223H154.59Z" fill="url(#paint36_linear)"/>
<path opacity="0.7" d="M111.404 100.948V94.7365H120.633L130.512 88.9981C132.05 88.1107 134.358 87.9924 135.659 88.7615L145.953 94.6774H154.59V94.2633H145.361L135.068 88.3474C133.766 87.5783 131.459 87.6966 129.921 88.584L120.041 94.3224H110.812V100.534C110.753 101.067 111.049 101.54 111.7 101.895L111.818 101.954C111.522 101.658 111.404 101.303 111.404 100.948Z" fill="#D4088C"/>
<path opacity="0.7" d="M130.336 106.45L111.76 95.6835C110.459 94.9145 110.577 93.613 112.115 92.7256L129.981 82.4319C131.519 81.5445 133.827 81.4262 135.128 82.1953L153.704 92.9622C155.006 93.7313 154.887 95.0328 153.349 95.9202L135.483 106.214C133.945 107.101 131.638 107.22 130.336 106.45Z" fill="url(#paint37_linear)"/>
<path opacity="0.7" d="M153.702 92.9618L135.126 82.1948C134.416 81.7807 133.47 81.6624 132.523 81.6624C133.233 81.7215 133.884 81.899 134.416 82.1948L152.992 92.9618C154.294 93.7308 154.176 95.0323 152.637 95.9197L134.771 106.213C134.061 106.628 133.115 106.864 132.228 106.923C133.352 106.982 134.594 106.746 135.481 106.213L153.347 95.9197C154.885 95.0323 155.004 93.7308 153.702 92.9618Z" fill="#6EE8FC"/>
<path opacity="0.7" d="M132.583 103.906C131.932 103.906 131.281 103.788 130.808 103.492L116.965 95.5055C116.492 95.2097 116.196 94.8548 116.196 94.3815C116.196 93.8491 116.551 93.3758 117.202 92.9617L130.512 85.271C131.695 84.5611 133.47 84.502 134.535 85.0935L148.378 93.08C148.852 93.3758 149.147 93.7308 149.147 94.204C149.147 94.7365 148.792 95.2097 148.142 95.6239L134.831 103.315C134.18 103.729 133.352 103.906 132.583 103.906ZM132.819 85.0935C132.11 85.0935 131.341 85.271 130.749 85.626L117.438 93.2575C116.906 93.5533 116.551 93.9674 116.551 94.3815C116.551 94.6773 116.787 94.9731 117.142 95.2097L130.986 103.196C131.932 103.729 133.589 103.669 134.653 103.019L147.964 95.3281C148.497 95.0323 148.852 94.6182 148.852 94.204C148.852 93.9083 148.615 93.6125 148.26 93.3758L134.417 85.3893C134.003 85.2119 133.411 85.0935 132.819 85.0935Z" fill="#480689"/>
<path opacity="0.7" d="M131.164 106.452L112.588 95.685C111.287 94.9159 111.405 93.6144 112.943 92.727L130.809 82.4334C131.519 82.0193 132.407 81.7826 133.353 81.7235C132.229 81.6643 130.987 81.9009 129.981 82.4334L112.115 92.727C110.577 93.6144 110.399 94.9159 111.76 95.685L130.336 106.452C131.046 106.866 131.992 107.043 132.998 106.925C132.288 106.925 131.637 106.748 131.164 106.452Z" fill="#D4088C"/>
</g>
<path d="M154.59 85.8036H145.361L135.068 79.8876C133.766 79.1186 131.459 79.2369 129.921 80.1243L120.041 85.8627H110.812V92.0744C110.753 92.6068 111.049 93.0801 111.7 93.4351L130.276 104.202C131.577 104.971 133.884 104.853 135.422 103.965L153.289 93.6717C154.058 93.1984 154.531 92.6068 154.531 92.0744V85.8036H154.59Z" fill="url(#paint38_linear)"/>
<path d="M111.404 92.4292V86.2175H120.633L130.512 80.4791C132.05 79.5917 134.358 79.4734 135.659 80.2424L145.953 86.1583H154.59V85.7442H145.361L135.068 79.8283C133.766 79.0593 131.459 79.1776 129.921 80.065L120.041 85.8034H110.812V92.0151C110.753 92.5475 111.049 93.0208 111.7 93.3758L111.818 93.4349C111.522 93.1391 111.404 92.7842 111.404 92.4292Z" fill="#D4088C"/>
<path d="M130.336 97.9314L111.76 87.1645C110.459 86.3954 110.577 85.0939 112.115 84.2065L129.981 73.9129C131.519 73.0255 133.826 72.9072 135.128 73.6762L153.704 84.4432C155.005 85.2122 154.887 86.5137 153.349 87.4011L135.483 97.6948C133.945 98.5822 131.637 98.7005 130.336 97.9314Z" fill="url(#paint39_linear)"/>
<path d="M153.702 84.4427L135.126 73.6757C134.416 73.2616 133.47 73.1433 132.523 73.1433C133.233 73.2025 133.884 73.3799 134.416 73.6757L152.992 84.4427C154.294 85.2118 154.176 86.5133 152.637 87.4007L134.771 97.6943C134.061 98.1084 133.115 98.3451 132.228 98.4042C133.352 98.4634 134.594 98.2268 135.481 97.6943L153.347 87.4007C154.885 86.5133 155.004 85.1526 153.702 84.4427Z" fill="#6EE8FC"/>
<path d="M132.583 95.3871C131.932 95.3871 131.281 95.2688 130.808 94.973L116.965 86.9865C116.492 86.6907 116.196 86.3357 116.196 85.8625C116.196 85.33 116.551 84.8568 117.202 84.4427L130.512 76.752C131.695 76.0421 133.47 75.9829 134.535 76.5745L148.378 84.561C148.852 84.8568 149.147 85.2117 149.147 85.685C149.147 86.2174 148.792 86.6907 148.142 87.1048L134.831 94.7955C134.18 95.1505 133.352 95.3871 132.583 95.3871ZM132.819 76.5745C132.11 76.5745 131.341 76.752 130.749 77.1069L117.438 84.7976C116.906 85.0934 116.551 85.5075 116.551 85.9216C116.551 86.2174 116.787 86.5132 117.142 86.7499L130.986 94.7363C131.932 95.2688 133.589 95.2096 134.653 94.5589L147.964 86.8682C148.497 86.5724 148.852 86.1583 148.852 85.7442C148.852 85.4484 148.615 85.1526 148.26 84.9159L134.417 76.9294C134.003 76.6928 133.411 76.5745 132.819 76.5745Z" fill="url(#paint40_linear)"/>
<path d="M131.165 97.9339L112.589 87.1669C111.287 86.3979 111.406 85.0964 112.944 84.209L130.81 73.9153C131.52 73.5012 132.407 73.2646 133.354 73.2054C132.23 73.1462 130.987 73.3829 129.982 73.9153L112.116 84.209C110.578 85.0964 110.4 86.3979 111.761 87.1669L130.337 97.9339C131.047 98.348 131.993 98.5255 132.999 98.4072C132.289 98.348 131.638 98.2297 131.165 97.9339Z" fill="#25BFEC"/>
<path d="M136.016 101.362L151.752 92.2516C151.87 92.1925 151.989 91.9558 151.989 91.7784V91.0093C151.989 90.8318 151.87 90.7135 151.752 90.8318L136.016 99.9423C135.897 100.001 135.779 100.238 135.779 100.416V101.185C135.72 101.362 135.838 101.421 136.016 101.362Z" fill="#6DE0F6"/>
<path d="M151.395 92.0775C151.514 92.0184 151.632 91.7817 151.632 91.6043V90.8943L151.691 90.8352C151.81 90.776 151.928 90.8352 151.928 91.0127V91.7817C151.928 91.9592 151.81 92.1958 151.691 92.255L135.955 101.366C135.837 101.425 135.718 101.366 135.718 101.188V101.129L151.395 92.0775Z" fill="#267FE5"/>
<path d="M185.708 137.035L167.132 126.268C165.83 125.499 165.948 124.197 167.487 123.31L185.353 113.016C186.891 112.129 189.198 112.011 190.499 112.78L209.075 123.547C210.377 124.316 210.259 125.617 208.72 126.505L190.854 136.798C189.316 137.686 187.009 137.804 185.708 137.035Z" fill="#0C0F38"/>
<g opacity="0.4">
<path opacity="0.4" d="M209.963 111.36H200.735L190.441 105.445C189.139 104.675 186.832 104.794 185.294 105.681L175.414 111.42H166.186V117.631C166.126 118.164 166.422 118.637 167.073 118.992L185.649 129.759C186.95 130.528 189.258 130.41 190.796 129.522L208.662 119.229C209.431 118.755 209.904 118.164 209.904 117.631V111.36H209.963Z" fill="url(#paint41_linear)"/>
<path opacity="0.4" d="M166.777 117.986V111.775H176.006L185.886 106.036C187.424 105.149 189.731 105.031 191.032 105.8L201.326 111.715H209.963V111.301H200.735L190.441 105.385C189.139 104.616 186.832 104.735 185.294 105.622L175.414 111.361H166.186V117.572C166.126 118.105 166.422 118.578 167.073 118.933L167.191 118.992C166.896 118.696 166.777 118.341 166.777 117.986Z" fill="#D4088C"/>
<path opacity="0.4" d="M185.709 123.488L167.133 112.781C165.831 112.012 165.949 110.71 167.488 109.823L185.354 99.5291C186.892 98.6417 189.199 98.5234 190.5 99.2924L209.076 110.059C210.378 110.828 210.26 112.13 208.721 113.017L190.855 123.311C189.317 124.198 187.01 124.258 185.709 123.488Z" fill="url(#paint42_linear)"/>
<path opacity="0.4" d="M209.076 110L190.5 99.2329C189.79 98.8188 188.843 98.7004 187.897 98.7004C188.607 98.7596 189.258 98.9371 189.79 99.2329L208.366 110C209.667 110.769 209.549 112.07 208.011 112.958L190.145 123.251C189.435 123.666 188.488 123.902 187.601 123.961C188.725 124.02 189.967 123.784 190.914 123.251L208.78 112.958C210.259 112.13 210.436 110.769 209.076 110Z" fill="#6EE8FC"/>
<path opacity="0.4" d="M188.015 120.944C187.364 120.944 186.714 120.826 186.24 120.53L172.397 112.544C171.924 112.248 171.628 111.893 171.628 111.42C171.628 110.887 171.983 110.414 172.634 110L185.945 102.309C187.128 101.599 188.903 101.54 189.967 102.132L203.811 110.118C204.284 110.414 204.58 110.769 204.58 111.242C204.58 111.775 204.225 112.248 203.574 112.662L190.263 120.353C189.613 120.767 188.784 120.944 188.015 120.944ZM188.193 102.132C187.483 102.132 186.714 102.309 186.122 102.664L172.811 110.355C172.279 110.651 171.924 111.065 171.924 111.479C171.924 111.775 172.161 112.07 172.516 112.307L186.359 120.293C187.305 120.826 188.962 120.767 190.027 120.116L203.337 112.425C203.87 112.13 204.225 111.715 204.225 111.301C204.225 111.005 203.988 110.71 203.633 110.473L189.79 102.487C189.376 102.25 188.784 102.132 188.193 102.132Z" fill="#480689"/>
<path opacity="0.4" d="M186.537 123.49L167.961 112.782C166.659 112.013 166.778 110.712 168.316 109.824L186.182 99.5306C186.892 99.1164 187.779 98.8798 188.726 98.8206C187.602 98.7615 186.359 98.9981 185.354 99.5306L167.488 109.824C165.949 110.712 165.772 112.013 167.133 112.782L185.708 123.549C186.418 123.963 187.365 124.141 188.371 124.022C187.661 123.963 187.01 123.786 186.537 123.49Z" fill="#D4088C"/>
</g>
<g opacity="0.5">
<path opacity="0.5" d="M209.963 102.841H200.734L190.44 96.9255C189.139 96.1564 186.832 96.2747 185.294 97.1621L175.414 102.901H166.185V109.112C166.126 109.645 166.422 110.118 167.073 110.473L185.648 121.24C186.95 122.009 189.257 121.891 190.795 121.003L208.661 110.71C209.43 110.236 209.904 109.645 209.904 109.112V102.841H209.963Z" fill="url(#paint43_linear)"/>
<path opacity="0.5" d="M166.777 109.467V103.255H176.006L185.885 97.5169C187.423 96.6295 189.73 96.5112 191.032 97.2803L201.326 103.196H209.963V102.782H200.734L190.44 96.8662C189.139 96.0971 186.832 96.2154 185.294 97.1028L175.414 102.841H166.185V109.053C166.126 109.585 166.422 110.059 167.073 110.414L167.191 110.473C166.895 110.177 166.777 109.822 166.777 109.467Z" fill="#D4088C"/>
<path opacity="0.5" d="M185.708 114.97L167.132 104.262C165.831 103.493 165.949 102.191 167.487 101.304L185.353 91.0103C186.891 90.1229 189.198 90.0046 190.5 90.7736L209.076 101.541C210.377 102.31 210.259 103.611 208.721 104.499L190.855 114.792C189.317 115.62 187.01 115.739 185.708 114.97Z" fill="url(#paint44_linear)"/>
<path opacity="0.5" d="M209.075 101.481L190.499 90.7136C189.789 90.2995 188.843 90.1812 187.896 90.1812C188.606 90.2403 189.257 90.4178 189.789 90.7136L208.365 101.481C209.667 102.25 209.549 103.551 208.01 104.438L190.144 114.732C189.435 115.146 188.488 115.383 187.601 115.442C188.725 115.501 189.967 115.265 190.913 114.732L208.78 104.438C210.258 103.551 210.436 102.25 209.075 101.481Z" fill="#6EE8FC"/>
<path opacity="0.5" d="M188.014 112.425C187.364 112.425 186.713 112.307 186.24 112.011L172.397 104.024C171.923 103.729 171.627 103.374 171.627 102.9C171.627 102.368 171.982 101.895 172.633 101.481L185.944 93.7898C187.127 93.0799 188.902 93.0208 189.967 93.6123L203.81 101.599C204.283 101.895 204.579 102.25 204.579 102.723C204.579 103.255 204.224 103.729 203.573 104.143L190.263 111.833C189.612 112.247 188.784 112.425 188.014 112.425ZM188.192 93.6123C187.482 93.6123 186.713 93.7898 186.121 94.1448L172.811 101.835C172.278 102.131 171.923 102.545 171.923 102.959C171.923 103.255 172.16 103.551 172.515 103.788L186.358 111.774C187.305 112.307 188.961 112.247 190.026 111.597L203.337 103.906C203.869 103.61 204.224 103.196 204.224 102.782C204.224 102.486 203.987 102.19 203.632 101.954L189.789 93.9673C189.375 93.7307 188.784 93.6123 188.192 93.6123Z" fill="#480689"/>
<path opacity="0.5" d="M186.537 114.971L167.961 104.204C166.66 103.435 166.778 102.133 168.316 101.246L186.182 90.9524C186.892 90.5383 187.78 90.3017 188.726 90.2425C187.602 90.1834 186.36 90.42 185.354 90.9524L167.488 101.246C165.95 102.133 165.772 103.435 167.133 104.204L185.709 114.971C186.419 115.385 187.365 115.563 188.371 115.444C187.661 115.444 187.01 115.267 186.537 114.971Z" fill="#D4088C"/>
</g>
<g opacity="0.7">
<path opacity="0.7" d="M209.963 94.3223H200.734L190.44 88.4064C189.139 87.6374 186.832 87.7557 185.294 88.6431L175.414 94.3815H166.185V100.593C166.126 101.126 166.422 101.599 167.073 101.954L185.648 112.721C186.95 113.49 189.257 113.372 190.795 112.484L208.661 102.191C209.43 101.717 209.904 101.126 209.904 100.593V94.3223H209.963Z" fill="url(#paint45_linear)"/>
<path opacity="0.7" d="M166.777 100.948V94.7365H176.006L185.885 88.9981C187.423 88.1107 189.73 87.9924 191.032 88.7615L201.326 94.6774H209.963V94.2633H200.734L190.44 88.3474C189.139 87.5783 186.832 87.6966 185.294 88.584L175.414 94.3224H166.185V100.534C166.126 101.067 166.422 101.54 167.073 101.895L167.191 101.954C166.895 101.658 166.777 101.303 166.777 100.948Z" fill="#D4088C"/>
<path opacity="0.7" d="M185.709 106.45L167.133 95.6833C165.832 94.9142 165.95 93.6127 167.488 92.7253L185.354 82.4317C186.892 81.5443 189.199 81.426 190.501 82.195L209.077 92.962C210.378 93.731 210.26 95.0325 208.722 95.9199L190.856 106.214C189.318 107.101 187.011 107.219 185.709 106.45Z" fill="url(#paint46_linear)"/>
<path opacity="0.7" d="M209.075 92.9615L190.499 82.1945C189.789 81.7804 188.843 81.6621 187.896 81.6621C188.606 81.7213 189.257 81.8988 189.789 82.1945L208.365 92.9615C209.667 93.7306 209.549 95.0321 208.01 95.9195L190.144 106.213C189.435 106.627 188.488 106.864 187.601 106.923C188.725 106.982 189.967 106.746 190.913 106.213L208.78 95.9195C210.258 95.0321 210.436 93.7306 209.075 92.9615Z" fill="#6EE8FC"/>
<path opacity="0.7" d="M188.014 103.906C187.364 103.906 186.713 103.788 186.24 103.492L172.397 95.5053C171.923 95.2095 171.627 94.8545 171.627 94.3813C171.627 93.8488 171.982 93.3756 172.633 92.9615L185.944 85.2708C187.127 84.5609 188.902 84.5017 189.967 85.0933L203.81 93.0798C204.283 93.3756 204.579 93.7305 204.579 94.2038C204.579 94.7362 204.224 95.2095 203.573 95.6236L190.263 103.314C189.612 103.728 188.784 103.906 188.014 103.906ZM188.192 85.0933C187.482 85.0933 186.713 85.2708 186.121 85.6257L172.811 93.3164C172.278 93.6122 171.923 94.0263 171.923 94.4404C171.923 94.7362 172.16 95.032 172.515 95.2687L186.358 103.255C187.305 103.788 188.961 103.728 190.026 103.078L203.337 95.387C203.869 95.0912 204.224 94.6771 204.224 94.263C204.224 93.9672 203.987 93.6714 203.632 93.4347L189.789 85.4483C189.375 85.2116 188.784 85.0933 188.192 85.0933Z" fill="#480689"/>
<path opacity="0.7" d="M186.537 106.453L167.962 95.686C166.66 94.9169 166.778 93.6154 168.316 92.728L186.183 82.4344C186.892 82.0202 187.78 81.7836 188.726 81.7245C187.602 81.6653 186.36 81.9019 185.354 82.4344L167.488 92.728C165.95 93.6154 165.773 94.9169 167.133 95.686L185.709 106.453C186.419 106.867 187.366 107.044 188.371 106.926C187.661 106.926 187.011 106.749 186.537 106.453Z" fill="#D4088C"/>
</g>
<path d="M209.963 85.8036H200.734L190.44 79.8876C189.139 79.1186 186.832 79.2369 185.294 80.1243L175.414 85.8627H166.185V92.0744C166.126 92.6068 166.422 93.0801 167.073 93.4351L185.648 104.202C186.95 104.971 189.257 104.853 190.795 103.965L208.661 93.6717C209.43 93.1984 209.904 92.6068 209.904 92.0744V85.8036H209.963Z" fill="url(#paint47_linear)"/>
<path d="M166.777 92.4292V86.2175H176.006L185.885 80.4791C187.423 79.5917 189.73 79.4734 191.032 80.2424L201.326 86.1583H209.963V85.7442H200.734L190.44 79.8283C189.139 79.0593 186.832 79.1776 185.294 80.065L175.414 85.8034H166.185V92.0151C166.126 92.5475 166.422 93.0208 167.073 93.3758L167.191 93.4349C166.895 93.1391 166.777 92.7842 166.777 92.4292Z" fill="#D4088C"/>
<path d="M185.708 97.9312L167.132 87.1642C165.831 86.3952 165.949 85.0937 167.487 84.2063L185.353 73.9126C186.891 73.0252 189.198 72.9069 190.5 73.676L209.076 84.4429C210.377 85.212 210.259 86.5135 208.721 87.4009L190.855 97.6946C189.317 98.5819 187.01 98.7003 185.708 97.9312Z" fill="url(#paint48_linear)"/>
<path d="M209.075 84.4427L190.499 73.6757C189.789 73.2616 188.843 73.1433 187.896 73.1433C188.606 73.2025 189.257 73.3799 189.789 73.6757L208.365 84.4427C209.667 85.2118 209.549 86.5133 208.01 87.4007L190.144 97.6943C189.435 98.1084 188.488 98.3451 187.601 98.4042C188.725 98.4634 189.967 98.2268 190.913 97.6943L208.78 87.4007C210.258 86.5133 210.436 85.1526 209.075 84.4427Z" fill="#6EE8FC"/>
<path d="M188.014 95.3871C187.364 95.3871 186.713 95.2688 186.24 94.973L172.397 86.9865C171.923 86.6907 171.627 86.3357 171.627 85.8625C171.627 85.33 171.982 84.8568 172.633 84.4427L185.944 76.752C187.127 76.0421 188.902 75.9829 189.967 76.5745L203.81 84.561C204.283 84.8568 204.579 85.2117 204.579 85.685C204.579 86.2174 204.224 86.6907 203.573 87.1048L190.263 94.7955C189.612 95.1505 188.784 95.3871 188.014 95.3871ZM188.192 76.5745C187.482 76.5745 186.713 76.752 186.121 77.1069L172.811 84.7976C172.278 85.0934 171.923 85.5075 171.923 85.9216C171.923 86.2174 172.16 86.5132 172.515 86.7499L186.358 94.7363C187.305 95.2688 188.961 95.2096 190.026 94.5589L203.337 86.8682C203.869 86.5724 204.224 86.1583 204.224 85.7442C204.224 85.4484 203.987 85.1526 203.632 84.9159L189.789 76.9294C189.375 76.6928 188.784 76.5745 188.192 76.5745Z" fill="url(#paint49_linear)"/>
<path d="M186.537 97.9339L167.961 87.1669C166.66 86.3979 166.778 85.0964 168.316 84.209L186.182 73.9153C186.892 73.5012 187.78 73.2646 188.726 73.2054C187.602 73.1462 186.36 73.3829 185.354 73.9153L167.488 84.209C165.95 85.0964 165.772 86.3979 167.133 87.1669L185.709 97.9339C186.419 98.348 187.365 98.5255 188.371 98.4072C187.661 98.348 187.01 98.2297 186.537 97.9339Z" fill="#25BFEC"/>
<path d="M191.387 101.362L207.123 92.2516C207.242 92.1925 207.36 91.9558 207.36 91.7784V91.0093C207.36 90.8318 207.242 90.7135 207.123 90.8318L191.387 99.9423C191.269 100.001 191.15 100.238 191.15 100.416V101.185C191.15 101.362 191.269 101.421 191.387 101.362Z" fill="#6DE0F6"/>
<path d="M206.768 92.0778C206.887 92.0186 207.005 91.782 207.005 91.6045V90.8946L207.064 90.8354C207.183 90.7763 207.301 90.8354 207.301 91.0129V91.782C207.301 91.9594 207.183 92.1961 207.064 92.2552L191.387 101.366C191.269 101.425 191.15 101.366 191.15 101.188V101.129L206.768 92.0778Z" fill="#267FE5"/>
<defs>
<radialGradient id="paint0_radial" cx="0" cy="0" r="1" gradientUnits="userSpaceOnUse" gradientTransform="translate(57.302 47.9557) rotate(180) scale(5.39637)">
<stop stop-color="#25BFEC"/>
<stop offset="0.0553903" stop-color="#21A6D3"/>
<stop offset="0.1578" stop-color="#1C7EAA"/>
<stop offset="0.2665" stop-color="#175C87"/>
<stop offset="0.3808" stop-color="#13406A"/>
<stop offset="0.5026" stop-color="#102A54"/>
<stop offset="0.6353" stop-color="#0E1B44"/>
<stop offset="0.787" stop-color="#0C123B"/>
<stop offset="1" stop-color="#0C0F38"/>
</radialGradient>
<linearGradient id="paint1_linear" x1="110.78" y1="58.2193" x2="188.649" y2="58.2193" gradientUnits="userSpaceOnUse">
<stop stop-color="#6DE0F6"/>
<stop offset="0.1595" stop-color="#68D8F5"/>
<stop offset="0.4138" stop-color="#5AC0F1"/>
<stop offset="0.7294" stop-color="#439BEA"/>
<stop offset="1" stop-color="#2C75E4"/>
</linearGradient>
<linearGradient id="paint2_linear" x1="107.779" y1="60.2407" x2="133.255" y2="60.2407" gradientUnits="userSpaceOnUse">
<stop stop-color="#6DE0F6"/>
<stop offset="0.1595" stop-color="#68D8F5"/>
<stop offset="0.4138" stop-color="#5AC0F1"/>
<stop offset="0.7294" stop-color="#439BEA"/>
<stop offset="1" stop-color="#2C75E4"/>
</linearGradient>
<linearGradient id="paint3_linear" x1="47.8325" y1="8.85853" x2="123.866" y2="24.7535" gradientUnits="userSpaceOnUse">
<stop stop-color="#267FE5"/>
<stop offset="0.1699" stop-color="#2C87E7"/>
<stop offset="0.441" stop-color="#3D9FEB"/>
<stop offset="0.7773" stop-color="#59C4F2"/>
<stop offset="1" stop-color="#6EE1F8"/>
</linearGradient>
<radialGradient id="paint4_radial" cx="0" cy="0" r="1" gradientUnits="userSpaceOnUse" gradientTransform="translate(27.9198 47.9558) rotate(180) scale(7.42019)">
<stop stop-color="#25BFEC"/>
<stop offset="0.0553903" stop-color="#21A6D3"/>
<stop offset="0.1578" stop-color="#1C7EAA"/>
<stop offset="0.2665" stop-color="#175C87"/>
<stop offset="0.3808" stop-color="#13406A"/>
<stop offset="0.5026" stop-color="#102A54"/>
<stop offset="0.6353" stop-color="#0E1B44"/>
<stop offset="0.787" stop-color="#0C123B"/>
<stop offset="1" stop-color="#0C0F38"/>
</radialGradient>
<radialGradient id="paint5_radial" cx="0" cy="0" r="1" gradientUnits="userSpaceOnUse" gradientTransform="translate(123.835 51.5051) rotate(180) scale(7.4202)">
<stop stop-color="#25BFEC"/>
<stop offset="0.0553903" stop-color="#21A6D3"/>
<stop offset="0.1578" stop-color="#1C7EAA"/>
<stop offset="0.2665" stop-color="#175C87"/>
<stop offset="0.3808" stop-color="#13406A"/>
<stop offset="0.5026" stop-color="#102A54"/>
<stop offset="0.6353" stop-color="#0E1B44"/>
<stop offset="0.787" stop-color="#0C123B"/>
<stop offset="1" stop-color="#0C0F38"/>
</radialGradient>
<radialGradient id="paint6_radial" cx="0" cy="0" r="1" gradientUnits="userSpaceOnUse" gradientTransform="translate(21.9236 71.5209) rotate(180) scale(11.3543)">
<stop stop-color="#25BFEC"/>
<stop offset="0.0553903" stop-color="#21A6D3"/>
<stop offset="0.1578" stop-color="#1C7EAA"/>
<stop offset="0.2665" stop-color="#175C87"/>
<stop offset="0.3808" stop-color="#13406A"/>
<stop offset="0.5026" stop-color="#102A54"/>
<stop offset="0.6353" stop-color="#0E1B44"/>
<stop offset="0.787" stop-color="#0C123B"/>
<stop offset="1" stop-color="#0C0F38"/>
</radialGradient>
<radialGradient id="paint7_radial" cx="0" cy="0" r="1" gradientUnits="userSpaceOnUse" gradientTransform="translate(132.959 71.521) rotate(180) scale(11.3543)">
<stop stop-color="#25BFEC"/>
<stop offset="0.0553903" stop-color="#21A6D3"/>
<stop offset="0.1578" stop-color="#1C7EAA"/>
<stop offset="0.2665" stop-color="#175C87"/>
<stop offset="0.3808" stop-color="#13406A"/>
<stop offset="0.5026" stop-color="#102A54"/>
<stop offset="0.6353" stop-color="#0E1B44"/>
<stop offset="0.787" stop-color="#0C123B"/>
<stop offset="1" stop-color="#0C0F38"/>
</radialGradient>
<radialGradient id="paint8_radial" cx="0" cy="0" r="1" gradientUnits="userSpaceOnUse" gradientTransform="translate(70.7114 47.9558) rotate(180) scale(2.60335)">
<stop stop-color="#25BFEC"/>
<stop offset="0.0553903" stop-color="#21A6D3"/>
<stop offset="0.1578" stop-color="#1C7EAA"/>
<stop offset="0.2665" stop-color="#175C87"/>
<stop offset="0.3808" stop-color="#13406A"/>
<stop offset="0.5026" stop-color="#102A54"/>
<stop offset="0.6353" stop-color="#0E1B44"/>
<stop offset="0.787" stop-color="#0C123B"/>
<stop offset="1" stop-color="#0C0F38"/>
</radialGradient>
<radialGradient id="paint9_radial" cx="0" cy="0" r="1" gradientUnits="userSpaceOnUse" gradientTransform="translate(85.8215 47.9558) rotate(180) scale(2.60334)">
<stop stop-color="#25BFEC"/>
<stop offset="0.0553903" stop-color="#21A6D3"/>
<stop offset="0.1578" stop-color="#1C7EAA"/>
<stop offset="0.2665" stop-color="#175C87"/>
<stop offset="0.3808" stop-color="#13406A"/>
<stop offset="0.5026" stop-color="#102A54"/>
<stop offset="0.6353" stop-color="#0E1B44"/>
<stop offset="0.787" stop-color="#0C123B"/>
<stop offset="1" stop-color="#0C0F38"/>
</radialGradient>
<radialGradient id="paint10_radial" cx="0" cy="0" r="1" gradientUnits="userSpaceOnUse" gradientTransform="translate(96.4334 47.6785) rotate(180) scale(2.60333)">
<stop stop-color="#25BFEC"/>
<stop offset="0.0553903" stop-color="#21A6D3"/>
<stop offset="0.1578" stop-color="#1C7EAA"/>
<stop offset="0.2665" stop-color="#175C87"/>
<stop offset="0.3808" stop-color="#13406A"/>
<stop offset="0.5026" stop-color="#102A54"/>
<stop offset="0.6353" stop-color="#0E1B44"/>
<stop offset="0.787" stop-color="#0C123B"/>
<stop offset="1" stop-color="#0C0F38"/>
</radialGradient>
<radialGradient id="paint11_radial" cx="0" cy="0" r="1" gradientUnits="userSpaceOnUse" gradientTransform="translate(109.026 47.6785) rotate(180) scale(2.60334)">
<stop stop-color="#25BFEC"/>
<stop offset="0.0553903" stop-color="#21A6D3"/>
<stop offset="0.1578" stop-color="#1C7EAA"/>
<stop offset="0.2665" stop-color="#175C87"/>
<stop offset="0.3808" stop-color="#13406A"/>
<stop offset="0.5026" stop-color="#102A54"/>
<stop offset="0.6353" stop-color="#0E1B44"/>
<stop offset="0.787" stop-color="#0C123B"/>
<stop offset="1" stop-color="#0C0F38"/>
</radialGradient>
<radialGradient id="paint12_radial" cx="0" cy="0" r="1" gradientUnits="userSpaceOnUse" gradientTransform="translate(108.075 39.7661) rotate(180) scale(2.60337)">
<stop stop-color="#25BFEC"/>
<stop offset="0.0553903" stop-color="#21A6D3"/>
<stop offset="0.1578" stop-color="#1C7EAA"/>
<stop offset="0.2665" stop-color="#175C87"/>
<stop offset="0.3808" stop-color="#13406A"/>
<stop offset="0.5026" stop-color="#102A54"/>
<stop offset="0.6353" stop-color="#0E1B44"/>
<stop offset="0.787" stop-color="#0C123B"/>
<stop offset="1" stop-color="#0C0F38"/>
</radialGradient>
<radialGradient id="paint13_radial" cx="0" cy="0" r="1" gradientUnits="userSpaceOnUse" gradientTransform="translate(99.2013 39.6735) rotate(180) scale(2.60335)">
<stop stop-color="#25BFEC"/>
<stop offset="0.0553903" stop-color="#21A6D3"/>
<stop offset="0.1578" stop-color="#1C7EAA"/>
<stop offset="0.2665" stop-color="#175C87"/>
<stop offset="0.3808" stop-color="#13406A"/>
<stop offset="0.5026" stop-color="#102A54"/>
<stop offset="0.6353" stop-color="#0E1B44"/>
<stop offset="0.787" stop-color="#0C123B"/>
<stop offset="1" stop-color="#0C0F38"/>
</radialGradient>
<linearGradient id="paint14_linear" x1="-4.09949" y1="117.578" x2="49.2257" y2="117.578" gradientUnits="userSpaceOnUse">
<stop stop-color="#A31FA9"/>
<stop offset="0.0667915" stop-color="#8B17A0"/>
<stop offset="0.1494" stop-color="#740F98"/>
<stop offset="0.2393" stop-color="#640A92"/>
<stop offset="0.3408" stop-color="#5B078F"/>
<stop offset="0.4785" stop-color="#58068E"/>
<stop offset="0.6264" stop-color="#4D22A3"/>
<stop offset="0.9436" stop-color="#3168DA"/>
<stop offset="1" stop-color="#2C75E4"/>
</linearGradient>
<linearGradient id="paint15_linear" x1="-0.317924" y1="111.387" x2="40.7349" y2="121.546" gradientUnits="userSpaceOnUse">
<stop stop-color="#8D139B"/>
<stop offset="0.1651" stop-color="#851BA1"/>
<stop offset="0.4284" stop-color="#6E33B2"/>
<stop offset="0.7551" stop-color="#4958CD"/>
<stop offset="1" stop-color="#2979E4"/>
</linearGradient>
<linearGradient id="paint16_linear" x1="-4.09949" y1="109.049" x2="49.2257" y2="109.049" gradientUnits="userSpaceOnUse">
<stop stop-color="#A31FA9"/>
<stop offset="0.0667915" stop-color="#8B17A0"/>
<stop offset="0.1494" stop-color="#740F98"/>
<stop offset="0.2393" stop-color="#640A92"/>
<stop offset="0.3408" stop-color="#5B078F"/>
<stop offset="0.4785" stop-color="#58068E"/>
<stop offset="0.6264" stop-color="#4D22A3"/>
<stop offset="0.9436" stop-color="#3168DA"/>
<stop offset="1" stop-color="#2C75E4"/>
</linearGradient>
<linearGradient id="paint17_linear" x1="-0.316988" y1="102.858" x2="40.7358" y2="113.016" gradientUnits="userSpaceOnUse">
<stop stop-color="#8D139B"/>
<stop offset="0.1651" stop-color="#851BA1"/>
<stop offset="0.4284" stop-color="#6E33B2"/>
<stop offset="0.7551" stop-color="#4958CD"/>
<stop offset="1" stop-color="#2979E4"/>
</linearGradient>
<linearGradient id="paint18_linear" x1="-4.09949" y1="100.519" x2="49.2257" y2="100.519" gradientUnits="userSpaceOnUse">
<stop stop-color="#A31FA9"/>
<stop offset="0.0667915" stop-color="#8B17A0"/>
<stop offset="0.1494" stop-color="#740F98"/>
<stop offset="0.2393" stop-color="#640A92"/>
<stop offset="0.3408" stop-color="#5B078F"/>
<stop offset="0.4785" stop-color="#58068E"/>
<stop offset="0.6264" stop-color="#4D22A3"/>
<stop offset="0.9436" stop-color="#3168DA"/>
<stop offset="1" stop-color="#2C75E4"/>
</linearGradient>
<linearGradient id="paint19_linear" x1="-0.317028" y1="94.3282" x2="40.7358" y2="104.487" gradientUnits="userSpaceOnUse">
<stop stop-color="#8D139B"/>
<stop offset="0.1651" stop-color="#851BA1"/>
<stop offset="0.4284" stop-color="#6E33B2"/>
<stop offset="0.7551" stop-color="#4958CD"/>
<stop offset="1" stop-color="#2979E4"/>
</linearGradient>
<linearGradient id="paint20_linear" x1="-4.09949" y1="91.9899" x2="49.2257" y2="91.9899" gradientUnits="userSpaceOnUse">
<stop stop-color="#A31FA9"/>
<stop offset="0.0667915" stop-color="#8B17A0"/>
<stop offset="0.1494" stop-color="#740F98"/>
<stop offset="0.2393" stop-color="#640A92"/>
<stop offset="0.3408" stop-color="#5B078F"/>
<stop offset="0.4785" stop-color="#58068E"/>
<stop offset="0.6264" stop-color="#4D22A3"/>
<stop offset="0.9436" stop-color="#3168DA"/>
<stop offset="1" stop-color="#2C75E4"/>
</linearGradient>
<linearGradient id="paint21_linear" x1="-0.316958" y1="85.7987" x2="40.7358" y2="95.957" gradientUnits="userSpaceOnUse">
<stop stop-color="#267FE5"/>
<stop offset="0.1699" stop-color="#2C87E7"/>
<stop offset="0.441" stop-color="#3D9FEB"/>
<stop offset="0.7773" stop-color="#59C4F2"/>
<stop offset="1" stop-color="#6EE1F8"/>
</linearGradient>
<linearGradient id="paint22_linear" x1="5.47137" y1="85.7975" x2="38.3763" y2="85.7975" gradientUnits="userSpaceOnUse">
<stop stop-color="#6DE0F6"/>
<stop offset="0.1595" stop-color="#68D8F5"/>
<stop offset="0.4138" stop-color="#5AC0F1"/>
<stop offset="0.7294" stop-color="#439BEA"/>
<stop offset="1" stop-color="#2C75E4"/>
</linearGradient>
<linearGradient id="paint23_linear" x1="51.2923" y1="117.578" x2="104.617" y2="117.578" gradientUnits="userSpaceOnUse">
<stop stop-color="#A31FA9"/>
<stop offset="0.0667915" stop-color="#8B17A0"/>
<stop offset="0.1494" stop-color="#740F98"/>
<stop offset="0.2393" stop-color="#640A92"/>
<stop offset="0.3408" stop-color="#5B078F"/>
<stop offset="0.4785" stop-color="#58068E"/>
<stop offset="0.6264" stop-color="#4D22A3"/>
<stop offset="0.9436" stop-color="#3168DA"/>
<stop offset="1" stop-color="#2C75E4"/>
</linearGradient>
<linearGradient id="paint24_linear" x1="55.0734" y1="111.387" x2="96.1263" y2="121.546" gradientUnits="userSpaceOnUse">
<stop stop-color="#8D139B"/>
<stop offset="0.1651" stop-color="#851BA1"/>
<stop offset="0.4284" stop-color="#6E33B2"/>
<stop offset="0.7551" stop-color="#4958CD"/>
<stop offset="1" stop-color="#2979E4"/>
</linearGradient>
<linearGradient id="paint25_linear" x1="51.2928" y1="109.049" x2="104.618" y2="109.049" gradientUnits="userSpaceOnUse">
<stop stop-color="#A31FA9"/>
<stop offset="0.0667915" stop-color="#8B17A0"/>
<stop offset="0.1494" stop-color="#740F98"/>
<stop offset="0.2393" stop-color="#640A92"/>
<stop offset="0.3408" stop-color="#5B078F"/>
<stop offset="0.4785" stop-color="#58068E"/>
<stop offset="0.6264" stop-color="#4D22A3"/>
<stop offset="0.9436" stop-color="#3168DA"/>
<stop offset="1" stop-color="#2C75E4"/>
</linearGradient>
<linearGradient id="paint26_linear" x1="55.0761" y1="102.859" x2="96.1289" y2="113.017" gradientUnits="userSpaceOnUse">
<stop stop-color="#8D139B"/>
<stop offset="0.1651" stop-color="#851BA1"/>
<stop offset="0.4284" stop-color="#6E33B2"/>
<stop offset="0.7551" stop-color="#4958CD"/>
<stop offset="1" stop-color="#2979E4"/>
</linearGradient>
<linearGradient id="paint27_linear" x1="51.2928" y1="100.519" x2="104.618" y2="100.519" gradientUnits="userSpaceOnUse">
<stop stop-color="#A31FA9"/>
<stop offset="0.0667915" stop-color="#8B17A0"/>
<stop offset="0.1494" stop-color="#740F98"/>
<stop offset="0.2393" stop-color="#640A92"/>
<stop offset="0.3408" stop-color="#5B078F"/>
<stop offset="0.4785" stop-color="#58068E"/>
<stop offset="0.6264" stop-color="#4D22A3"/>
<stop offset="0.9436" stop-color="#3168DA"/>
<stop offset="1" stop-color="#2C75E4"/>
</linearGradient>
<linearGradient id="paint28_linear" x1="55.0769" y1="94.3307" x2="96.1297" y2="104.489" gradientUnits="userSpaceOnUse">
<stop stop-color="#8D139B"/>
<stop offset="0.1651" stop-color="#851BA1"/>
<stop offset="0.4284" stop-color="#6E33B2"/>
<stop offset="0.7551" stop-color="#4958CD"/>
<stop offset="1" stop-color="#2979E4"/>
</linearGradient>
<linearGradient id="paint29_linear" x1="51.2925" y1="91.9899" x2="104.618" y2="91.9899" gradientUnits="userSpaceOnUse">
<stop stop-color="#A31FA9"/>
<stop offset="0.0667915" stop-color="#8B17A0"/>
<stop offset="0.1494" stop-color="#740F98"/>
<stop offset="0.2393" stop-color="#640A92"/>
<stop offset="0.3408" stop-color="#5B078F"/>
<stop offset="0.4785" stop-color="#58068E"/>
<stop offset="0.6264" stop-color="#4D22A3"/>
<stop offset="0.9436" stop-color="#3168DA"/>
<stop offset="1" stop-color="#2C75E4"/>
</linearGradient>
<linearGradient id="paint30_linear" x1="55.0764" y1="85.8009" x2="96.1291" y2="95.9593" gradientUnits="userSpaceOnUse">
<stop stop-color="#267FE5"/>
<stop offset="0.1699" stop-color="#2C87E7"/>
<stop offset="0.441" stop-color="#3D9FEB"/>
<stop offset="0.7773" stop-color="#59C4F2"/>
<stop offset="1" stop-color="#6EE1F8"/>
</linearGradient>
<linearGradient id="paint31_linear" x1="60.8634" y1="85.7975" x2="93.7683" y2="85.7975" gradientUnits="userSpaceOnUse">
<stop stop-color="#6DE0F6"/>
<stop offset="0.1595" stop-color="#68D8F5"/>
<stop offset="0.4138" stop-color="#5AC0F1"/>
<stop offset="0.7294" stop-color="#439BEA"/>
<stop offset="1" stop-color="#2C75E4"/>
</linearGradient>
<linearGradient id="paint32_linear" x1="106.685" y1="117.578" x2="160.01" y2="117.578" gradientUnits="userSpaceOnUse">
<stop stop-color="#A31FA9"/>
<stop offset="0.0667915" stop-color="#8B17A0"/>
<stop offset="0.1494" stop-color="#740F98"/>
<stop offset="0.2393" stop-color="#640A92"/>
<stop offset="0.3408" stop-color="#5B078F"/>
<stop offset="0.4785" stop-color="#58068E"/>
<stop offset="0.6264" stop-color="#4D22A3"/>
<stop offset="0.9436" stop-color="#3168DA"/>
<stop offset="1" stop-color="#2C75E4"/>
</linearGradient>
<linearGradient id="paint33_linear" x1="110.466" y1="111.387" x2="151.519" y2="121.546" gradientUnits="userSpaceOnUse">
<stop stop-color="#8D139B"/>
<stop offset="0.1651" stop-color="#851BA1"/>
<stop offset="0.4284" stop-color="#6E33B2"/>
<stop offset="0.7551" stop-color="#4958CD"/>
<stop offset="1" stop-color="#2979E4"/>
</linearGradient>
<linearGradient id="paint34_linear" x1="106.685" y1="109.049" x2="160.01" y2="109.049" gradientUnits="userSpaceOnUse">
<stop stop-color="#A31FA9"/>
<stop offset="0.0667915" stop-color="#8B17A0"/>
<stop offset="0.1494" stop-color="#740F98"/>
<stop offset="0.2393" stop-color="#640A92"/>
<stop offset="0.3408" stop-color="#5B078F"/>
<stop offset="0.4785" stop-color="#58068E"/>
<stop offset="0.6264" stop-color="#4D22A3"/>
<stop offset="0.9436" stop-color="#3168DA"/>
<stop offset="1" stop-color="#2C75E4"/>
</linearGradient>
<linearGradient id="paint35_linear" x1="110.467" y1="102.858" x2="151.52" y2="113.016" gradientUnits="userSpaceOnUse">
<stop stop-color="#8D139B"/>
<stop offset="0.1651" stop-color="#851BA1"/>
<stop offset="0.4284" stop-color="#6E33B2"/>
<stop offset="0.7551" stop-color="#4958CD"/>
<stop offset="1" stop-color="#2979E4"/>
</linearGradient>
<linearGradient id="paint36_linear" x1="106.685" y1="100.519" x2="160.01" y2="100.519" gradientUnits="userSpaceOnUse">
<stop stop-color="#A31FA9"/>
<stop offset="0.0667915" stop-color="#8B17A0"/>
<stop offset="0.1494" stop-color="#740F98"/>
<stop offset="0.2393" stop-color="#640A92"/>
<stop offset="0.3408" stop-color="#5B078F"/>
<stop offset="0.4785" stop-color="#58068E"/>
<stop offset="0.6264" stop-color="#4D22A3"/>
<stop offset="0.9436" stop-color="#3168DA"/>
<stop offset="1" stop-color="#2C75E4"/>
</linearGradient>
<linearGradient id="paint37_linear" x1="110.467" y1="94.3282" x2="151.52" y2="104.487" gradientUnits="userSpaceOnUse">
<stop stop-color="#8D139B"/>
<stop offset="0.1651" stop-color="#851BA1"/>
<stop offset="0.4284" stop-color="#6E33B2"/>
<stop offset="0.7551" stop-color="#4958CD"/>
<stop offset="1" stop-color="#2979E4"/>
</linearGradient>
<linearGradient id="paint38_linear" x1="106.685" y1="91.9899" x2="160.01" y2="91.9899" gradientUnits="userSpaceOnUse">
<stop stop-color="#A31FA9"/>
<stop offset="0.0667915" stop-color="#8B17A0"/>
<stop offset="0.1494" stop-color="#740F98"/>
<stop offset="0.2393" stop-color="#640A92"/>
<stop offset="0.3408" stop-color="#5B078F"/>
<stop offset="0.4785" stop-color="#58068E"/>
<stop offset="0.6264" stop-color="#4D22A3"/>
<stop offset="0.9436" stop-color="#3168DA"/>
<stop offset="1" stop-color="#2C75E4"/>
</linearGradient>
<linearGradient id="paint39_linear" x1="110.467" y1="85.7987" x2="151.52" y2="95.957" gradientUnits="userSpaceOnUse">
<stop stop-color="#267FE5"/>
<stop offset="0.1699" stop-color="#2C87E7"/>
<stop offset="0.441" stop-color="#3D9FEB"/>
<stop offset="0.7773" stop-color="#59C4F2"/>
<stop offset="1" stop-color="#6EE1F8"/>
</linearGradient>
<linearGradient id="paint40_linear" x1="116.256" y1="85.7975" x2="149.16" y2="85.7975" gradientUnits="userSpaceOnUse">
<stop stop-color="#6DE0F6"/>
<stop offset="0.1595" stop-color="#68D8F5"/>
<stop offset="0.4138" stop-color="#5AC0F1"/>
<stop offset="0.7294" stop-color="#439BEA"/>
<stop offset="1" stop-color="#2C75E4"/>
</linearGradient>
<linearGradient id="paint41_linear" x1="162.077" y1="117.578" x2="215.403" y2="117.578" gradientUnits="userSpaceOnUse">
<stop stop-color="#A31FA9"/>
<stop offset="0.0667915" stop-color="#8B17A0"/>
<stop offset="0.1494" stop-color="#740F98"/>
<stop offset="0.2393" stop-color="#640A92"/>
<stop offset="0.3408" stop-color="#5B078F"/>
<stop offset="0.4785" stop-color="#58068E"/>
<stop offset="0.6264" stop-color="#4D22A3"/>
<stop offset="0.9436" stop-color="#3168DA"/>
<stop offset="1" stop-color="#2C75E4"/>
</linearGradient>
<linearGradient id="paint42_linear" x1="165.859" y1="111.387" x2="206.912" y2="121.546" gradientUnits="userSpaceOnUse">
<stop stop-color="#8D139B"/>
<stop offset="0.1651" stop-color="#851BA1"/>
<stop offset="0.4284" stop-color="#6E33B2"/>
<stop offset="0.7551" stop-color="#4958CD"/>
<stop offset="1" stop-color="#2979E4"/>
</linearGradient>
<linearGradient id="paint43_linear" x1="162.077" y1="109.049" x2="215.402" y2="109.049" gradientUnits="userSpaceOnUse">
<stop stop-color="#A31FA9"/>
<stop offset="0.0667915" stop-color="#8B17A0"/>
<stop offset="0.1494" stop-color="#740F98"/>
<stop offset="0.2393" stop-color="#640A92"/>
<stop offset="0.3408" stop-color="#5B078F"/>
<stop offset="0.4785" stop-color="#58068E"/>
<stop offset="0.6264" stop-color="#4D22A3"/>
<stop offset="0.9436" stop-color="#3168DA"/>
<stop offset="1" stop-color="#2C75E4"/>
</linearGradient>
<linearGradient id="paint44_linear" x1="165.859" y1="102.858" x2="206.911" y2="113.016" gradientUnits="userSpaceOnUse">
<stop stop-color="#8D139B"/>
<stop offset="0.1651" stop-color="#851BA1"/>
<stop offset="0.4284" stop-color="#6E33B2"/>
<stop offset="0.7551" stop-color="#4958CD"/>
<stop offset="1" stop-color="#2979E4"/>
</linearGradient>
<linearGradient id="paint45_linear" x1="162.077" y1="100.519" x2="215.402" y2="100.519" gradientUnits="userSpaceOnUse">
<stop stop-color="#A31FA9"/>
<stop offset="0.0667915" stop-color="#8B17A0"/>
<stop offset="0.1494" stop-color="#740F98"/>
<stop offset="0.2393" stop-color="#640A92"/>
<stop offset="0.3408" stop-color="#5B078F"/>
<stop offset="0.4785" stop-color="#58068E"/>
<stop offset="0.6264" stop-color="#4D22A3"/>
<stop offset="0.9436" stop-color="#3168DA"/>
<stop offset="1" stop-color="#2C75E4"/>
</linearGradient>
<linearGradient id="paint46_linear" x1="165.86" y1="94.328" x2="206.912" y2="104.486" gradientUnits="userSpaceOnUse">
<stop stop-color="#8D139B"/>
<stop offset="0.1651" stop-color="#851BA1"/>
<stop offset="0.4284" stop-color="#6E33B2"/>
<stop offset="0.7551" stop-color="#4958CD"/>
<stop offset="1" stop-color="#2979E4"/>
</linearGradient>
<linearGradient id="paint47_linear" x1="162.077" y1="91.9899" x2="215.402" y2="91.9899" gradientUnits="userSpaceOnUse">
<stop stop-color="#A31FA9"/>
<stop offset="0.0667915" stop-color="#8B17A0"/>
<stop offset="0.1494" stop-color="#740F98"/>
<stop offset="0.2393" stop-color="#640A92"/>
<stop offset="0.3408" stop-color="#5B078F"/>
<stop offset="0.4785" stop-color="#58068E"/>
<stop offset="0.6264" stop-color="#4D22A3"/>
<stop offset="0.9436" stop-color="#3168DA"/>
<stop offset="1" stop-color="#2C75E4"/>
</linearGradient>
<linearGradient id="paint48_linear" x1="165.858" y1="85.7984" x2="206.911" y2="95.9568" gradientUnits="userSpaceOnUse">
<stop stop-color="#267FE5"/>
<stop offset="0.1699" stop-color="#2C87E7"/>
<stop offset="0.441" stop-color="#3D9FEB"/>
<stop offset="0.7773" stop-color="#59C4F2"/>
<stop offset="1" stop-color="#6EE1F8"/>
</linearGradient>
<linearGradient id="paint49_linear" x1="171.647" y1="85.7974" x2="204.552" y2="85.7974" gradientUnits="userSpaceOnUse">
<stop stop-color="#6DE0F6"/>
<stop offset="0.1595" stop-color="#68D8F5"/>
<stop offset="0.4138" stop-color="#5AC0F1"/>
<stop offset="0.7294" stop-color="#439BEA"/>
<stop offset="1" stop-color="#2C75E4"/>
</linearGradient>
</defs>
</svg>
