<svg width="161" height="166" viewBox="0 0 161 166" fill="none" xmlns="http://www.w3.org/2000/svg">
<g clip-path="url(#clip0)">
<path fill-rule="evenodd" clip-rule="evenodd" d="M158.032 126.767L156.06 119.28L153.991 120.14L141.598 95.8237C140.823 94.3047 139.32 93.2941 137.623 93.1507L70.3181 87.4683C69.257 87.3788 68.1959 87.6358 67.2935 88.2005L30.5392 111.196C29.9153 110.287 29.301 109.458 29.1654 109.503C28.8707 109.601 21.5934 112.83 21.5934 112.83V119.111L21.6388 119.169C21.6973 119.6 21.8138 120.029 21.9919 120.446L37.3037 156.212C38.0175 157.878 39.5868 159.018 41.3909 159.181L113.583 165.677C114.702 165.777 115.822 165.492 116.757 164.868L158.292 137.148C159.651 136.241 160.422 134.76 160.478 133.221C160.48 133.221 160.486 133.22 160.486 133.22L158.032 126.767Z" fill="#A2ADDD"/>
<path fill-rule="evenodd" clip-rule="evenodd" d="M110.852 160.249C112.032 160.397 115.081 160.161 115.228 163.87V165.542L115.228 165.547C115.768 165.41 116.286 165.182 116.756 164.868L158.291 137.148C159.652 136.241 160.422 134.76 160.478 133.221C160.48 133.221 160.486 133.22 160.486 133.22V126.938L110.852 160.249Z" fill="#B0E9FF"/>
<path fill-rule="evenodd" clip-rule="evenodd" d="M23.9092 109.073L67.2931 81.9282C68.1959 81.3635 69.257 81.1064 70.3181 81.196L137.623 86.8788C139.321 87.0221 140.823 88.0327 141.598 89.5517L159.947 125.555C161.083 127.785 160.372 130.512 158.292 131.9L116.756 159.62C115.822 160.244 114.702 160.529 113.583 160.428L41.3908 153.932C39.5867 153.77 38.0174 152.63 37.304 150.963L21.9922 115.197C21.035 112.962 21.849 110.362 23.9092 109.073Z" fill="white"/>
<g clip-path="url(#clip1)">
<path d="M63.7407 148.173L30.0653 128.698C29.6289 128.443 29.6289 127.821 30.0653 127.566L46.2484 118.212C46.4302 118.102 46.6848 118.102 46.903 118.212L80.542 137.687C80.9784 137.942 80.9784 138.563 80.542 138.819L64.3589 148.173C64.1771 148.283 63.9225 148.283 63.7407 148.173Z" fill="#C8D9FC"/>
<path d="M77.669 130.452L49.5577 117.335C49.3759 117.225 49.1213 117.225 48.9031 117.335L38.2841 120.185H32.3927V127.273C32.3927 127.493 32.5018 127.712 32.72 127.821L66.3954 147.296C66.5773 147.406 66.8318 147.406 67.05 147.296L83.2331 137.942C83.415 137.833 83.4877 137.687 83.524 137.504V130.452H77.669Z" fill="#34799D"/>
<path d="M66.7227 147.734C66.5409 147.734 66.3954 147.698 66.25 147.588L32.5746 128.114C32.2836 127.931 32.1018 127.602 32.1018 127.273V119.893H38.2841L48.8304 117.079C49.1213 116.933 49.485 116.933 49.7396 117.116L77.7418 130.16H83.8877V137.906H83.7786C83.7059 138.052 83.5604 138.198 83.415 138.308L67.1955 147.625C67.05 147.698 66.8682 147.734 66.7227 147.734ZM32.72 120.514V127.273C32.72 127.346 32.72 127.456 32.8655 127.566L66.5409 147.04C66.65 147.113 66.7591 147.113 66.8682 147.04L83.0513 137.687C83.1604 137.614 83.1968 137.54 83.1968 137.467V137.431V130.781H77.5599L77.4872 130.744L49.4123 117.664C49.2668 117.591 49.1577 117.591 49.085 117.664H49.0122L38.2841 120.514H32.72Z" fill="#B0E9FF"/>
<path d="M66.3954 140.244L32.72 120.77C32.2836 120.514 32.2836 119.893 32.72 119.637L48.9031 109.589C49.085 109.479 49.3395 109.479 49.5577 109.589L83.2331 129.758C83.6695 130.014 83.6695 130.635 83.2331 130.891L67.05 140.244C66.8318 140.354 66.5773 140.354 66.3954 140.244Z" fill="#34799D"/>
<path d="M66.65 142.619C66.4682 142.619 66.3227 142.583 66.1772 142.473L32.6837 123.108C32.3927 122.925 32.2109 122.633 32.2109 122.268C32.2109 121.902 32.3927 121.61 32.6837 121.427L33.011 121.975C32.8655 122.048 32.8655 122.195 32.8655 122.231C32.8655 122.268 32.8655 122.414 33.011 122.487L66.5045 141.888C66.6136 141.961 66.7227 141.961 66.8318 141.888L82.9422 132.571C83.0877 132.498 83.0877 132.352 83.0877 132.316C83.0877 132.279 83.0877 132.133 82.9422 132.06L83.2695 131.475C83.5604 131.658 83.7423 131.95 83.7423 132.316C83.7423 132.681 83.5604 132.973 83.2695 133.156L67.1591 142.473C67.0137 142.583 66.8318 142.619 66.65 142.619Z" fill="#B0E9FF"/>
<path d="M66.6863 144.336C66.5045 144.336 66.359 144.3 66.2136 144.19L32.72 124.825C32.4291 124.643 32.2473 124.35 32.2473 123.985C32.2473 123.62 32.4291 123.327 32.72 123.145L33.0473 123.729C32.9019 123.802 32.9019 123.948 32.9019 123.985C32.9019 124.021 32.9019 124.168 33.0473 124.241L66.5409 143.642C66.65 143.715 66.7591 143.715 66.8682 143.642L82.9785 134.325C83.124 134.252 83.124 134.106 83.124 134.069C83.124 134.033 83.124 133.887 82.9785 133.814L83.3058 133.229C83.5968 133.412 83.7786 133.704 83.7786 134.069C83.7786 134.435 83.5968 134.727 83.3058 134.91L67.1955 144.227C67.05 144.3 66.8682 144.336 66.6863 144.336Z" fill="#B0E9FF"/>
<path d="M66.6863 145.944C66.5045 145.944 66.359 145.908 66.2136 145.798L32.72 126.396C32.4291 126.214 32.2473 125.921 32.2473 125.556C32.2473 125.191 32.4291 124.898 32.72 124.716L33.0473 125.3C32.9019 125.373 32.9019 125.52 32.9019 125.556C32.9019 125.593 32.9019 125.739 33.0473 125.812L66.5409 145.213C66.65 145.286 66.7591 145.286 66.8682 145.213L82.9785 135.896C83.124 135.823 83.124 135.677 83.124 135.64C83.124 135.604 83.124 135.458 82.9785 135.385L83.3058 134.8C83.5968 134.983 83.7786 135.275 83.7786 135.64C83.7786 136.006 83.5968 136.298 83.3058 136.481L67.1955 145.798C67.05 145.871 66.8682 145.944 66.6863 145.944Z" fill="#B0E9FF"/>
<path d="M83.3786 129.466L49.7032 109.333C49.4123 109.151 49.0486 109.151 48.7213 109.333L32.5746 119.345C32.2836 119.527 32.1018 119.82 32.1018 120.185C32.1018 120.55 32.2836 120.843 32.5746 121.025L66.25 140.5C66.3954 140.573 66.5773 140.646 66.7227 140.646C66.8682 140.646 67.05 140.61 67.1955 140.5L83.3786 131.146C83.6695 130.964 83.8514 130.671 83.8514 130.306C83.8514 129.941 83.7059 129.648 83.3786 129.466ZM83.0513 130.598L66.8682 139.952C66.7591 140.025 66.65 140.025 66.5409 139.952L32.9019 120.477C32.7564 120.404 32.7564 120.258 32.7564 120.222C32.7564 120.185 32.7564 120.039 32.9382 119.929L49.0486 109.881C49.085 109.845 49.1577 109.845 49.1941 109.845C49.2304 109.845 49.3032 109.845 49.3395 109.881L83.0149 130.05C83.1604 130.123 83.1604 130.269 83.1604 130.343C83.1604 130.416 83.1968 130.525 83.0513 130.598Z" fill="#B0E9FF"/>
<path d="M74.6506 127.31L58.213 117.847L52.2125 114.229C52.0307 114.12 51.8488 114.083 51.667 114.083L46.9757 114.156C46.7939 114.156 46.5757 114.229 46.4302 114.339L41.1934 117.664C40.8298 117.92 40.6479 118.358 40.7207 118.76L41.3753 122.268C41.448 122.56 41.6298 122.852 41.8844 122.998L47.8485 126.579L63.0861 135.385C63.2315 135.494 63.4497 135.531 63.6316 135.531L68.3592 135.458C68.541 135.458 68.7229 135.421 68.8683 135.312L74.8688 131.95C75.2325 131.731 75.4507 131.366 75.4143 130.927L75.2325 128.223C75.1598 127.821 74.9416 127.493 74.6506 127.31ZM49.8123 119.454C49.7396 119.564 49.6305 119.637 49.5214 119.637C49.4486 119.637 49.4123 119.637 49.3759 119.6L46.1393 117.737C45.9938 117.664 45.9211 117.445 46.0302 117.299C46.1029 117.152 46.3211 117.079 46.4666 117.189L49.7032 119.052C49.8487 119.089 49.9214 119.308 49.8123 119.454ZM58.7221 127.237C56.6492 127.018 54.3581 125.483 53.6308 123.839C52.9034 122.195 53.9944 121.025 56.0673 121.208C58.1402 121.427 60.4313 122.962 61.1586 124.606C61.886 126.287 60.795 127.456 58.7221 127.237ZM69.9957 131.219C69.923 131.329 69.8139 131.402 69.7048 131.402C69.632 131.402 69.5957 131.402 69.5593 131.366L66.3227 129.502C66.1772 129.429 66.1045 129.21 66.2136 129.064C66.2863 128.918 66.5045 128.844 66.65 128.954L69.8866 130.818C70.0321 130.854 70.1048 131.073 69.9957 131.219Z" fill="#B0E9FF"/>
</g>
<path fill-rule="evenodd" clip-rule="evenodd" d="M66.1337 93.1105L27.5187 117.62V47.3792C28.1253 38.4744 33.8712 30.5871 44.7565 23.7174C54.5266 17.6733 61.6523 19.5169 66.1337 29.2481V93.1105Z" fill="url(#paint0_linear)"/>
<path fill-rule="evenodd" clip-rule="evenodd" d="M66.1337 80.552C65.5163 82.532 52.6447 92.225 27.5187 109.631V98.5037C28.282 98.0647 29.2081 97.8551 30.025 97.4893C33.4548 95.9534 34.9292 91.6592 38.0379 89.5142C39.5463 88.4733 41.4076 87.9643 42.6876 86.6345C45.1177 84.1101 44.6701 79.4802 47.3723 77.2714C49.7633 75.3163 53.2995 76.3058 56.1961 75.3272C58.2248 73.2766 58.6006 72.915 61.143 69.5573C61.4577 70.0689 61.9067 70.6729 62.2185 71.1383C62.8213 70.166 63.8637 68.4381 64.4661 67.4652C65.1543 68.5853 65.8585 69.3828 66.1337 70.0757V80.552Z" fill="url(#paint1_linear)"/>
<path fill-rule="evenodd" clip-rule="evenodd" d="M64.4176 72.8073L63.5803 71.2222L60.8291 78.7817L56.6412 72.3194L51.616 81.8294L48.027 78.6597L40.9677 95.2418L39.2926 94.632L36.7803 98.046L32.8322 98.412C32.8322 98.412 27.5187 105.066 27.5187 105.554V117.62L66.1337 93.5194V69.2406L64.4176 72.8073Z" fill="url(#paint2_linear)"/>
<path fill-rule="evenodd" clip-rule="evenodd" d="M43.9117 38.8578C43.9355 38.8711 43.9503 38.8964 43.9503 38.9242V40.2911C43.9503 40.3181 43.9358 40.3438 43.9124 40.3571L38.7192 43.3165C38.7073 43.3233 38.6947 43.3262 38.6817 43.3262C38.6687 43.3262 38.6553 43.3229 38.6431 43.3161C38.62 43.3027 38.6055 43.2775 38.6055 43.2504V41.5644C38.6055 41.5492 38.6102 41.5344 38.6185 41.5214L40.6085 38.6015C40.948 38.165 41.198 37.7982 41.3535 37.5076C41.5061 37.2241 41.5833 37.0021 41.5833 36.8476C41.5833 36.6342 41.5259 36.4992 41.4072 36.4346C41.2875 36.3696 41.0717 36.401 40.781 36.527C40.497 36.6498 40.2744 36.8342 40.119 37.0747C39.9635 37.3158 39.8845 37.5736 39.8845 37.8419C39.8845 37.8722 39.8661 37.8996 39.8386 37.9115L37.9587 38.726C37.9342 38.7365 37.9064 38.7336 37.8851 38.7192C37.8635 38.7044 37.8512 38.6791 37.8523 38.6534C37.853 38.63 37.9746 36.2916 40.4303 35.0746C40.9487 34.85 41.6194 34.5941 42.2388 34.5941C42.75 34.5941 43.1465 34.7717 43.4163 35.1219C44.0257 35.9129 43.4355 36.9595 43.2399 37.2613C43.0184 37.6025 41.501 39.8358 40.9469 40.6506L43.8345 38.8596C43.8579 38.8452 43.8875 38.8441 43.9117 38.8578ZM49.9802 33.9508C50.0041 33.9646 50.0185 33.9898 50.0185 34.0173L50.0149 35.1928C50.0149 35.2209 49.999 35.2466 49.9741 35.2596L49.1195 35.7098V37.3217C49.1195 37.3488 49.1054 37.3734 49.0823 37.3871L47.2233 38.4954C47.2114 38.5026 47.1977 38.5063 47.1843 38.5063C47.1713 38.5063 47.1587 38.503 47.1468 38.4961C47.1226 38.4828 47.1082 38.4575 47.1082 38.4301V36.6235L44.1611 38.2272C44.1384 38.2398 44.1092 38.2395 44.0861 38.2257C44.0633 38.212 44.0493 38.1871 44.0493 38.1604V37.0946C44.0493 37.082 44.0522 37.069 44.0587 37.0578L47.1122 31.584C47.1176 31.5627 47.1302 31.5417 47.1461 31.532L49.0055 30.4525C49.0282 30.4388 49.0574 30.4391 49.0816 30.4525C49.1047 30.4662 49.1195 30.4911 49.1195 30.5186V34.4137L49.9041 33.9512C49.9276 33.9375 49.9572 33.9375 49.9802 33.9508ZM47.1082 35.3336V33.7082L47.0083 33.9039L45.848 36.0275L47.1082 35.3336ZM55.5462 24.0919C57.1816 24.9248 57.6286 27.3397 56.543 29.4755C55.7245 31.0857 54.2659 32.1258 52.8264 32.1258C52.3921 32.1258 51.9826 32.0294 51.6081 31.8388C49.9731 31.0062 49.5261 28.5913 50.6117 26.4555C51.4303 24.8454 52.8892 23.8052 54.3279 23.8052C54.7623 23.8052 55.1721 23.9016 55.5462 24.0919ZM55.8067 29.1004C56.6859 27.3711 56.4005 25.4548 55.1714 24.8291C54.9145 24.6981 54.631 24.632 54.3279 24.632C53.2142 24.632 52.0169 25.5154 51.3484 26.8306C50.4692 28.5599 50.7538 30.4763 51.983 31.1019C52.2398 31.233 52.5237 31.299 52.8264 31.299C53.9405 31.299 55.1378 30.4156 55.8067 29.1004ZM53.7073 27.9292L55.0948 27.1292L55.5075 27.8454L53.5009 29.0025C53.4371 29.0393 53.3657 29.0578 53.2942 29.0578C53.2232 29.0578 53.1517 29.0393 53.0875 29.0025C52.9602 28.9285 52.8815 28.7924 52.8815 28.6444V26.3302H53.7073V27.9292Z" fill="white"/>
<path fill-rule="evenodd" clip-rule="evenodd" d="M100.071 41.4273L105.106 53.0855L103.799 53.8314L103.124 52.4996V62.5328L101.816 63.2791L101.657 62.135L101.618 61.6458L97.4243 59.1756V48.7063L95.7868 47.7452L98.7959 43.3075L98.7631 42.1735L100.071 41.4273ZM2.1475 45.3641L1.47287 46.696L0.1651 45.9497L5.20102 34.2919L6.50879 35.0377L6.47596 36.1721L9.4851 40.6098L7.84759 41.5709V52.0402L3.65334 54.5104L3.61473 54.9996L3.45528 56.1433L2.1475 55.3974V45.3641ZM7.16264 87.517L7.12981 88.651L10.139 93.0887L8.50144 94.0498V104.519L4.30719 106.99L4.26895 107.479L4.10913 108.623L2.80135 107.876V97.8434L2.12672 99.1752L0.818951 98.429L5.85487 86.7708L7.16264 87.517Z" fill="#909E4F"/>
<path fill-rule="evenodd" clip-rule="evenodd" d="M98.7631 42.1733L103.799 53.8315L101.817 52.6672V63.2788L96.1165 59.922V49.4527L94.479 48.4912L98.7631 42.1733ZM33.967 15.2656C33.8653 15.2656 33.7827 15.1829 33.7827 15.0811V3.99369C33.7827 3.89188 33.8653 3.80957 33.967 3.80957C34.0691 3.80957 34.1518 3.89188 34.1518 3.99369V15.0811C34.1518 15.1829 34.0691 15.2656 33.967 15.2656ZM31.571 79.1457V73.1101L36.7321 70.1815V76.2171L31.571 79.1457ZM22.9158 52.7061V58.7418L17.7547 61.6704V55.6348L22.9158 52.7061ZM21.4911 46.9967C21.3893 46.9967 21.3067 46.914 21.3067 46.8122V15.45C21.3067 15.3482 21.3893 15.2655 21.4911 15.2655C21.5928 15.2655 21.6754 15.3482 21.6754 15.45V46.8122C21.6754 46.914 21.5928 46.9967 21.4911 46.9967ZM9.07956 66.0887C9.07956 65.9869 9.16218 65.9042 9.26391 65.9042C9.36565 65.9042 9.4479 65.9869 9.4479 66.0887V76.678C9.4479 76.7798 9.36565 76.8621 9.26391 76.8621C9.16218 76.8621 9.07956 76.7798 9.07956 76.678V66.0887ZM13.012 56.7047C13.1137 56.7047 13.1964 56.7874 13.1964 56.8892V72.3808C13.1964 72.4826 13.1137 72.5653 13.012 72.5653C12.9103 72.5653 12.8277 72.4826 12.8277 72.3808V56.8892C12.8277 56.7874 12.9103 56.7047 13.012 56.7047ZM22.9158 68.0881C23.0179 68.0881 23.1005 68.1708 23.1005 68.2726V83.7642C23.1005 83.8664 23.0179 83.9487 22.9158 83.9487C22.8141 83.9487 22.7315 83.8664 22.7315 83.7642V68.2726C22.7315 68.1708 22.8141 68.0881 22.9158 68.0881ZM18.0504 49.3549C17.9487 49.3549 17.8661 49.2722 17.8661 49.1704V38.0829C17.8661 37.9811 17.9487 37.8988 18.0504 37.8988C18.1522 37.8988 18.2348 37.9811 18.2348 38.0829V49.1704C18.2348 49.2722 18.1522 49.3549 18.0504 49.3549ZM62.9311 18.8371C62.8294 18.8371 62.7468 18.7544 62.7468 18.6526V7.56553C62.7468 7.46336 62.8294 7.38105 62.9311 7.38105C63.0329 7.38105 63.1155 7.46336 63.1155 7.56553V18.6526C63.1155 18.7544 63.0329 18.8371 62.9311 18.8371ZM65.4223 63.0791V57.0435L70.5834 54.1148V60.1504L65.4223 63.0791ZM57.5714 59.0091V46.0411L61.2177 43.9125V56.8805L57.5714 59.0091ZM82.0598 41.5387V28.571L85.7064 26.4421V39.4101L82.0598 41.5387ZM70.2151 47.5866C70.1134 47.5866 70.0308 47.5039 70.0308 47.4021V0.338819C70.0308 0.23701 70.1134 0.154335 70.2151 0.154335C70.3172 0.154335 70.3998 0.23701 70.3998 0.338819V47.4021C70.3998 47.5039 70.3172 47.5866 70.2151 47.5866ZM74.0863 26.4329C74.188 26.4329 74.2707 26.5156 74.2707 26.6174V48.4543C74.2707 48.5562 74.188 48.6388 74.0863 48.6388C73.9842 48.6388 73.9016 48.5562 73.9016 48.4543V26.6174C73.9016 26.5156 73.9842 26.4329 74.0863 26.4329ZM53.5773 55.4062C53.679 55.4062 53.7616 55.4889 53.7616 55.5907V66.6778C53.7616 66.78 53.679 66.8623 53.5773 66.8623C53.4756 66.8623 53.3929 66.78 53.3929 66.6778V55.5907C53.3929 55.4889 53.4756 55.4062 53.5773 55.4062ZM41.9142 28.6664L41.9892 28.2289C42.6267 24.2575 44.6032 21.7945 46.1867 20.409C48.2139 18.6357 50.7317 17.6183 53.0943 17.6183C55.6319 17.6183 57.4671 18.8057 58.0231 20.8C58.5523 20.8802 61.1116 21.3661 62.6589 23.4193C63.6849 24.7807 64.0331 26.5356 63.6943 28.6271C63.6885 28.6776 63.0961 33.7233 58.3348 36.2909L35.818 49.5026C35.761 49.5373 34.4013 50.3622 32.7724 50.3622C31.6504 50.3622 30.6832 49.9698 29.8982 49.1957C28.672 47.9863 28.2589 45.449 28.8707 42.8821C29.5165 40.1748 31.0873 38.2375 33.184 37.5664L34.0589 37.3C34.4244 37.1888 34.6985 37.105 34.9363 37.0335C36.0381 29.435 39.7124 28.6126 41.2453 28.6126C41.407 28.6126 41.5493 28.6214 41.6681 28.6333L41.9142 28.6664ZM53.0943 18.0622C50.8434 18.0622 48.4281 19.038 46.479 20.7431C44.3538 22.6024 42.8251 25.2204 42.3541 28.7255L42.2928 29.1817L41.8392 29.1039C41.67 29.0749 41.4714 29.0565 41.2453 29.0565C40.2365 29.0565 39.1894 29.4117 38.2307 30.2993C36.8632 31.5654 35.8589 33.764 35.3755 37.0972L35.3349 37.3771L35.0641 37.4586C34.9559 37.4911 34.8369 37.5272 34.6746 37.5765C34.5931 37.6013 34.4509 37.6446 34.1882 37.7246L33.3194 37.9891C31.3828 38.609 29.9146 40.4188 29.3025 42.9851C28.7233 45.4149 29.1108 47.7957 30.2098 48.8797C30.9113 49.5714 31.7664 49.9184 32.7724 49.9184C33.4275 49.9184 34.0905 49.7739 34.7261 49.5308C34.953 49.4441 35.1607 49.3505 35.3452 49.2563C35.4583 49.1985 35.5355 49.1549 35.5934 49.1198L58.1241 35.9002C60.1185 34.8247 61.5058 33.2275 62.3959 31.3268C62.7092 30.6578 62.9374 29.998 63.0935 29.3766C63.1483 29.1589 63.19 28.9616 63.2205 28.7885C63.2387 28.6852 63.2493 28.6122 63.2562 28.5561C63.5768 26.5768 63.2523 24.9442 62.3044 23.6864C61.6679 22.8417 60.7982 22.2153 59.7833 21.7773C59.1037 21.484 58.4616 21.3154 57.9566 21.2389L57.6726 21.1959L57.5955 20.9192C57.0968 19.1302 55.4434 18.0622 53.0943 18.0622ZM3.45527 56.1435V45.5318L1.47287 46.6962L6.50879 35.0379L10.7929 41.3559L9.15536 42.3169V52.7863L3.45527 56.1435ZM2.12672 99.1751L7.16264 87.5168L11.4467 93.8348L9.80921 94.7962V105.266L4.10912 108.622V98.0108L2.12672 99.1751Z" fill="#E5EA2D"/>
<path fill-rule="evenodd" clip-rule="evenodd" d="M106.258 137.875C106.258 140.168 102.343 142.026 97.5143 142.026C92.6851 142.026 88.7701 140.168 88.7701 137.875C88.7701 135.583 92.6851 133.724 97.5143 133.724C102.343 133.724 106.258 135.583 106.258 137.875Z" fill="#C8D9FC"/>
<path fill-rule="evenodd" clip-rule="evenodd" d="M109.464 136.845C109.464 139.329 105.998 141.343 101.721 141.343C97.4442 141.343 93.9769 139.329 93.9769 136.845C93.9769 136.57 93.9055 135.446 93.9863 135.186C94.6382 133.085 97.9157 132.347 101.721 132.347C105.439 132.347 108.707 132.959 109.455 134.989C109.567 135.294 109.464 136.52 109.464 136.845Z" fill="#909E4F"/>
<path fill-rule="evenodd" clip-rule="evenodd" d="M109.464 135.163C109.464 137.647 105.998 139.661 101.721 139.661C97.4442 139.661 93.9769 137.647 93.9769 135.163C93.9769 132.679 97.4442 130.665 101.721 130.665C105.998 130.665 109.464 132.679 109.464 135.163Z" fill="#E5EA2D"/>
<path fill-rule="evenodd" clip-rule="evenodd" d="M109.425 134.041C109.425 136.525 105.958 138.539 101.681 138.539C97.4047 138.539 93.9374 136.525 93.9374 134.041C93.9374 133.767 93.866 132.643 93.9468 132.382C94.5987 130.281 97.8763 129.543 101.681 129.543C105.399 129.543 108.667 130.155 109.416 132.185C109.528 132.49 109.425 133.717 109.425 134.041Z" fill="#909E4F"/>
<path fill-rule="evenodd" clip-rule="evenodd" d="M109.425 132.359C109.425 134.843 105.958 136.857 101.681 136.857C97.4048 136.857 93.9374 134.843 93.9374 132.359C93.9374 129.875 97.4048 127.861 101.681 127.861C105.958 127.861 109.425 129.875 109.425 132.359Z" fill="#E5EA2D"/>
<path fill-rule="evenodd" clip-rule="evenodd" d="M109.464 130.787C109.464 133.271 105.998 135.285 101.721 135.285C97.4442 135.285 93.9769 133.271 93.9769 130.787C93.9769 130.513 93.9055 129.389 93.9863 129.128C94.6382 127.027 97.9157 126.289 101.721 126.289C105.439 126.289 108.707 126.901 109.455 128.931C109.567 129.236 109.464 130.462 109.464 130.787Z" fill="#909E4F"/>
<path fill-rule="evenodd" clip-rule="evenodd" d="M109.464 129.105C109.464 131.589 105.998 133.603 101.721 133.603C97.4442 133.603 93.9769 131.589 93.9769 129.105C93.9769 126.621 97.4442 124.607 101.721 124.607C105.998 124.607 109.464 126.621 109.464 129.105Z" fill="#E5EA2D"/>
<path fill-rule="evenodd" clip-rule="evenodd" d="M109.464 127.795C109.464 130.279 105.998 132.293 101.721 132.293C97.4442 132.293 93.9769 130.279 93.9769 127.795C93.9769 127.521 93.9055 126.397 93.9863 126.136C94.6382 124.035 97.9157 123.297 101.721 123.297C105.439 123.297 108.707 123.909 109.455 125.939C109.567 126.244 109.464 127.47 109.464 127.795Z" fill="#909E4F"/>
<path fill-rule="evenodd" clip-rule="evenodd" d="M109.464 126.113C109.464 128.597 105.998 130.611 101.721 130.611C97.4442 130.611 93.9769 128.597 93.9769 126.113C93.9769 123.629 97.4442 121.615 101.721 121.615C105.998 121.615 109.464 123.629 109.464 126.113Z" fill="#E5EA2D"/>
<path fill-rule="evenodd" clip-rule="evenodd" d="M106.604 126.296L105.418 126.313C105.282 126.314 105.122 126.233 105.061 126.132C105.001 126.03 105.062 125.946 105.199 125.944L106.385 125.927C106.522 125.925 106.682 126.006 106.742 126.108C106.803 126.21 106.741 126.294 106.604 126.296ZM104.437 126.928C104.315 127.14 104.044 127.265 103.632 127.299C103.625 127.302 103.616 127.304 103.605 127.304C103.562 127.304 103.512 127.279 103.493 127.247C103.493 127.247 103.492 127.245 103.491 127.244L103.138 126.65C103.119 126.62 103.136 126.594 103.176 126.592C103.362 126.582 103.477 126.531 103.529 126.438C103.581 126.344 103.56 126.216 103.465 126.057C103.371 125.9 103.235 125.77 103.059 125.671C102.885 125.573 102.718 125.527 102.547 125.529C102.403 125.531 102.302 125.574 102.237 125.661C102.167 125.754 102.125 125.93 102.11 126.184L102.102 126.407C102.079 126.752 101.985 127.001 101.824 127.147C101.659 127.295 101.395 127.372 101.04 127.377C100.58 127.383 100.133 127.264 99.7142 127.022C99.3008 126.784 98.9682 126.457 98.7265 126.052C98.5017 125.675 98.4624 125.377 98.6092 125.166C98.756 124.955 99.0851 124.837 99.5862 124.816C99.6071 124.816 99.6309 124.821 99.6522 124.832C99.6738 124.842 99.6915 124.857 99.7005 124.873L100.058 125.474C100.078 125.505 100.058 125.531 100.015 125.532L99.9891 125.532C99.7536 125.536 99.5966 125.583 99.523 125.673C99.4491 125.763 99.4599 125.885 99.5559 126.047C99.6663 126.232 99.8246 126.383 100.027 126.497C100.227 126.611 100.422 126.664 100.622 126.661C100.794 126.659 100.912 126.619 100.982 126.539C101.055 126.456 101.101 126.242 101.117 125.904L101.134 125.627C101.145 125.365 101.231 125.164 101.391 125.031C101.552 124.896 101.793 124.824 102.107 124.82C102.535 124.814 102.959 124.93 103.367 125.166C103.77 125.397 104.089 125.708 104.315 126.087C104.52 126.431 104.561 126.714 104.437 126.928ZM98.199 126.415L97.0132 126.432C96.8765 126.434 96.7163 126.353 96.6557 126.252C96.5951 126.15 96.6571 126.066 96.7935 126.064L97.9793 126.047C98.116 126.045 98.2759 126.126 98.3365 126.228C98.3971 126.329 98.3354 126.413 98.199 126.415ZM101.721 122.997C98.3448 122.997 95.6087 124.392 95.6087 126.113C95.6087 127.834 98.3448 129.229 101.721 129.229C105.096 129.229 107.833 127.834 107.833 126.113C107.833 124.392 105.096 122.997 101.721 122.997Z" fill="#909E4F"/>
<path fill-rule="evenodd" clip-rule="evenodd" d="M117.799 147.64C117.799 149.932 113.883 151.791 109.054 151.791C104.225 151.791 100.31 149.932 100.31 147.64C100.31 145.347 104.225 143.489 109.054 143.489C113.883 143.489 117.799 145.347 117.799 147.64Z" fill="#C8D9FC"/>
<path fill-rule="evenodd" clip-rule="evenodd" d="M121.004 146.609C121.004 149.094 117.538 151.107 113.261 151.107C108.984 151.107 105.517 149.094 105.517 146.609C105.517 146.335 105.446 145.211 105.526 144.951C106.178 142.85 109.456 142.111 113.261 142.111C116.979 142.111 120.247 142.723 120.995 144.753C121.107 145.058 121.004 146.285 121.004 146.609Z" fill="#909E4F"/>
<path fill-rule="evenodd" clip-rule="evenodd" d="M121.004 144.928C121.004 147.412 117.538 149.426 113.261 149.426C108.984 149.426 105.517 147.412 105.517 144.928C105.517 142.443 108.984 140.429 113.261 140.429C117.538 140.429 121.004 142.443 121.004 144.928Z" fill="#E5EA2D"/>
<path fill-rule="evenodd" clip-rule="evenodd" d="M120.965 143.805C120.965 146.29 117.498 148.303 113.221 148.303C108.945 148.303 105.478 146.29 105.478 143.805C105.478 143.531 105.406 142.408 105.487 142.147C106.139 140.046 109.416 139.307 113.221 139.307C116.939 139.307 120.208 139.919 120.956 141.949C121.068 142.254 120.965 143.481 120.965 143.805Z" fill="#909E4F"/>
<path fill-rule="evenodd" clip-rule="evenodd" d="M120.965 142.124C120.965 144.608 117.498 146.622 113.221 146.622C108.945 146.622 105.478 144.608 105.478 142.124C105.478 139.64 108.945 137.626 113.221 137.626C117.498 137.626 120.965 139.64 120.965 142.124Z" fill="#E5EA2D"/>
<path fill-rule="evenodd" clip-rule="evenodd" d="M121.004 140.551C121.004 143.036 117.538 145.049 113.261 145.049C108.984 145.049 105.517 143.036 105.517 140.551C105.517 140.277 105.446 139.154 105.526 138.893C106.178 136.792 109.456 136.053 113.261 136.053C116.979 136.053 120.247 136.665 120.995 138.695C121.107 139 121.004 140.227 121.004 140.551Z" fill="#909E4F"/>
<path fill-rule="evenodd" clip-rule="evenodd" d="M121.004 138.87C121.004 141.354 117.538 143.368 113.261 143.368C108.984 143.368 105.517 141.354 105.517 138.87C105.517 136.386 108.984 134.372 113.261 134.372C117.538 134.372 121.004 136.386 121.004 138.87Z" fill="#E5EA2D"/>
<path fill-rule="evenodd" clip-rule="evenodd" d="M121.004 137.56C121.004 140.044 117.538 142.058 113.261 142.058C108.984 142.058 105.517 140.044 105.517 137.56C105.517 137.285 105.446 136.161 105.526 135.901C106.178 133.8 109.456 133.062 113.261 133.062C116.979 133.062 120.247 133.674 120.995 135.704C121.107 136.009 121.004 137.235 121.004 137.56Z" fill="#909E4F"/>
<path fill-rule="evenodd" clip-rule="evenodd" d="M121.004 135.878C121.004 138.362 117.538 140.376 113.261 140.376C108.984 140.376 105.517 138.362 105.517 135.878C105.517 133.393 108.984 131.38 113.261 131.38C117.538 131.38 121.004 133.393 121.004 135.878Z" fill="#E5EA2D"/>
<path fill-rule="evenodd" clip-rule="evenodd" d="M118.145 136.06L116.958 136.077C116.822 136.079 116.662 135.998 116.601 135.896C116.541 135.795 116.602 135.711 116.739 135.709L117.925 135.692C118.062 135.69 118.222 135.771 118.282 135.873C118.343 135.974 118.281 136.058 118.145 136.06ZM115.977 136.693C115.855 136.905 115.585 137.03 115.173 137.064C115.165 137.067 115.156 137.068 115.145 137.069C115.102 137.069 115.052 137.044 115.033 137.012C115.033 137.012 115.032 137.01 115.032 137.009L114.678 136.415C114.66 136.385 114.677 136.359 114.717 136.357C114.902 136.346 115.017 136.296 115.069 136.203C115.121 136.109 115.1 135.981 115.005 135.821C114.911 135.665 114.775 135.535 114.599 135.435C114.425 135.338 114.258 135.291 114.087 135.293C113.943 135.296 113.842 135.339 113.777 135.426C113.707 135.519 113.665 135.695 113.65 135.948L113.643 136.171C113.619 136.517 113.525 136.765 113.364 136.911C113.199 137.059 112.935 137.137 112.58 137.142C112.12 137.148 111.674 137.029 111.254 136.787C110.841 136.549 110.508 136.222 110.267 135.817C110.042 135.44 110.002 135.141 110.149 134.93C110.296 134.719 110.625 134.602 111.126 134.581C111.147 134.58 111.171 134.586 111.192 134.596C111.214 134.607 111.232 134.622 111.241 134.637L111.598 135.238C111.618 135.27 111.598 135.296 111.556 135.297L111.529 135.297C111.294 135.301 111.137 135.348 111.063 135.438C110.989 135.528 111 135.65 111.096 135.812C111.206 135.996 111.365 136.148 111.567 136.262C111.767 136.375 111.962 136.429 112.162 136.426C112.334 136.423 112.452 136.384 112.522 136.304C112.595 136.221 112.641 136.007 112.657 135.669L112.674 135.391C112.685 135.13 112.771 134.929 112.931 134.796C113.092 134.66 113.333 134.589 113.647 134.585C114.075 134.579 114.499 134.695 114.907 134.93C115.31 135.162 115.629 135.473 115.856 135.852C116.06 136.196 116.101 136.479 115.977 136.693ZM109.739 136.18L108.553 136.197C108.417 136.199 108.256 136.118 108.196 136.016C108.135 135.914 108.197 135.83 108.334 135.829L109.519 135.812C109.656 135.81 109.816 135.891 109.877 135.992C109.937 136.094 109.875 136.178 109.739 136.18ZM113.261 132.762C109.885 132.762 107.149 134.157 107.149 135.878C107.149 137.599 109.885 138.994 113.261 138.994C116.636 138.994 119.373 137.599 119.373 135.878C119.373 134.157 116.636 132.762 113.261 132.762Z" fill="#909E4F"/>
<path fill-rule="evenodd" clip-rule="evenodd" d="M81.2538 108.691L99.2458 119.011C99.5069 119.161 99.8113 119.19 100.044 119.087L101.942 118.248C102.444 118.026 105.052 117.09 104.489 116.767L85.6028 105.423C85.3413 105.273 81.1142 107.465 81.1142 107.465C80.6133 107.686 80.6904 108.368 81.2538 108.691Z" fill="#C8D9FC"/>
<path fill-rule="evenodd" clip-rule="evenodd" d="M83.7968 105.219C83.7231 105.065 83.6833 104.893 83.6829 104.714C83.6814 104.288 83.9004 103.907 84.269 103.694L111.775 87.7995C112.613 87.3153 113.698 87.3182 114.534 87.8082L131.489 97.7519C131.87 97.975 132.097 98.3725 132.095 98.8145C132.094 98.9977 132.055 99.173 131.981 99.3312V101.241C131.991 101.316 131.991 101.39 131.981 101.465V101.506L131.975 101.509C131.933 101.748 131.797 101.974 131.557 102.112L104.755 117.594C103.591 118.266 102.159 118.27 100.992 117.605L84.1978 108.031C83.8844 107.853 83.7549 107.52 83.7968 107.206V105.219Z" fill="#391E66"/>
<path fill-rule="evenodd" clip-rule="evenodd" d="M100.987 114.058C102.149 114.721 103.575 114.717 104.733 114.048L130.452 99.2993C131.031 98.965 131.034 98.1298 130.457 97.7915L114.496 88.3768C113.752 87.9406 112.831 87.9373 112.084 88.3692L85.4016 103.511C84.8551 103.827 84.8573 104.617 85.4059 104.93L100.987 114.058Z" fill="#E5EA2D"/>
<path fill-rule="evenodd" clip-rule="evenodd" d="M109.416 97.0922C107.118 97.0922 105.248 98.522 105.248 100.28C105.248 102.037 107.118 103.467 109.416 103.467C111.714 103.467 113.583 102.037 113.583 100.28C113.583 98.522 111.714 97.0922 109.416 97.0922ZM109.416 103.906C106.877 103.906 104.81 102.279 104.81 100.28C104.81 98.2804 106.877 96.6538 109.416 96.6538C111.955 96.6538 114.021 98.2804 114.021 100.28C114.021 102.279 111.955 103.906 109.416 103.906Z" fill="white"/>
<path fill-rule="evenodd" clip-rule="evenodd" d="M107.341 100.28C107.341 99.6838 107.741 99.131 108.386 98.8367C108.495 98.7869 108.626 98.8353 108.676 98.9454C108.726 99.0555 108.677 99.1855 108.567 99.2357C108.081 99.4577 107.779 99.8578 107.779 100.28C107.779 100.954 108.513 101.502 109.416 101.502C109.863 101.502 110.281 101.368 110.594 101.126C110.689 101.051 110.826 101.068 110.901 101.164C110.975 101.26 110.957 101.398 110.862 101.472C110.474 101.774 109.96 101.94 109.416 101.94C108.272 101.94 107.341 101.196 107.341 100.28ZM114.295 96.7685C115.418 97.7275 116.036 98.9746 116.036 100.279C116.036 103.142 113.067 105.471 109.416 105.471C105.765 105.471 102.795 103.142 102.795 100.279C102.795 97.8542 104.985 95.721 108.001 95.2069C108.119 95.1874 108.233 95.2668 108.254 95.3863C108.274 95.5055 108.194 95.6189 108.075 95.6391C105.27 96.1171 103.233 98.0687 103.233 100.279C103.233 102.9 106.007 105.033 109.416 105.033C112.825 105.033 115.598 102.9 115.598 100.279C115.598 99.1049 115.034 97.9766 114.011 97.1021C113.919 97.0234 113.908 96.8851 113.986 96.7927C114.065 96.7006 114.204 96.6901 114.295 96.7685Z" fill="#34799D"/>
<path fill-rule="evenodd" clip-rule="evenodd" d="M95.0292 113.061C94.9917 113.061 94.9534 113.051 94.9188 113.031L91.0286 110.757C90.9243 110.696 90.889 110.562 90.9499 110.457C91.0105 110.353 91.1447 110.317 91.2497 110.379L95.1396 112.652C95.2438 112.713 95.2791 112.847 95.2182 112.952C95.1774 113.022 95.1046 113.061 95.0292 113.061Z" fill="#B0E9FF"/>
<path fill-rule="evenodd" clip-rule="evenodd" d="M145.508 58.1854L123.25 45.4159L123.322 13.6618L145.508 26.5038V58.1854Z" fill="#E5EA2D"/>
<path fill-rule="evenodd" clip-rule="evenodd" d="M123.309 13.6438C122.817 17.3426 116.316 24.8491 106.877 25.8498C106.877 25.8498 111.378 28.7276 128.881 39.3623C134.319 39.1119 144.321 34.8583 145.508 26.4758L123.309 13.6438Z" fill="#B0E9FF"/>
<path fill-rule="evenodd" clip-rule="evenodd" d="M145.508 26.5039L123.361 13.6841L123.348 13.6672C124.223 14.1678 125.083 14.1206 125.463 13.7758L146.345 25.8634C146.547 25.9801 146.671 26.196 146.671 26.4296V56.8377C146.415 56.7838 145.696 57.4408 145.508 58.1899C145.505 58.1879 145.502 58.1832 145.5 58.1804L145.508 58.1856V26.5039Z" fill="#909E4F"/>
<path fill-rule="evenodd" clip-rule="evenodd" d="M126.676 40.6867L140.929 48.6938C141.024 48.7472 141.057 48.8668 141.004 48.9615C140.968 49.0256 140.901 49.0618 140.833 49.0618C140.8 49.0618 140.767 49.0539 140.736 49.0366L126.484 41.0296C126.39 40.9765 126.356 40.8566 126.409 40.7618C126.462 40.6671 126.581 40.6336 126.676 40.6867ZM141.004 37.9388C140.968 38.0033 140.901 38.039 140.833 38.039C140.8 38.039 140.767 38.0312 140.736 38.0139L137.975 36.4627C138.106 36.3868 138.235 36.3094 138.365 36.2303L140.929 37.671C141.024 37.7245 141.057 37.844 141.004 37.9388ZM140.929 41.4123C141.023 41.4653 141.057 41.5853 141.004 41.68C140.968 41.7441 140.902 41.7803 140.833 41.7803C140.8 41.7803 140.767 41.7724 140.737 41.7551L134.344 38.1641C134.504 38.1055 134.664 38.0453 134.824 37.9824L140.929 41.4123ZM141.004 45.5836C140.968 45.6481 140.901 45.6839 140.833 45.6839C140.8 45.6839 140.767 45.676 140.736 45.6587L129.455 39.3212C129.671 39.3015 129.894 39.2748 130.121 39.2437L140.929 45.3159C141.024 45.3693 141.057 45.4889 141.004 45.5836ZM139.69 29.742L123.875 20.5463C123.781 20.4917 123.749 20.3714 123.803 20.2778C123.858 20.183 123.979 20.152 124.072 20.2066L139.887 29.4023C139.981 29.4565 140.013 29.5768 139.958 29.6708C139.922 29.7337 139.856 29.7687 139.788 29.7687C139.755 29.7687 139.721 29.7601 139.69 29.742ZM137.27 31.5475C137.234 31.6104 137.168 31.6454 137.1 31.6454C137.067 31.6454 137.033 31.6367 137.002 31.6186L121.186 22.423C121.092 22.3683 121.061 22.2484 121.115 22.1544C121.17 22.0597 121.29 22.029 121.383 22.0833L137.199 31.2789C137.293 31.3336 137.325 31.4535 137.27 31.5475ZM118.008 23.8972L133.823 33.0929C133.917 33.1475 133.949 33.2678 133.895 33.3614C133.858 33.4243 133.792 33.4593 133.725 33.4593C133.691 33.4593 133.657 33.4507 133.626 33.4326L117.811 24.2369C117.717 24.1827 117.685 24.0624 117.739 23.9684C117.794 23.874 117.915 23.843 118.008 23.8972ZM121.097 29.5264L130.135 34.7818C130.229 34.8365 130.261 34.9568 130.207 35.0504C130.17 35.1133 130.104 35.1483 130.037 35.1483C130.003 35.1483 129.969 35.1396 129.938 35.1215L120.899 29.8661C120.806 29.8118 120.774 29.6915 120.828 29.5975C120.883 29.5028 121.004 29.4721 121.097 29.5264ZM114.051 25.6576C114.106 25.5628 114.227 25.5322 114.32 25.5864L117.454 27.4085C117.548 27.4631 117.58 27.5831 117.526 27.677C117.489 27.74 117.423 27.775 117.355 27.775C117.322 27.775 117.288 27.7663 117.257 27.7482L114.123 25.9261C114.029 25.8715 113.997 25.7516 114.051 25.6576Z" fill="#562B79"/>
<path fill-rule="evenodd" clip-rule="evenodd" d="M126.244 14.5258C126.602 14.0843 127.164 13.8204 127.746 13.8204C128.73 13.8204 129.749 14.7877 129.624 16.156L128.827 15.6948C128.804 14.9049 128.238 14.571 127.746 14.571C127.392 14.571 127.04 14.735 126.826 14.9992C126.585 15.2957 126.512 15.7125 126.615 16.204C126.658 16.4069 126.528 16.6062 126.325 16.6483C126.119 16.6903 125.923 16.5606 125.881 16.3581C125.691 15.4475 125.973 14.8592 126.244 14.5258ZM131.391 15.9247C132.375 15.9247 133.394 16.8919 133.269 18.2603L132.472 17.799C132.449 17.0091 131.883 16.6753 131.391 16.6753C131.038 16.6753 130.685 16.8396 130.471 17.1035C130.23 17.3999 130.157 17.8167 130.26 18.3082C130.303 18.5111 130.173 18.7101 129.97 18.7529C129.764 18.7946 129.568 18.6649 129.526 18.4624C129.336 17.5517 129.618 16.9635 129.889 16.6301C130.247 16.1885 130.809 15.9247 131.391 15.9247ZM135.185 18.1368C136.169 18.1368 137.188 19.104 137.063 20.4723L136.266 20.0111C136.242 19.2212 135.677 18.8874 135.185 18.8874C134.831 18.8874 134.479 19.0517 134.265 19.3156C134.024 19.612 133.95 20.0288 134.054 20.5203C134.096 20.7232 133.966 20.9222 133.764 20.9646C133.557 21.0067 133.362 20.8769 133.32 20.6744C133.129 19.7638 133.411 19.1756 133.683 18.8421C134.041 18.4006 134.603 18.1368 135.185 18.1368ZM138.829 20.2412C139.814 20.2412 140.833 21.208 140.708 22.5768L139.911 22.1155C139.888 21.3256 139.322 20.9918 138.829 20.9918C138.477 20.9918 138.124 21.1557 137.91 21.42C137.669 21.7161 137.596 22.1332 137.699 22.6247C137.741 22.8276 137.611 23.0266 137.409 23.069C137.202 23.1107 137.007 22.9814 136.965 22.7789C136.775 21.8682 137.057 21.2796 137.328 20.9466C137.686 20.5046 138.248 20.2412 138.829 20.2412ZM142.416 22.3055C143.401 22.3055 144.42 23.2727 144.294 24.641L143.498 24.1798C143.474 23.3899 142.908 23.0561 142.416 23.0561C142.063 23.0561 141.711 23.22 141.496 23.4842C141.256 23.7803 141.183 24.1975 141.285 24.689C141.328 24.8919 141.198 25.0908 140.996 25.1333C140.789 25.1754 140.594 25.0456 140.552 24.8431C140.361 23.9325 140.643 23.3443 140.914 23.0108C141.273 22.5693 141.834 22.3055 142.416 22.3055Z" fill="#E5EA2D"/>
</g>
<defs>
<linearGradient id="paint0_linear" x1="46.0717" y1="38.276" x2="82.591" y2="53.8015" gradientUnits="userSpaceOnUse">
<stop stop-color="#B0E9FF" stop-opacity="0"/>
<stop offset="1" stop-color="#B0E9FF"/>
</linearGradient>
<linearGradient id="paint1_linear" x1="27.5187" y1="88.5481" x2="66.1341" y2="88.5481" gradientUnits="userSpaceOnUse">
<stop stop-color="#FFF464"/>
<stop offset="1" stop-color="#A800FF"/>
</linearGradient>
<linearGradient id="paint2_linear" x1="62.3394" y1="73.8638" x2="19.7709" y2="107.942" gradientUnits="userSpaceOnUse">
<stop stop-color="#FFF465"/>
<stop offset="0.47487" stop-color="#B0E9FF"/>
<stop offset="1" stop-color="#A800FF"/>
</linearGradient>
<clipPath id="clip0">
<rect width="160.674" height="166" fill="white"/>
</clipPath>
<clipPath id="clip1">
<rect width="54.1497" height="39.0588" fill="white" transform="translate(29.738 109.187)"/>
</clipPath>
</defs>
</svg>
