<svg xmlns="http://www.w3.org/2000/svg" xmlns:xlink="http://www.w3.org/1999/xlink" width="172" height="178" viewBox="0 0 172 178">
  <defs>
    <polygon id="a" points=".166 .537 43.339 .537 43.339 42.934 .166 42.934"/>
  </defs>
  <g fill="none" fill-rule="evenodd">
    <g transform="translate(0 80)">
      <path fill="#909E4F" d="M119.046087,59.1808268 L146.33811,74.1183551 C147.387234,74.7576328 148.119008,75.3848477 148.533433,76 C148.947859,76.6151523 149.086201,78.5570545 148.948459,81.8257068 L119.046087,65.3442308 L119.046087,59.1808268 Z M0,57.7578255 L0,54 L1.76672966,53.1658603 L70.376519,92.9063672 L68.1925149,98 L0.793947628,59.1217406 C0.302798807,58.8424317 0,58.3216641 0,57.7578255 Z"/>
      <path fill="#E5EA2D" d="M65.9942184,91.7514935 C67.0226798,92.4610039 67.8309893,93.360903 67.9013337,94.4268156 C67.900031,95.2634714 67.9104524,96.9788593 67.9104524,97.7641299 C68.3207949,97.998657 68.7226699,97.9281672 69.074392,97.7595184 C69.074392,97.760836 86.6897174,87.4790773 121.920368,66.9142422 L121.988759,61.9279914 L145.453449,75.2131521 C147.058778,76.3611931 147.880765,77.2321057 147.919411,77.8258897 C147.918977,78.3836602 147.922234,79.7622528 147.929181,81.9616675 L171.999999,67.5072861 L171.994137,61.8868349 C172.035171,61.2570374 171.76161,60.5982533 171.136977,60.2339457 L150.056896,48.5 L157.001006,44.5130698 C157.657554,44.1296574 157.187485,40.0666243 156.530286,39.683212 L88.7402161,0 L0.602568944,51.583452 C-0.201832497,52.0544826 -0.200529822,53.2290946 0.604522956,53.6981489 L65.9942184,91.7514935 Z"/>
    </g>
    <g transform="translate(95 71)">
      <path fill="#C3CB3B" d="M0.815035213,47.2392878 L42.7967126,70.7885541 C43.2985604,71.0692593 43.9153525,71.0707213 44.4179516,70.7914781 L61.1787688,61.4836151 C62.2733681,60.8761515 62.2741193,59.3395829 61.1787688,58.7313882 L18.8552639,35.208438 C18.3511622,34.9284638 17.7313651,34.9306568 17.2295172,35.2142861 L0.810527597,44.495833 C-0.272051402,45.1076826 -0.269797595,46.6303622 0.815035213,47.2392878"/>
      <path fill="#562B79" d="M51.6906047,59.9489392 L35.6471555,51.0789842 C35.4572621,50.9732061 35.2229874,50.9739066 35.0323664,51.0796848 L25.014578,56.63479 C24.8596075,56.5528295 24.6486148,56.4428482 24.6129643,56.434442 C24.5562145,56.4211321 24.001813,56.5002906 24.001813,56.5002906 L24.001813,57.4978278 C23.9850791,57.7128867 24.0840274,57.9349509 24.305206,58.058242 L40.3319212,66.9211918 C40.5218147,67.0262694 40.7560893,67.0262694 40.9459828,66.9211918 L51.6906047,60.9787002 C52.1031318,60.7503314 52.1031318,60.177308 51.6906047,59.9489392"/>
      <path fill="#A68FD4" d="M24.308442,55.0283168 L35.0347947,49.0794227 C35.2253884,48.9736428 35.4589021,48.9736428 35.6494958,49.0787222 L51.6906489,57.9488232 C52.103117,58.1771957 52.103117,58.7502286 51.6906489,58.9793016 L40.9475647,64.9211905 C40.756971,65.0262698 40.5234573,65.0262698 40.3328636,64.9211905 L24.3091694,56.0580948 C23.8974288,55.8304228 23.8967014,55.2573899 24.308442,55.0283168"/>
      <path fill="#8DCAEE" d="M63.2911379,25.4797118 L18.7788328,0.188363589 C18.5624672,0.0647732498 18.3173537,0 18.0722402,0 C17.7371005,0 17.4329782,0.119123218 17.1901343,0.310464887 L15.2360352,1.31631156 L15,3.0316859 L16.5364984,3.90426347 L16.6522464,3.76801629 L16.6522464,40.4594565 C16.6522464,40.9560514 16.9238382,41.4191429 17.3611085,41.6678126 L61.0926818,66.5154269 L61.0820905,67.0120218 L61.2447429,68 L63.0891462,67.0507369 C63.1897638,67.0127663 63.2850857,66.963628 63.3743554,66.9048109 L63.5052339,66.8370596 L63.5105296,66.7990891 C63.5286861,66.7841987 63.5498688,66.7715418 63.5665123,66.7551624 C63.8464258,66.4916023 64,66.1349771 64,65.7508047 L64,26.688068 C64,26.1914731 63.7284082,25.7283815 63.2911379,25.4797118"/>
      <path fill="#562B79" d="M15.5916625,43.4302002 L60.2227369,68.84185 C61.0123788,69.291435 62,68.7288927 62,67.8297228 L62,28.581179 C62,28.1645087 61.7739546,27.778509 61.4068204,27.5697998 L16.7765046,2.15815001 C15.9868627,1.70856503 15,2.2711073 15,3.17027724 L15,42.4180729 C15,42.8354913 15.2252869,43.221491 15.5916625,43.4302002"/>
      <polygon fill="#B0E9FF" points="21 42.301 57 63 57 28.699 21 8"/>
      <path fill="#A68FD4" d="M25,39.7115208 L25,23 L29,25.2884792 L29,42 L25,39.7115208 Z M30,42.4480997 L30,29 L33,30.5519003 L33,44 L30,42.4480997 Z M35,44.7495422 L35,24 L39,26.2504578 L39,47 L35,44.7495422 Z M49.4183693,44.8760015 C52.0048928,46.4368976 53.5318588,49.548539 52.8289114,51.8262449 C52.1259641,54.1039508 49.4594602,54.6848947 46.872203,53.1239985 C46.5676903,52.9405015 46.2800542,52.7343601 46.0070935,52.5118211 C45.9953532,52.5157253 45.9850805,52.521972 45.974074,52.5266571 L42,52.0331671 L43.5475115,48.9574443 C43.2474014,47.9962321 43.1975053,47.0264307 43.4609271,46.1737551 C44.1638745,43.8960492 46.8318459,43.3151053 49.4183693,44.8760015 Z"/>
      <path fill="#391E66" d="M25,41.6667606 L25,33 L29,35.3324648 L29,44 L25,41.6667606 Z M35,43 L39,45.3071017 L39,49 L35,46.693666 L35,43 Z M30,44.3748089 L30,33 L33,34.6251911 L33,46 L30,44.3748089 Z"/>
    </g>
    <g transform="translate(43 117)">
      <path fill="#C3CB3B" d="M42,33.5005416 C42,39.2999948 32.5970149,44 21,44 C9.40188144,44 0,39.2999948 0,33.5005416 C0,27.7010884 9.40188144,23 21,23 C32.5970149,23 42,27.7010884 42,33.5005416"/>
      <g transform="translate(6)">
        <mask id="b" fill="white">
          <use xlink:href="#a"/>
        </mask>
        <path fill="#391E66" d="M38.2085909,27.5389611 C38.2363848,26.6674682 38.112381,25.7595739 37.8889602,24.8281257 C39.5908066,25.1032776 41.371759,24.9062817 42.9506706,24.2093015 C43.1751603,24.1108036 43.4370651,23.8774062 43.3034402,23.6707746 C43.2510593,23.5894067 43.1516424,23.5519347 43.0607775,23.5198158 C39.4293878,22.2329184 36.3335666,19.4963879 34.6028571,16.0500297 C34.1378426,14.7331547 33.7797279,13.4323391 33.657862,12.1743488 C33.0581535,5.98610691 28.6207386,0.759290854 21.9598056,0.544094207 C15.4656365,0.333180081 10.9074247,5.0353874 9.63531584,10.9399123 C9.63317784,10.937771 9.63103984,10.9356298 9.62783285,10.9345591 C8.14940719,15.834833 4.09896987,18.3144123 0.445131195,19.6077334 C0.353197279,19.640923 0.254849368,19.6773244 0.201399417,19.7586923 C0.0688435374,19.9653239 0.330748299,20.1987212 0.555238095,20.2982898 C2.14056365,20.9974113 3.93006803,21.1933366 5.63832847,20.9128315 C4.75426628,22.7928579 4.06155491,24.6150703 4.00275996,26.4319296 C3.71733722,35.2335795 11.1458115,42.6177151 20.5914869,42.9239153 C30.0360933,43.2290449 37.9242371,36.3416816 38.2085909,27.5389611" mask="url(#b)"/>
      </g>
      <path fill="#FFFFFF" d="M35.312001,16.4122959 C34.7711992,15.8677648 34.5423122,15.1395365 34.6062659,14.4058411 C34.6264618,14.1762195 34.6354378,13.9422243 34.6354378,13.7049487 C34.6354378,10.0014814 32.2119277,7 29.2206879,7 C28.5564666,7 27.9247832,7.15198758 27.3413455,7.42753342 C26.493117,7.82663751 25.509127,7.82663751 24.6608985,7.42753342 C24.0752168,7.15198758 23.4435334,7 22.7793121,7 C19.7891943,7 17.3645622,10.0014814 17.3645622,13.7049487 C17.3645622,13.9422243 17.3757822,14.1762195 17.3948561,14.4058411 C17.4588098,15.1395365 17.2310448,15.8677648 16.687999,16.4122959 C14.4081043,18.703044 13,21.8280837 13,25.2789672 C13,32.3042926 18.8209123,38 26.000561,38 C33.1802097,38 39,32.3042926 39,25.2789672 C39,21.8280837 37.5918957,18.703044 35.312001,16.4122959"/>
      <path fill="#391E66" d="M21.5004509 12C21.2236249 12 21 12.2236249 21 12.4995491 21 12.7754734 21.2236249 13 21.5004509 13 21.7763751 13 22 12.7754734 22 12.4995491 22 12.2236249 21.7763751 12 21.5004509 12M29.5004509 13C29.2236249 13 29 13.2245266 29 13.5004509 29 13.7754734 29.2236249 14 29.5004509 14 29.7763751 14 30 13.7754734 30 13.5004509 30 13.2245266 29.7763751 13 29.5004509 13"/>
      <path fill="#EC1944" d="M13.0612581 26.7967038C12.3949046 25.9869668 11.3071333 25.7559108 10.6322231 26.2825521 10.1166816 26.6832574 9.9958181 27.4055677 10.2578672 28.0852056 10.3059987 28.2756707 10.3744524 28.4682174 10.3134858 28.6503562 10.2824678 28.7398644 10.2225708 28.8158423 10.1509084 28.8793307 9.89634639 29.1062236 9.49204202 29.1551409 9.18827895 28.9958995 9.08773765 28.9438599 9.00324018 28.8658004 8.91660353 28.7919041 8.24811085 28.0165133 7.19135763 27.7958651 6.52714331 28.3131393 6.51323867 28.3235472 6.50468196 28.3391591 6.49505566 28.3537302 6.48008143 28.3589342 6.46189843 28.3630973 6.44799378 28.3745461 5.78377946 28.8918202 5.77415317 29.9430212 6.40414066 30.7475542 6.45975925 30.8464295 6.51858661 30.9442641 6.54960467 31.050425 6.64158926 31.3741116 6.50361237 31.7467155 6.22017148 31.9392622 6.14209153 31.9933835 6.05117653 32.0339744 5.95491358 32.0433415 5.75917893 32.061035 5.58269686 31.9538333 5.40193644 31.8664067 4.77836648 31.467783 4.02644592 31.4251105 3.51197396 31.8258158 2.83599416 32.3514163 2.82850705 33.433841 3.49486054 34.2446188 3.64674208 34.4309208 7.49298153 37.8020494 9.40968372 39.0333076 11.6290794 40.4602349 13.4152918 40.1906695 14.9629861 38.9854311 15.0207438 38.940677 15.0624578 38.885515 15.1148676 38.8365977 15.1747645 38.7980884 15.2400094 38.769987 15.2966976 38.7252329 16.8443918 37.5210353 17.5075366 35.8838679 16.5641597 33.464024 15.750203 31.3741116 13.2142092 26.9830058 13.0612581 26.7967038M45.7449548 36.3408699C45.3624754 35.8469962 44.6442871 35.7110309 43.9572792 35.9349737 43.7660395 35.972964 43.5716818 36.0319489 43.3929142 35.968965 43.3045698 35.9379729 43.2297369 35.878988 43.1684155 35.8100056 42.9511921 35.5650682 42.914815 35.1861651 43.0821497 34.9072364 43.1382744 34.8142602 43.2183041 34.7382796 43.296255 34.6592998 44.0913549 34.0594532 44.3449554 33.0787039 43.8502266 32.4428665 43.8398331 32.4288701 43.8242429 32.4208721 43.8117708 32.4118744 43.8055347 32.3958785 43.8024167 32.3808823 43.7909838 32.3668859 43.2972944 31.7300487 42.2475547 31.68606 41.4243925 32.2509156 41.3235759 32.2989033 41.224838 32.3518897 41.116746 32.3768834 40.7914306 32.4528639 40.423502 32.3119 40.2405771 32.041969 40.1896491 31.9669881 40.1511933 31.8800104 40.1459966 31.7900334 40.1345638 31.6070802 40.2468132 31.4451216 40.3403544 31.279164 40.7581715 30.7083099 40.8246897 30.0084889 40.4411709 29.5146151 39.937088 28.8667808 38.8572073 28.8247915 38.0267696 29.4216389 37.8365693 29.5586039 34.3485233 33.0447126 33.0586946 34.7962648 31.5620361 36.8247462 31.7761414 38.5023173 32.9287764 39.985938 32.9713896 40.0409239 33.0254356 40.0819134 33.0732455 40.1319006 33.1085833 40.1898858 33.1345669 40.2508702 33.1771801 40.3058562 34.3308544 41.7894769 35.9418411 42.4613051 38.3884621 41.6555111 40.4993743 40.9616885 44.9644057 38.7312587 45.1546061 38.5942938 45.9840044 37.9974464 46.2479983 36.9887043 45.7449548 36.3408699M26.000272 13C25.6352685 13.5000069 24.2306981 13.7163561 23.5538245 13.8077035 23.3343604 14.4730973 23.0305759 14.8827184 22.6366955 15.0846443 22.1573397 15.32984 21.8212131 15.5615739 21.4261776 15.8952324 20.9294957 16.3135074 20.8313144 17.0635178 21.3222209 17.4866006 21.5751822 17.7029498 21.9332553 17.8087204 22.2878631 17.8789137 23.7224654 18.1616099 25.2922114 17.9433377 26.5385366 17.2865978 27.7848618 16.6288964 28.6927502 15.5433045 29 14.3413647 28.393586 14.300018 27.7756212 14.2557866 27.2142551 14.0615532 26.6505788 13.8663582 26.1446563 13.4923145 26.000272 13"/>
      <path fill="#34799D" d="M39.0373415,21.0473813 C39.0383415,21.0473813 39.0383415,21.0453813 39.0383415,21.0453813 C39.0303415,21.0303813 39.0243415,21.0143813 39.0163415,21.0003813 C38.9823415,20.9943813 39.0073415,21.0613813 39.0373415,21.0473813"/>
    </g>
    <g transform="translate(56 56)">
      <polygon fill="#909E4F" points=".99 46.659 28.095 62 32.684 61.617 6.817 43.627"/>
      <path fill="#B0E9FF" d="M29.9659145,25.5126953 L29.9659145,0 C13.9886382,8.99718985 6,13.5384225 6,13.6236979 L6,47.8548177 L32.1621094,62.0875651 L33.0214844,61.4651693 L33.0214844,27.0533854 L29.9659145,25.5126953 Z"/>
      <path fill="#EC1944" d="M20,13 L20,9.53636558 C23.313921,8.43217858 26,9.08744417 26,11.0004267 L20,13 Z M19,15.288057 L24,12.9873252 C23.9055034,15.253019 21.7081254,18.081093 19.0043255,19.3741998 C16.2406335,20.6959771 14,19.9123205 14,17.621632 C14,15.3316787 16.0852466,12.3872045 18.8489386,11.0654272 C18.9159291,11.0365118 18.9662829,11.0147028 19,11 L19,15.288057 Z M27,18 L27,20.1416957 L10.7504603,28.5870409 L10,26.8356433 L27,18 Z M27,22.4914902 L27,25.1754669 L10.7504603,33.6208121 L10,31.3264797 L27,22.4914902 Z"/>
      <polygon fill="#FFFFFF" points="32 61 7 46.934 7 14 32 28.066"/>
      <path fill="#EC1944" d="M18.0386512,36.9234178 L19.9921063,37.7602665 C20.6502222,38.0415801 21.1505991,38.0754638 21.4942819,37.8611297 C21.83692,37.6475835 22.0051052,37.2567389 21.999882,36.6878079 C21.9936142,36.1078449 21.817072,35.5586137 21.4692108,35.0401142 C21.1223942,34.5216147 20.6178387,34.1205262 19.953455,33.8368487 L18,33 L18.0386512,36.9234178 Z M17.7799519,39.2796756 L17.820092,44 L15.1129669,42.6333062 L15.0000144,29.1947046 C14.9981474,29.0460787 15.1783113,28.9522534 15.3239359,29.0253209 L19.451835,31.108574 C20.8343358,31.8060362 21.9358557,32.7766711 22.7545277,34.018818 C23.5731997,35.2609649 23.9876699,36.5604034 23.9998053,37.9154728 C24.0100737,39.2722028 23.6142733,40.1589761 22.8086702,40.5791141 C22.0040006,40.9984217 20.9099486,40.8597596 19.5274478,40.1614671 L17.7799519,39.2796756 Z"/>
    </g>
    <g transform="translate(26 11)">
      <polygon fill="#B0E9FF" points="22.89 24.457 19.059 22.655 19.059 .151 .154 12.218 0 44.428 21.788 56.707 22.89 55.996"/>
      <path fill="#FFFFFF" d="M7.3041525,17.2677869 L17.0010485,12 L17.0010485,14.305077 L9.30733807,18.4382402 L7.3041525,17.2677869 Z M11.7385825,19.8588065 L17.0010485,17 L17.0010485,19.305077 L13.7656161,21.0431941 L11.7385825,19.8588065 Z M6,12.9762608 L17.0010485,7 L17.0010485,9.30507695 L6,15.214986 L6,12.9762608 Z"/>
      <polygon fill="#F8FDFF" points="22 56.121 1 43.851 1 13 22 25.27"/>
      <polygon fill="#562B79" points="10.15 28.251 11.851 29.264 14.164 38.642 14.204 38.657 14.711 31.328 17 32.691 15.791 43.729 13.67 42.466 11.416 33.504 11.376 33.48 10.375 40.144 8.254 38.88 5 25 7.282 26.359 9.12 35.261 9.16 35.285"/>
    </g>
    <g transform="translate(7 66)">
      <path fill="#B0E9FF" d="M21.9408243,0.0482357109 C7.34814209,8.8594201 0.0345339874,13.275155 -2.48689958e-14,13.2954404 L-2.48689958e-14,46.1913146 L24.0688426,59.9739906 L24.9395349,59.4738885 L24.9395349,26.4836563 L21.9408243,24.9079159 L21.9408243,0.0482357109 Z"/>
      <path fill="#909E4F" d="M7,17.5132112 L7,14.8159533 L12,12 L12,16.1840467 L8.29429382,18.2710658 L7,17.5132112 Z M9.87513512,19.196704 L12,18 L12,20.4408872 L9.87513512,19.196704 Z M16.4089179,23.0224639 L20,21 L20,25.1251689 L16.4089179,23.0224639 Z M15,9.81595327 L20,7 L20,11.1840467 L15,14 L15,9.81595327 Z M15,21 L15,16.8159533 L20,14 L20,18.1840467 L15,21 Z"/>
      <polygon fill="#F8FDFF" points="24 59 1 45.533 1 14 24 27.467"/>
      <polygon fill="#909E4F" points="13.67 29.321 16.955 31.253 13.391 37.449 17 48 13.689 46.054 11.601 39.073 9.48 43.579 6 41.533 9.835 35.359 6.32 25 9.629 26.946 11.651 33.773"/>
    </g>
    <path fill="#E5EA2D" d="M95.0785986,8.71732729 C95.0785986,8.53650889 95.2243913,8.38968435 95.4055497,8.38968435 C95.586708,8.38968435 95.7325007,8.53650889 95.7325007,8.71732729 L95.7325007,40.2990687 C95.7325007,40.4798871 95.586708,40.6267116 95.4055497,40.6267116 C95.2243913,40.6267116 95.0785986,40.4798871 95.0785986,40.2990687 L95.0785986,8.71732729 Z M88,0.249529389 C88,0.111384133 88.1457927,0 88.3269511,0 C88.5073876,0 88.6539021,0.111384133 88.6539021,0.249529389 L88.6539021,24.2593195 C88.6539021,24.3967415 88.5073876,24.5081256 88.3269511,24.5081256 C88.1457927,24.5081256 88,24.3967415 88,24.2593195 L88,0.249529389 Z M153.835384,42.5642169 C153.835384,42.2344041 153.981177,41.9675162 154.162335,41.9675162 C154.342772,41.9675162 154.489286,42.2344041 154.489286,42.5642169 L154.489286,74.7896718 C154.489286,75.1187612 154.342772,75.3863725 154.162335,75.3863725 C153.981177,75.3863725 153.835384,75.1187612 153.835384,74.7896718 L153.835384,42.5642169 Z M145.825011,24.815083 C145.825011,24.6342646 145.971526,24.48744 146.151962,24.48744 C146.33312,24.48744 146.479635,24.6342646 146.479635,24.815083 L146.479635,42.5266067 C146.479635,42.7081483 146.33312,42.8549729 146.151962,42.8549729 C145.971526,42.8549729 145.825011,42.7081483 145.825011,42.5266067 L145.825011,24.815083 Z M120.343182,35.6225986 L111.948551,26.9715232 C111.459207,26.4623386 111.413016,25.7217064 111.864829,25.6378067 L122.321489,23.7037731 C122.606578,23.6502508 122.971782,23.8158805 123.279246,24.137014 L131.656555,32.7808567 C132.147342,33.2929344 132.194256,34.0379062 131.740277,34.1218059 L121.300218,36.0551162 C121.016571,36.1079152 120.651368,35.9430088 120.343182,35.6225986 Z M120.770311,42.4163798 L111.918094,33.2315284 C111.429471,32.7230671 111.381836,31.9817117 111.834371,31.8985352 L114.426884,31.4182815 L120.206628,37.4069869 C120.438308,37.6485603 120.696693,37.8373347 120.955079,37.9537817 C121.21202,38.0702288 121.462466,38.1107321 121.676825,38.0716753 L129.286196,36.6612918 L131.492574,38.9996353 C132.388983,39.8972179 132.054814,40.5423779 131.462261,40.7969702 L121.727347,42.8488974 C121.442979,42.9016963 121.077775,42.73679 120.770311,42.4163798 Z M129.716717,43.5239286 L131.899278,45.7921146 C132.390787,46.303469 132.308508,47.2733789 131.85453,47.3572787 L122.157147,49.7108109 C121.873501,49.7636099 121.508297,49.5987035 121.200111,49.2790166 L111.948768,39.726019 C111.459424,39.2168344 111.413232,38.475479 111.864324,38.3923025 L114.456114,37.9127721 L120.637149,44.2689004 C120.86883,44.5104738 121.127937,44.6992482 121.384878,44.8164185 C121.642542,44.9328656 121.892266,44.9733689 122.107346,44.9335888 L129.716717,43.5239286 Z M99.1531449,47.6259025 C99.6128973,47.4436375 100.204007,47.5600846 100.928641,47.9759669 C101.658326,48.3954656 102.247993,48.9574491 102.697641,49.6619176 C103.147289,50.3663861 103.365978,51.0549426 103.353708,51.7261405 L103.335664,52.7155787 C103.323395,53.3925628 103.08594,53.8192942 102.623301,53.9972195 C102.15994,54.1751448 101.563777,54.0536349 100.834092,53.6348595 C100.107293,53.2168073 99.5212355,52.6577168 99.0773616,51.957588 C98.6327659,51.2574592 98.4169637,50.5703493 98.4285117,49.8962583 L98.4465553,48.9075433 C98.458825,48.2356221 98.6941143,47.8081674 99.1531449,47.6259025 Z M102.160662,52.0400412 L102.178705,51.0440935 C102.186644,50.6159155 102.078383,50.1993099 101.854641,49.7935534 C101.6309,49.3877969 101.31694,49.0688333 100.912762,48.8366625 C100.514358,48.6073847 100.20112,48.5668814 99.9744922,48.7129827 C99.7471421,48.8605305 99.6294975,49.1469468 99.62228,49.5751248 L99.6042363,50.5710725 C99.5962971,51.0064832 99.7016721,51.4259819 99.9203612,51.8288453 C100.138329,52.2309854 100.448679,52.5477793 100.84997,52.7777803 C101.253427,53.0099511 101.570995,53.0540708 101.801954,52.9094161 C102.032913,52.7654846 102.152722,52.4754519 102.160662,52.0400412 Z M107.834525,55.7612838 L107.901648,52.0624627 L109.081703,52.74017 L108.98138,58.2356028 L107.802047,57.5578954 L105.498955,52.4899174 L105.474415,52.4797915 L105.408015,56.1822291 L104.227959,55.5045217 L104.32756,50.0090889 L105.506894,50.6867963 L107.810708,55.751158 L107.834525,55.7612838 Z M111.343223,54.0396034 L111.258778,58.6895293 L113.891709,60.2026176 L113.877274,61.0474012 L110.064288,58.8573288 L110.163168,53.361896 L111.343223,54.0396034 Z M115.687053,59.0940562 L117.017231,57.2996144 L118.309878,58.0416931 L116.229806,60.4473011 L116.19444,62.3791649 L115.015107,61.7014575 L115.051194,59.7124551 L113.132071,55.0675921 L114.423997,55.8096708 L115.663235,59.080314 L115.687053,59.0940562 Z M119.294413,59.1964717 C119.753443,59.0149301 120.345275,59.1313771 121.069187,59.5472594 C121.799594,59.9667581 122.388539,60.5280184 122.838187,61.2332102 C123.287835,61.9376787 123.507245,62.6255118 123.494976,63.297433 L123.476932,64.286148 C123.464662,64.9631321 123.226486,65.3905868 122.764569,65.5677888 C122.301207,65.7457141 121.705045,65.6249274 120.974638,65.2054287 C120.247839,64.7880999 119.662503,64.2290094 119.218629,63.5288806 C118.773312,62.8287517 118.558231,62.1416418 118.569779,61.4675508 L118.587823,60.4781125 C118.600093,59.8061914 118.835382,59.37946 119.294413,59.1964717 Z M122.301929,63.6113337 L122.319251,62.6146627 C122.327912,62.187208 122.21965,61.7706025 121.995187,61.364846 C121.772167,60.9590895 121.457486,60.6401258 121.05403,60.407955 C120.655626,60.1786773 120.342388,60.1374507 120.11576,60.2842752 C119.88841,60.4310998 119.770765,60.7182394 119.762826,61.1456941 L119.745504,62.1423651 C119.736843,62.5777758 119.84294,62.9965512 120.061629,63.3994146 C120.279596,63.802278 120.589225,64.1183485 120.990516,64.3490728 C121.394694,64.5812436 121.712263,64.62464 121.943221,64.4807086 C122.17418,64.3360539 122.29399,64.0467444 122.301929,63.6113337 Z M124.369155,67.0755249 L124.468756,61.5800922 L128.317829,63.7911396 L128.30195,64.6402628 L125.632933,63.1069227 L125.605506,64.6207344 L127.863128,65.9175639 L127.84725,66.7666871 L125.589628,65.4698576 L125.548488,67.7532323 L124.369155,67.0755249 Z M128.968916,69.718222 L129.069239,64.2227892 L132.91759,66.4338366 L132.902433,67.2836831 L130.232694,65.7496198 L130.205267,67.2634314 L132.46289,68.560261 L132.447733,69.4093842 L130.189389,68.1125546 L130.148971,70.3959293 L128.968916,69.718222 Z M133.650379,72.4074979 L133.74998,66.9120651 L134.928591,67.5897725 L134.829712,73.0852052 L133.650379,72.4074979 Z M136.579153,69.1040904 C137.009314,68.9203789 137.567945,69.0259768 138.254326,69.4201609 C138.970298,69.8317036 139.527486,70.3170202 139.925168,70.8761107 C140.323572,71.4352012 140.511948,72.0087571 140.490296,72.5960553 L140.481635,72.6141371 L139.33478,71.9552349 C139.341276,71.6030006 139.255388,71.2883766 139.076395,71.0113628 C138.898124,70.7350723 138.618808,70.4877128 138.239169,70.2692841 C137.886235,70.0667675 137.608363,70.0407297 137.405552,70.1926171 C137.203463,70.3445046 137.097367,70.6309209 137.090149,71.0511429 L137.06994,72.1490722 C137.062723,72.571464 137.16088,72.9764972 137.365134,73.3634486 C137.568667,73.7496767 137.855922,74.0498352 138.227621,74.2632009 C138.580555,74.4664408 138.844714,74.5308121 139.021542,74.4584848 C139.199092,74.3854341 139.290754,74.1706219 139.296527,73.8133247 L140.439774,74.4700572 L140.447713,74.4975416 C140.447713,75.0899026 140.248511,75.4392438 139.849385,75.545565 C139.449538,75.6518862 138.903898,75.5065082 138.212465,75.1087077 C137.507319,74.7036745 136.941469,74.1641124 136.515639,73.491468 C136.089809,72.8181003 135.883389,72.1461791 135.894937,71.4742579 L135.915146,70.3835614 C135.926694,69.71381 136.14827,69.2870786 136.579153,69.1040904 Z M141.259028,76.7786018 L141.358629,71.2831691 L145.123257,73.4464804 L145.107379,74.2948803 L142.522805,72.8107229 L142.497544,74.1914522 L144.67794,75.4448853 L144.663505,76.2940085 L142.481666,75.0412986 L142.453518,76.6115256 L145.046752,78.1007459 L145.031595,78.9462528 L141.259028,76.7786018 Z"/>
  </g>
</svg>
