<?xml version="1.0" encoding="UTF-8" standalone="no"?>
<svg
   xmlns:dc="http://purl.org/dc/elements/1.1/"
   xmlns:cc="http://creativecommons.org/ns#"
   xmlns:rdf="http://www.w3.org/1999/02/22-rdf-syntax-ns#"
   xmlns:svg="http://www.w3.org/2000/svg"
   xmlns="http://www.w3.org/2000/svg"
   xmlns:xlink="http://www.w3.org/1999/xlink"
   xmlns:sodipodi="http://sodipodi.sourceforge.net/DTD/sodipodi-0.dtd"
   xmlns:inkscape="http://www.inkscape.org/namespaces/inkscape"
   width="170"
   height="180"
   viewBox="0 0 170 180"
   version="1.1"
   id="svg1624"
   sodipodi:docname="filter-list-1-dark.svg"
   inkscape:version="0.92.1 r15371">
  <metadata
     id="metadata1628">
    <rdf:RDF>
      <cc:Work
         rdf:about="">
        <dc:format>image/svg+xml</dc:format>
        <dc:type
           rdf:resource="http://purl.org/dc/dcmitype/StillImage" />
        <dc:title>хостинг-2</dc:title>
      </cc:Work>
    </rdf:RDF>
  </metadata>
  <sodipodi:namedview
     pagecolor="#ffffff"
     bordercolor="#666666"
     borderopacity="1"
     objecttolerance="10"
     gridtolerance="10"
     guidetolerance="10"
     inkscape:pageopacity="0"
     inkscape:pageshadow="2"
     inkscape:window-width="1920"
     inkscape:window-height="1017"
     id="namedview1626"
     showgrid="false"
     inkscape:zoom="3.7083822"
     inkscape:cx="165.07974"
     inkscape:cy="79.673649"
     inkscape:window-x="-8"
     inkscape:window-y="-8"
     inkscape:window-maximized="1"
     inkscape:current-layer="g1622" />
  <title
     id="title1510">хостинг-2</title>
  <defs
     id="defs1539">
    <linearGradient
       x1="50%"
       y1=".743%"
       x2="50%"
       y2="99.088%"
       id="a">
      <stop
         stop-color="#A2FFFF"
         offset="3.005%"
         id="stop1512" />
      <stop
         stop-color="#A2FFFF"
         offset="49.454%"
         id="stop1514" />
      <stop
         stop-color="#A2FFFF"
         stop-opacity="0"
         offset="100%"
         id="stop1516" />
    </linearGradient>
    <linearGradient
       x1="50%"
       y1="0%"
       x2="50%"
       y2="100%"
       id="b">
      <stop
         stop-color="#A2FFFF"
         stop-opacity="0"
         offset=".743%"
         id="stop1519" />
      <stop
         stop-color="#A2FFFF"
         offset="49.454%"
         id="stop1521" />
      <stop
         stop-color="#A2FFFF"
         stop-opacity="0"
         offset="99.088%"
         id="stop1523" />
    </linearGradient>
    <linearGradient
       x1="50%"
       y1="81.111%"
       x2="50%"
       y2="-5.91%"
       id="c">
      <stop
         stop-color="#E5EA2D"
         offset="0%"
         id="stop1526" />
      <stop
         stop-color="#3CEAFF"
         stop-opacity=".602"
         offset="100%"
         id="stop1528" />
    </linearGradient>
    <linearGradient
       x1="100%"
       y1="42.467%"
       x2="0%"
       y2="43.649%"
       id="d">
      <stop
         stop-color="#8000F9"
         offset="0%"
         id="stop1531" />
      <stop
         stop-color="#7A1EFB"
         offset="43.628%"
         id="stop1533" />
      <stop
         stop-color="#A2FFFF"
         offset="100%"
         id="stop1535" />
    </linearGradient>
    <path
       id="e"
       d="M0 .461h19.214V7.33H0z" />
  </defs>
  <g
     fill="none"
     fill-rule="evenodd"
     id="g1622">
    <path
       d="M0 132.543v3.949c0 .608.325 1.17.852 1.47l72.379 41.759v-4.265L0 132.543z"
       fill="#A2ADDD"
       id="path1541" />
    <path
       d="M76.278 175.297c-2.057.913-4.306.466-5.331.002 1.425.81 2.185 1.558 2.276 2.929 0 .893.01.657.01 1.496.443.25.876.175 1.256-.006 0 .003.18-.096.248-.141l94.207-54.51c.527-.302.852-.863.852-1.472v-2.754l-93.518 54.456z"
       fill="#B0E9FF"
       id="path1543" />
    <path
       d="M.657 132.464l95.036-55.1 73.603 42.46c.71.409.71 1.433.001 1.843l-92.509 53.479a6.068 6.068 0 0 1-6.072.002L.66 134.723a1.305 1.305 0 0 1-.003-2.26"
       fill="#FFF"
       id="path1545" />
    <path
       d="M71.348 136.441c-2.257 1.303-4.634 2.418-8.388.626l-30.65-18.032c-1.946-1.145-1.693-3.13.564-4.433L68.43 94.068c2.258-1.303 5.664-1.432 7.61-.287l30.65 18.033c1.947 1.144 1.694 3.128-.563 4.432L71.348 136.44z"
       fill="#C8D9FC"
       id="path1547" />
    <path
       d="M67.682 164.89c.208.12.45.144.635.061l2.911-.858c.4-.178 1.072-.741.624-1l-15.018-9.087c-.208-.12-3.569 1.635-3.569 1.635-.398.178-.337.724.111.983l14.306 8.266z"
       fill="#A2ADDD"
       id="path1549" />
    <path
       d="M92.995 150.28a.791.791 0 0 0 0-.186v-2.036l-2.825-.025-11.019-6.76a1.826 1.826 0 0 0-1.91-.006L59.204 152.17l-.05.018-4.148.681v2.145a.68.68 0 0 0 .316.68l13.24 7.896c.92.549 2.05.545 2.967-.01l21.132-12.768a.708.708 0 0 0 .329-.498l.005-.003v-.033z"
       fill="#391E66"
       id="path1551" />
    <path
       d="M55.327 153.695l13.237 7.896c.92.548 2.049.545 2.966-.009l21.125-12.77a.74.74 0 0 0 .004-1.248l-13.51-8.291a1.825 1.825 0 0 0-1.909-.007L55.323 152.52a.694.694 0 0 0 .004 1.176"
       fill="#B0E9FF"
       id="path1553" />
    <path
       d="M65 157a1 1 0 1 1-2 0 1 1 0 0 1 2 0"
       fill="#EC1944"
       id="path1555" />
    <path
       d="M61.405 152.293l11.465 6.6c.246.143.55.142.796 0l16.932-9.837a.814.814 0 0 0-.004-1.406l-11.426-6.545a.795.795 0 0 0-.793.002l-16.97 9.78a.813.813 0 0 0 0 1.406"
       fill="#34799D"
       id="path1557" />
    <path
       d="M75 150.249c-.864 0-1.567-.58-1.567-1.294 0-.464.303-.895.79-1.124a.164.164 0 0 1 .218.084.174.174 0 0 1-.082.227c-.367.172-.595.484-.595.813 0 .525.554.952 1.236.952.338 0 .654-.104.89-.293a.162.162 0 0 1 .232.03.175.175 0 0 1-.03.24 1.747 1.747 0 0 1-1.092.365zM75 153c-2.757 0-5-1.815-5-4.045 0-1.89 1.653-3.552 3.932-3.953a.167.167 0 0 1 .19.14.17.17 0 0 1-.135.197c-2.119.373-3.656 1.893-3.656 3.616 0 2.042 2.094 3.703 4.669 3.703 2.575 0 4.67-1.66 4.67-3.703 0-.915-.426-1.795-1.2-2.476a.175.175 0 0 1-.018-.24.162.162 0 0 1 .233-.02c.848.747 1.315 1.72 1.315 2.736 0 2.23-2.243 4.045-5 4.045z"
       fill="#E5EA2D"
       id="path1559" />
    <path
       d="M75.5 146.363c-1.746 0-3.167 1.183-3.167 2.637s1.42 2.637 3.167 2.637c1.746 0 3.167-1.183 3.167-2.637s-1.42-2.637-3.167-2.637m0 5.637c-1.93 0-3.5-1.346-3.5-3s1.57-3 3.5-3 3.5 1.346 3.5 3-1.57 3-3.5 3"
       fill="#66B9DD"
       id="path1561" />
    <path
       d="M63.831 160a.174.174 0 0 1-.085-.022l-3.001-1.69a.16.16 0 0 1-.06-.223.172.172 0 0 1 .23-.06l3.001 1.691a.16.16 0 0 1 .061.223.17.17 0 0 1-.146.081zm-6.074-3.519c-.07.175-.29.256-.494.181-.203-.075-.311-.278-.242-.453.07-.175.291-.256.494-.18.204.074.312.277.242.452z"
       fill="#B0E9FF"
       id="path1563" />
    <path
       d="M85.836 60.076c-1.764-1.034-4.853-.918-6.9.26l-29.548 9.5-4.366 1.116.003 28.707c-.129.75.246 1.486 1.157 2.02l27.794 16.297c1.702.809 3.091.962 4.312.766 1.22-.197 3.471-24.458 4.494-25.047l15.667-11.26c2.047-1.178 6.08-8.295 4.316-9.33L85.836 60.077z"
       fill="#34799D"
       id="path1565" />
    <path
       d="M114.813 67.895c.062-.706-.32-1.39-1.18-1.893L85.84 49.706c-1.764-1.035-4.853-.918-6.9.26L46.698 68.521c-2.046 1.178-2.275 2.971-.512 4.005 0 0 28.28 16.542 28.35 16.578 2.259 1.152 2.784 1.615 2.785 5.065v24.685c1.652.003 2.981-.57 4.265-1.308l31.536-18.251c1.266-.729 1.834-1.692 1.668-2.565l.023-28.836z"
       fill="#B0E9FF"
       id="path1567" />
    <path
       d="M69.823 19.114s-.339 1.087-1.573 1.807L36.602 39.204c-1.284.751-2.56 1.326-4.211 1.323-1.033-.007-2.127-.249-3.395-.862L1.183 23.353c-.869-.437-1.145-1.07-1.179-1.678.052-.755.626-1.538 1.694-2.153L33.94.965c2.047-1.177 5.136-1.294 6.9-.26l27.794 16.297c.859.503 1.241 1.187 1.18 1.893l.009.22z"
       fill="url(#a)"
       transform="translate(45 49)"
       id="path1569" />
    <path
       d="M.071 0H70v69.835s-.34 1.073-1.576 1.785L36.71 89.692c-1.287.743-2.565 1.31-4.22 1.308-1.034-.007-2.131-.246-3.402-.852L1.218 74.024C.693 73.764.17 73.413 0 73.06L.071 0z"
       fill="url(#b)"
       opacity=".51"
       transform="translate(45 -1)"
       id="path1571" />
    <path
       d="M78.93 66.136l-6.015 3.42v-7.05l6.015-3.42v7.05zm23.486-3.16l-6.015 3.42v-7.05l6.015-3.42v7.05zM53.35 51.125L50 53.084V41.148l3.349-1.96v11.937zm50.57 5.368a.215.215 0 0 1-.215-.215V19.646a.215.215 0 1 1 .43 0v36.632a.215.215 0 0 1-.215.215zm3.866 2.174a.215.215 0 0 1-.215-.216V4.215a.215.215 0 1 1 .43 0v54.236a.215.215 0 0 1-.215.216zM58.45 67.524a.215.215 0 0 1-.215-.215V12.338a.215.215 0 1 1 .43 0v54.971a.215.215 0 0 1-.215.215zM53.294 31.05a.215.215 0 0 1-.215-.216V5.327a.215.215 0 1 1 .43 0v25.506a.215.215 0 0 1-.215.216zm10.597 39.43a.215.215 0 0 1-.215-.216v-12.37a.215.215 0 1 1 .43 0v12.369a.215.215 0 0 1-.215.215zM67.615 73a.215.215 0 0 1-.215-.215V54.69a.215.215 0 1 1 .43 0v18.095a.215.215 0 0 1-.215.215zm31.22-19.57a.215.215 0 0 1-.215-.215v-12.95a.215.215 0 1 1 .43 0v12.95a.215.215 0 0 1-.215.216z"
       fill="#E5EA2D"
       id="path1573" />
    <path
       d="M93 67.459l-6.058 3.499v-13.46L93 54v13.459zM84.058 75.5L78 79v-7.211l6.058-3.499v7.211z"
       fill="#E5EA2D"
       opacity=".5"
       id="path1575" />
    <path
       d="M18.36 1.254a21.838 21.838 0 0 0-3.952 1.943l.062 17.665v.827c.005.374.007.883.009 1.572.005 1.38.398 4.45 3.94 3.141 1.182-.436 2.295-1.44 3.053-2.754.756-1.31 1.065-2.786.848-4.05-.267-1.548-1.371-2.516-2.814-2.463a3.393 3.393 0 0 0-.637.09c-.099.023-.173-.045-.174-.158l-.012-3.597c0-.062.023-.13.062-.187.04-.057.094-.105.148-.114a6.82 6.82 0 0 1 1.165-.244c2.974-.33 5.298 1.606 5.783 4.816.36 2.372-.254 5.13-1.683 7.567-1.431 2.442-3.518 4.31-5.725 5.126-4.03 1.488-7.414-.88-7.546-5.28-.097-3.231-.106-13.316-.102-19.25a29.3 29.3 0 0 0-1.527 1.45c-.053 5.569-.121 15.667.042 19.093.24 5.02 4.314 7.687 9.083 5.947 5.038-1.839 9.136-7.99 9.136-13.71 0-5.488-3.784-8.652-8.615-7.2-.052.016-.092-.019-.092-.077V7.67a.165.165 0 0 1 .101-.148c6.781-2.153 12.093 2.191 12.093 9.892 0 7.903-5.663 16.4-12.623 18.94-6.67 2.435-12.31-1.428-12.573-8.61-.106-2.889-.104-10.442-.084-16.089C2.266 16.689.103 22.773.103 28.65c0 11.451 8.174 17.75 18.258 14.07 10.083-3.68 18.257-15.945 18.257-27.396 0-9.236-5.318-15.12-12.666-15.12-1.762 0-3.641.338-5.591 1.05"
       transform="translate(62 9)"
       fill="url(#c)"
       id="path1577" />
    <path
       fill="url(#d)"
       opacity=".59"
       d="M34.762 42.264L.926 60.988V18.731L34.762.007z"
       transform="translate(99 75)"
       id="path1579" />
    <path
       d="M99.595 142.98a.359.359 0 0 1-.31-.175.341.341 0 0 1 .132-.473l31.552-17.521a.363.363 0 0 1 .487.13.342.342 0 0 1-.133.472l-31.551 17.521a.36.36 0 0 1-.177.046"
       fill-opacity=".626"
       fill="#B0C0E0"
       id="path1581" />
    <path
       d="M120.028 105.814c.102-.13.549-.736.954-1.337.367-.544.78-1.144 1.195-1.633.34-.399.77-.799 1.071-.74.162.032.25.194.298.382.115.444.042 1.043-.122 1.65-.163.606-.834 2.533-1.36 2.446-.621-.102-1.975-.723-2.036-.768-.834 1.158-1.51 2.173-3.606 4.548-.849.96-2.747 1.891-2.747-.06 0-1.887 2.215-3.917 2.747-4.258.963-.62 2.911-.406 3.606-.23zM130.7 116.11a.255.255 0 0 1-.063-.169v-12.098c0-.144.12-.26.268-.26.148 0 .267.116.267.26v12.098a.255.255 0 0 1-.072.178.256.256 0 0 1-.064.404l-28.125 15.439a.272.272 0 0 1-.365-.099.255.255 0 0 1 .055-.322v-9.1c0-.144.12-.26.268-.26.148 0 .268.116.268.26v8.8l6.456-3.545a.253.253 0 0 1-.028-.114v-3.488c0-.144.12-.26.268-.26.148 0 .268.116.268.26v3.323l1.726-.947v-5.395c0-.144.12-.26.268-.26.148 0 .268.116.268.26v5.1l15.417-8.462v-9.344c0-.144.12-.26.267-.26.148 0 .268.116.268.26v9.05l2.385-1.31zm-25.193-5.59a.272.272 0 0 1 .365.098.256.256 0 0 1-.101.354l-3.009 1.652a.272.272 0 0 1-.365-.098.256.256 0 0 1 .101-.355l3.01-1.652zm25.507-15.257a.273.273 0 0 1 .375.049.255.255 0 0 1-.05.365l-3.03 2.255a.273.273 0 0 1-.376-.049.255.255 0 0 1 .05-.365l3.03-2.255zm-.132 2.984a.273.273 0 0 1 .375.048.255.255 0 0 1-.05.365l-3.03 2.255a.273.273 0 0 1-.376-.048.255.255 0 0 1 .05-.365l3.03-2.255zm-5.288-11.672a.272.272 0 0 1 .365.099.256.256 0 0 1-.101.354l-4.107 2.255a.272.272 0 0 1-.365-.098.256.256 0 0 1 .101-.355l4.107-2.255zm0 2.632a.272.272 0 0 1 .365.098.256.256 0 0 1-.101.355l-4.107 2.255a.272.272 0 0 1-.365-.099.256.256 0 0 1 .101-.354l4.107-2.255zM105.83 116.3a.272.272 0 0 1 .365.098.256.256 0 0 1-.101.355l-3.33 1.829a.272.272 0 0 1-.366-.099.256.256 0 0 1 .102-.354l3.33-1.83zm.043-2.48a.272.272 0 0 1 .363.103.256.256 0 0 1-.106.353l-1.198.636a.272.272 0 0 1-.363-.104.256.256 0 0 1 .106-.353l1.198-.635zm1.958-18.434a.272.272 0 0 1 .363.104.256.256 0 0 1-.106.353l-1.935 1.027a.272.272 0 0 1-.364-.104.256.256 0 0 1 .107-.353l1.935-1.027zm17.017 5.767c0 4.64-3.503 10.553-7.693 12.937-3.624 2.062-6.67.699-6.98-3.149-.307-3.804 2.026-8.856 5.433-11.98.386-.355 1.043-1.436 1.378-2.336a.94.94 0 0 1 .362-.461c.216-.136.478-.13.624.09.264.4.766.603 1.032.5 3.368-1.294 5.844.538 5.844 4.399zm-7.359-4.35c-.361.97-1.058 2.118-1.513 2.536-3.297 3.022-5.56 7.925-5.267 11.562.278 3.45 2.881 4.614 6.176 2.74 4.025-2.291 7.428-8.032 7.428-12.488 0-3.508-2.11-5.068-5.112-3.914-.493.189-1.197-.074-1.607-.602a.47.47 0 0 0-.105.166zm3.375 11.763a.273.273 0 0 1 .373-.067.256.256 0 0 1 .068.362c-1.106 1.555-3.16 2.98-4.37 2.736a.26.26 0 0 1-.207-.308.27.27 0 0 1 .317-.202c.934.19 2.824-1.121 3.82-2.521zm-7.495-3.78a.27.27 0 0 1-.34.16.258.258 0 0 1-.166-.33c.492-1.388 1.45-2.682 2.518-3.433a.273.273 0 0 1 .374.059.255.255 0 0 1-.06.363c-.976.686-1.869 1.891-2.326 3.18zm6.679 3.475c-.326.17-.706.569-1.025 1.128a.272.272 0 0 1-.364.102.256.256 0 0 1-.105-.354c.366-.64.816-1.113 1.24-1.334.484-.254.966-.14.966.366 0 .144-.12.26-.268.26a.265.265 0 0 1-.266-.236.662.662 0 0 0-.178.068zm-3.319-7.625a.273.273 0 0 1-.378.008.255.255 0 0 1-.009-.368c.538-.546.8-1.1.8-1.778 0-.144.12-.26.268-.26.148 0 .268.116.268.26 0 .821-.321 1.5-.949 2.138z"
       fill="#C9DA2F"
       fill-rule="nonzero"
       id="path1583" />
    <g
       transform="translate(129 119.355)"
       id="g1590">
      <mask
         id="f"
         fill="#fff">
        <use
           xlink:href="#e"
           id="use1585" />
      </mask>
    </g>
    <path
       fill="#C8D9FC"
       d="M20.145 140.221l9.446-1.353 4.938-6.442L21.761 126 8 133.783z"
       id="path1610" />
    <path
       fill="#909E4F"
       d="M30.673 115.04l-8.204-4.933L42.47 98.424l8.204 4.84z"
       id="path1612" />
    <path
       d="M42.46 90.743c.677 2.265 1.927 9.181 1.927 9.181l-.416 2.266-1.177 2.722-3.012-1.717.116-7.116c.024-.544-.367-2.932-2.082-2.454-.435-.365-.643-.732-.68-1.085l-4.845 5.33-1.766 9.711-.416 2.266-1.178 2.722-3.01-1.718.115-9.363c.116-2.65 1.245-12.722 10.886-15.35 2.736-.52 4.012.499 6.293 1.938l-.324 2.56-.432.107zm-11.788 48.253l-8.25-4.909V110.06l8.25 4.91v24.026z"
       fill="#391E66"
       id="path1614" />
    <path
       d="M24.405 131.764l4.09 2.355v-16.98l-4.09-2.355v16.98zm4.364 3.105a.274.274 0 0 1-.135-.035l-4.638-2.67a.278.278 0 0 1-.138-.24V114.31a.273.273 0 1 1 .409-.24l4.637 2.67c.086.048.138.14.138.239v17.616a.276.276 0 0 1-.273.275z"
       fill="#D0DD28"
       id="path1616" />
    <path
       d="M30.672 115.111l19.98-11.8v23.946l-19.98 11.73v-23.876zm-1.538-11.905c.115-2.65 1.404-12.742 10.886-15.351 4.4-.773 6.37 2.32 6.37 6.295v8.634l-3.59 2.132v-7.674s.463-5.3-4.17-3.534c-3.8 1.45-4.633 4.86-5.095 7.068-.464 2.209-.116 9.297-.116 9.297l-4.401 2.496.116-9.363z"
       fill="#E5EA2D"
       id="path1618" />
    <path
       d="M33.277 116.889v17.037l3.734-2.193.069-6.132c.025-2.275 1.612-4.221 4.043-4.958a3.894 3.894 0 0 1 1.134-.167c.966 0 1.871.357 2.484.977.585.593.893 1.403.89 2.343l-.055 2.91 2.471-1.452-.025-16.934-14.745 8.569zm-.274 17.793a.272.272 0 0 1-.136-.037.277.277 0 0 1-.137-.24V116.73c0-.098.053-.19.137-.24l15.291-8.885a.27.27 0 0 1 .273 0c.084.05.136.14.136.238l.027 17.57c0 .099-.052.19-.137.24l-3.028 1.777a.268.268 0 0 1-.275 0 .276.276 0 0 1-.135-.244l.066-3.396c.002-.785-.25-1.46-.73-1.946-.72-.728-1.987-1-3.075-.671-2.197.666-3.63 2.407-3.654 4.435l-.07 6.29a.278.278 0 0 1-.136.235l-4.28 2.512a.268.268 0 0 1-.137.038zm8.007-5.466c-.25 0-.493-.042-.725-.125-.689-.247-1.208-.825-1.465-1.629-.248-.777-.219-1.677.084-2.533.511-1.457 1.723-2.475 2.946-2.475.25 0 .493.042.725.126 1.393.5 2.013 2.366 1.381 4.162-.511 1.456-1.724 2.474-2.946 2.474zm.84-6.21c-.995 0-1.995.867-2.432 2.108-.262.743-.29 1.517-.078 2.18.203.635.603 1.088 1.127 1.277.173.062.356.093.543.093.995 0 1.995-.866 2.432-2.107.53-1.509.06-3.06-1.05-3.457a1.611 1.611 0 0 0-.542-.094zm-.42 4.527a.274.274 0 0 1-.274-.276v-2.844c0-.152.123-.276.274-.276.15 0 .273.124.273.276v2.844a.274.274 0 0 1-.273.276z"
       fill="#909E4F"
       id="path1620" />
  </g>
</svg>
