<?xml version="1.0" encoding="UTF-8" standalone="no"?>
<svg  
   xmlns:dc="http://purl.org/dc/elements/1.1/"
   xmlns:cc="http://creativecommons.org/ns#"
   xmlns:rdf="http://www.w3.org/1999/02/22-rdf-syntax-ns#"
   xmlns:svg="http://www.w3.org/2000/svg"
   xmlns="http://www.w3.org/2000/svg"
   xmlns:sodipodi="http://sodipodi.sourceforge.net/DTD/sodipodi-0.dtd"
   xmlns:inkscape="http://www.inkscape.org/namespaces/inkscape"
   width="170"
   height="197"
   viewBox="0 0 170 197"
   version="1.1"
   id="svg1126"
   sodipodi:docname="filter-list-3-dark.svg"
   inkscape:version="0.92.1 r15371">
  <metadata
     id="metadata1130">
    <rdf:RDF>
      <cc:Work
         rdf:about="">
        <dc:format>image/svg+xml</dc:format>
        <dc:type
           rdf:resource="http://purl.org/dc/dcmitype/StillImage" />
        <dc:title>сервер-2</dc:title>
      </cc:Work>
    </rdf:RDF>
  </metadata>
  <sodipodi:namedview
     pagecolor="#ffffff"
     bordercolor="#666666"
     borderopacity="1"
     objecttolerance="10"
     gridtolerance="10"
     guidetolerance="10"
     inkscape:pageopacity="0"
     inkscape:pageshadow="2"
     inkscape:window-width="1920"
     inkscape:window-height="1017"
     id="namedview1128"
     showgrid="false"
     inkscape:zoom="4.7918782"
     inkscape:cx="96.969638"
     inkscape:cy="100.27124"
     inkscape:window-x="-8"
     inkscape:window-y="-8"
     inkscape:window-maximized="1"
     inkscape:current-layer="svg1126" />
  <title
     id="title997">сервер-2</title>
  <defs
     id="defs1018">
    <linearGradient
       x1="50%"
       y1="0%"
       x2="50%"
       y2="98.625%"
       id="a">
      <stop
         stop-color="#A2FFFF"
         stop-opacity="0"
         offset="0%"
         id="stop999" />
      <stop
         stop-color="#5C47FF"
         stop-opacity=".039"
         offset="32.036%"
         id="stop1001" />
      <stop
         stop-color="#A2FFFF"
         stop-opacity=".767"
         offset="72.266%"
         id="stop1003" />
      <stop
         stop-color="#A2FFFF"
         stop-opacity=".323"
         offset="100%"
         id="stop1005" />
    </linearGradient>
    <linearGradient
       x1="50%"
       y1="81.111%"
       x2="50%"
       y2="-88.784%"
       id="b">
      <stop
         stop-color="#E5EA2D"
         offset="0%"
         id="stop1008" />
      <stop
         stop-color="#3CEAFF"
         stop-opacity=".602"
         offset="100%"
         id="stop1010" />
    </linearGradient>
    <linearGradient
       x1="50%"
       y1="81.111%"
       x2="50%"
       y2="-5.91%"
       id="c">
      <stop
         stop-color="#E5EA2D"
         offset="0%"
         id="stop1013" />
      <stop
         stop-color="#3CEAFF"
         stop-opacity=".602"
         offset="100%"
         id="stop1015" />
    </linearGradient>
  </defs>
  <g
     fill="none"
     fill-rule="evenodd"
     id="g1124">
    <path
       d="M0 149.543v3.949c0 .608.325 1.17.852 1.47l72.379 41.759v-4.265L0 149.543z"
       fill="#A2ADDD"
       id="path1020" />
    <path
       d="M76.278 192.297c-2.057.913-4.306.466-5.331.002 1.425.81 2.185 1.558 2.276 2.929 0 .893.01.657.01 1.496.443.25.876.175 1.256-.006 0 .003.18-.096.248-.141l94.207-54.51c.527-.302.852-.863.852-1.472v-2.754l-93.518 54.456z"
       fill="#B0E9FF"
       id="path1022" />
    <path
       d="M.657 149.464l95.036-55.1 73.603 42.46c.71.409.71 1.433.001 1.843l-92.509 53.479a6.068 6.068 0 0 1-6.072.002L.66 151.723a1.305 1.305 0 0 1-.003-2.26"
       fill="#FFF"
       id="path1024" />
    <path
       d="M 95,142.5 C 95,148.851 86.27,154 75.5,154 64.73,154 56,148.851 56,142.5 56,136.148 64.73,131 75.5,131 86.27,131 95,136.148 95,142.5"
       id="path1026"
       inkscape:connector-curvature="0"
       style="fill:#c8d9fc"
       sodipodi:nodetypes="csssc" />
    <path
       d="M110.39 162.174c1 .557 2.51.61 3.372.12l33.716-19.188c.862-.49 4.223-3.67 3.222-4.226 0 0-4.684 1.375-6.846 2.211l-33.716 19.188c-.862.49-.75 1.34.252 1.895"
       fill="#C8D9FC"
       id="path1036" />
    <path
       d="M146.847 139.85c.57-.325 1.82-.325 3.75 0-.72 1.69-1.365 2.697-1.936 3.022l-31.016 17.626c-.922.524-1.439.12-1.94-.715-.5-.834-1.153-1.535-.29-2.026 6.984-3.98 17.462-9.948 31.432-17.906z"
       fill="#E5EA2D"
       id="path1038" />
    <path
       d="M149.192 142.467a5.339 5.339 0 0 0-.62-1.604c-.323-.549-.793-.998-1.11-1.264 1.247-.406 3.621-.814 5.485-1.196-1.212 1.33-2.77 3.188-3.755 4.064z"
       fill="#B0E9FF"
       id="path1040" />
    <path
       d="M116.027 157.407c.461.216.935.656 1.29 1.247.378.63.536 1.291.473 1.804l-1.391.792a1.923 1.923 0 0 1-.034-.014l-2.122 1.184a1.823 1.823 0 0 1-2.074-.822 1.726 1.726 0 0 1 .66-2.368l3.198-1.823z"
       fill="#EC1944"
       id="path1042" />
    <path
       d="M151.21 140.353l-.862-1.437c.872-.174 1.785-.346 2.6-.513-.539.59-1.144 1.284-1.738 1.95z"
       fill="#391E66"
       id="path1044" />
    <path
       d="M116.41 161.244c-.02-.551-.319-2.084-1.773-3.045l.485-.276a4.554 4.554 0 0 1 1.784 3.038l-.496.283z"
       fill="#5DA5CD"
       id="path1046" />
    <path
       d="M95.78 159.818c.973.6 2.479.723 3.363.272l34.597-17.637c.884-.45 5.743-2.222 4.77-2.823 0 0-3.901.297-7.977.621a1.588 1.588 0 0 0-.598.17l-34.316 17.492c-.884.45-.812 1.304.16 1.905"
       fill="#C8D9FC"
       id="path1048" />
    <path
       d="M133.26 140.357c.595-.28 1.788-.28 3.577 0-.748 1.82-1.42 2.871-2.015 3.151l-32.565 15.267c-1.04.487-1.103-.206-1.534-1.076-.431-.87-.984-1.574 0-2.037l32.536-15.305z"
       fill="#562B79"
       id="path1050" />
    <path
       d="M135.384 143.146a5.315 5.315 0 0 0-.487-1.647c-.278-.572-.71-1.057-1.003-1.346 1.276-.309 3.675-.532 5.564-.769-1.316 1.233-3.02 2.965-4.074 3.762z"
       fill="#B0E9FF"
       id="path1052" />
    <path
       d="M102.294 156.822c.326.657.43 1.329.324 1.835l-1.45.682a1.929 1.929 0 0 1-.034-.016l-2.212 1.016c-.742.152-1.551-.018-2.057-.85s.024-2.024.907-2.439l3.337-1.57c.442.25.88.725 1.185 1.342z"
       fill="#E5EA2D"
       id="path1054" />
    <path
       d="M137.568 141.194l-.743-1.499c.884-.106 1.808-.207 2.633-.31-.584.546-1.244 1.191-1.89 1.81z"
       fill="#391E66"
       id="path1056" />
    <path
       d="M101.179 159.334c.024-.55-.148-2.102-1.52-3.172l.506-.238a4.534 4.534 0 0 1 1.531 3.166l-.517.244z"
       fill="#5DA5CD"
       id="path1058" />
    <path
       d="M79.094 184.526c-.443.261-1.113.289-1.496.063l-24.262-14.304c-.384-.226-.336-.62.107-.881l17.984-10.59c.443-.26 1.113-.288 1.495-.062l24.263 14.304c.383.226.335.62-.108.881l-17.983 10.59z"
       fill="#C8D9FC"
       id="path1060" />
    <path
       d="M54.536 168.728c.065.368.284.686.602.874l22.47 13.332c1.844 1.068 2.457 1.069 2.955.776l16.519-9.731c.095-.056.346-.275.476-.637.49-1.36.458-2.21.224-3.064-.093-.343-.396.658-.695.48l-24.553-14.57a1.575 1.575 0 0 0-1.607-.002l-17.875 6.306c0 .302 1.26 4.974 1.484 6.236"
       fill="#562B79"
       id="path1062" />
    <path
       d="M56.533 168.617l22.423 13.303c.496.295 1.11.296 1.607.002l16.519-9.73c1.067-.63 1.07-2.2.005-2.832l-21.14-12.544-3.14-5.483a.641.641 0 0 0-.87-.253c-5.976 3.304-16.079 9.41-18.602 10.823a.67.67 0 0 0-.254.902 329.03 329.03 0 0 0 2.975 5.328c.116.2.28.367.477.484"
       fill="#EC1944"
       id="path1064" />
    <path
       d="M64.74 166.924c.252-.155.637-.178.859-.052l1.61.912c.223.126.198.353-.053.507l-1.823 1.117c-.252.154-.636.177-.859.051l-1.61-.911c-.222-.126-.198-.354.053-.508l1.823-1.116zm4.996 2.94c.251-.155.636-.178.858-.051l1.61.911c.223.126.199.353-.053.507l-1.823 1.117c-.252.155-.636.177-.858.051l-1.61-.911c-.223-.126-.2-.353.053-.507l1.823-1.117zm4.995 2.94c.252-.154.636-.177.859-.051l1.61.911c.222.126.198.354-.054.508l-1.823 1.116c-.251.155-.636.178-.858.052l-1.61-.912c-.223-.126-.199-.353.053-.507l1.823-1.117zm4.995 2.94c.252-.154.637-.177.859-.05l1.61.91c.222.127.198.354-.054.508l-1.822 1.117c-.252.154-.637.177-.859.051l-1.61-.911c-.222-.126-.199-.354.053-.508l1.823-1.116zm-9.53-12.03c.252-.154.636-.176.859-.05l1.61.911c.222.126.198.353-.053.507l-1.823 1.117c-.252.155-.637.178-.859.051l-1.61-.911c-.223-.126-.198-.353.053-.507l1.823-1.117zm4.995 2.941c.252-.154.637-.177.859-.05l1.61.91c.223.126.198.354-.053.508l-1.823 1.117c-.252.154-.636.177-.859.05l-1.61-.91c-.222-.126-.199-.354.053-.508l1.823-1.117zm4.996 2.94c.251-.154.636-.177.858-.05l1.61.91c.223.127.199.354-.053.508l-1.823 1.117c-.252.154-.636.177-.858.051l-1.61-.911c-.223-.126-.2-.354.053-.508l1.823-1.116zm4.995 2.94c.251-.154.636-.176.859-.05l1.61.911c.222.126.198.353-.054.507l-1.823 1.117c-.251.155-.636.177-.858.051l-1.61-.911c-.223-.126-.199-.353.053-.507l1.823-1.117zm-10.373-11.548c.252-.154.637-.177.86-.051l1.61.911c.222.126.198.354-.054.508l-1.823 1.116c-.252.155-.636.178-.858.052l-1.61-.912c-.223-.126-.2-.353.053-.507l1.822-1.117zm4.996 2.94c.251-.154.636-.176.858-.05l1.61.91c.223.127.199.354-.053.508l-1.823 1.117c-.251.154-.636.177-.858.051l-1.61-.911c-.223-.126-.2-.354.053-.508l1.823-1.116zm4.995 2.941c.252-.154.637-.177.859-.051l1.61.911c.222.126.198.354-.054.508l-1.823 1.116c-.251.155-.636.177-.858.052l-1.61-.912c-.223-.126-.199-.353.053-.507l1.823-1.117zm4.995 2.94c.252-.154.637-.177.859-.05l1.61.91c.222.126.199.354-.053.508l-1.823 1.117c-.252.154-.637.177-.859.05l-1.61-.91c-.223-.126-.198-.354.054-.508l1.822-1.117z"
       fill="#391E66"
       id="path1066" />
    <path
       d="M72.972 156.323l-14.882 8.796a.447.447 0 0 1-.62-.17l-1.187-2.119a.466.466 0 0 1 .165-.628l14.882-8.796a.447.447 0 0 1 .62.17l1.187 2.118c.124.22.05.502-.165.629zm-8.214 10.147c.251-.154.636-.177.858-.051l1.61.911c.223.126.199.353-.053.508l-1.823 1.116c-.252.155-.636.177-.858.052l-1.61-.912c-.223-.126-.2-.353.053-.507l1.823-1.117zm4.995 2.94c.251-.154.636-.177.858-.05l1.61.91c.223.127.2.354-.053.508l-1.823 1.117c-.251.154-.636.177-.858.051l-1.61-.912c-.223-.125-.199-.353.053-.507l1.823-1.117zm4.995 2.94c.252-.154.636-.176.858-.05l1.61.91c.223.127.2.354-.053.508l-1.822 1.117c-.252.154-.637.177-.86.051l-1.61-.911c-.222-.126-.198-.353.054-.508l1.823-1.116zm4.995 2.941c.252-.154.637-.177.859-.051l1.61.911c.223.126.198.354-.053.508l-1.823 1.116c-.252.155-.636.177-.859.052l-1.61-.912c-.222-.126-.198-.353.053-.507l1.823-1.117zm-9.53-12.03c.252-.154.637-.177.859-.05l1.61.91c.223.126.198.354-.054.508l-1.822 1.117c-.252.154-.637.177-.859.05l-1.61-.91c-.222-.126-.199-.354.053-.508l1.823-1.117zm4.996 2.94c.251-.153.636-.176.858-.05l1.61.91c.222.127.199.354-.053.509l-1.823 1.116c-.252.154-.637.177-.859.052l-1.61-.912c-.222-.126-.198-.354.054-.508l1.823-1.116zm4.995 2.941c.251-.154.636-.177.858-.051l1.61.911c.223.126.2.353-.053.508l-1.823 1.116c-.252.155-.636.178-.858.052l-1.61-.912c-.223-.126-.199-.353.053-.507l1.823-1.117zm4.995 2.94c.252-.154.636-.177.858-.05l1.61.91c.223.127.2.354-.053.508l-1.822 1.117c-.252.154-.637.177-.86.05l-1.61-.91c-.222-.126-.198-.354.054-.508l1.823-1.116zm-10.372-11.548c.251-.154.636-.177.858-.051l1.61.911c.223.126.199.353-.053.508l-1.823 1.116c-.251.155-.636.178-.859.052l-1.61-.912c-.222-.126-.198-.353.054-.507l1.823-1.117zm4.995 2.94c.252-.154.636-.177.858-.05l1.61.91c.223.126.2.354-.053.508l-1.823 1.116c-.251.155-.636.178-.858.052l-1.61-.912c-.223-.126-.199-.353.053-.507l1.823-1.117zm4.995 2.94c.252-.154.636-.177.859-.05l1.61.91c.222.127.198.354-.053.508L85.41 168.9c-.252.154-.637.177-.859.051l-1.61-.911c-.223-.126-.198-.354.053-.508l1.823-1.117zm4.995 2.94c.252-.154.637-.176.859-.05l1.61.911c.223.126.198.353-.053.507l-1.823 1.117c-.252.155-.636.178-.859.051l-1.61-.911c-.222-.126-.198-.353.053-.507l1.823-1.117zM48.98 109.24l.004-.002v4.404l-13.698 7.784v-4.164l-13.56-7.865 13.718-7.88 13.54 7.72-.005.003z"
       fill="#E5EA2D"
       id="path1068" />
    <path
       d="M48.984 104.096v4.4l-13.698 7.785V112l-13.56-7.865 13.718-7.88 13.545 7.838-.005.003z"
       fill="#EC1944"
       id="path1070" />
    <path
       fill="#909E4F"
       d="M35.444 91.205l13.54 7.721-13.672 8.04-13.586-7.88z"
       id="path1072" />
    <path
       fill="#B61D3C"
       d="M21.726 104.093v4.244l13.56 7.785v-4.648z"
       id="path1074" />
    <path
       d="M21.726 109.383l13.56 7.488v4.647l-13.56-7.784v-4.351zm0-10.457l13.56 7.381v4.647l-13.56-7.784v-4.244z"
       fill="#909E4F"
       id="path1076" />
    <path
       d="M35.286 106.745l-13.56-7.865L35.444 91l4.67 2.612s5.234 2.727 6.793.7c.928 4.202-4.255 7.55-6.606 9.104-.533.351-3.733 2.46-4.684 3.098l13.367-7.588v4.404l-13.698 7.784v-4.369zm44.74-41.118l-4.909 2.793v-5.755l4.91-2.793z"
       fill="#E5EA2D"
       id="path1078" />
    <path
       fill="#B0E9FF"
       d="M78.234 100.383l.002-.007-.034-21.605 6.57.03 5.397-17.814 9.424 2.476L115.69 78.94h.04l-.017.022.036.034-.113.065-37.36 47.66-.04-26.34z"
       id="path1080" />
    <path
       d="M77.971 70.714l-.068-7.701 12.266-2.116 25.65 18.081-37.467 21.338v26.319l-.075.087L40.824 78.94l30.946-8.948s2.652.307 6.201.722z"
       fill="#562B79"
       id="path1082" />
    <path
       fill="#B0E9FF"
       d="M78.202 81.36l18.792 8.33.355-13.395-13.818 1.688zm19.148-5.065l18.399 2.612-15.592-15.34z"
       id="path1084" />
    <path
       fill="#A68FD4"
       d="M57.245 63.598l9.158-2.7 11.817 1.525v37.945L40.824 78.907z"
       id="path1086" />
    <path
       fill="#391E66"
       d="M59.057 75.849l-18.228 3.068 12.308-11.781 6.6 8.598-.62.105 13.859 2.088 5.363 3.413-18.826 8.293z"
       id="path1088" />
    <path
       fill="#A68FD4"
       d="M78.279 81.4l-19.162-5.54-6.036-8.69L65.56 55.946l14.884-1.576 19.745 9.23-2.807 12.774z"
       id="path1090" />
    <path
       d="M0 .351s17.137 66.417 18.101 66.901l5.99 8.634 19.155 5.497c3.287-.836 15.779-4.222 19.11-5.013l2.849-12.753C66.345 58.207 78.675.35 78.675.35H0z"
       fill="url(#a)"
       opacity=".62"
       transform="translate(35)"
       id="path1092" />
    <path
       d="M89.676 71.667l-4.91 2.792v-5.755l4.91-2.793v5.756zm8.457-15.127l-2.456.833 2.13-11.828 2.13-.7-1.804 11.695zm-47.476-7.305a.175.175 0 0 1-.21-.132l-3.985-17.5a.175.175 0 1 1 .342-.078l3.985 17.5a.176.176 0 0 1-.132.21zM48.73 27.072a.175.175 0 0 1-.21-.133l-3.985-17.5a.175.175 0 1 1 .342-.078l3.985 17.5a.176.176 0 0 1-.132.21zm54.454 12.452a.175.175 0 0 1-.144-.202l1.75-10.426a.175.175 0 1 1 .345.058l-1.75 10.426a.175.175 0 0 1-.2.144zm.26-19.79a.175.175 0 0 1-.155-.195l.607-5.552a.176.176 0 1 1 .348.038l-.607 5.553a.175.175 0 0 1-.193.155z"
       fill="#E5EA2D"
       id="path1094" />
    <path
       fill="url(#b)"
       d="M21 35l5.05 3.384V52.29L21 48.904z"
       transform="matrix(-1 0 0 1 93 23)"
       id="path1096" />
    <path
       fill="url(#c)"
       opacity=".6"
       d="M16.04 27.393L21 30.557V49l-4.96-3.163z"
       transform="matrix(-1 0 0 1 93 23)"
       id="path1098" />
    <path
       fill="url(#c)"
       d="M11 18.429l5 3.444v23.944L11 43z"
       transform="matrix(-1 0 0 1 93 23)"
       id="path1100" />
    <path
       fill="url(#c)"
       opacity=".6"
       d="M6 7l5 3.31V43l-5-3.31z"
       transform="matrix(-1 0 0 1 93 23)"
       id="path1102" />
    <path
       fill="url(#c)"
       d="M0 0l6 3.389V40l-6-3.389z"
       transform="matrix(-1 0 0 1 93 23)"
       id="path1104" />
    <path
       d="M23.418 155.86l15.904 9.02c.23.131.5.157.705.067l1.678-.734c.443-.194.375-.79-.123-1.072l-15.904-9.021c-.23-.131-.5-.157-.705-.067l-1.678.734c-.443.194-.375.79.123 1.072"
       fill="#A2ADDD"
       id="path1106" />
    <path
       d="M45.168 132.981l-15.369-8.86a.89.89 0 0 0-1.148.226L27 125.27 42.997 165l2.125-1.3c.052-.026.101-.057.15-.09l.11-.068c.37-.312.618-.767.618-1.308v-27.809c0-.397-.277-.879-.832-1.444z"
       fill="#391E66"
       id="path1108" />
    <path
       d="M41.595 164.776l-13.7-8.173a1.87 1.87 0 0 1-.895-1.608v-29.087c0-.697.725-1.133 1.306-.786l14.888 8.882c.498.298.806.85.806 1.448v27.876c0 .802-.522 1.417-1.174 1.609a1.53 1.53 0 0 1-1.23-.161"
       fill="#34799D"
       id="path1110" />
    <path
       d="M39.239 158.838l-10.583-6.237a1.345 1.345 0 0 1-.656-1.16v-21.785c0-.504.531-.819.957-.568l11.453 6.75c.365.214.59.613.59 1.044v20.91c0 .58-.382 1.024-.86 1.162a1.135 1.135 0 0 1-.901-.116"
       fill="#909E4F"
       id="path1112" />
    <path
       d="M40.238 159.838l-10.582-6.237a1.345 1.345 0 0 1-.656-1.16v-21.785c0-.504.531-.819.956-.568l11.454 6.75c.365.214.59.613.59 1.044v20.91c0 .58-.382 1.024-.86 1.163a1.137 1.137 0 0 1-.902-.117"
       fill="#E5EA2D"
       id="path1114" />
    <path
       d="M38.81 138.759a.19.19 0 0 0 .165-.1.203.203 0 0 0-.071-.27l-7.333-4.363a.187.187 0 0 0-.26.074.203.203 0 0 0 .07.27l7.334 4.363a.19.19 0 0 0 .094.026zm0 1.883a.19.19 0 0 0 .165-.1.203.203 0 0 0-.071-.27l-7.333-4.362a.187.187 0 0 0-.26.074.203.203 0 0 0 .07.27l7.334 4.362a.18.18 0 0 0 .094.026z"
       fill="#EC1944"
       id="path1116" />
    <path
       d="M38.733 143.554c-.266-.48-.854-.868-1.315-.868-.46 0-.617.389-.352.868.266.479.855.867 1.315.867.46 0 .618-.388.352-.867zm0 12.293c-.266-.48-.854-.868-1.315-.868-.46 0-.617.389-.352.868.266.479.855.867 1.315.867.46 0 .618-.388.352-.867zm0-4.098c-.266-.479-.854-.868-1.315-.868-.46 0-.617.389-.352.868.266.48.855.868 1.315.868.46 0 .618-.389.352-.868zm0-4.097c-.266-.48-.854-.868-1.315-.868-.46 0-.617.388-.352.868.266.479.855.867 1.315.867.46 0 .618-.388.352-.867z"
       fill="#391E66"
       id="path1118" />
    <path
       d="M34.47 151.286a.194.194 0 0 0 .191-.198V140.91a.195.195 0 0 0-.19-.198.195.195 0 0 0-.19.198v10.178c0 .11.085.198.19.198zm-2.666 2.116c.105 0 .19-.09.19-.199v-10.178a.195.195 0 0 0-.19-.198.195.195 0 0 0-.19.198v10.178c0 .11.085.199.19.199z"
       fill="#39C8FF"
       id="path1120" />
    <path
       d="M34.5 158c-.478 0-1.09-.224-1.366-.5s-.112-.5.366-.5 1.09.224 1.366.5.112.5-.366.5z"
       fill="#391E66"
       id="path1122" />
  </g>
</svg>
