<svg width="210" height="173" viewBox="0 0 210 173" fill="none" xmlns="http://www.w3.org/2000/svg">
<path d="M115.847 172.868C114.564 172.868 113.282 172.548 112.136 171.861L63.7178 143.918C63.2597 143.643 62.9849 143.185 62.9849 142.635C62.9849 142.086 63.2597 141.628 63.7178 141.353L151.073 90.9185L151.256 91.0101L203.202 121.014C203.66 121.289 203.935 121.747 203.935 122.297C203.935 122.846 203.66 123.304 203.202 123.579L119.603 171.906C118.412 172.548 117.13 172.868 115.847 172.868ZM151.073 91.743L64.0842 141.994C63.8552 142.131 63.672 142.406 63.672 142.681C63.672 142.956 63.8094 143.231 64.0842 143.368L112.503 171.311C114.61 172.502 117.175 172.502 119.282 171.311L202.881 123.03C203.11 122.892 203.294 122.617 203.294 122.343C203.294 122.068 203.156 121.793 202.881 121.655L151.073 91.743Z" fill="url(#paint0_linear)"/>
<path d="M151.166 70.4424L139.53 1.36451L140.447 0.952238L139.027 0.1277C138.752 -0.0555303 138.385 -0.05553 137.927 0.219316L44.8918 53.9975C44.1131 54.4556 43.5634 55.555 43.7008 56.3795L55.4275 126.053C55.4734 126.419 55.6566 126.648 55.9314 126.74L57.3057 127.519L57.5347 126.236L57.4431 126.282L149.975 72.8703C150.753 72.3664 151.303 71.267 151.166 70.4424Z" fill="url(#paint1_linear)"/>
<path d="M45.3949 55.8756L43.8832 55.1885C43.7 55.6007 43.6084 56.013 43.7 56.3337L55.4268 126.007C55.4726 126.374 55.6558 126.603 55.9306 126.694L57.3049 127.473L57.5339 126.19L57.4423 126.236L62.1147 123.533L45.3949 55.8756Z" fill="url(#paint2_linear)"/>
<path d="M151.439 73.6489L58.3125 127.427C57.5796 127.839 56.9841 127.61 56.8467 126.877L45.1199 57.2039C44.9825 56.4252 45.578 55.28 46.3109 54.8219L139.438 1.08958C140.171 0.677307 140.766 0.906344 140.904 1.63927L152.631 71.3127C152.768 72.0914 152.172 73.2366 151.439 73.6489Z" fill="#24126A"/>
<g opacity="0.51">
<path opacity="0.51" d="M138.201 5.53296L48.4639 57.3414L59.5951 122.938L149.287 71.1753L138.201 5.53296Z" fill="#453C9E"/>
</g>
<path d="M209.936 106.631L204.851 109.287L153.913 79.8789C153.043 79.375 151.577 79.4666 150.569 80.0163L62.7102 130.771C61.8857 130.313 58.0378 128.435 58.0378 128.435L59.916 133.291C60.0076 133.52 60.145 133.703 60.4198 133.886L114.061 164.852C114.931 165.356 116.397 165.264 117.405 164.715L207.325 112.815C207.737 112.586 207.966 112.311 208.058 111.99L209.936 106.631Z" fill="url(#paint3_linear)"/>
<path d="M209.158 107.501L116.993 160.684C115.985 161.279 114.473 161.325 113.603 160.821L58.634 129.076C57.7636 128.573 57.8552 127.702 58.863 127.107L151.028 73.924C152.036 73.3285 153.547 73.2827 154.418 73.7866L209.387 105.531C210.303 106.035 210.166 106.906 209.158 107.501Z" fill="url(#paint4_linear)"/>
<path d="M89.2329 149.186V148.178C89.2329 148.086 89.2787 148.041 89.3703 148.086L92.9433 150.148C93.0349 150.193 93.0808 150.285 93.0808 150.377V151.384C93.0808 151.476 93.0349 151.522 92.9433 151.476L89.3703 149.415C89.2787 149.369 89.2329 149.277 89.2329 149.186Z" fill="#2842A2"/>
<path d="M94.5466 152.255V151.247C94.5466 151.155 94.5924 151.11 94.6841 151.155L98.2571 153.217C98.3487 153.263 98.3945 153.354 98.3945 153.446V154.454C98.3945 154.545 98.3487 154.591 98.2571 154.545L94.6841 152.484C94.5924 152.484 94.5466 152.346 94.5466 152.255Z" fill="#2842A2"/>
<path d="M72.9713 126.099L149.562 81.8944C150.066 81.6195 150.707 81.6195 151.211 81.8944L178.466 97.6522C178.879 97.8812 178.879 98.4309 178.466 98.66L101.922 142.864C101.418 143.139 100.777 143.139 100.273 142.864L72.9713 127.107C72.559 126.877 72.559 126.328 72.9713 126.099Z" fill="#ADB1F2"/>
<path d="M72.9713 127.107L73.2462 127.244L149.562 83.177C150.066 82.9021 150.707 82.9021 151.211 83.177L178.191 98.7974L178.466 98.66C178.879 98.4309 178.879 97.8812 178.466 97.6522L151.211 81.8944C150.707 81.6195 150.066 81.6195 149.562 81.8944L72.9713 126.099C72.559 126.328 72.559 126.877 72.9713 127.107Z" fill="#9198DB"/>
<path d="M153.226 85.8797L86.7134 124.312L83.7817 122.572L150.294 84.1848L153.226 85.8797Z" fill="#24126A"/>
<path d="M160.51 90.094L98.0738 126.099L95.1421 124.404L157.532 88.3533L160.51 90.094Z" fill="#24126A"/>
<path d="M165.228 92.7967L91.7524 135.215L88.7749 133.52L162.25 91.1018L165.228 92.7967Z" fill="#24126A"/>
<path d="M169.946 95.5451L96.4707 137.963L93.4932 136.222L166.969 93.8044L169.946 95.5451Z" fill="#24126A"/>
<path d="M174.664 98.2479L101.189 140.666L98.2571 138.971L171.687 96.553L174.664 98.2479Z" fill="#24126A"/>
<path d="M82.6824 126.603L79.7507 128.343L76.7732 126.603L79.7507 124.908L82.6824 126.603Z" fill="#24126A"/>
<path d="M93.1266 128.985L86.9883 132.512L84.0566 130.817L90.1949 127.244L93.1266 128.985Z" fill="#24126A"/>
<path d="M152.493 136.818L173.153 124.908C173.977 124.45 173.977 123.671 173.153 123.213L159.044 115.059C158.219 114.601 156.937 114.601 156.112 115.059L135.453 126.969C134.628 127.427 134.628 128.206 135.453 128.664L149.562 136.818C150.34 137.276 151.669 137.276 152.493 136.818Z" fill="url(#paint5_linear)"/>
<path d="M135.453 127.656L156.112 115.746C156.937 115.288 158.219 115.288 159.044 115.746L173.153 123.9C173.382 124.037 173.565 124.221 173.656 124.404C173.885 123.992 173.702 123.534 173.153 123.213L159.044 115.059C158.219 114.601 156.937 114.601 156.112 115.059L135.453 126.969C134.903 127.29 134.72 127.748 134.949 128.16C135.041 127.977 135.178 127.794 135.453 127.656Z" fill="#9198DB"/>
<g opacity="0.11">
<g opacity="0.11">
<path opacity="0.11" d="M151.119 73.7863L58.9538 127.015C57.9461 127.61 56.4344 127.656 55.5641 127.152L0.594902 95.4075C-0.275443 94.9036 -0.183828 94.0333 0.823941 93.4378L92.9889 40.2551C93.9967 39.6596 95.5084 39.6138 96.3787 40.1177L151.348 71.8624C152.218 72.3204 152.127 73.2366 151.119 73.7863Z" fill="url(#paint6_linear)"/>
<path opacity="0.11" d="M58.6791 83.3144L79.3384 71.4044C80.1629 70.9463 80.1629 70.1676 79.3384 69.7095L65.2296 61.5557C64.4051 61.0976 63.1225 61.0976 62.2979 61.5557L41.6387 73.4657C40.8141 73.9238 40.8141 74.7025 41.6387 75.1606L55.7474 83.3144C56.572 83.8182 57.8546 83.8182 58.6791 83.3144Z" fill="url(#paint7_linear)"/>
<path opacity="0.11" d="M41.6384 74.1985L62.2977 62.2885C63.1222 61.8304 64.4048 61.8304 65.2293 62.2885L79.3381 70.4422C79.5671 70.5797 79.7504 70.7629 79.842 70.9461C80.071 70.5339 79.8878 70.0758 79.3381 69.7551L65.2293 61.6014C64.4048 61.1433 63.1222 61.1433 62.2977 61.6014L41.6384 73.5114C41.0887 73.832 40.9055 74.2901 41.1345 74.7024C41.2261 74.5191 41.3636 74.3359 41.6384 74.1985Z" fill="#9198DB"/>
<g opacity="0.11">
<path opacity="0.11" d="M32.5687 101.958L109.159 57.7535C109.663 57.4787 110.304 57.4787 110.808 57.7535L138.064 73.5113C138.476 73.7404 138.476 74.2901 138.064 74.5191L61.5192 118.723C61.0153 118.998 60.374 118.998 59.8701 118.723L32.5687 102.966C32.1565 102.737 32.1565 102.187 32.5687 101.958Z" fill="#ADB1F2"/>
<path opacity="0.11" d="M32.5687 102.966L32.8436 103.103L109.159 59.0361C109.663 58.7613 110.304 58.7613 110.808 59.0361L137.789 74.6565L138.064 74.5191C138.476 74.2901 138.476 73.7404 138.064 73.5113L110.808 57.7535C110.304 57.4787 109.663 57.4787 109.159 57.7535L32.5687 101.958C32.1565 102.187 32.1565 102.737 32.5687 102.966Z" fill="#9198DB"/>
<g opacity="0.11">
<path opacity="0.11" d="M130.918 72.458L64.2219 110.982L66.833 112.494L133.575 73.9697L130.918 72.458Z" fill="#24126A"/>
<path opacity="0.11" d="M123.909 68.3811L60.4656 105.027L63.1224 106.539L126.52 69.9386L123.909 68.3811Z" fill="#24126A"/>
<path opacity="0.11" d="M55.7476 107.73L49.8384 111.165L52.4494 112.677L58.4044 109.287L55.7476 107.73Z" fill="#24126A"/>
<path opacity="0.11" d="M60.9696 112.86L56.8469 115.197L59.5038 116.754L63.6265 114.372L60.9696 112.86Z" fill="#24126A"/>
<path opacity="0.11" d="M119.466 65.8618L45.395 108.6L48.0519 110.158L122.123 67.3735L119.466 65.8618Z" fill="#24126A"/>
<path opacity="0.11" d="M115.069 63.2964L40.9976 106.081L43.6544 107.592L117.725 64.8539L115.069 63.2964Z" fill="#24126A"/>
<path opacity="0.11" d="M110.671 60.7771L36.5999 103.516L39.2567 105.073L113.328 62.2888L110.671 60.7771Z" fill="#24126A"/>
</g>
</g>
</g>
</g>
<path opacity="0.3" d="M129.956 144.88L193.72 108.051C193.72 107.867 193.628 107.73 193.491 107.593L129.498 144.514L129.956 144.88Z" fill="white"/>
<path opacity="0.3" d="M127.253 22.7568L63.8093 59.403L64.2674 59.7236L127.665 23.1233C127.574 22.9401 127.39 22.7568 127.253 22.7568Z" fill="white"/>
<path d="M193.4 107.501L150.799 82.9022H150.753L146.355 78.2298L127.666 23.169C127.574 22.94 127.391 22.7109 127.208 22.7109H126.337C126.292 22.7109 126.246 22.7109 126.246 22.7567L63.6267 58.9448L83.5072 114.83L87.2176 119.365L96.1959 124.77L123.772 140.482L131.056 145.613L193.675 109.425C193.72 109.379 193.766 109.333 193.766 109.196V108.051C193.766 107.867 193.583 107.593 193.4 107.501Z" fill="url(#paint8_linear)"/>
<path d="M130.78 143.689L88.1792 119.09H88.1334L83.7358 114.418L65.0463 59.357C64.9547 59.128 64.7715 58.8989 64.5882 58.8989H63.7179C63.5347 58.8989 63.4889 59.0822 63.5805 59.3112L82.27 114.326C82.3616 114.555 82.5448 114.784 82.7281 114.784L82.9571 115.013C82.9571 115.197 83.0487 115.426 83.1861 115.563L87.2172 119.961C87.3546 120.144 87.5379 120.19 87.6753 120.098L87.9043 120.327C87.9043 120.556 88.0418 120.785 88.225 120.922L130.826 145.521C131.009 145.613 131.147 145.521 131.147 145.338V144.193C131.101 144.055 130.964 143.781 130.78 143.689Z" fill="url(#paint9_linear)"/>
<path d="M88.1792 119.045L150.752 82.8565L146.355 78.1841L83.7358 114.372L88.1792 119.045Z" fill="#5351AF"/>
<path opacity="0.48" d="M84.4687 114.418L81.2622 64.2127L143.927 28.0247L147.088 78.2757L84.4687 114.418Z" fill="url(#paint10_linear)"/>
<path opacity="0.48" d="M85.0183 114.555L90.4236 69.5262L153.043 33.3381L147.637 78.3671L85.0183 114.555Z" fill="url(#paint11_linear)"/>
<path opacity="0.48" d="M85.5681 114.83L99.3104 76.8555L161.929 40.6675L148.187 78.642L85.5681 114.83Z" fill="url(#paint12_linear)"/>
<path opacity="0.48" d="M86.1636 115.197L107.647 85.9256L170.312 49.7375L148.783 79.0086L86.1636 115.197Z" fill="url(#paint13_linear)"/>
<path opacity="0.48" d="M86.7134 115.746L115.114 96.3238L177.733 60.1357L149.332 79.5582L86.7134 115.746Z" fill="url(#paint14_linear)"/>
<path opacity="0.48" d="M149.836 80.1536L183.917 71.4502L121.298 107.592L87.2173 116.342L149.836 80.1536Z" fill="url(#paint15_linear)"/>
<path opacity="0.48" d="M150.294 80.8408L188.635 83.177L126.016 119.365L87.6294 117.029L150.294 80.8408Z" fill="url(#paint16_linear)"/>
<path opacity="0.48" d="M150.615 81.5737L191.705 94.8579L129.04 131.046L87.9961 117.762L150.615 81.5737Z" fill="url(#paint17_linear)"/>
<path opacity="0.48" d="M150.89 82.3523L192.941 105.989L130.276 142.177L88.2708 118.495L150.89 82.3523Z" fill="url(#paint18_linear)"/>
<path opacity="0.48" d="M146.584 78.2757L83.9647 114.464L72.3296 61.0978L134.994 24.9556L146.584 78.2757Z" fill="url(#paint19_linear)"/>
<defs>
<linearGradient id="paint0_linear" x1="62.9886" y1="131.916" x2="203.936" y2="131.916" gradientUnits="userSpaceOnUse">
<stop stop-color="#42E8E0"/>
<stop offset="0.1507" stop-color="#43E3E0"/>
<stop offset="0.3285" stop-color="#45D5DF"/>
<stop offset="0.5199" stop-color="#49BDDD"/>
<stop offset="0.7209" stop-color="#4E9CDB"/>
<stop offset="0.9274" stop-color="#5472D8"/>
<stop offset="1" stop-color="#5761D7"/>
</linearGradient>
<linearGradient id="paint1_linear" x1="43.6478" y1="63.7749" x2="151.198" y2="63.7749" gradientUnits="userSpaceOnUse">
<stop stop-color="#C0BFF6"/>
<stop offset="0.2938" stop-color="#C5C4F7"/>
<stop offset="0.6399" stop-color="#D3D2F9"/>
<stop offset="1" stop-color="#E9E9FD"/>
</linearGradient>
<linearGradient id="paint2_linear" x1="43.6477" y1="91.3565" x2="62.115" y2="91.3565" gradientUnits="userSpaceOnUse">
<stop stop-color="#5761D7"/>
<stop offset="0.1779" stop-color="#5C66D9"/>
<stop offset="0.3876" stop-color="#6A73DF"/>
<stop offset="0.6134" stop-color="#8289E8"/>
<stop offset="0.849" stop-color="#A3A7F5"/>
<stop offset="1" stop-color="#BCBEFF"/>
</linearGradient>
<linearGradient id="paint3_linear" x1="58.0563" y1="122.362" x2="209.952" y2="122.362" gradientUnits="userSpaceOnUse">
<stop stop-color="#5761D7"/>
<stop offset="0.1779" stop-color="#5C66D9"/>
<stop offset="0.3876" stop-color="#6A73DF"/>
<stop offset="0.6134" stop-color="#8289E8"/>
<stop offset="0.849" stop-color="#A3A7F5"/>
<stop offset="1" stop-color="#BCBEFF"/>
</linearGradient>
<linearGradient id="paint4_linear" x1="109.094" y1="117.297" x2="261.07" y2="117.297" gradientUnits="userSpaceOnUse">
<stop stop-color="#C0BFF6"/>
<stop offset="0.2938" stop-color="#C5C4F7"/>
<stop offset="0.6399" stop-color="#D3D2F9"/>
<stop offset="1" stop-color="#E9E9FD"/>
</linearGradient>
<linearGradient id="paint5_linear" x1="134.831" y1="125.924" x2="173.732" y2="125.924" gradientUnits="userSpaceOnUse">
<stop stop-color="#C0BFF6"/>
<stop offset="0.2938" stop-color="#C5C4F7"/>
<stop offset="0.6399" stop-color="#D3D2F9"/>
<stop offset="1" stop-color="#E9E9FD"/>
</linearGradient>
<linearGradient id="paint6_linear" x1="51.0298" y1="83.6116" x2="203.006" y2="83.6116" gradientUnits="userSpaceOnUse">
<stop stop-color="#C0BFF6"/>
<stop offset="0.2938" stop-color="#C5C4F7"/>
<stop offset="0.6399" stop-color="#D3D2F9"/>
<stop offset="1" stop-color="#E9E9FD"/>
</linearGradient>
<linearGradient id="paint7_linear" x1="41.0273" y1="72.4555" x2="79.929" y2="72.4555" gradientUnits="userSpaceOnUse">
<stop stop-color="#C0BFF6"/>
<stop offset="0.2938" stop-color="#C5C4F7"/>
<stop offset="0.6399" stop-color="#D3D2F9"/>
<stop offset="1" stop-color="#E9E9FD"/>
</linearGradient>
<linearGradient id="paint8_linear" x1="85.3922" y1="39.9484" x2="158.846" y2="138.456" gradientUnits="userSpaceOnUse">
<stop stop-color="#BCBEFF"/>
<stop offset="0.4839" stop-color="#5761D7"/>
<stop offset="0.5757" stop-color="#5C66D9"/>
<stop offset="0.6839" stop-color="#6A73DF"/>
<stop offset="0.8005" stop-color="#8289E8"/>
<stop offset="0.922" stop-color="#A3A7F5"/>
<stop offset="1" stop-color="#BCBEFF"/>
</linearGradient>
<linearGradient id="paint9_linear" x1="59.5054" y1="62.1721" x2="140.631" y2="115.264" gradientUnits="userSpaceOnUse">
<stop stop-color="#5761D7"/>
<stop offset="1" stop-color="#5761D7"/>
</linearGradient>
<linearGradient id="paint10_linear" x1="81.2837" y1="71.2272" x2="147.083" y2="71.2272" gradientUnits="userSpaceOnUse">
<stop stop-color="#42E8E0"/>
<stop offset="0.1507" stop-color="#43E3E0"/>
<stop offset="0.3285" stop-color="#45D5DF"/>
<stop offset="0.5199" stop-color="#49BDDD"/>
<stop offset="0.7209" stop-color="#4E9CDB"/>
<stop offset="0.9274" stop-color="#5472D8"/>
<stop offset="1" stop-color="#5761D7"/>
</linearGradient>
<linearGradient id="paint11_linear" x1="85.0038" y1="73.9463" x2="153.031" y2="73.9463" gradientUnits="userSpaceOnUse">
<stop stop-color="#42E8E0"/>
<stop offset="0.1507" stop-color="#43E3E0"/>
<stop offset="0.3285" stop-color="#45D5DF"/>
<stop offset="0.5199" stop-color="#49BDDD"/>
<stop offset="0.7209" stop-color="#4E9CDB"/>
<stop offset="0.9274" stop-color="#5472D8"/>
<stop offset="1" stop-color="#5761D7"/>
</linearGradient>
<linearGradient id="paint12_linear" x1="85.579" y1="77.7484" x2="161.949" y2="77.7484" gradientUnits="userSpaceOnUse">
<stop stop-color="#42E8E0"/>
<stop offset="0.1507" stop-color="#43E3E0"/>
<stop offset="0.3285" stop-color="#45D5DF"/>
<stop offset="0.5199" stop-color="#49BDDD"/>
<stop offset="0.7209" stop-color="#4E9CDB"/>
<stop offset="0.9274" stop-color="#5472D8"/>
<stop offset="1" stop-color="#5761D7"/>
</linearGradient>
<linearGradient id="paint13_linear" x1="86.1544" y1="82.4753" x2="170.296" y2="82.4753" gradientUnits="userSpaceOnUse">
<stop stop-color="#42E8E0"/>
<stop offset="0.1507" stop-color="#43E3E0"/>
<stop offset="0.3285" stop-color="#45D5DF"/>
<stop offset="0.5199" stop-color="#49BDDD"/>
<stop offset="0.7209" stop-color="#4E9CDB"/>
<stop offset="0.9274" stop-color="#5472D8"/>
<stop offset="1" stop-color="#5761D7"/>
</linearGradient>
<linearGradient id="paint14_linear" x1="86.7065" y1="87.9303" x2="177.726" y2="87.9303" gradientUnits="userSpaceOnUse">
<stop stop-color="#42E8E0"/>
<stop offset="0.1507" stop-color="#43E3E0"/>
<stop offset="0.3285" stop-color="#45D5DF"/>
<stop offset="0.5199" stop-color="#49BDDD"/>
<stop offset="0.7209" stop-color="#4E9CDB"/>
<stop offset="0.9274" stop-color="#5472D8"/>
<stop offset="1" stop-color="#5761D7"/>
</linearGradient>
<linearGradient id="paint15_linear" x1="87.212" y1="93.8869" x2="183.93" y2="93.8869" gradientUnits="userSpaceOnUse">
<stop stop-color="#42E8E0"/>
<stop offset="0.1507" stop-color="#43E3E0"/>
<stop offset="0.3285" stop-color="#45D5DF"/>
<stop offset="0.5199" stop-color="#49BDDD"/>
<stop offset="0.7209" stop-color="#4E9CDB"/>
<stop offset="0.9274" stop-color="#5472D8"/>
<stop offset="1" stop-color="#5761D7"/>
</linearGradient>
<linearGradient id="paint16_linear" x1="87.65" y1="100.098" x2="188.65" y2="100.098" gradientUnits="userSpaceOnUse">
<stop stop-color="#42E8E0"/>
<stop offset="0.1507" stop-color="#43E3E0"/>
<stop offset="0.3285" stop-color="#45D5DF"/>
<stop offset="0.5199" stop-color="#49BDDD"/>
<stop offset="0.7209" stop-color="#4E9CDB"/>
<stop offset="0.9274" stop-color="#5472D8"/>
<stop offset="1" stop-color="#5761D7"/>
</linearGradient>
<linearGradient id="paint17_linear" x1="88.0026" y1="106.305" x2="191.689" y2="106.305" gradientUnits="userSpaceOnUse">
<stop stop-color="#42E8E0"/>
<stop offset="0.1507" stop-color="#43E3E0"/>
<stop offset="0.3285" stop-color="#45D5DF"/>
<stop offset="0.5199" stop-color="#49BDDD"/>
<stop offset="0.7209" stop-color="#4E9CDB"/>
<stop offset="0.9274" stop-color="#5472D8"/>
<stop offset="1" stop-color="#5761D7"/>
</linearGradient>
<linearGradient id="paint18_linear" x1="88.2546" y1="112.25" x2="192.922" y2="112.25" gradientUnits="userSpaceOnUse">
<stop stop-color="#42E8E0"/>
<stop offset="0.1507" stop-color="#43E3E0"/>
<stop offset="0.3285" stop-color="#45D5DF"/>
<stop offset="0.5199" stop-color="#49BDDD"/>
<stop offset="0.7209" stop-color="#4E9CDB"/>
<stop offset="0.9274" stop-color="#5472D8"/>
<stop offset="1" stop-color="#5761D7"/>
</linearGradient>
<linearGradient id="paint19_linear" x1="72.3447" y1="69.7036" x2="146.579" y2="69.7036" gradientUnits="userSpaceOnUse">
<stop stop-color="#42E8E0"/>
<stop offset="0.1507" stop-color="#43E3E0"/>
<stop offset="0.3285" stop-color="#45D5DF"/>
<stop offset="0.5199" stop-color="#49BDDD"/>
<stop offset="0.7209" stop-color="#4E9CDB"/>
<stop offset="0.9274" stop-color="#5472D8"/>
<stop offset="1" stop-color="#5761D7"/>
</linearGradient>
</defs>
</svg>
