<svg width="210" height="195" viewBox="0 0 210 195" fill="none" xmlns="http://www.w3.org/2000/svg">
<path d="M69.6846 158.451C68.2375 158.451 66.7904 158.173 65.7885 157.56L14.5269 127.92C13.5251 127.307 12.9128 126.527 12.9128 125.58C12.9128 124.466 13.7477 123.407 15.1392 122.571L112.876 66.0771C115.547 64.5171 119.555 64.35 121.892 65.6871L173.154 95.3271C174.156 95.94 174.768 96.72 174.768 97.6671C174.768 98.7814 173.933 99.84 172.542 100.676L74.7496 157.17C73.3024 158.006 71.4657 158.451 69.6846 158.451ZM65.8998 157.337C68.1262 158.619 72.078 158.451 74.6939 156.947L172.43 100.453C173.766 99.6728 174.545 98.67 174.545 97.6671C174.545 96.8314 174.045 96.1071 173.043 95.55L121.781 65.91C119.555 64.6285 115.603 64.7957 112.987 66.3L15.2505 122.794C13.9147 123.574 13.1355 124.577 13.1355 125.58C13.1355 126.416 13.6364 127.14 14.6383 127.697L65.8998 157.337Z" fill="#42E8E0"/>
<path d="M174.601 84.017L167.254 85.2984L121.837 59.057C119.555 57.7198 115.603 57.887 112.931 59.447L26.0483 109.646L13.0242 111.874V116.498C13.0242 117.334 13.5251 118.17 14.5826 118.727L65.8442 148.367C68.1262 149.704 72.078 149.537 74.7496 147.977L172.486 91.4827C173.878 90.647 174.657 89.6441 174.657 88.6413V84.017H174.601Z" fill="url(#paint0_linear)"/>
<path d="M65.844 143.687L14.5824 114.047C12.3004 112.71 12.5787 110.426 15.1946 108.921L112.931 52.4827C115.547 50.9785 119.555 50.8113 121.837 52.0927L173.098 81.7327C175.38 83.0699 175.102 85.3542 172.486 86.8584L74.6937 143.353C72.0778 144.857 68.126 145.024 65.844 143.687Z" fill="#24126A"/>
<path d="M172.431 86.8585L74.694 143.353C72.078 144.857 68.0706 145.024 65.7886 143.743L14.527 114.103C13.6365 113.601 13.1355 112.877 13.0242 112.153C12.8573 113.1 13.3582 114.047 14.527 114.716L65.7886 144.356C68.0706 145.693 72.0224 145.526 74.694 143.966L172.431 87.4714C173.989 86.5799 174.713 85.3542 174.601 84.2957C174.434 85.1871 173.711 86.1342 172.431 86.8585Z" fill="white"/>
<path opacity="0.51" d="M65.8999 142.573L16.4751 113.991C14.2487 112.71 14.527 110.481 17.0873 109.033L112.987 53.597C115.547 52.1484 119.388 51.9813 121.614 53.2627L171.039 81.8441C173.265 83.1255 172.987 85.3541 170.427 86.8027L74.527 142.238C71.9667 143.687 68.1263 143.854 65.8999 142.573Z" fill="#453C9E"/>
<path opacity="0.8" d="M69.6846 142.294C68.2375 142.294 66.9017 142.016 65.8441 141.403L16.4193 112.821C15.4174 112.264 14.8608 111.429 14.8608 110.537C14.8608 109.479 15.6401 108.364 17.0315 107.584L112.987 52.2043C115.547 50.7001 119.499 50.5329 121.725 51.8701L171.15 80.4515C172.152 81.0086 172.709 81.8443 172.709 82.7358C172.709 83.7943 171.929 84.9086 170.538 85.6886L74.5825 141.069C73.1911 141.904 71.3543 142.294 69.6846 142.294ZM66.0111 141.124C68.1818 142.35 71.9666 142.239 74.4712 140.79L170.371 85.3543C171.651 84.63 172.375 83.6272 172.375 82.68C172.375 81.9 171.874 81.1758 170.983 80.6743L121.558 52.0929C119.388 50.8672 115.603 50.9786 113.098 52.4272L17.1985 107.863C15.9184 108.587 15.1948 109.59 15.1948 110.537C15.1948 111.317 15.6957 112.041 16.5863 112.543L66.0111 141.124Z" fill="url(#paint1_linear)"/>
<g opacity="0.1">
<path opacity="0.5" d="M65.8997 141.291L16.4748 112.71C14.2485 111.429 14.5268 109.2 17.0871 107.751L112.987 52.3157C115.547 50.8672 119.388 50.7 121.614 51.9814L171.039 80.5629C173.265 81.8443 172.987 84.0729 170.427 85.5214L74.5268 140.957C71.9665 142.406 68.126 142.573 65.8997 141.291Z" fill="url(#paint2_radial)"/>
<g opacity="0.1">
<path opacity="0.1" d="M120.501 130.539C120.501 124.299 116.159 116.777 110.761 113.657C108.089 112.097 105.64 111.93 103.859 112.989L102.022 114.047L102.579 114.103C101.633 115.273 101.02 117.056 101.02 119.284C101.02 125.524 105.362 133.046 110.761 136.166C112.597 137.224 114.323 137.614 115.825 137.447L115.77 137.949L117.662 136.834L117.718 136.779C119.443 135.776 120.501 133.603 120.501 130.539Z" fill="#9FFFF8"/>
<path opacity="0.1" d="M115.795 137.938C119.602 135.738 119.61 128.618 115.814 122.037C112.018 115.455 105.854 111.903 102.048 114.103C98.241 116.303 98.2326 123.422 102.029 130.004C105.825 136.586 111.989 140.138 115.795 137.938Z" fill="#42E8E0"/>
</g>
</g>
<path opacity="0.4" d="M160.519 85.2986C159.74 85.7443 158.516 85.7443 157.792 85.2986C157.013 84.8529 157.013 84.1286 157.792 83.7386C158.571 83.2929 159.796 83.2929 160.519 83.7386C161.243 84.1286 161.243 84.8529 160.519 85.2986Z" fill="#24126A"/>
<path opacity="0.4" d="M150.056 77.6658L155.399 80.7301C156.067 81.1201 155.956 81.7887 155.232 82.1787C154.453 82.6244 153.34 82.6801 152.672 82.2901L147.329 79.2258C146.661 78.8358 146.772 78.1673 147.495 77.7773C148.275 77.3316 149.444 77.2758 150.056 77.6658Z" fill="#24126A"/>
<path opacity="0.4" d="M119.555 59.1128L124.898 62.1771C125.566 62.5671 125.454 63.2357 124.731 63.6257C123.952 64.0714 122.838 64.1271 122.171 63.7371L116.827 60.6728C116.159 60.2828 116.271 59.6142 116.994 59.2242C117.773 58.8342 118.942 58.7785 119.555 59.1128Z" fill="#24126A"/>
<path d="M160.519 83.3486C159.74 83.7943 158.516 83.7943 157.792 83.3486C157.013 82.9029 157.013 82.1786 157.792 81.7886C158.571 81.3986 159.796 81.3429 160.519 81.7886C161.243 82.2343 161.243 82.9029 160.519 83.3486Z" fill="#42E8E0"/>
<path d="M150.056 75.7713L155.399 78.8356C156.067 79.2256 155.956 79.8942 155.232 80.2842C154.453 80.7299 153.34 80.7856 152.672 80.3956L147.329 77.3313C146.661 76.9413 146.772 76.2727 147.495 75.8827C148.275 75.437 149.444 75.3813 150.056 75.7713Z" fill="#42E8E0"/>
<path d="M119.555 57.2186L124.898 60.2829C125.566 60.6729 125.454 61.3414 124.731 61.7314C123.952 62.1772 122.838 62.2329 122.171 61.8429L116.827 58.7786C116.159 58.3886 116.271 57.72 116.994 57.33C117.773 56.8843 118.942 56.8286 119.555 57.2186Z" fill="#42E8E0"/>
<g opacity="0.3">
<path opacity="0.3" d="M190.464 150.818V148.311L189.796 147.921C189.629 149.091 188.237 149.871 187.069 150.038L179.165 154.663L175.714 155.888L164.749 150.206L165.028 150.038C164.082 149.593 163.581 148.59 163.08 147.698L162.356 148.144L161.911 148.256V150.818C161.911 151.32 162.245 151.821 162.857 152.156L173.877 158.507C175.158 159.231 177.273 159.231 178.553 158.507L189.573 152.156C190.185 151.766 190.519 151.32 190.519 150.818C190.464 150.874 190.464 150.818 190.464 150.818Z" fill="url(#paint3_linear)"/>
<path opacity="0.3" d="M187.013 150.038L179.109 154.663L176.104 155.721V159.12C176.939 159.12 177.774 158.953 178.441 158.563L189.462 152.211C190.074 151.821 190.408 151.376 190.408 150.874V150.818V148.311L189.796 147.977C189.573 149.147 188.182 149.871 187.013 150.038Z" fill="#0F054C"/>
<g opacity="0.3">
<path opacity="0.3" d="M173.822 156.056L162.801 149.704C161.521 148.98 161.521 147.754 162.801 146.974L173.822 140.623C175.102 139.899 177.217 139.899 178.497 140.623L189.518 146.974C190.798 147.699 190.798 148.924 189.518 149.704L178.497 156.056C177.217 156.78 175.102 156.78 173.822 156.056Z" fill="url(#paint4_linear)"/>
</g>
<g opacity="0.3">
<path opacity="0.3" d="M173.822 156.056L162.801 149.704C161.521 148.98 161.521 147.754 162.801 146.974L173.822 140.623C175.102 139.899 177.217 139.899 178.497 140.623L189.518 146.974C190.798 147.699 190.798 148.924 189.518 149.704L178.497 156.056C177.217 156.78 175.102 156.78 173.822 156.056Z" fill="#0F054C"/>
</g>
</g>
<path d="M176.16 147.977C175.38 147.977 174.657 147.81 174.1 147.476L163.08 141.124C162.523 140.79 162.189 140.344 162.189 139.843C162.189 139.341 162.523 138.896 163.08 138.561L174.1 132.21C175.269 131.541 177.106 131.541 178.275 132.21L189.295 138.561C189.852 138.896 190.186 139.341 190.186 139.843C190.186 140.344 189.852 140.79 189.295 141.124L178.275 147.476C177.662 147.81 176.883 147.977 176.16 147.977ZM176.16 131.931C175.436 131.931 174.712 132.098 174.156 132.377L163.135 138.728C162.634 139.007 162.356 139.397 162.356 139.843C162.356 140.233 162.634 140.623 163.135 140.957L174.156 147.308C175.269 147.921 176.994 147.921 178.108 147.308L189.128 140.957C189.629 140.678 189.907 140.288 189.907 139.843C189.907 139.397 189.629 139.063 189.128 138.728L178.108 132.433C177.607 132.098 176.883 131.931 176.16 131.931Z" fill="#42E8E0"/>
<path opacity="0.4" d="M190.464 137.447V133.659L189.796 133.269C189.629 134.439 188.237 135.219 187.069 135.386L179.165 140.01L175.714 141.236L164.749 135.553L165.028 135.386C164.082 134.94 163.581 133.937 163.08 133.046L162.356 133.491L161.911 133.603V137.447C161.911 137.949 162.245 138.45 162.857 138.784L173.877 145.136C175.158 145.86 177.273 145.86 178.553 145.136L189.573 138.784C190.185 138.394 190.519 137.949 190.519 137.447C190.464 137.503 190.464 137.447 190.464 137.447Z" fill="#42E8E0"/>
<path d="M190.464 134.104V131.597L189.796 131.207C189.629 132.377 188.237 133.157 187.069 133.324L179.165 137.949L175.714 139.174L164.749 133.492L165.028 133.324C164.082 132.879 163.581 131.876 163.08 130.984L162.356 131.43L161.911 131.542V134.104C161.911 134.606 162.245 135.107 162.857 135.442L173.877 141.793C175.158 142.517 177.273 142.517 178.553 141.793L189.573 135.442C190.185 135.052 190.519 134.606 190.519 134.104C190.464 134.104 190.464 134.104 190.464 134.104Z" fill="url(#paint5_linear)"/>
<path opacity="0.3" d="M187.013 133.324L179.109 137.949L176.104 139.007V142.406C176.939 142.406 177.774 142.239 178.441 141.849L189.462 135.497C190.074 135.107 190.408 134.662 190.408 134.16V134.104V131.597L189.796 131.263C189.573 132.377 188.182 133.157 187.013 133.324Z" fill="#0F054C"/>
<path d="M173.822 139.286L162.801 132.934C161.521 132.21 161.521 130.984 162.801 130.204L173.822 123.853C175.102 123.128 177.217 123.128 178.497 123.853L189.518 130.204C190.798 130.928 190.798 132.154 189.518 132.934L178.497 139.286C177.217 140.066 175.102 140.066 173.822 139.286Z" fill="url(#paint6_linear)"/>
<path d="M189.518 132.934L178.497 139.286C177.217 140.01 175.102 140.01 173.822 139.286L162.801 132.934C162.245 132.6 161.911 132.154 161.855 131.764C161.8 132.321 162.078 132.878 162.801 133.268L173.822 139.62C175.102 140.344 177.217 140.344 178.497 139.62L189.518 133.268C190.241 132.878 190.575 132.321 190.464 131.764C190.408 132.154 190.074 132.6 189.518 132.934Z" fill="white"/>
<g opacity="0.3">
<path opacity="0.3" d="M141.429 165.694V163.187L140.761 162.797C140.538 163.967 139.202 164.747 138.033 164.914L130.13 169.538L126.679 170.764L115.714 165.081L115.993 164.914C115.046 164.469 114.545 163.466 114.045 162.574L113.321 163.02L112.876 163.131V165.694C112.876 166.196 113.21 166.697 113.822 167.031L124.842 173.383C126.122 174.107 128.238 174.107 129.518 173.383L140.538 167.031C141.15 166.641 141.484 166.196 141.484 165.694C141.429 165.694 141.429 165.694 141.429 165.694Z" fill="url(#paint7_linear)"/>
<path opacity="0.3" d="M138.033 164.914L130.13 169.539L127.124 170.597V173.996C127.959 173.996 128.794 173.829 129.462 173.439L140.482 167.087C141.095 166.697 141.429 166.252 141.429 165.75V165.694V163.187L140.816 162.853H140.761C140.538 163.967 139.147 164.747 138.033 164.914Z" fill="#0F054C"/>
<g opacity="0.3">
<path opacity="0.3" d="M124.787 170.876L113.766 164.524C112.486 163.8 112.486 162.574 113.766 161.794L124.787 155.443C126.067 154.719 128.182 154.719 129.462 155.443L140.482 161.794C141.763 162.519 141.763 163.744 140.482 164.524L129.462 170.876C128.182 171.656 126.067 171.656 124.787 170.876Z" fill="url(#paint8_linear)"/>
</g>
<g opacity="0.3">
<path opacity="0.3" d="M124.787 170.876L113.766 164.524C112.486 163.8 112.486 162.574 113.766 161.794L124.787 155.443C126.067 154.719 128.182 154.719 129.462 155.443L140.482 161.794C141.763 162.519 141.763 163.744 140.482 164.524L129.462 170.876C128.182 171.656 126.067 171.656 124.787 170.876Z" fill="#0F054C"/>
</g>
</g>
<path d="M127.124 161.627C126.345 161.627 125.622 161.46 125.065 161.126L114.045 154.774C113.488 154.44 113.154 153.994 113.154 153.493C113.154 152.992 113.488 152.546 114.045 152.212L125.065 145.86C126.234 145.191 128.071 145.191 129.239 145.86L140.26 152.212C140.816 152.546 141.15 152.992 141.15 153.493C141.15 153.994 140.816 154.44 140.26 154.774L129.239 161.126C128.627 161.46 127.904 161.627 127.124 161.627ZM125.176 160.959C126.289 161.572 128.015 161.572 129.128 160.959L140.149 154.607C140.649 154.329 140.928 153.939 140.928 153.493C140.928 153.103 140.649 152.713 140.149 152.379L129.128 146.083C128.015 145.47 126.289 145.47 125.176 146.083L114.156 152.434C113.655 152.713 113.377 153.103 113.377 153.549C113.377 153.939 113.655 154.329 114.156 154.663L125.176 160.959Z" fill="#42E8E0"/>
<path opacity="0.4" d="M141.429 151.097V147.309L140.761 146.919C140.538 148.089 139.202 148.869 138.033 149.036L130.13 153.66L126.679 154.886L115.714 149.203L115.993 149.036C115.046 148.59 114.545 147.587 114.045 146.696L113.321 147.142L112.876 147.253V151.097C112.876 151.599 113.21 152.1 113.822 152.434L124.842 158.786C126.122 159.51 128.238 159.51 129.518 158.786L140.538 152.434C141.15 152.044 141.484 151.599 141.484 151.097C141.429 151.097 141.429 151.097 141.429 151.097Z" fill="#42E8E0"/>
<path d="M141.429 147.699V145.191L140.761 144.801C140.538 145.971 139.202 146.751 138.033 146.919L130.13 151.543L126.679 152.769L115.714 147.086L115.993 146.919C115.046 146.473 114.545 145.47 114.045 144.579L113.321 145.024L112.876 145.136V147.699C112.876 148.2 113.21 148.701 113.822 149.036L124.842 155.387C126.122 156.111 128.238 156.111 129.518 155.387L140.538 149.036C141.15 148.646 141.484 148.2 141.484 147.699C141.429 147.754 141.429 147.754 141.429 147.699Z" fill="url(#paint9_linear)"/>
<path opacity="0.3" d="M138.033 146.974L130.13 151.599L127.124 152.657V156.056C127.959 156.056 128.794 155.889 129.462 155.499L140.482 149.147C141.095 148.757 141.429 148.311 141.429 147.81V147.754V145.247L140.816 144.857H140.761C140.538 146.027 139.147 146.807 138.033 146.974Z" fill="#0F054C"/>
<path d="M124.787 152.936L113.766 146.584C112.486 145.86 112.486 144.634 113.766 143.854L124.787 137.503C126.067 136.779 128.182 136.779 129.462 137.503L140.482 143.854C141.763 144.579 141.763 145.804 140.482 146.584L129.462 152.936C128.182 153.66 126.067 153.66 124.787 152.936Z" fill="url(#paint10_linear)"/>
<path d="M127.124 151.766C126.456 151.766 125.789 151.599 125.232 151.32L116.605 146.362C116.104 146.083 115.826 145.637 115.826 145.247C115.826 144.802 116.104 144.412 116.605 144.133L125.232 139.174C126.289 138.562 127.959 138.562 128.961 139.174L137.588 144.133C138.089 144.412 138.367 144.857 138.367 145.247C138.367 145.693 138.089 146.083 137.588 146.362L128.961 151.32C128.516 151.654 127.792 151.766 127.124 151.766ZM125.343 151.153C126.345 151.71 127.904 151.71 128.905 151.153L137.533 146.194C137.978 145.916 138.256 145.582 138.256 145.247C138.256 144.857 137.978 144.523 137.533 144.3L128.905 139.342C127.904 138.784 126.345 138.784 125.343 139.342L116.716 144.3C116.271 144.579 115.993 144.913 115.993 145.247C115.993 145.637 116.271 145.972 116.716 146.194L125.343 151.153Z" fill="#5351AF"/>
<path d="M140.482 146.584L129.462 152.936C128.182 153.66 126.067 153.66 124.787 152.936L113.766 146.584C113.21 146.25 112.876 145.804 112.82 145.414C112.764 145.971 113.043 146.529 113.766 146.919L124.787 153.27C126.067 153.994 128.182 153.994 129.462 153.27L140.482 146.919C141.206 146.529 141.54 145.971 141.429 145.414C141.373 145.804 141.039 146.25 140.482 146.584Z" fill="white"/>
<g opacity="0.3">
<path opacity="0.3" d="M47.31 77.1088V74.6016L46.6421 74.2116C46.4751 75.3816 45.0836 76.1616 43.9148 76.3288L36.0113 80.9531L32.5604 82.1788L21.5957 76.4959L21.874 76.3288C20.9278 75.8831 20.4268 74.8802 19.9259 73.9888L19.2023 74.4345L18.7571 74.5459V77.1088C18.7571 77.6102 19.091 78.1116 19.7033 78.4459L30.7237 84.7973C32.0038 85.5216 34.1189 85.5216 35.399 84.7973L46.4194 78.4459C47.0317 78.0559 47.3656 77.6102 47.3656 77.1088C47.31 77.1088 47.31 77.1088 47.31 77.1088Z" fill="url(#paint11_linear)"/>
<path opacity="0.3" d="M43.859 76.3288L35.9555 80.953L32.95 82.0116V85.4102C33.7848 85.4102 34.6197 85.243 35.2876 84.853L46.308 78.5016C46.9203 78.1116 47.2542 77.6659 47.2542 77.1645V77.1088V74.6016L46.642 74.2673H46.5863C46.3637 75.3816 45.0279 76.1616 43.859 76.3288Z" fill="#0F054C"/>
<g opacity="0.3">
<path opacity="0.3" d="M30.668 82.29L19.6476 75.9386C18.3675 75.2143 18.3675 73.9886 19.6476 73.2086L30.668 66.8572C31.9482 66.1329 34.0632 66.1329 35.3433 66.8572L46.3638 73.2086C47.6439 73.9329 47.6439 75.1586 46.3638 75.8829L35.3433 82.2343C34.0075 83.07 31.9482 83.07 30.668 82.29Z" fill="url(#paint12_linear)"/>
</g>
<g opacity="0.3">
<path opacity="0.3" d="M30.668 82.29L19.6476 75.9386C18.3675 75.2143 18.3675 73.9886 19.6476 73.2086L30.668 66.8572C31.9482 66.1329 34.0632 66.1329 35.3433 66.8572L46.3638 73.2086C47.6439 73.9329 47.6439 75.1586 46.3638 75.8829L35.3433 82.2343C34.0075 83.07 31.9482 83.07 30.668 82.29Z" fill="#0F054C"/>
</g>
</g>
<path d="M33.0057 74.657C32.2265 74.657 31.5029 74.4899 30.9463 74.1556L19.9259 67.8041C19.3694 67.4699 19.0354 67.0241 19.0354 66.5227C19.0354 66.0213 19.3694 65.5756 19.9259 65.2413L30.9463 58.8899C32.1152 58.2213 33.9519 58.2213 35.1207 58.8899L46.1412 65.2413C46.6977 65.5756 47.0317 66.0213 47.0317 66.5227C47.0317 67.0241 46.6977 67.4699 46.1412 67.8041L35.0651 74.2113C34.5085 74.5456 33.7293 74.657 33.0057 74.657ZM33.0057 58.667C32.2822 58.667 31.5586 58.8341 31.002 59.1127L19.9816 65.4641C19.4807 65.7427 19.2024 66.1327 19.2024 66.5784C19.2024 66.9684 19.4807 67.3584 19.9816 67.6927L31.002 74.0441C32.1152 74.657 33.8406 74.657 34.9538 74.0441L45.9742 67.6927C46.4751 67.4141 46.7534 67.0241 46.7534 66.5784C46.7534 66.1884 46.4751 65.7984 45.9742 65.4641L34.9538 59.1127C34.3972 58.7784 33.6736 58.667 33.0057 58.667Z" fill="#42E8E0"/>
<path opacity="0.4" d="M47.31 64.127V60.3384L46.6421 59.9484C46.4751 61.1184 45.0836 61.8984 43.9148 62.0656L36.0113 66.6899L32.5604 67.9156L21.5957 62.2327L21.874 62.0656C20.9278 61.6199 20.4268 60.617 19.9259 59.7256L19.2023 60.1713L18.7571 60.2827V64.127C18.7571 64.6284 19.091 65.1299 19.7033 65.4642L30.668 71.8713C31.9482 72.5956 34.0632 72.5956 35.3433 71.8713L46.3638 65.5199C46.976 65.1299 47.31 64.6842 47.31 64.1827V64.127Z" fill="#42E8E0"/>
<path d="M47.31 60.7841V58.2769L46.642 57.8869C46.4751 59.0569 45.0836 59.8369 43.9148 60.0041L35.9556 64.6284L32.5048 65.8541L21.54 60.1712L21.8183 60.0041C20.8721 59.5583 20.3712 58.5555 19.8702 57.6641L19.1467 58.1098L18.7014 58.2212V60.7841C18.7014 61.2855 19.0354 61.7869 19.6476 62.1212L30.668 68.5284C31.9482 69.2526 34.0632 69.2526 35.3433 68.5284L46.3638 62.1769C46.976 61.7869 47.31 61.3412 47.31 60.8398V60.7841Z" fill="url(#paint13_linear)"/>
<path opacity="0.3" d="M43.859 60.0043L35.9555 64.6286L32.95 65.6872V69.0857C33.7848 69.0857 34.6197 68.9186 35.2876 68.5286L46.308 62.1772C46.9203 61.7872 47.2542 61.3414 47.2542 60.84V60.7843V58.2772L46.642 57.9429H46.5863C46.3637 59.1129 45.0279 59.8372 43.859 60.0043Z" fill="#0F054C"/>
<path d="M21.8184 60.0598L32.2266 54.0427C32.6162 53.8198 33.2841 53.8198 33.7294 54.0427L43.9705 59.9484L43.8592 60.0041C45.0281 59.837 46.4195 59.057 46.5865 57.887L35.1208 51.4798L31.7813 50.5884L29.054 52.2041L19.8704 57.6641C20.3713 58.6112 20.8722 59.6141 21.8184 60.0598Z" fill="url(#paint14_linear)"/>
<path opacity="0.3" d="M33.0058 50.9227L31.7256 50.5884L28.9984 52.2041L19.8147 57.6641C20.3156 58.5555 20.8166 59.5584 21.7627 60.0041L32.2266 54.0427C32.4492 53.9312 32.7275 53.8755 32.9501 53.8755V50.9227H33.0058Z" fill="#0F054C"/>
<path d="M30.668 65.9656L19.6476 59.6141C18.3675 58.8899 18.3675 57.6641 19.6476 56.8841L30.668 50.5327C31.9482 49.8084 34.0632 49.8084 35.3433 50.5327L46.3638 56.8841C47.6439 57.6084 47.6439 58.8341 46.3638 59.5584L35.3433 65.9099C34.0075 66.7456 31.9482 66.7456 30.668 65.9656ZM33.7292 51.4799C33.3396 51.257 32.6717 51.257 32.2265 51.4799L21.2061 57.8313C20.8164 58.0541 20.8164 58.4441 21.2061 58.7227L32.2265 65.0741C32.6161 65.297 33.284 65.297 33.7292 65.0741L44.7497 58.7227C45.1393 58.4999 45.1393 58.1099 44.7497 57.8313L33.7292 51.4799Z" fill="url(#paint15_linear)"/>
<path d="M44.7498 57.8313L33.7294 51.4799C33.3398 51.257 32.6719 51.257 32.2266 51.4799L21.2062 57.8313C20.9279 57.9985 20.8166 58.2213 20.9279 58.4442C20.9836 58.3327 21.0392 58.2213 21.2062 58.1656L32.2266 51.8142C32.6162 51.5913 33.2841 51.5913 33.7294 51.8142L44.7498 58.1656C44.8611 58.2213 44.9724 58.3327 45.0281 58.4442C45.0838 58.2213 45.0281 57.9985 44.7498 57.8313Z" fill="white"/>
<path d="M46.3082 59.6141L35.2877 65.9655C34.0076 66.6898 31.8926 66.6898 30.6124 65.9655L19.6477 59.6141C19.0911 59.2798 18.7571 58.8341 18.7015 58.4441C18.6458 59.0012 18.9241 59.5584 19.6477 59.9484L30.6681 66.2998C31.9482 67.0241 34.0633 67.0241 35.3434 66.2998L46.3638 59.9484C47.0874 59.5584 47.4213 59.0012 47.31 58.4441C47.1987 58.8898 46.9204 59.2798 46.3082 59.6141Z" fill="white"/>
<path d="M30.9464 65.7984L19.9259 59.447C18.8128 58.7784 18.8128 57.7756 19.9259 57.107L30.9464 50.7556C32.0595 50.087 33.8963 50.087 35.0094 50.7556L46.0298 57.107C47.143 57.7756 47.143 58.7784 46.0298 59.447L35.0094 65.7984C33.8963 66.467 32.0595 66.467 30.9464 65.7984ZM34.0632 51.3127C33.5066 50.9784 32.5048 50.9784 31.9482 51.3127L20.9278 57.6641C20.3712 57.9984 20.3712 58.5556 20.9278 58.8899L31.9482 65.2413C32.5048 65.5756 33.5066 65.5756 34.0632 65.2413L45.0836 58.8899C45.6402 58.5556 45.6402 57.9984 45.0836 57.6641L34.0632 51.3127Z" fill="url(#paint16_linear)"/>
<path opacity="0.4" d="M33.7292 51.4799C33.3396 51.257 32.6717 51.257 32.2264 51.4799L21.206 57.8313C20.8164 58.0542 20.8164 58.4442 21.206 58.7227L32.2264 65.0742C32.616 65.297 33.2839 65.297 33.7292 65.0742L44.7496 58.7227C45.1392 58.4999 45.1392 58.1099 44.7496 57.8313L33.7292 51.4799Z" fill="#42E8E0"/>
<path opacity="0.5" d="M45.0279 58.2772V18.9429H20.9277V58.2214C20.9277 58.3886 21.0391 58.5557 21.2617 58.6672L32.2821 65.0186C32.6717 65.2414 33.3396 65.2414 33.7849 65.0186L44.8053 58.6672C44.9723 58.6114 45.0279 58.4443 45.0279 58.2772Z" fill="url(#paint17_linear)"/>
<path d="M120.501 89.5885C120.501 83.3485 116.159 75.8271 110.761 72.7071C108.089 71.1471 105.64 70.9799 103.859 72.0385L102.022 73.0971L102.579 73.1528C101.633 74.3228 101.02 76.1056 101.02 78.3342C101.02 84.5742 105.362 92.0956 110.761 95.2156C112.597 96.2742 114.323 96.6642 115.825 96.4971L115.77 96.9985L117.662 95.8842L117.718 95.8285C119.443 94.7699 120.501 92.5971 120.501 89.5885Z" fill="#9FFFF8"/>
<path d="M115.787 96.9345C119.593 94.7344 119.602 87.6153 115.805 81.0335C112.009 74.4517 105.846 70.8996 102.039 73.0997C98.2322 75.2997 98.2238 82.4189 102.02 89.0007C105.816 95.5825 111.98 99.1345 115.787 96.9345Z" fill="#42E8E0"/>
<path d="M97.7923 62.7344C101.41 57.6644 102.245 48.973 99.6291 43.3458C98.3489 40.5044 96.4565 39.0001 94.3971 38.7772L92.2821 38.6101L92.6717 38.9444C91.1689 39.3344 89.7218 40.4487 88.4417 42.2873C84.8238 47.3573 83.989 56.0487 86.6049 61.6758C87.4955 63.6258 88.6643 64.963 89.9445 65.6315L89.6105 66.0215L91.7812 66.1887H91.8925C93.8962 66.3558 96.0112 65.1858 97.7923 62.7344Z" fill="#9FFFF8"/>
<path d="M98.8517 53.0602C99.5778 45.495 96.6193 39.021 92.2438 38.6002C87.8683 38.1795 83.7326 43.9712 83.0065 51.5365C82.2805 59.1018 85.239 65.5757 89.6145 65.9965C93.99 66.4173 98.1256 60.6255 98.8517 53.0602Z" fill="#42E8E0"/>
<g opacity="0.1">
<path opacity="0.1" d="M101.02 103.629C101.02 97.3888 96.6789 89.8673 91.2801 86.7473C88.6084 85.1873 86.1595 85.0202 84.3784 86.0788L82.5417 87.1373L83.0982 87.1931C82.152 88.3631 81.5398 90.1459 81.5398 92.3745C81.5398 98.6145 85.8812 106.136 91.2801 109.256C93.1168 110.314 94.8422 110.704 96.345 110.537L96.2893 111.039L98.1817 109.924L98.2374 109.869C99.9628 108.81 101.02 106.693 101.02 103.629Z" fill="#9FFFF8"/>
<path opacity="0.1" d="M96.3044 110.982C100.111 108.782 100.12 101.663 96.3232 95.0814C92.5269 88.4996 86.3634 84.9475 82.5567 87.1475C78.75 89.3476 78.7416 96.4667 82.5379 103.048C86.3342 109.63 92.4977 113.182 96.3044 110.982Z" fill="#42E8E0"/>
</g>
<path opacity="0.4" d="M90.0558 113.769C83.3211 113.769 76.6421 112.264 71.5215 109.311C66.5679 106.414 63.8406 102.626 63.8406 98.5586C63.8406 94.4915 66.5679 90.6472 71.5215 87.8058C81.7627 81.9 98.4046 81.9 108.59 87.8058C113.544 90.7029 116.271 94.4915 116.271 98.5586C116.271 102.626 113.544 106.47 108.59 109.311L108.534 109.2L108.59 109.311C103.525 112.264 96.7905 113.769 90.0558 113.769ZM90.0558 83.5157C83.3768 83.5157 76.6977 84.9643 71.6328 87.9172C66.7348 90.7586 64.0076 94.4915 64.0076 98.5029C64.0076 102.514 66.7348 106.247 71.6328 109.089C81.8183 114.994 98.3489 114.994 108.534 109.089C113.432 106.247 116.16 102.514 116.16 98.5029C116.16 94.4915 113.432 90.7586 108.534 87.9172C103.414 85.02 96.7348 83.5157 90.0558 83.5157Z" fill="#42E8E0"/>
<path opacity="0.2" d="M90.0558 117.836C81.5401 117.836 73.0243 115.942 66.5122 112.209C60.2228 108.587 56.7163 103.74 56.7163 98.5586C56.7163 93.3772 60.1671 88.5301 66.5122 84.9086C79.4807 77.3872 100.575 77.3872 113.544 84.9086C119.833 88.5301 123.34 93.3772 123.34 98.5586C123.34 103.74 119.889 108.587 113.544 112.209C107.143 115.942 98.5716 117.836 90.0558 117.836ZM90.0558 79.4487C81.5957 79.4487 73.0799 81.2872 66.6235 85.0758C60.3898 88.6972 56.9389 93.4886 56.9389 98.5586C56.9389 103.629 60.3898 108.42 66.6235 112.042C79.5363 119.507 100.575 119.507 113.488 112.042C119.722 108.42 123.173 103.629 123.173 98.5586C123.173 93.4886 119.722 88.6972 113.488 85.0758C107.032 81.3429 98.5716 79.4487 90.0558 79.4487Z" fill="#42E8E0"/>
<path d="M90.0556 110.537C84.768 110.537 79.4805 109.367 75.4174 107.027C71.5213 104.743 69.3506 101.734 69.3506 98.5028C69.3506 95.2714 71.5213 92.2628 75.4174 89.9785C83.4879 85.2985 96.5677 85.2985 104.638 89.9785C108.534 92.2628 110.705 95.2714 110.705 98.5028C110.705 101.734 108.534 104.743 104.638 107.027V106.971L104.694 107.083C100.686 109.367 95.3432 110.537 90.0556 110.537ZM90.0556 86.7471C84.8237 86.7471 79.5361 87.9171 75.5287 90.2014C71.6882 92.4299 69.5732 95.3828 69.5732 98.5585C69.5732 101.734 71.6883 104.687 75.5844 106.916C83.5992 111.54 96.6233 111.54 104.638 106.916C108.479 104.687 110.649 101.734 110.649 98.5585C110.649 95.3828 108.534 92.4299 104.638 90.2014C100.575 87.9171 95.3432 86.7471 90.0556 86.7471Z" fill="#42E8E0"/>
<path d="M101.02 103.629C101.02 97.3888 96.6789 89.8673 91.2801 86.7473C88.6084 85.1873 86.1595 85.0202 84.3784 86.0788L82.5417 87.1373L83.0982 87.1931C82.152 88.3631 81.5398 90.1459 81.5398 92.3745C81.5398 98.6145 85.8812 106.136 91.2801 109.256C93.1168 110.314 94.8422 110.704 96.345 110.537L96.2893 111.039L98.1817 109.924L98.2374 109.869C99.9628 108.81 101.02 106.693 101.02 103.629Z" fill="#9FFFF8"/>
<path d="M96.3044 110.982C100.111 108.782 100.12 101.663 96.3232 95.0814C92.5269 88.4996 86.3634 84.9475 82.5567 87.1475C78.75 89.3476 78.7416 96.4667 82.5379 103.048C86.3342 109.63 92.4977 113.182 96.3044 110.982Z" fill="#42E8E0"/>
<path opacity="0.4" d="M63.9518 130.483L33.3952 112.821C32.5047 112.32 32.5047 110.983 33.3952 110.481L38.0705 107.751C39.629 106.86 41.577 106.86 43.1355 107.751L73.692 125.413C74.5826 125.914 74.5826 127.251 73.692 127.753L69.0167 130.483C67.4026 131.374 65.5102 131.374 63.9518 130.483Z" fill="#24126A"/>
<path d="M48.6458 112.432L43.7478 109.59L44.694 109.033L49.592 111.874L48.6458 112.432Z" fill="#42E8E0"/>
<path d="M62.4491 120.621L60.9463 119.73L61.8925 119.173L63.3953 120.064L62.4491 120.621Z" fill="#42E8E0"/>
<path d="M51.4842 114.103L49.9814 113.267L50.9276 112.71L52.4304 113.546L51.4842 114.103Z" fill="#42E8E0"/>
<path d="M66.4564 126.973C65.5659 126.973 64.6753 126.75 63.8961 126.304L33.3395 108.643C32.8943 108.364 32.616 107.919 32.616 107.361C32.616 106.804 32.8943 106.359 33.3395 106.08L38.0149 103.35C39.629 102.459 41.577 102.459 43.1911 103.35L73.7477 121.011C74.1929 121.29 74.4712 121.736 74.4712 122.293C74.4712 122.85 74.1929 123.296 73.7477 123.574L69.0724 126.304C68.2375 126.75 67.3469 126.973 66.4564 126.973ZM40.5751 102.904C39.7403 102.904 38.8497 103.127 38.1262 103.573L33.4508 106.303C33.0612 106.526 32.8386 106.916 32.8386 107.361C32.8386 107.807 33.0612 108.197 33.4508 108.42L64.0074 126.081C65.5102 126.973 67.4026 126.973 68.961 126.081L73.6364 123.351C74.026 123.129 74.2486 122.739 74.2486 122.293C74.2486 121.847 74.026 121.457 73.6364 121.234L43.0798 103.573C42.2449 103.127 41.41 102.904 40.5751 102.904Z" fill="#42E8E0"/>
<defs>
<linearGradient id="paint0_linear" x1="13.0448" y1="103.699" x2="174.616" y2="103.699" gradientUnits="userSpaceOnUse">
<stop stop-color="#BCBEFF"/>
<stop offset="0.151" stop-color="#A3A7F5"/>
<stop offset="0.3866" stop-color="#8289E8"/>
<stop offset="0.6124" stop-color="#6A73DF"/>
<stop offset="0.8221" stop-color="#5C66D9"/>
<stop offset="1" stop-color="#5761D7"/>
</linearGradient>
<linearGradient id="paint1_linear" x1="116.334" y1="126.58" x2="71.1757" y2="66.7126" gradientUnits="userSpaceOnUse">
<stop stop-color="#42E8E0"/>
<stop offset="0.1055" stop-color="#37B6BF"/>
<stop offset="0.2197" stop-color="#2C87A1"/>
<stop offset="0.338" stop-color="#235F87"/>
<stop offset="0.4587" stop-color="#1C3F72"/>
<stop offset="0.5824" stop-color="#162561"/>
<stop offset="0.7105" stop-color="#121355"/>
<stop offset="0.8458" stop-color="#10084E"/>
<stop offset="1" stop-color="#0F054C"/>
</linearGradient>
<radialGradient id="paint2_radial" cx="0" cy="0" r="1" gradientUnits="userSpaceOnUse" gradientTransform="translate(89.8203 98.1543) scale(126.462 126.589)">
<stop stop-color="#42E8E0"/>
<stop offset="0.1055" stop-color="#37B6BF"/>
<stop offset="0.2197" stop-color="#2C87A1"/>
<stop offset="0.338" stop-color="#235F87"/>
<stop offset="0.4587" stop-color="#1C3F72"/>
<stop offset="0.5824" stop-color="#162561"/>
<stop offset="0.7105" stop-color="#121355"/>
<stop offset="0.8458" stop-color="#10084E"/>
<stop offset="1" stop-color="#0F054C"/>
</radialGradient>
<linearGradient id="paint3_linear" x1="164.688" y1="143.36" x2="187.413" y2="156.467" gradientUnits="userSpaceOnUse">
<stop stop-color="#BCBEFF"/>
<stop offset="0.2271" stop-color="#AAADF8"/>
<stop offset="0.6802" stop-color="#7C83E5"/>
<stop offset="1" stop-color="#5761D7"/>
</linearGradient>
<linearGradient id="paint4_linear" x1="161.84" y1="148.322" x2="190.468" y2="148.322" gradientUnits="userSpaceOnUse">
<stop stop-color="#E9E9FD"/>
<stop offset="0.3601" stop-color="#D3D2F9"/>
<stop offset="0.7062" stop-color="#C5C4F7"/>
<stop offset="1" stop-color="#C0BFF6"/>
</linearGradient>
<linearGradient id="paint5_linear" x1="164.688" y1="126.625" x2="187.414" y2="139.732" gradientUnits="userSpaceOnUse">
<stop stop-color="#BCBEFF"/>
<stop offset="0.2271" stop-color="#AAADF8"/>
<stop offset="0.6802" stop-color="#7C83E5"/>
<stop offset="1" stop-color="#5761D7"/>
</linearGradient>
<linearGradient id="paint6_linear" x1="161.84" y1="131.586" x2="190.468" y2="131.586" gradientUnits="userSpaceOnUse">
<stop stop-color="#E9E9FD"/>
<stop offset="0.3601" stop-color="#D3D2F9"/>
<stop offset="0.7062" stop-color="#C5C4F7"/>
<stop offset="1" stop-color="#C0BFF6"/>
</linearGradient>
<linearGradient id="paint7_linear" x1="115.67" y1="158.209" x2="138.396" y2="171.316" gradientUnits="userSpaceOnUse">
<stop stop-color="#BCBEFF"/>
<stop offset="0.2271" stop-color="#AAADF8"/>
<stop offset="0.6802" stop-color="#7C83E5"/>
<stop offset="1" stop-color="#5761D7"/>
</linearGradient>
<linearGradient id="paint8_linear" x1="112.822" y1="163.171" x2="141.45" y2="163.171" gradientUnits="userSpaceOnUse">
<stop stop-color="#E9E9FD"/>
<stop offset="0.3601" stop-color="#D3D2F9"/>
<stop offset="0.7062" stop-color="#C5C4F7"/>
<stop offset="1" stop-color="#C0BFF6"/>
</linearGradient>
<linearGradient id="paint9_linear" x1="115.67" y1="140.259" x2="138.396" y2="153.366" gradientUnits="userSpaceOnUse">
<stop stop-color="#BCBEFF"/>
<stop offset="0.2271" stop-color="#AAADF8"/>
<stop offset="0.6802" stop-color="#7C83E5"/>
<stop offset="1" stop-color="#5761D7"/>
</linearGradient>
<linearGradient id="paint10_linear" x1="112.822" y1="145.221" x2="141.45" y2="145.221" gradientUnits="userSpaceOnUse">
<stop stop-color="#E9E9FD"/>
<stop offset="0.3601" stop-color="#D3D2F9"/>
<stop offset="0.7062" stop-color="#C5C4F7"/>
<stop offset="1" stop-color="#C0BFF6"/>
</linearGradient>
<linearGradient id="paint11_linear" x1="21.5142" y1="69.6319" x2="44.2397" y2="82.7393" gradientUnits="userSpaceOnUse">
<stop stop-color="#BCBEFF"/>
<stop offset="0.2271" stop-color="#AAADF8"/>
<stop offset="0.6802" stop-color="#7C83E5"/>
<stop offset="1" stop-color="#5761D7"/>
</linearGradient>
<linearGradient id="paint12_linear" x1="18.6661" y1="74.5937" x2="47.2944" y2="74.5937" gradientUnits="userSpaceOnUse">
<stop stop-color="#E9E9FD"/>
<stop offset="0.3601" stop-color="#D3D2F9"/>
<stop offset="0.7062" stop-color="#C5C4F7"/>
<stop offset="1" stop-color="#C0BFF6"/>
</linearGradient>
<linearGradient id="paint13_linear" x1="21.5142" y1="53.3144" x2="44.2397" y2="66.4218" gradientUnits="userSpaceOnUse">
<stop stop-color="#BCBEFF"/>
<stop offset="0.2271" stop-color="#AAADF8"/>
<stop offset="0.6802" stop-color="#7C83E5"/>
<stop offset="1" stop-color="#5761D7"/>
</linearGradient>
<linearGradient id="paint14_linear" x1="22.8775" y1="52.4304" x2="43.1441" y2="64.1197" gradientUnits="userSpaceOnUse">
<stop offset="0.2421" stop-color="#5761D7"/>
<stop offset="0.3923" stop-color="#7A82E5"/>
<stop offset="0.5463" stop-color="#979CF0"/>
<stop offset="0.7" stop-color="#ACAFF8"/>
<stop offset="0.8519" stop-color="#B8BAFD"/>
<stop offset="1" stop-color="#BCBEFF"/>
</linearGradient>
<linearGradient id="paint15_linear" x1="18.6661" y1="58.2765" x2="47.2944" y2="58.2765" gradientUnits="userSpaceOnUse">
<stop stop-color="#E9E9FD"/>
<stop offset="0.3601" stop-color="#D3D2F9"/>
<stop offset="0.7062" stop-color="#C5C4F7"/>
<stop offset="1" stop-color="#C0BFF6"/>
</linearGradient>
<linearGradient id="paint16_linear" x1="19.1056" y1="58.2765" x2="46.8549" y2="58.2765" gradientUnits="userSpaceOnUse">
<stop stop-color="#E9E9FD"/>
<stop offset="0.3601" stop-color="#D3D2F9"/>
<stop offset="0.7062" stop-color="#C5C4F7"/>
<stop offset="1" stop-color="#C0BFF6"/>
</linearGradient>
<linearGradient id="paint17_linear" x1="32.9796" y1="65.2509" x2="32.9796" y2="18.9622" gradientUnits="userSpaceOnUse">
<stop stop-color="#42E8E0"/>
<stop offset="0.1055" stop-color="#37B6BF"/>
<stop offset="0.2197" stop-color="#2C87A1"/>
<stop offset="0.338" stop-color="#235F87"/>
<stop offset="0.4587" stop-color="#1C3F72"/>
<stop offset="0.5824" stop-color="#162561"/>
<stop offset="0.7105" stop-color="#121355"/>
<stop offset="0.8458" stop-color="#10084E"/>
<stop offset="1" stop-color="#0F054C"/>
</linearGradient>
</defs>
</svg>
