<svg width="210" height="197" viewBox="0 0 210 197" fill="none" xmlns="http://www.w3.org/2000/svg">
<path d="M110.336 182.719C108.348 182.719 106.413 182.299 105 181.511L42.5859 145.335C41.1734 144.547 40.4409 143.392 40.4409 142.185C40.4409 140.714 41.5396 139.192 43.4753 138.089L104.111 102.911C107.72 100.81 113.266 100.6 116.405 102.386L178.819 138.562C180.232 139.349 180.964 140.504 180.964 141.712C180.964 143.182 179.865 144.705 177.93 145.807L117.294 180.933C115.306 182.141 112.743 182.719 110.336 182.719ZM111.069 101.44C108.714 101.44 106.203 102.018 104.268 103.173L43.5799 138.247C41.7488 139.297 40.6502 140.714 40.6502 142.132C40.6502 143.287 41.3826 144.337 42.6905 145.072L105.105 181.249C108.191 183.034 113.58 182.824 117.137 180.723L177.773 145.597C179.604 144.547 180.702 143.13 180.702 141.712C180.702 140.557 179.97 139.507 178.662 138.772L116.248 102.596C114.888 101.808 113.004 101.44 111.069 101.44Z" fill="#6EE8FC"/>
<path opacity="0.3" d="M94.7981 136.986C123.287 136.986 146.383 123.611 146.383 107.111C146.383 90.6111 123.287 77.2354 94.7981 77.2354C66.3088 77.2354 43.2136 90.6111 43.2136 107.111C43.2136 123.611 66.3088 136.986 94.7981 136.986Z" fill="url(#paint0_radial)"/>
<path opacity="0.3" d="M150.516 191.382C179.005 191.382 202.1 178.006 202.1 161.506C202.1 145.007 179.005 131.631 150.516 131.631C122.026 131.631 98.9312 145.007 98.9312 161.506C98.9312 178.006 122.026 191.382 150.516 191.382Z" fill="url(#paint1_radial)"/>
<path opacity="0.3" d="M47.7653 157.253C69.6669 157.253 87.4215 146.957 87.4215 134.256C87.4215 121.555 69.6669 111.259 47.7653 111.259C25.8638 111.259 8.10913 121.555 8.10913 134.256C8.10913 146.957 25.8638 157.253 47.7653 157.253Z" fill="url(#paint2_radial)"/>
<path d="M95.2691 112.887C97.8695 112.887 99.9776 110.771 99.9776 108.161C99.9776 105.551 97.8695 103.436 95.2691 103.436C92.6686 103.436 90.5605 105.551 90.5605 108.161C90.5605 110.771 92.6686 112.887 95.2691 112.887Z" fill="url(#paint3_radial)"/>
<path d="M96.5769 108.161C96.5769 108.896 96.0014 109.526 95.2167 109.526C94.4843 109.526 93.8564 108.949 93.8564 108.161C93.8564 107.426 94.4319 106.796 95.2167 106.796C96.0014 106.848 96.5769 107.426 96.5769 108.161Z" fill="#6EE8FC"/>
<path d="M47.7654 140.452C50.3658 140.452 52.4739 138.336 52.4739 135.726C52.4739 133.116 50.3658 131.001 47.7654 131.001C45.165 131.001 43.0569 133.116 43.0569 135.726C43.0569 138.336 45.165 140.452 47.7654 140.452Z" fill="url(#paint4_radial)"/>
<path d="M49.1258 135.726C49.1258 136.461 48.5503 137.091 47.7655 137.091C47.0331 137.091 46.4053 136.514 46.4053 135.726C46.4053 134.991 46.9808 134.361 47.7655 134.361C48.498 134.414 49.1258 134.991 49.1258 135.726Z" fill="#6EE8FC"/>
<path d="M150.83 166.127C153.43 166.127 155.538 164.011 155.538 161.401C155.538 158.791 153.43 156.676 150.83 156.676C148.229 156.676 146.121 158.791 146.121 161.401C146.121 164.011 148.229 166.127 150.83 166.127Z" fill="url(#paint5_radial)"/>
<path d="M150.829 162.766C151.581 162.766 152.19 162.155 152.19 161.401C152.19 160.647 151.581 160.036 150.829 160.036C150.078 160.036 149.469 160.647 149.469 161.401C149.469 162.155 150.078 162.766 150.829 162.766Z" fill="#6EE8FC"/>
<path d="M159.566 160.929C162.167 160.929 164.275 158.813 164.275 156.204C164.275 153.594 162.167 151.478 159.566 151.478C156.966 151.478 154.858 153.594 154.858 156.204C154.858 158.813 156.966 160.929 159.566 160.929Z" fill="url(#paint6_radial)"/>
<path d="M160.927 156.204C160.927 156.939 160.351 157.569 159.567 157.569C158.834 157.569 158.206 156.991 158.206 156.204C158.206 155.468 158.782 154.838 159.567 154.838C160.299 154.891 160.927 155.468 160.927 156.204Z" fill="#6EE8FC"/>
<path d="M168.304 155.888C170.904 155.888 173.012 153.773 173.012 151.163C173.012 148.553 170.904 146.437 168.304 146.437C165.703 146.437 163.595 148.553 163.595 151.163C163.595 153.773 165.703 155.888 168.304 155.888Z" fill="url(#paint7_radial)"/>
<path d="M169.664 151.163C169.664 151.898 169.088 152.528 168.304 152.528C167.571 152.528 166.943 151.95 166.943 151.163C166.943 150.375 167.519 149.798 168.304 149.798C169.036 149.798 169.664 150.375 169.664 151.163Z" fill="#6EE8FC"/>
<path d="M104.738 171.062L60.2691 145.282C56.8685 143.339 57.3394 139.927 61.2108 137.669L103.797 112.991C107.721 110.734 113.58 110.471 116.981 112.466L161.45 138.246C164.851 140.189 164.38 143.602 160.508 145.86L117.922 170.537C114.051 172.795 108.139 173.057 104.738 171.062Z" fill="#0A0E2D"/>
<path d="M169.402 115.407V106.166H145.702L117.661 89.9416C113.894 87.7889 107.407 88.0514 103.064 90.5716L76.0687 106.218H52.3168V115.984C52.2122 117.454 53.0493 118.872 54.828 119.922L104.058 148.485C107.825 150.638 114.312 150.375 118.655 147.855L165.792 120.552C168.356 119.03 169.559 117.139 169.402 115.407Z" fill="#312A91"/>
<path opacity="0.5" d="M169.402 115.407V106.166H145.702L117.661 89.9416C113.894 87.7889 107.407 88.0514 103.064 90.5716L76.0687 106.218H52.3168V115.984C52.2122 117.454 53.0493 118.872 54.828 119.922L104.058 148.485C107.825 150.638 114.312 150.375 118.655 147.855L165.792 120.552C168.356 119.03 169.559 117.139 169.402 115.407Z" fill="url(#paint8_linear)"/>
<path d="M117.661 89.9416C115.882 88.8915 113.423 88.419 110.859 88.4715V149.85C113.58 149.798 116.457 149.115 118.707 147.803L165.844 120.5C168.356 119.03 169.559 117.192 169.402 115.459V106.218H145.702L117.661 89.9416Z" fill="url(#paint9_linear)"/>
<path d="M104.111 138.614L54.8808 110.051C51.1139 107.898 51.5848 104.118 55.9271 101.598L103.065 74.295C107.407 71.7748 113.947 71.5123 117.661 73.665L166.891 102.228C170.658 104.381 170.187 108.161 165.845 110.681L118.707 137.984C114.365 140.557 107.825 140.819 104.111 138.614Z" fill="#312A91"/>
<path opacity="0.5" d="M104.111 138.614L54.8808 110.051C51.1139 107.898 51.5848 104.118 55.9271 101.598L103.065 74.295C107.407 71.7748 113.947 71.5123 117.661 73.665L166.891 102.228C170.658 104.381 170.187 108.161 165.845 110.681L118.707 137.984C114.365 140.557 107.825 140.819 104.111 138.614Z" fill="url(#paint10_linear)"/>
<path d="M105.419 132.313L65.71 109.316C62.6757 107.583 63.0942 104.538 66.5471 102.49L104.529 80.4905C108.034 78.4953 113.266 78.2328 116.3 80.018L156.009 103.015C159.043 104.748 158.625 107.793 155.172 109.841L117.19 131.841C113.685 133.836 108.453 134.098 105.419 132.313Z" fill="#5CFFF3"/>
<path d="M66.5992 105.483L104.581 83.4834C108.087 81.4882 113.318 81.2257 116.353 83.0109L156.061 106.008C156.794 106.428 157.317 106.953 157.683 107.531C158.572 105.903 158.049 104.223 156.061 103.068L116.353 80.0706C113.318 78.3379 108.087 78.5479 104.581 80.5431L66.5992 102.543C63.9834 104.066 63.094 106.166 64.1403 107.846C64.5589 107.006 65.3959 106.166 66.5992 105.483Z" fill="#42E8E0"/>
<path opacity="0.5" d="M105.732 138.615L56.5022 110.104C52.7353 107.952 51.846 104.749 57.5485 101.651L104.686 74.3482C106.831 73.1406 109.447 72.4055 112.063 72.3005C108.976 72.143 105.628 72.8781 103.012 74.3482L55.8744 101.651C51.5321 104.171 51.0612 107.952 54.828 110.104L104.111 138.615C105.994 139.717 108.662 140.19 111.33 140.032C109.238 139.98 107.25 139.507 105.732 138.615Z" fill="url(#paint11_linear)"/>
<path opacity="0.5" d="M165.845 114.829L118.707 142.132C114.365 144.652 107.825 144.915 104.111 142.762L54.8805 114.199C53.1018 113.149 52.2647 111.731 52.3693 110.261V112.256C52.2647 113.726 53.1018 115.144 54.8805 116.194L104.111 144.757C107.878 146.91 114.365 146.647 118.707 144.127L165.845 116.824C168.356 115.354 169.559 113.516 169.402 111.784V109.789C169.559 111.521 168.356 113.359 165.845 114.829Z" fill="url(#paint12_linear)"/>
<path d="M157.317 112.151C157.84 112.466 157.84 112.991 157.317 113.254C156.794 113.569 155.904 113.569 155.381 113.254C154.858 112.939 154.858 112.414 155.381 112.151C155.904 111.889 156.741 111.836 157.317 112.151Z" fill="#FCCC6B"/>
<path d="M160.351 110.366C160.874 110.681 160.874 111.206 160.351 111.469C159.828 111.784 158.939 111.784 158.416 111.469C157.892 111.154 157.892 110.629 158.416 110.366C158.939 110.051 159.776 110.051 160.351 110.366Z" fill="#FCCC6B"/>
<path d="M163.385 108.633C163.909 108.949 163.909 109.474 163.385 109.736C162.862 110.051 161.973 110.051 161.45 109.736C160.927 109.421 160.927 108.896 161.45 108.633C161.973 108.318 162.81 108.318 163.385 108.633Z" fill="#FCCC6B"/>
<path opacity="0.5" d="M106.569 126.748L75.4408 108.686C73.0866 107.321 73.3482 104.906 76.121 103.33L105.942 86.0561C108.662 84.481 112.795 84.3235 115.149 85.6886L146.278 103.75C148.632 105.116 148.371 107.531 145.598 109.106L115.777 126.38C113.109 127.955 108.976 128.113 106.569 126.748Z" fill="#0B0244"/>
<path opacity="0.5" d="M169.402 106.166C169.402 106.008 169.402 105.798 169.402 105.641V79.8606L128.595 80.0181L117.661 73.665C113.894 71.5123 107.407 71.7748 103.064 74.295L92.8624 80.1756L52.3168 80.3331V106.113C52.2122 107.583 53.0493 109.001 54.828 110.051L104.111 138.614C107.877 140.767 114.365 140.504 118.707 137.984L165.844 110.681C168.094 109.421 169.297 107.741 169.402 106.166Z" fill="#5CFFF3"/>
<path d="M169.402 79.8605V70.6196H145.702L117.661 54.3954C113.894 52.2427 107.407 52.5052 103.064 55.0255L76.0687 70.6721H52.3168V80.4381C52.2122 81.9082 53.0493 83.3259 54.828 84.376L104.111 112.886C107.877 115.039 114.365 114.777 118.707 112.256L165.844 84.9535C168.356 83.4834 169.559 81.5932 169.402 79.8605Z" fill="#312A91"/>
<path opacity="0.5" d="M169.402 79.8605V70.6196H145.702L117.661 54.3954C113.894 52.2427 107.407 52.5052 103.064 55.0255L76.0687 70.6721H52.3168V80.4381C52.2122 81.9082 53.0493 83.3259 54.828 84.376L104.111 112.886C107.877 115.039 114.365 114.777 118.707 112.256L165.844 84.9535C168.356 83.4834 169.559 81.5932 169.402 79.8605Z" fill="url(#paint13_linear)"/>
<path d="M117.661 54.3955C115.882 53.3454 113.423 52.8728 110.859 52.9253V114.304C113.58 114.252 116.457 113.569 118.707 112.256L165.844 84.9536C168.356 83.4834 169.559 81.6457 169.402 79.9131V70.6721H145.702L117.661 54.3955Z" fill="url(#paint14_linear)"/>
<path d="M104.111 103.12L54.828 74.5575C51.0612 72.4048 51.5321 68.6244 55.8744 66.1041L103.012 38.8014C107.354 36.2811 113.894 36.0186 117.608 38.1713L166.838 66.7342C170.605 68.8869 170.134 72.6673 165.792 75.1876L118.655 102.49C114.365 105.011 107.825 105.273 104.111 103.12Z" fill="#312A91"/>
<path opacity="0.5" d="M104.111 103.12L54.828 74.5575C51.0612 72.4048 51.5321 68.6244 55.8744 66.1041L103.012 38.8014C107.354 36.2811 113.894 36.0186 117.608 38.1713L166.838 66.7342C170.605 68.8869 170.134 72.6673 165.792 75.1876L118.655 102.49C114.365 105.011 107.825 105.273 104.111 103.12Z" fill="url(#paint15_linear)"/>
<path opacity="0.5" d="M105.732 103.12L56.5022 74.5572C52.7353 72.4045 51.846 69.2017 57.5485 66.1039L104.686 38.8011C106.831 37.5935 109.447 36.8584 112.063 36.7534C108.976 36.5959 105.628 37.3309 103.012 38.8011L55.8744 66.1039C51.5321 68.6241 51.0612 72.4045 54.828 74.5572L104.058 103.12C105.942 104.223 108.61 104.695 111.278 104.538C109.238 104.433 107.25 103.96 105.732 103.12Z" fill="url(#paint16_linear)"/>
<path opacity="0.5" d="M165.845 79.2829L118.707 106.586C114.365 109.106 107.825 109.369 104.111 107.216L54.8805 78.6529C53.1018 77.6028 52.2647 76.1851 52.3693 74.715V76.7102C52.2647 78.1803 53.1018 79.598 54.8805 80.6481L104.111 109.211C107.878 111.364 114.365 111.101 118.707 108.581L165.845 81.2782C168.356 79.808 169.559 77.9703 169.402 76.2376V74.2424C169.559 75.9751 168.356 77.8653 165.845 79.2829Z" fill="url(#paint17_linear)"/>
<path opacity="0.2" d="M106.936 72.7198C107.982 73.2974 107.982 74.295 106.936 74.8725C105.889 75.4501 104.267 75.4501 103.221 74.8725C102.175 74.295 102.175 73.2974 103.221 72.7198C104.267 72.1422 105.942 72.1422 106.936 72.7198Z" fill="#5CFFF3"/>
<path opacity="0.6" d="M112.743 69.3594C113.789 69.937 113.789 70.9346 112.743 71.5121C111.696 72.0897 110.075 72.0897 109.028 71.5121C107.982 70.9346 107.982 69.937 109.028 69.3594C110.022 68.7819 111.696 68.7819 112.743 69.3594Z" fill="#5CFFF3"/>
<path d="M118.498 66.0516C119.544 66.6292 119.544 67.6268 118.498 68.2043C117.451 68.7819 115.829 68.7819 114.783 68.2043C113.737 67.6268 113.737 66.6292 114.783 66.0516C115.829 65.4216 117.451 65.4216 118.498 66.0516Z" fill="#5CFFF3"/>
<path opacity="0.5" d="M110.545 96.0847C108.714 96.0847 106.988 95.7172 105.68 94.9821L69.2674 73.875C67.9595 73.0874 67.2271 72.0373 67.2271 70.8297C67.2271 69.412 68.2734 67.9944 70.0522 66.9443L104.895 46.7297C108.191 44.8395 113.214 44.6295 116.039 46.2572L152.451 67.3643C153.759 68.1519 154.492 69.202 154.492 70.4096C154.492 71.8273 153.445 73.2449 151.667 74.295L116.823 94.5096C115.045 95.5597 112.743 96.0847 110.545 96.0847ZM106.046 94.3521C108.714 95.8747 113.371 95.7172 116.457 93.8795L151.3 73.665C152.87 72.7724 153.759 71.5648 153.759 70.4621C153.759 69.5696 153.184 68.677 152.085 68.0469L115.672 46.9398C113.004 45.4171 108.348 45.5746 105.261 47.4123L70.4184 67.6269C68.8489 68.5194 67.9595 69.7271 67.9595 70.8297C67.9595 71.7223 68.535 72.6149 69.6336 73.2449L106.046 94.3521Z" fill="#0B0244"/>
<path d="M110.336 110.471C108.348 110.471 106.413 110.051 105 109.264L42.5859 73.0875C41.1734 72.3 40.4409 71.1448 40.4409 69.9372C40.4409 68.4671 41.5396 66.9444 43.4753 65.8418L104.111 30.7157C107.72 28.6155 113.266 28.4055 116.405 30.1907L178.819 66.3669C180.232 67.1544 180.964 68.3096 180.964 69.5172C180.964 70.9873 179.865 72.51 177.93 73.6126L117.294 108.739C115.306 109.894 112.743 110.471 110.336 110.471ZM111.069 29.1931C108.714 29.1931 106.203 29.7706 104.268 30.9258L43.5799 66.0518C41.7488 67.1019 40.6502 68.5196 40.6502 69.9372C40.6502 71.0923 41.3826 72.1424 42.6905 72.8775L105.105 109.054C108.191 110.839 113.58 110.629 117.137 108.529L177.773 73.4026C179.604 72.3525 180.702 70.9348 180.702 69.5172C180.702 68.3621 179.97 67.312 178.662 66.5769L116.3 30.4007C114.888 29.6131 113.004 29.1931 111.069 29.1931Z" fill="#6EE8FC"/>
<path opacity="0.3" d="M94.7981 64.7391C123.287 64.7391 146.383 51.3634 146.383 34.8636C146.383 18.3638 123.287 4.98804 94.7981 4.98804C66.3088 4.98804 43.2136 18.3638 43.2136 34.8636C43.2136 51.3634 66.3088 64.7391 94.7981 64.7391Z" fill="url(#paint18_radial)"/>
<path opacity="0.3" d="M150.516 119.135C179.005 119.135 202.1 105.759 202.1 89.2591C202.1 72.7593 179.005 59.3835 150.516 59.3835C122.026 59.3835 98.9312 72.7593 98.9312 89.2591C98.9312 105.759 122.026 119.135 150.516 119.135Z" fill="url(#paint19_radial)"/>
<path opacity="0.3" d="M47.7653 85.0586C69.6669 85.0586 87.4215 74.7624 87.4215 62.0613C87.4215 49.3602 69.6669 39.064 47.7653 39.064C25.8638 39.064 8.10913 49.3602 8.10913 62.0613C8.10913 74.7624 25.8638 85.0586 47.7653 85.0586Z" fill="url(#paint20_radial)"/>
<path d="M95.2691 40.6917C97.8695 40.6917 99.9776 38.576 99.9776 35.9662C99.9776 33.3564 97.8695 31.2407 95.2691 31.2407C92.6686 31.2407 90.5605 33.3564 90.5605 35.9662C90.5605 38.576 92.6686 40.6917 95.2691 40.6917Z" fill="url(#paint21_radial)"/>
<path d="M96.5769 35.9662C96.5769 36.7013 96.0014 37.3314 95.2167 37.3314C94.4843 37.3314 93.8564 36.7538 93.8564 35.9662C93.8564 35.2311 94.4319 34.6011 95.2167 34.6011C96.0014 34.6011 96.5769 35.2311 96.5769 35.9662Z" fill="#6EE8FC"/>
<path d="M47.7654 68.2569C50.3658 68.2569 52.4739 66.1412 52.4739 63.5314C52.4739 60.9216 50.3658 58.8059 47.7654 58.8059C45.165 58.8059 43.0569 60.9216 43.0569 63.5314C43.0569 66.1412 45.165 68.2569 47.7654 68.2569Z" fill="url(#paint22_radial)"/>
<path d="M47.7655 64.8965C48.5168 64.8965 49.1258 64.2853 49.1258 63.5314C49.1258 62.7775 48.5168 62.1663 47.7655 62.1663C47.0143 62.1663 46.4053 62.7775 46.4053 63.5314C46.4053 64.2853 47.0143 64.8965 47.7655 64.8965Z" fill="#6EE8FC"/>
<path d="M150.83 93.8797C153.43 93.8797 155.538 91.764 155.538 89.1542C155.538 86.5444 153.43 84.4287 150.83 84.4287C148.229 84.4287 146.121 86.5444 146.121 89.1542C146.121 91.764 148.229 93.8797 150.83 93.8797Z" fill="url(#paint23_radial)"/>
<path d="M152.19 89.1542C152.19 89.8893 151.614 90.5193 150.829 90.5193C150.045 90.5193 149.469 89.9418 149.469 89.1542C149.469 88.4191 150.045 87.7891 150.829 87.7891C151.614 87.7891 152.19 88.4191 152.19 89.1542Z" fill="#6EE8FC"/>
<path d="M159.566 88.7339C162.167 88.7339 164.275 86.6183 164.275 84.0084C164.275 81.3986 162.167 79.283 159.566 79.283C156.966 79.283 154.858 81.3986 154.858 84.0084C154.858 86.6183 156.966 88.7339 159.566 88.7339Z" fill="url(#paint24_radial)"/>
<path d="M159.567 85.3736C160.318 85.3736 160.927 84.7624 160.927 84.0085C160.927 83.2545 160.318 82.6433 159.567 82.6433C158.815 82.6433 158.206 83.2545 158.206 84.0085C158.206 84.7624 158.815 85.3736 159.567 85.3736Z" fill="#6EE8FC"/>
<path d="M168.304 83.6409C170.904 83.6409 173.012 81.5252 173.012 78.9154C173.012 76.3056 170.904 74.1899 168.304 74.1899C165.703 74.1899 163.595 76.3056 163.595 78.9154C163.595 81.5252 165.703 83.6409 168.304 83.6409Z" fill="url(#paint25_radial)"/>
<path d="M169.664 78.9154C169.664 79.6505 169.088 80.2806 168.304 80.2806C167.571 80.2806 166.943 79.703 166.943 78.9154C166.943 78.1804 167.519 77.5503 168.304 77.5503C169.036 77.5503 169.664 78.1804 169.664 78.9154Z" fill="#6EE8FC"/>
<defs>
<radialGradient id="paint0_radial" cx="0" cy="0" r="1" gradientUnits="userSpaceOnUse" gradientTransform="translate(94.7986 107.108) rotate(30.09) scale(42.1568 36.5749)">
<stop stop-color="#42E8E0"/>
<stop offset="0.0142738" stop-color="#40DED8"/>
<stop offset="0.0908193" stop-color="#34AFB4"/>
<stop offset="0.1719" stop-color="#2A8593"/>
<stop offset="0.2563" stop-color="#226278"/>
<stop offset="0.345" stop-color="#1B4562"/>
<stop offset="0.4394" stop-color="#162F51"/>
<stop offset="0.542" stop-color="#121F44"/>
<stop offset="0.6591" stop-color="#10163D"/>
<stop offset="0.8226" stop-color="#0F133B"/>
</radialGradient>
<radialGradient id="paint1_radial" cx="0" cy="0" r="1" gradientUnits="userSpaceOnUse" gradientTransform="translate(150.517 161.482) rotate(30.09) scale(42.1568 36.5749)">
<stop stop-color="#42E8E0"/>
<stop offset="0.0142738" stop-color="#40DED8"/>
<stop offset="0.0908193" stop-color="#34AFB4"/>
<stop offset="0.1719" stop-color="#2A8593"/>
<stop offset="0.2563" stop-color="#226278"/>
<stop offset="0.345" stop-color="#1B4562"/>
<stop offset="0.4394" stop-color="#162F51"/>
<stop offset="0.542" stop-color="#121F44"/>
<stop offset="0.6591" stop-color="#10163D"/>
<stop offset="0.8226" stop-color="#0F133B"/>
</radialGradient>
<radialGradient id="paint2_radial" cx="0" cy="0" r="1" gradientUnits="userSpaceOnUse" gradientTransform="translate(47.7743 134.258) rotate(30.09) scale(32.4133 28.1216)">
<stop stop-color="#42E8E0"/>
<stop offset="0.0142738" stop-color="#40DED8"/>
<stop offset="0.0908193" stop-color="#34AFB4"/>
<stop offset="0.1719" stop-color="#2A8593"/>
<stop offset="0.2563" stop-color="#226278"/>
<stop offset="0.345" stop-color="#1B4562"/>
<stop offset="0.4394" stop-color="#162F51"/>
<stop offset="0.542" stop-color="#121F44"/>
<stop offset="0.6591" stop-color="#10163D"/>
<stop offset="0.8226" stop-color="#0F133B"/>
</radialGradient>
<radialGradient id="paint3_radial" cx="0" cy="0" r="1" gradientUnits="userSpaceOnUse" gradientTransform="translate(95.2567 108.182) scale(4.70925 4.72621)">
<stop stop-color="#42E8E0"/>
<stop offset="0.0225145" stop-color="#3FD8D7"/>
<stop offset="0.098265" stop-color="#36A9BA"/>
<stop offset="0.1786" stop-color="#2E7FA0"/>
<stop offset="0.2622" stop-color="#275C8B"/>
<stop offset="0.35" stop-color="#223F79"/>
<stop offset="0.4433" stop-color="#1D296C"/>
<stop offset="0.5449" stop-color="#1A1962"/>
<stop offset="0.6608" stop-color="#19105D"/>
<stop offset="0.8226" stop-color="#180D5B"/>
</radialGradient>
<radialGradient id="paint4_radial" cx="0" cy="0" r="1" gradientUnits="userSpaceOnUse" gradientTransform="translate(47.7745 135.75) scale(4.70925 4.72622)">
<stop stop-color="#42E8E0"/>
<stop offset="0.0225145" stop-color="#3FD8D7"/>
<stop offset="0.098265" stop-color="#36A9BA"/>
<stop offset="0.1786" stop-color="#2E7FA0"/>
<stop offset="0.2622" stop-color="#275C8B"/>
<stop offset="0.35" stop-color="#223F79"/>
<stop offset="0.4433" stop-color="#1D296C"/>
<stop offset="0.5449" stop-color="#1A1962"/>
<stop offset="0.6608" stop-color="#19105D"/>
<stop offset="0.8226" stop-color="#180D5B"/>
</radialGradient>
<radialGradient id="paint5_radial" cx="0" cy="0" r="1" gradientUnits="userSpaceOnUse" gradientTransform="translate(150.839 161.389) scale(4.70924 4.72621)">
<stop stop-color="#42E8E0"/>
<stop offset="0.0142738" stop-color="#40DED8"/>
<stop offset="0.0908193" stop-color="#34AFB4"/>
<stop offset="0.1719" stop-color="#2A8593"/>
<stop offset="0.2563" stop-color="#226278"/>
<stop offset="0.345" stop-color="#1B4562"/>
<stop offset="0.4394" stop-color="#162F51"/>
<stop offset="0.542" stop-color="#121F44"/>
<stop offset="0.6591" stop-color="#10163D"/>
<stop offset="0.8226" stop-color="#0F133B"/>
</radialGradient>
<radialGradient id="paint6_radial" cx="0" cy="0" r="1" gradientUnits="userSpaceOnUse" gradientTransform="translate(159.568 156.227) scale(4.70926 4.72621)">
<stop stop-color="#42E8E0"/>
<stop offset="0.0142738" stop-color="#40DED8"/>
<stop offset="0.0908193" stop-color="#34AFB4"/>
<stop offset="0.1719" stop-color="#2A8593"/>
<stop offset="0.2563" stop-color="#226278"/>
<stop offset="0.345" stop-color="#1B4562"/>
<stop offset="0.4394" stop-color="#162F51"/>
<stop offset="0.542" stop-color="#121F44"/>
<stop offset="0.6591" stop-color="#10163D"/>
<stop offset="0.8226" stop-color="#0F133B"/>
</radialGradient>
<radialGradient id="paint7_radial" cx="0" cy="0" r="1" gradientUnits="userSpaceOnUse" gradientTransform="translate(168.298 151.142) scale(4.70927 4.72622)">
<stop stop-color="#42E8E0"/>
<stop offset="0.0142738" stop-color="#40DED8"/>
<stop offset="0.0908193" stop-color="#34AFB4"/>
<stop offset="0.1719" stop-color="#2A8593"/>
<stop offset="0.2563" stop-color="#226278"/>
<stop offset="0.345" stop-color="#1B4562"/>
<stop offset="0.4394" stop-color="#162F51"/>
<stop offset="0.542" stop-color="#121F44"/>
<stop offset="0.6591" stop-color="#10163D"/>
<stop offset="0.8226" stop-color="#0F133B"/>
</radialGradient>
<linearGradient id="paint8_linear" x1="26.4364" y1="119.154" x2="143.537" y2="119.154" gradientUnits="userSpaceOnUse">
<stop stop-color="#42E8E0"/>
<stop offset="0.1022" stop-color="#3CCACE"/>
<stop offset="0.3445" stop-color="#2F87A5"/>
<stop offset="0.564" stop-color="#255385"/>
<stop offset="0.7534" stop-color="#1E2D6E"/>
<stop offset="0.905" stop-color="#1A1660"/>
<stop offset="1" stop-color="#180D5B"/>
</linearGradient>
<linearGradient id="paint9_linear" x1="110.871" y1="119.151" x2="169.422" y2="119.151" gradientUnits="userSpaceOnUse">
<stop stop-color="#2B237C"/>
<stop offset="1" stop-color="#180D5B"/>
</linearGradient>
<linearGradient id="paint10_linear" x1="52.3213" y1="106.171" x2="169.431" y2="106.171" gradientUnits="userSpaceOnUse">
<stop stop-color="#42E8E0"/>
<stop offset="0.1022" stop-color="#3CCACE"/>
<stop offset="0.3445" stop-color="#2F87A5"/>
<stop offset="0.564" stop-color="#255385"/>
<stop offset="0.7534" stop-color="#1E2D6E"/>
<stop offset="0.905" stop-color="#1A1660"/>
<stop offset="1" stop-color="#180D5B"/>
</linearGradient>
<linearGradient id="paint11_linear" x1="52.3209" y1="106.173" x2="112.091" y2="106.173" gradientUnits="userSpaceOnUse">
<stop stop-color="#42E8E0"/>
<stop offset="0.1022" stop-color="#3CCACE"/>
<stop offset="0.3445" stop-color="#2F87A5"/>
<stop offset="0.564" stop-color="#255385"/>
<stop offset="0.7534" stop-color="#1E2D6E"/>
<stop offset="0.905" stop-color="#1A1660"/>
<stop offset="1" stop-color="#180D5B"/>
</linearGradient>
<linearGradient id="paint12_linear" x1="68.249" y1="140.37" x2="166.48" y2="76.3941" gradientUnits="userSpaceOnUse">
<stop stop-color="#42E8E0"/>
<stop offset="0.1022" stop-color="#3CCACE"/>
<stop offset="0.3445" stop-color="#2F87A5"/>
<stop offset="0.564" stop-color="#255385"/>
<stop offset="0.7534" stop-color="#1E2D6E"/>
<stop offset="0.905" stop-color="#1A1660"/>
<stop offset="1" stop-color="#180D5B"/>
</linearGradient>
<linearGradient id="paint13_linear" x1="26.4364" y1="83.6302" x2="143.537" y2="83.6302" gradientUnits="userSpaceOnUse">
<stop stop-color="#42E8E0"/>
<stop offset="0.1022" stop-color="#3CCACE"/>
<stop offset="0.3445" stop-color="#2F87A5"/>
<stop offset="0.564" stop-color="#255385"/>
<stop offset="0.7534" stop-color="#1E2D6E"/>
<stop offset="0.905" stop-color="#1A1660"/>
<stop offset="1" stop-color="#180D5B"/>
</linearGradient>
<linearGradient id="paint14_linear" x1="110.871" y1="83.6276" x2="169.422" y2="83.6276" gradientUnits="userSpaceOnUse">
<stop stop-color="#2B237C"/>
<stop offset="1" stop-color="#180D5B"/>
</linearGradient>
<linearGradient id="paint15_linear" x1="52.3209" y1="70.6473" x2="169.43" y2="70.6473" gradientUnits="userSpaceOnUse">
<stop stop-color="#42E8E0"/>
<stop offset="0.1022" stop-color="#3CCACE"/>
<stop offset="0.3445" stop-color="#2F87A5"/>
<stop offset="0.564" stop-color="#255385"/>
<stop offset="0.7534" stop-color="#1E2D6E"/>
<stop offset="0.905" stop-color="#1A1660"/>
<stop offset="1" stop-color="#180D5B"/>
</linearGradient>
<linearGradient id="paint16_linear" x1="52.3209" y1="70.6488" x2="112.091" y2="70.6488" gradientUnits="userSpaceOnUse">
<stop stop-color="#42E8E0"/>
<stop offset="0.1022" stop-color="#3CCACE"/>
<stop offset="0.3445" stop-color="#2F87A5"/>
<stop offset="0.564" stop-color="#255385"/>
<stop offset="0.7534" stop-color="#1E2D6E"/>
<stop offset="0.905" stop-color="#1A1660"/>
<stop offset="1" stop-color="#180D5B"/>
</linearGradient>
<linearGradient id="paint17_linear" x1="68.2491" y1="104.846" x2="166.48" y2="40.8708" gradientUnits="userSpaceOnUse">
<stop stop-color="#42E8E0"/>
<stop offset="0.1022" stop-color="#3CCACE"/>
<stop offset="0.3445" stop-color="#2F87A5"/>
<stop offset="0.564" stop-color="#255385"/>
<stop offset="0.7534" stop-color="#1E2D6E"/>
<stop offset="0.905" stop-color="#1A1660"/>
<stop offset="1" stop-color="#180D5B"/>
</linearGradient>
<radialGradient id="paint18_radial" cx="0" cy="0" r="1" gradientUnits="userSpaceOnUse" gradientTransform="translate(94.7986 34.8891) rotate(30.09) scale(42.1568 36.5749)">
<stop stop-color="#42E8E0"/>
<stop offset="0.0142738" stop-color="#40DED8"/>
<stop offset="0.0908193" stop-color="#34AFB4"/>
<stop offset="0.1719" stop-color="#2A8593"/>
<stop offset="0.2563" stop-color="#226278"/>
<stop offset="0.345" stop-color="#1B4562"/>
<stop offset="0.4394" stop-color="#162F51"/>
<stop offset="0.542" stop-color="#121F44"/>
<stop offset="0.6591" stop-color="#10163D"/>
<stop offset="0.8226" stop-color="#0F133B"/>
</radialGradient>
<radialGradient id="paint19_radial" cx="0" cy="0" r="1" gradientUnits="userSpaceOnUse" gradientTransform="translate(150.517 89.2637) rotate(30.09) scale(42.1568 36.5749)">
<stop stop-color="#42E8E0"/>
<stop offset="0.0142738" stop-color="#40DED8"/>
<stop offset="0.0908193" stop-color="#34AFB4"/>
<stop offset="0.1719" stop-color="#2A8593"/>
<stop offset="0.2563" stop-color="#226278"/>
<stop offset="0.345" stop-color="#1B4562"/>
<stop offset="0.4394" stop-color="#162F51"/>
<stop offset="0.542" stop-color="#121F44"/>
<stop offset="0.6591" stop-color="#10163D"/>
<stop offset="0.8226" stop-color="#0F133B"/>
</radialGradient>
<radialGradient id="paint20_radial" cx="0" cy="0" r="1" gradientUnits="userSpaceOnUse" gradientTransform="translate(47.7744 62.0388) rotate(30.09) scale(32.4133 28.1215)">
<stop stop-color="#42E8E0"/>
<stop offset="0.0142738" stop-color="#40DED8"/>
<stop offset="0.0908193" stop-color="#34AFB4"/>
<stop offset="0.1719" stop-color="#2A8593"/>
<stop offset="0.2563" stop-color="#226278"/>
<stop offset="0.345" stop-color="#1B4562"/>
<stop offset="0.4394" stop-color="#162F51"/>
<stop offset="0.542" stop-color="#121F44"/>
<stop offset="0.6591" stop-color="#10163D"/>
<stop offset="0.8226" stop-color="#0F133B"/>
</radialGradient>
<radialGradient id="paint21_radial" cx="0" cy="0" r="1" gradientUnits="userSpaceOnUse" gradientTransform="translate(95.2567 35.9634) scale(4.70925 4.72622)">
<stop stop-color="#42E8E0"/>
<stop offset="0.0142738" stop-color="#40DED8"/>
<stop offset="0.0908193" stop-color="#34AFB4"/>
<stop offset="0.1719" stop-color="#2A8593"/>
<stop offset="0.2563" stop-color="#226278"/>
<stop offset="0.345" stop-color="#1B4562"/>
<stop offset="0.4394" stop-color="#162F51"/>
<stop offset="0.542" stop-color="#121F44"/>
<stop offset="0.6591" stop-color="#10163D"/>
<stop offset="0.8226" stop-color="#0F133B"/>
</radialGradient>
<radialGradient id="paint22_radial" cx="0" cy="0" r="1" gradientUnits="userSpaceOnUse" gradientTransform="translate(47.7745 63.5309) scale(4.70925 4.72621)">
<stop stop-color="#42E8E0"/>
<stop offset="0.0142738" stop-color="#40DED8"/>
<stop offset="0.0908193" stop-color="#34AFB4"/>
<stop offset="0.1719" stop-color="#2A8593"/>
<stop offset="0.2563" stop-color="#226278"/>
<stop offset="0.345" stop-color="#1B4562"/>
<stop offset="0.4394" stop-color="#162F51"/>
<stop offset="0.542" stop-color="#121F44"/>
<stop offset="0.6591" stop-color="#10163D"/>
<stop offset="0.8226" stop-color="#0F133B"/>
</radialGradient>
<radialGradient id="paint23_radial" cx="0" cy="0" r="1" gradientUnits="userSpaceOnUse" gradientTransform="translate(150.839 89.1708) scale(4.70924 4.72621)">
<stop stop-color="#42E8E0"/>
<stop offset="0.0142738" stop-color="#40DED8"/>
<stop offset="0.0908193" stop-color="#34AFB4"/>
<stop offset="0.1719" stop-color="#2A8593"/>
<stop offset="0.2563" stop-color="#226278"/>
<stop offset="0.345" stop-color="#1B4562"/>
<stop offset="0.4394" stop-color="#162F51"/>
<stop offset="0.542" stop-color="#121F44"/>
<stop offset="0.6591" stop-color="#10163D"/>
<stop offset="0.8226" stop-color="#0F133B"/>
</radialGradient>
<radialGradient id="paint24_radial" cx="0" cy="0" r="1" gradientUnits="userSpaceOnUse" gradientTransform="translate(159.568 84.0077) scale(4.70926 4.72622)">
<stop stop-color="#42E8E0"/>
<stop offset="0.0142738" stop-color="#40DED8"/>
<stop offset="0.0908193" stop-color="#34AFB4"/>
<stop offset="0.1719" stop-color="#2A8593"/>
<stop offset="0.2563" stop-color="#226278"/>
<stop offset="0.345" stop-color="#1B4562"/>
<stop offset="0.4394" stop-color="#162F51"/>
<stop offset="0.542" stop-color="#121F44"/>
<stop offset="0.6591" stop-color="#10163D"/>
<stop offset="0.8226" stop-color="#0F133B"/>
</radialGradient>
<radialGradient id="paint25_radial" cx="0" cy="0" r="1" gradientUnits="userSpaceOnUse" gradientTransform="translate(168.298 78.923) scale(4.70927 4.72622)">
<stop stop-color="#42E8E0"/>
<stop offset="0.0142738" stop-color="#40DED8"/>
<stop offset="0.0908193" stop-color="#34AFB4"/>
<stop offset="0.1719" stop-color="#2A8593"/>
<stop offset="0.2563" stop-color="#226278"/>
<stop offset="0.345" stop-color="#1B4562"/>
<stop offset="0.4394" stop-color="#162F51"/>
<stop offset="0.542" stop-color="#121F44"/>
<stop offset="0.6591" stop-color="#10163D"/>
<stop offset="0.8226" stop-color="#0F133B"/>
</radialGradient>
</defs>
</svg>
