<?xml version="1.0" encoding="UTF-8"?>
<!DOCTYPE svg PUBLIC "-//W3C//DTD SVG 1.1//EN" "http://www.w3.org/Graphics/SVG/1.1/DTD/svg11.dtd">
<!-- Creator: CorelDRAW 2020 (64-Bit) -->
<svg xmlns="http://www.w3.org/2000/svg" xml:space="preserve" width="600px" height="600px" version="1.1" style="shape-rendering:geometricPrecision; text-rendering:geometricPrecision; image-rendering:optimizeQuality; fill-rule:evenodd; clip-rule:evenodd"
viewBox="0 0 600 600"
 xmlns:xlink="http://www.w3.org/1999/xlink"
 xmlns:xodm="http://www.corel.com/coreldraw/odm/2003">
 <defs>
  <style type="text/css">
   <![CDATA[
    .fil1 {fill:red}
    .fil0 {fill:#FF6B09}
   ]]>
  </style>
 </defs>
 <g id="Слой_x0020_1">
  <metadata id="CorelCorpID_0Corel-Layer"/>
  <g id="_2161635482160">
   <path class="fil0" d="M46.82 387.1l29.92 -11.06c3.45,-1.27 7.32,0.51 8.6,3.96l0 0c1.27,3.45 -0.51,7.32 -3.96,8.59l-29.93 11.06c-3.45,1.27 -7.32,-0.51 -8.59,-3.96l0 0c-1.28,-3.45 0.5,-7.32 3.96,-8.59z"/>
   <path class="fil0" d="M312.35 34.66l-2.37 31.81c-0.27,3.67 2.5,6.9 6.17,7.17l0 0c3.67,0.28 6.9,-2.5 7.17,-6.17l2.37 -31.82c0.28,-3.66 -2.5,-6.89 -6.17,-7.16l0 0c-3.67,-0.28 -6.89,2.5 -7.17,6.17z"/>
   <path class="fil0" d="M40.2 237.08l31.16 6.87c3.59,0.8 5.88,4.39 5.09,7.98l0 0c-0.8,3.59 -4.38,5.88 -7.98,5.09l-31.15 -6.88c-3.59,-0.79 -5.88,-4.38 -5.09,-7.97l0 0c0.79,-3.6 4.38,-5.89 7.97,-5.09z"/>
   <path class="fil0" d="M166.33 69.68l15.2 28.05c1.75,3.23 5.83,4.44 9.07,2.69l0 0c3.23,-1.75 4.44,-5.83 2.69,-9.07l-15.2 -28.05c-1.75,-3.23 -5.83,-4.44 -9.07,-2.69l0 0c-3.24,1.75 -4.45,5.83 -2.69,9.07z"/>
   <path class="fil1" d="M99.64 91.19l35.82 35.95c4.13,4.15 5.37,9.65 2.75,12.25l0 0c-2.61,2.59 -8.13,1.31 -12.26,-2.84l-35.81 -35.95c-4.13,-4.14 -5.37,-9.65 -2.76,-12.24l0 0c2.62,-2.59 8.13,-1.32 12.26,2.83z"/>
   <path class="fil0" d="M62.41 178.09l27.96 15.38c3.22,1.77 7.31,0.58 9.08,-2.64l0 0c1.78,-3.23 0.59,-7.31 -2.63,-9.09l-27.96 -15.37c-3.22,-1.78 -7.31,-0.59 -9.08,2.63l0 0c-1.78,3.23 -0.59,7.32 2.63,9.09z"/>
   <path class="fil0" d="M249.47 38.96l6.69 31.2c0.77,3.59 -1.55,7.17 -5.14,7.94l0 0c-3.6,0.77 -7.18,-1.54 -7.95,-5.14l-6.68 -31.2c-0.77,-3.59 1.54,-7.17 5.14,-7.94l0 0c3.6,-0.77 7.17,1.54 7.94,5.14z"/>
   <path class="fil0" d="M33.61 325.47l31.83 -2.18c3.67,-0.25 6.47,-3.46 6.22,-7.13l0 0c-0.26,-3.67 -3.46,-6.47 -7.14,-6.22l-31.83 2.18c-3.67,0.25 -6.46,3.46 -6.21,7.13l0 0c0.25,3.67 3.46,6.47 7.13,6.22z"/>
   <path class="fil0" d="M398.91 53.77l-11.25 29.86c-1.29,3.44 -5.17,5.19 -8.61,3.9l0 0c-3.45,-1.3 -5.2,-5.18 -3.91,-8.62l11.25 -29.86c1.29,-3.44 5.17,-5.2 8.61,-3.9l0 0c3.45,1.3 5.2,5.17 3.91,8.62z"/>
   <path class="fil0" d="M89.05 465.03l25.6 -19.04c2.96,-2.2 3.57,-6.41 1.38,-9.36l0 0c-2.2,-2.96 -6.41,-3.58 -9.36,-1.38l-25.6 19.04c-2.95,2.2 -3.57,6.41 -1.38,9.36l0 0c2.2,2.95 6.41,3.57 9.36,1.38z"/>
   <path class="fil0" d="M516.62 147.02l-25.61 19.04c-2.95,2.19 -7.16,1.57 -9.35,-1.38l0 0c-2.2,-2.95 -1.58,-7.16 1.37,-9.36l25.6 -19.04c2.95,-2.2 7.16,-1.58 9.36,1.38l0 0c2.2,2.95 1.58,7.16 -1.37,9.36z"/>
   <path class="fil0" d="M211.15 552.45l11.24 -29.86c1.3,-3.44 -0.46,-7.32 -3.9,-8.61l0 0c-3.45,-1.3 -7.32,0.46 -8.62,3.9l-11.24 29.86c-1.3,3.44 0.46,7.32 3.9,8.61l0 0c3.45,1.3 7.32,-0.45 8.62,-3.9z"/>
   <path class="fil0" d="M565.22 289.1l-31.83 2.18c-3.67,0.25 -6.87,-2.55 -7.13,-6.22l0 0c-0.25,-3.67 2.55,-6.88 6.22,-7.13l31.83 -2.18c3.67,-0.25 6.88,2.55 7.13,6.22l0 0c0.25,3.67 -2.54,6.88 -6.22,7.13z"/>
   <path class="fil0" d="M361.13 559.99l-6.69 -31.2c-0.77,-3.59 -4.34,-5.91 -7.94,-5.14l0 0c-3.6,0.78 -5.91,4.35 -5.14,7.95l6.68 31.19c0.78,3.6 4.35,5.91 7.95,5.14l0 0c3.6,-0.77 5.91,-4.34 5.14,-7.94z"/>
   <path class="fil0" d="M529.3 434.91l-27.95 -15.38c-3.23,-1.77 -4.41,-5.86 -2.64,-9.09l0 0c1.77,-3.22 5.86,-4.41 9.08,-2.63l27.96 15.37c3.22,1.78 4.41,5.86 2.64,9.09l0 0c-1.78,3.22 -5.86,4.41 -9.09,2.64z"/>
   <path class="fil1" d="M507.67 501.54l-35.96 -36.09c-4.14,-4.16 -9.67,-5.45 -12.29,-2.86l0 0c-2.61,2.59 -1.36,8.11 2.79,12.27l35.95 36.09c4.15,4.17 9.67,5.45 12.29,2.86l0 0c2.61,-2.59 1.36,-8.11 -2.78,-12.27z"/>
   <path class="fil0" d="M420.25 538.15l-15.2 -28.05c-1.76,-3.24 -0.54,-7.32 2.69,-9.07l0 0c3.24,-1.76 7.32,-0.54 9.07,2.69l15.2 28.05c1.76,3.24 0.55,7.31 -2.69,9.07l0 0c-3.24,1.75 -7.32,0.54 -9.07,-2.69z"/>
   <path class="fil0" d="M560.53 351.95l-31.15 -6.88c-3.59,-0.79 -7.18,1.5 -7.98,5.09l0 0c-0.79,3.6 1.5,7.19 5.1,7.98l31.15 6.88c3.59,0.79 7.18,-1.5 7.97,-5.09l0 0c0.8,-3.6 -1.49,-7.18 -5.09,-7.98z"/>
   <path class="fil0" d="M272.7 566.04l2.37 -31.82c0.27,-3.67 3.5,-6.44 7.17,-6.17l0 0c3.67,0.27 6.45,3.5 6.17,7.17l-2.37 31.82c-0.28,3.67 -3.5,6.44 -7.17,6.17l0 0c-3.67,-0.27 -6.45,-3.5 -6.17,-7.17z"/>
   <path class="fil0" d="M546.65 202.43l-29.93 11.05c-3.45,1.28 -5.23,5.15 -3.95,8.6l0 0c1.27,3.45 5.14,5.23 8.59,3.95l29.93 -11.05c3.45,-1.28 5.23,-5.14 3.95,-8.6l0 0c-1.27,-3.45 -5.14,-5.23 -8.59,-3.95z"/>
   <path class="fil0" d="M133.48 509.73l19.2 -25.48c2.22,-2.94 6.43,-3.53 9.37,-1.32l0 0c2.94,2.22 3.53,6.43 1.32,9.37l-19.2 25.48c-2.21,2.94 -6.43,3.53 -9.37,1.32l0 0c-2.94,-2.21 -3.53,-6.43 -1.32,-9.37z"/>
   <path class="fil0" d="M454.13 84.15l-19.19 25.48c-2.22,2.93 -1.63,7.15 1.31,9.36l0 0c2.94,2.22 7.16,1.63 9.37,-1.31l19.2 -25.48c2.21,-2.94 1.62,-7.16 -1.32,-9.37l0 0c-2.94,-2.22 -7.15,-1.62 -9.37,1.32z"/>
   <path class="fil0" d="M350.07 38.21l-6.78 31.18c-0.78,3.6 1.52,7.17 5.12,7.96l0 0c3.59,0.78 7.17,-1.52 7.95,-5.12l6.78 -31.17c0.79,-3.6 -1.51,-7.18 -5.11,-7.96l0 0c-3.6,-0.78 -7.18,1.52 -7.96,5.11z"/>
   <path class="fil0" d="M38.04 350.24l31.18 -6.78c3.59,-0.78 7.17,1.52 7.96,5.12l0 0c0.78,3.59 -1.52,7.17 -5.12,7.96l-31.17 6.78c-3.6,0.78 -7.18,-1.52 -7.96,-5.12l0 0c-0.79,-3.6 1.52,-7.18 5.11,-7.96z"/>
   <path class="fil0" d="M200.59 52.56l11.15 29.89c1.29,3.45 5.16,5.22 8.61,3.93l0 0c3.44,-1.29 5.21,-5.16 3.93,-8.6l-11.15 -29.9c-1.29,-3.44 -5.16,-5.21 -8.61,-3.93l0 0c-3.45,1.29 -5.22,5.16 -3.93,8.61z"/>
   <path class="fil0" d="M52.39 200.76l29.89 11.15c3.45,1.29 5.21,5.16 3.93,8.61l0 0c-1.29,3.45 -5.16,5.21 -8.61,3.93l-29.89 -11.15c-3.45,-1.29 -5.22,-5.16 -3.93,-8.61l0 0c1.29,-3.45 5.16,-5.21 8.61,-3.93z"/>
   <path class="fil0" d="M82.59 145.44l25.54 19.12c2.95,2.21 7.16,1.6 9.37,-1.35l0 0c2.2,-2.94 1.6,-7.15 -1.35,-9.36l-25.54 -19.12c-2.94,-2.2 -7.16,-1.6 -9.36,1.35l0 0c-2.21,2.94 -1.6,7.16 1.34,9.36z"/>
   <path class="fil0" d="M145.27 82.77l19.12 25.54c2.2,2.94 1.6,7.15 -1.35,9.36l0 0c-2.94,2.21 -7.16,1.6 -9.36,-1.35l-19.12 -25.54c-2.21,-2.94 -1.6,-7.15 1.35,-9.36l0 0c2.94,-2.21 7.15,-1.6 9.36,1.35z"/>
   <path class="fil0" d="M33.55 287.38l31.82 2.27c3.67,0.26 6.89,-2.52 7.15,-6.19l0 0c0.26,-3.68 -2.53,-6.89 -6.2,-7.16l-31.82 -2.27c-3.67,-0.26 -6.89,2.52 -7.15,6.19l0 0c-0.26,3.68 2.52,6.89 6.2,7.16z"/>
   <path class="fil0" d="M287.2 33.72l2.28 31.82c0.26,3.67 -2.53,6.89 -6.2,7.15l0 0c-3.67,0.26 -6.88,-2.53 -7.15,-6.2l-2.27 -31.82c-0.27,-3.67 2.52,-6.89 6.19,-7.15l0 0c3.67,-0.26 6.89,2.53 7.15,6.2z"/>
   <path class="fil0" d="M69.02 433.29l28 -15.29c3.23,-1.76 4.43,-5.84 2.66,-9.08l0 0c-1.76,-3.23 -5.84,-4.42 -9.07,-2.66l-28 15.29c-3.23,1.76 -4.43,5.85 -2.67,9.08l0 0c1.76,3.23 5.85,4.43 9.08,2.66z"/>
   <path class="fil0" d="M433.12 69.19l-15.29 28c-1.76,3.23 -5.85,4.43 -9.08,2.67l0 0c-3.23,-1.77 -4.43,-5.85 -2.66,-9.08l15.29 -28c1.76,-3.23 5.84,-4.43 9.08,-2.67l0 0c3.23,1.77 4.42,5.85 2.66,9.08z"/>
   <path class="fil0" d="M177.75 536.87l15.29 -28c1.76,-3.23 0.56,-7.32 -2.67,-9.08l0 0c-3.23,-1.76 -7.31,-0.56 -9.07,2.67l-15.29 28c-1.77,3.23 -0.57,7.31 2.66,9.07l0 0c3.23,1.77 7.31,0.57 9.08,-2.66z"/>
   <path class="fil0" d="M536.7 177.92l-28 15.29c-3.23,1.76 -7.32,0.57 -9.08,-2.67l0 0c-1.77,-3.23 -0.57,-7.31 2.66,-9.07l28 -15.29c3.23,-1.77 7.32,-0.57 9.08,2.66l0 0c1.77,3.23 0.57,7.32 -2.66,9.08z"/>
   <path class="fil0" d="M325.22 565.22l-2.28 -31.82c-0.26,-3.67 -3.48,-6.46 -7.15,-6.2l0 0c-3.67,0.26 -6.46,3.48 -6.19,7.15l2.27 31.82c0.26,3.67 3.48,6.46 7.15,6.2l0 0c3.67,-0.26 6.46,-3.48 6.2,-7.15z"/>
   <path class="fil0" d="M565.05 325.39l-31.83 -2.28c-3.67,-0.26 -6.45,-3.48 -6.19,-7.15l0 0c0.26,-3.67 3.48,-6.46 7.15,-6.19l31.82 2.27c3.67,0.26 6.46,3.48 6.2,7.15l0 0c-0.27,3.67 -3.48,6.46 -7.15,6.2z"/>
   <path class="fil0" d="M464.6 509.34l-19.12 -25.54c-2.2,-2.94 -6.42,-3.55 -9.36,-1.34l0 0c-2.95,2.2 -3.55,6.41 -1.35,9.36l19.12 25.54c2.21,2.95 6.42,3.55 9.36,1.34l0 0c2.95,-2.2 3.56,-6.41 1.35,-9.36z"/>
   <path class="fil0" d="M509.17 464.77l-25.54 -19.12c-2.95,-2.2 -3.55,-6.41 -1.35,-9.36l0 0c2.21,-2.95 6.42,-3.55 9.37,-1.35l25.54 19.12c2.94,2.21 3.55,6.42 1.34,9.37l0 0c-2.2,2.94 -6.42,3.55 -9.36,1.34z"/>
   <path class="fil0" d="M551.65 386.98l-29.89 -11.15c-3.45,-1.29 -7.32,0.48 -8.61,3.93l0 0c-1.29,3.45 0.48,7.32 3.93,8.6l29.89 11.15c3.45,1.29 7.32,-0.48 8.61,-3.93l0 0c1.28,-3.45 -0.48,-7.32 -3.93,-8.6z"/>
   <path class="fil0" d="M386.81 551.82l-11.15 -29.89c-1.29,-3.45 0.48,-7.32 3.93,-8.61l0 0c3.45,-1.28 7.32,0.49 8.6,3.93l11.15 29.9c1.29,3.44 -0.48,7.31 -3.93,8.6l0 0c-3.45,1.29 -7.32,-0.48 -8.6,-3.93z"/>
   <path class="fil0" d="M558.72 236.98l-31.17 6.78c-3.6,0.78 -5.9,4.36 -5.12,7.96l0 0c0.79,3.59 4.37,5.89 7.96,5.11l31.18 -6.78c3.59,-0.78 5.9,-4.36 5.11,-7.96l0 0c-0.78,-3.6 -4.36,-5.9 -7.96,-5.11z"/>
   <path class="fil0" d="M236.8 558.9l6.79 -31.18c0.78,-3.6 4.36,-5.9 7.95,-5.11l0 0c3.6,0.78 5.9,4.36 5.12,7.96l-6.78 31.17c-0.78,3.59 -4.36,5.9 -7.96,5.11l0 0c-3.6,-0.78 -5.9,-4.36 -5.12,-7.95z"/>
   <path class="fil1" d="M499.85 90.69l-36.01 36.01c-4.15,4.15 -5.42,9.68 -2.82,12.28l0 0c2.6,2.6 8.13,1.33 12.28,-2.82l36.01 -36.01c4.16,-4.15 5.43,-9.68 2.82,-12.28l0 0c-2.6,-2.61 -8.12,-1.34 -12.28,2.82z"/>
   <path class="fil1" d="M90.66 499.88l35.9 -35.89c4.13,-4.14 9.65,-5.4 12.25,-2.8l0 0c2.6,2.6 1.34,8.12 -2.79,12.26l-35.9 35.89c-4.14,4.14 -9.65,5.4 -12.25,2.79l0 0c-2.6,-2.6 -1.35,-8.11 2.79,-12.25z"/>
  </g>
 </g>
</svg>
