<?xml version="1.0" encoding="UTF-8"?>
<!DOCTYPE svg PUBLIC "-//W3C//DTD SVG 1.1//EN" "http://www.w3.org/Graphics/SVG/1.1/DTD/svg11.dtd">
<!-- Creator: CorelDRAW 2019 (64-Bit) -->
<svg xmlns="http://www.w3.org/2000/svg" xml:space="preserve" width="300px" height="300px" version="1.1" shape-rendering="geometricPrecision" viewBox="0 0 300 300"
 xmlns:xlink="http://www.w3.org/1999/xlink">
 <g id="Layer_x0020_1">
  <g id="_2383937577296">
   <rect fill="#FF6B09" transform="matrix(-0.0649661 0.0417512 0.0323702 0.050369 44.5228 213.293)" width="284" height="148" rx="50" ry="50"/>
   <rect fill="#FF6B09" transform="matrix(0.0649661 0.0417512 -0.0323702 0.050369 256.794 213.293)" width="284" height="148" rx="50" ry="50"/>
   <rect fill="#FF6B09" transform="matrix(-0.0320806 0.0702467 0.0544631 0.0248725 95.2879 260.715)" width="284" height="148" rx="50" ry="50"/>
   <rect fill="#FF6B09" transform="matrix(0.0320806 0.0702467 -0.0544631 0.0248725 206.029 260.715)" width="284" height="148" rx="50" ry="50"/>
   <rect fill="#FF6B09" transform="matrix(0.0109903 0.0764394 0.0592643 -0.00852093 163.633 273.164)" width="284" height="148" rx="50" ry="50"/>
   <rect fill="#FF6B09" transform="matrix(-0.0109903 0.0764394 -0.0592643 -0.00852093 137.684 273.164)" width="284" height="148" rx="50" ry="50"/>
   <rect fill="#FF6B09" transform="matrix(0.0505719 0.0583631 0.0452496 -0.039209 227.858 246.686)" width="284" height="148" rx="50" ry="50"/>
   <rect fill="#FF6B09" transform="matrix(-0.0505719 0.0583631 -0.0452496 -0.039209 73.4585 246.686)" width="284" height="148" rx="50" ry="50"/>
   <rect fill="#FF6B09" transform="matrix(0.0740972 0.0217569 0.0168684 -0.0574485 267.574 189.689)" width="284" height="148" rx="50" ry="50"/>
   <rect fill="#FF6B09" transform="matrix(-0.0740972 0.0217569 -0.0168684 -0.0574485 33.7433 189.689)" width="284" height="148" rx="50" ry="50"/>
   <rect fill="#FF6B09" transform="matrix(0.0740972 -0.0217569 -0.0168684 -0.0574485 270.169 120.268)" width="284" height="148" rx="50" ry="50"/>
   <rect fill="#FF6B09" transform="matrix(-0.0740972 -0.0217569 0.0168684 -0.0574485 31.1479 120.268)" width="284" height="148" rx="50" ry="50"/>
   <rect fill="#FF6B09" transform="matrix(0.0505719 -0.0583631 -0.0452496 -0.039209 234.821 60.4645)" width="284" height="148" rx="50" ry="50"/>
   <rect fill="#FF6B09" transform="matrix(-0.0505719 -0.0583631 0.0452496 -0.039209 66.4962 60.4645)" width="284" height="148" rx="50" ry="50"/>
   <rect fill="#FF6B09" transform="matrix(0.0109903 -0.0764394 -0.0592643 -0.00852093 172.751 29.2651)" width="284" height="148" rx="50" ry="50"/>
   <rect fill="#FF6B09" transform="matrix(-0.0109903 -0.0764394 0.0592643 -0.00852093 128.565 29.2651)" width="284" height="148" rx="50" ry="50"/>
   <rect fill="#FF6B09" transform="matrix(-0.0320806 -0.0702467 -0.0544631 0.0248725 103.668 36.5757)" width="284" height="148" rx="50" ry="50"/>
   <rect fill="#FF6B09" transform="matrix(0.0320806 -0.0702467 0.0544631 0.0248725 197.649 36.5757)" width="284" height="148" rx="50" ry="50"/>
   <rect fill="#FF6B09" transform="matrix(-0.0649661 -0.0417512 -0.0323702 0.050369 49.5034 80.0752)" width="284" height="148" rx="50" ry="50"/>
   <rect fill="#FF6B09" transform="matrix(0.0649661 -0.0417512 0.0323702 0.050369 251.814 80.0752)" width="284" height="148" rx="50" ry="50"/>
   <rect fill="#FF6B09" x="6" y="146" width="22" height="9" rx="4" ry="3"/>
   <rect fill="#FF6B09" x="274" y="146" width="22" height="9" rx="4" ry="3"/>
  </g>
 </g>
</svg>
